<svg height="512" viewBox="0 0 24 24" width="512" xmlns="http://www.w3.org/2000/svg"><g id="direction/arrow-snake" fill="none" fill-rule="evenodd"><path id="Fill-182" d="m21.85275 4.1436-2.999-2.999c-.195-.195-.512-.195-.707 0s-.195.512 0 .707l2.146 2.146h-14.293c-2.206 0-4 1.794-4 4 0 2.207 1.794 4 4 4h11c1.655 0 3 1.346 3 3 0 1.655-1.345 3-3 3h-14.293l2.147-2.146c.195-.195.195-.512 0-.707s-.512-.195-.707 0l-2.998 2.999c-.196.186-.196.522-.001.709l2.999 2.999c.195.195.512.196.707 0 .195-.195.195-.512 0-.707l-2.147-2.147h14.293c2.206 0 4-1.793 4-4 0-2.206-1.794-4-4-4h-11c-1.655 0-3-1.345-3-3 0-1.654 1.345-3 3-3h14.293l-2.146 2.147c-.195.195-.195.512 0 .707s.512.195.707 0l2.999-2.999c.196-.186.195-.522 0-.709" fill="rgb(0,0,0)"/></g></svg>