<svg height="512" viewBox="0 0 24 24" width="512" xmlns="http://www.w3.org/2000/svg"><g id="direction/arrow-snake-alt-2" fill="none" fill-rule="evenodd"><path id="Fill-186" d="m21.14665 18.1446-2.146 2.146v-14.292c0-2.207-1.795-4-4-4-2.206 0-4 1.793-4 4v11c0 1.654-1.346 3-3 3-1.655 0-3-1.346-3-3v-14.292l2.146 2.145c.195.195.512.195.707 0s.195-.512 0-.707l-2.999-2.999c-.186-.195-.523-.195-.709 0l-2.999 2.999c-.195.195-.195.512 0 .707s.512.195.707 0l2.147-2.145v14.292c0 2.207 1.794 4 4 4 2.205 0 4-1.793 4-4v-11c0-1.655 1.345-3 3-3 1.654 0 3 1.345 3 3v14.292l-2.147-2.146c-.195-.195-.512-.195-.707 0s-.195.512 0 .707l2.999 2.999c.186.195.523.195.709 0l2.999-2.999c.195-.195.195-.512 0-.707s-.512-.195-.707 0" fill="rgb(0,0,0)"/></g></svg>