<svg height="512" viewBox="0 0 24 24" width="512" xmlns="http://www.w3.org/2000/svg"><g id="direction/arrow-snake-alt-3" fill="none" fill-rule="evenodd"><path id="Fill-188" d="m18.85465 1.1456c-.186-.194-.523-.194-.709 0l-2.999 2.999c-.195.195-.195.512 0 .707s.512.195.707 0l2.147-2.145v14.293c0 1.653-1.346 3-3 3-1.655 0-3-1.347-3-3v-11c0-2.208-1.795-4-4-4-2.206 0-4 1.792-4 4v14.292l-2.147-2.147c-.195-.195-.512-.195-.707 0s-.195.512 0 .707l2.999 2.999c.186.195.523.195.709 0l2.999-2.999c.195-.195.195-.512 0-.707s-.512-.195-.707 0l-2.146 2.147v-14.292c0-1.656 1.345-3 3-3 1.654 0 3 1.344 3 3v11c0 2.206 1.794 4 4 4s4-1.794 4-4v-14.293l2.146 2.145c.195.195.512.195.707 0s.195-.512 0-.707z" fill="rgb(0,0,0)"/></g></svg>