<svg height="512" viewBox="0 0 24 24" width="512" xmlns="http://www.w3.org/2000/svg"><g id="direction/bounce-bottom-right" fill="none" fill-rule="evenodd"><path id="Fill-228" d="m21.86545 6.1568c-.096-.102-.226-.159-.367-.15801294h-3.998c-.277 0-.5.22301294-.5.50001294 0 .276.223.5.5.5h2.793l-9.793 9.793-8.647-8.647c-.195-.195-.511-.195-.707 0-.195.196-.195.512 0 .707l9 9c.196.196.512.197.707 0l10.147-10.146v2.793c0 .276.223.5.5.5.276 0 .5-.224.5-.5v-3.999c0-.129-.047-.249-.135-.343" fill="rgb(0,0,0)"/></g></svg>