<svg height="512" viewBox="0 0 24 24" width="512" xmlns="http://www.w3.org/2000/svg"><g id="direction/bounce-left-down" fill="none" fill-rule="evenodd"><path id="Fill-226" d="m12.00015 21.4986c0 .276.224.5000784.5.5000784h3.999c.271.0049216.506-.2300784.5010784-.5010784v-3.999c0-.276-.2240784-.5-.5000784-.5s-.5.224-.5.5v2.793l-9.793-9.793 8.647-8.646c.195-.196.195-.512 0-.708-.196-.195-.512-.195-.708 0l-9 9c-.195.196-.195.512 0 .708l10.147 10.146h-2.793c-.276 0-.5.224-.5.5" fill="rgb(0,0,0)"/></g></svg>