<svg height="512" viewBox="0 0 24 24" width="512" xmlns="http://www.w3.org/2000/svg"><g id="direction/bounce-left-up" fill="none" fill-rule="evenodd"><path id="Fill-214" d="m16.50025 5.9986c.276 0 .5001115-.224.5001115-.5v-3.999c.0058885-.271-.2311115-.506-.5011115-.50107836h-3.999c-.276 0-.5.22407836-.5.50007836s.224.5.5.5h2.793l-10.147 10.146c-.195.196-.195.512 0 .708l9 9c.196.195.512.195.708 0 .195-.196.195-.512 0-.708l-8.647-8.646 9.793-9.793v2.793c0 .276.224.5.5.5" fill="rgb(0,0,0)"/></g></svg>