<svg height="512" viewBox="0 0 24 24" width="512" xmlns="http://www.w3.org/2000/svg"><g id="direction/bounce-right-down" fill="none" fill-rule="evenodd"><path id="Fill-218" d="m6.50015 16.9986c-.276 0-.50011151.224-.50011151.5v3.999c-.00588849.27.23111151.507.50111151.5011115h3.999c.276 0 .5-.2241115.5-.5001115s-.224-.5-.5-.5h-2.793l10.147-10.146c.195-.196.195-.512 0-.708l-9-9c-.196-.195-.512-.195-.708 0-.195.196-.195.512 0 .708l8.647 8.646-9.793 9.793v-2.793c0-.276-.224-.5-.5-.5" fill="rgb(0,0,0)"/></g></svg>