<svg height="512" viewBox="0 0 24 24" width="512" xmlns="http://www.w3.org/2000/svg"><g id="direction/bounce-right-up" fill="none" fill-rule="evenodd"><path id="Fill-222" d="m8.14665 21.8521c.196.195.511.195.707 0l9-9c.195-.195.195-.512 0-.707l-10.146-10.147h2.793c.276 0 .5-.223.5-.5 0-.276-.224-.50007836-.5-.50007836h-3.999c-.269-.00492164-.508.23007836-.501.50207836v3.998c0 .277.223.5.5.5.276 0 .5-.223.5-.5v-2.792l9.792 9.792-8.646 8.647c-.195.195-.195.512 0 .707" fill="rgb(0,0,0)"/></g></svg>