<svg height="512" viewBox="0 0 24 24" width="512" xmlns="http://www.w3.org/2000/svg"><g id="direction/bounce-top-left" fill="none" fill-rule="evenodd"><path id="Fill-224" d="m12.85375 5.1451c-.195-.195-.512-.195-.707 0l-10.147 10.146v-2.792c0-.277-.223-.5-.5-.5-.276 0-.50005054.223-.50005054.5v3.998c-.00394946.272.23005054.506.50205054.5020505h3.998c.277 0 .5-.2240505.5-.5000505 0-.277-.223-.5-.5-.5h-2.792l9.792-9.793 8.647 8.646c.195.195.512.195.707 0s.195-.512 0-.707z" fill="rgb(0,0,0)"/></g></svg>