<svg height="512" viewBox="0 0 24 24" width="512" xmlns="http://www.w3.org/2000/svg"><g id="chevron/double-chevron-down" fill="rgb(0,0,0)" fill-rule="evenodd"><path id="Fill-178" d="m11.1465 21.87865c.098.098.226.146.354.146.127 0 .255-.048.353-.146l9-9c.195-.195.195-.512 0-.707s-.512-.195-.707 0l-8.646 8.646-8.647-8.646c-.195-.195-.512-.195-.707 0s-.195.512 0 .707z"/><path id="Fill-180" d="m11.1465 13.87865c.098.098.226.146.354.146.127 0 .255-.048.353-.146l9-9c.195-.195.195-.512 0-.707s-.512-.195-.707 0l-8.646 8.646-8.647-8.646c-.195-.195-.512-.195-.707 0s-.195.512 0 .707z"/></g></svg>