<svg height="512" viewBox="0 0 24 24" width="512" xmlns="http://www.w3.org/2000/svg"><g id="chevron/double-chevron-left" fill="rgb(0,0,0)" fill-rule="evenodd"><path id="Fill-186" d="m9.1465 11.85325 9 9c.098.098.226.146.354.146.127 0 .255-.048.353-.146.195-.195.195-.512 0-.707l-8.646-8.647 8.646-8.646c.195-.195.195-.512 0-.707s-.512-.195-.707 0l-9 9c-.195.195-.195.512 0 .707"/><path id="Fill-188" d="m10.1465 20.85325c.098.098.226.146.354.146.127 0 .255-.048.353-.146.195-.195.195-.512 0-.707l-8.646-8.647 8.646-8.646c.195-.195.195-.512 0-.707s-.512-.195-.707 0l-9 9c-.195.195-.195.512 0 .707z"/></g></svg>