<svg height="512" viewBox="0 0 24 24" width="512" xmlns="http://www.w3.org/2000/svg"><g id="chevron/double-chevron-right" fill="rgb(0,0,0)" fill-rule="evenodd"><path id="Fill-170" d="m4.1465 20.85325c.098.098.226.146.354.146.127 0 .255-.048.353-.146l9-9c.195-.195.195-.512 0-.707l-9-9c-.195-.195-.512-.195-.707 0s-.195.512 0 .707l8.646 8.646-8.646 8.647c-.195.195-.195.512 0 .707"/><path id="Fill-172" d="m12.8535 2.14625c-.195-.195-.512-.195-.707 0s-.195.512 0 .707l8.646 8.647-8.646 8.646c-.195.195-.195.512 0 .707.098.098.226.147.353.147.128 0 .256-.049.354-.147l9-9c.195-.195.195-.512 0-.707z"/></g></svg>