<svg height="512" viewBox="0 0 24 24" width="512" xmlns="http://www.w3.org/2000/svg"><g id="chevron/double-chevron-up" fill="rgb(0,0,0)" fill-rule="evenodd"><path id="Fill-162" d="m2.8535 11.87865 8.646-8.646 8.647 8.646c.098.098.226.146.353.146.128 0 .256-.048.354-.146.195-.195.195-.512 0-.707l-9-9c-.195-.195-.512-.195-.707 0l-9 9c-.195.195-.195.512 0 .707s.512.195.707 0"/><path id="Fill-164" d="m2.8535 19.87865 8.646-8.646 8.647 8.646c.098.098.226.146.353.146.128 0 .256-.048.354-.146.195-.195.195-.512 0-.707l-9-9c-.195-.195-.512-.195-.707 0l-9 9c-.195.195-.195.512 0 .707s.512.195.707 0"/></g></svg>