<svg height="512" viewBox="0 0 24 24" width="512" xmlns="http://www.w3.org/2000/svg"><g id="sort/intersect-bottom-left" fill="none" fill-rule="evenodd"><path id="Fill-208" d="m20.50015 9.9981h-7.5v-7.5c0-.276-.224-.5-.5-.5s-.5.224-.5.5v7.5h-9.293l2.147-2.146c.195-.196.195-.512 0-.708-.196-.195-.512-.195-.708 0l-2.999 3c-.194.186-.196.524.001.708l2.998 3c.196.195.512.195.708 0 .195-.196.195-.512 0-.708l-2.147-2.146h9.293v9.293l-2.146-2.147c-.196-.195-.512-.195-.708 0-.195.196-.195.512 0 .708l2.999 3c.188.193.522.193.709 0l3-3c.195-.196.195-.512 0-.708-.196-.195-.512-.195-.708 0l-2.146 2.147v-9.293h7.5c.276 0 .5-.224.5-.5s-.224-.5-.5-.5" fill="rgb(0,0,0)"/></g></svg>