<svg height="512" viewBox="0 0 24 24" width="512" xmlns="http://www.w3.org/2000/svg"><g id="sort/intersect-bottom-right" fill="none" fill-rule="evenodd"><path id="Fill-204" d="m21.85275 10.1436-2.999-2.999c-.195-.195-.512-.195-.707 0s-.195.512 0 .707l2.146 2.146h-9.293v-7.5c0-.276-.223-.5-.5-.5-.276 0-.5.224-.5.5v7.5h-7.5c-.276 0-.5.224-.5.5 0 .277.224.5.5.5h7.5v9.293l-2.146-2.146c-.195-.195-.512-.195-.707 0s-.195.512 0 .707l2.999 2.999c.186.196.524.194.71 0l2.998-2.999c.195-.195.195-.512 0-.707s-.512-.195-.707 0l-2.147 2.146v-9.293h9.293l-2.146 2.147c-.195.195-.195.512 0 .707s.512.195.707 0l2.999-2.999c.196-.186.195-.522 0-.709" fill="rgb(0,0,0)"/></g></svg>