<svg height="512" viewBox="0 0 24 24" width="512" xmlns="http://www.w3.org/2000/svg"><g id="sort/intersect-down" fill="none" fill-rule="evenodd"><path id="Fill-206" d="m18.85375 4.1446c-.195-.195-.512-.195-.707 0l-6.647 6.646-6.646-6.646c-.195-.195-.512-.195-.707 0s-.195.512 0 .707l6.646 6.647-6.793 6.792v-2.792c0-.277-.223-.5-.5-.5-.276 0-.50007771.223-.50007771.5v3.999c-.00492229.27.23207771.505.50207771.5010503h3.998c.277 0 .5-.2240503.5-.5000503 0-.277-.223-.5-.5-.5h-2.792l6.792-6.792 6.793 6.792h-2.793c-.276 0-.5.223-.5.5 0 .276.224.5000503.5.5000503h3.999c.27.0039497.508-.2310503.5011506-.5010503v-3.999c0-.277-.2231506-.5-.5001506-.5-.276 0-.5.223-.5.5v2.792l-6.792-6.792 6.646-6.647c.195-.195.195-.512 0-.707" fill="rgb(0,0,0)"/></g></svg>