<svg height="512" viewBox="0 0 24 24" width="512" xmlns="http://www.w3.org/2000/svg"><g id="sort/intersect-left" fill="none" fill-rule="evenodd"><path id="Fill-210" d="m18.14665 18.8516c.195.195.512.195.707 0s.195-.512 0-.707l-6.646-6.647 6.646-6.646c.195-.195.195-.512 0-.707s-.512-.195-.707 0l-6.646 6.646-6.793-6.793h2.793c.276 0 .5-.223.5-.5 0-.276-.224-.50005033-.5-.50005033h-3.999c-.27-.00394967-.508.23105033-.50115063.50205033v3.998c0 .277.22315063.5.50015063.5.276 0 .5-.223.5-.5v-2.792l6.792 6.792-6.792 6.793v-2.793c0-.276-.224-.5-.5-.5-.277 0-.50015063.224-.50015063.5v4c-.00684937.269.23115063.506.50115063.5001115h3.999c.276 0 .5-.2231115.5-.5001115 0-.276-.224-.5-.5-.5h-2.793l6.793-6.792z" fill="rgb(0,0,0)"/></g></svg>