<svg height="512" viewBox="0 0 24 24" width="512" xmlns="http://www.w3.org/2000/svg"><g id="sort/intersect-right" fill="none" fill-rule="evenodd"><path id="Fill-202" d="m19.50015 7.9981c.276 0 .500112-.224.500112-.5v-3.998c.005888-.271-.230112-.507-.501112-.50207803h-3.999c-.276 0-.5.22407803-.5.50007803s.224.5.5.5h2.793l-6.793 6.793-6.646-6.647c-.196-.195-.512-.195-.708 0-.195.196-.195.512 0 .708l6.647 6.646-6.647 6.646c-.195.196-.195.512 0 .708.196.195.512.195.708 0l6.646-6.647 6.793 6.793h-2.793c-.276 0-.5.224-.5.5s.224.500078.5.500078h3.999c.271.004922.507-.231078.501112-.502078v-3.998c0-.276-.224112-.5-.500112-.5s-.5.224-.5.5v2.793l-6.793-6.793 6.793-6.793v2.793c0 .276.224.5.5.5" fill="rgb(0,0,0)"/></g></svg>