<svg height="512" viewBox="0 0 24 24" width="512" xmlns="http://www.w3.org/2000/svg"><g id="sort/intersect-top-left" fill="none" fill-rule="evenodd"><path id="Fill-212" d="m4.85375 15.8516c.195-.195.195-.512 0-.707l-2.146-2.147h9.292v7.5c0 .277.224.5.5.5.277 0 .5-.223.5-.5v-7.5h7.5c.277 0 .5-.223.5-.5 0-.276-.223-.5-.5-.5h-7.5v-9.292l2.147 2.146c.195.195.512.195.707 0s.195-.512 0-.707l-2.999-2.999c-.186-.195-.523-.195-.709 0l-2.999 2.999c-.195.195-.195.512 0 .707s.512.195.707 0l2.146-2.146v9.292h-9.292l2.146-2.146c.195-.195.195-.512 0-.707s-.512-.195-.707 0l-2.999 2.999c-.195.186-.195.523 0 .709l2.999 2.999c.195.195.512.195.707 0" fill="rgb(0,0,0)"/></g></svg>