<svg height="512" viewBox="0 0 24 24" width="512" xmlns="http://www.w3.org/2000/svg"><g id="sort/intersect-top-right" fill="none" fill-rule="evenodd"><path id="Fill-200" d="m22.00025 12.5118c.004-.14-.049-.271-.148-.368l-2.998-2.999c-.196-.196-.512-.196-.708 0-.195.195-.195.513 0 .707l2.147 2.146h-9.293v-9.293l2.146 2.147c.196.195.512.195.708 0 .195-.194.195-.512 0-.707l-2.999-2.999c-.186-.196-.524-.196-.71 0l-2.999 2.999c-.195.195-.195.513 0 .707.196.195.512.195.708 0l2.146-2.147v9.293h-7.5c-.276 0-.5.224-.5.5 0 .277.224.5.5.5h7.5v7.5c0 .277.224.5.5.5s.5-.223.5-.5v-7.5h9.293l-2.147 2.147c-.195.195-.195.513 0 .707.196.195.512.195.708 0l2.999-2.999c.091-.094.144-.21.147-.341" fill="rgb(0,0,0)"/></g></svg>