<svg height="512" viewBox="0 0 24 24" width="512" xmlns="http://www.w3.org/2000/svg"><g id="sort/intersect-up" fill="none" fill-rule="evenodd"><path id="Fill-198" d="m3.00015 3.4845v4.014c0 .276.224.5.5.5s.5-.224.5-.5v-2.793l6.793 6.793-6.647 6.646c-.195.194-.195.512 0 .707.196.196.512.196.708 0l6.646-6.646 6.646 6.646c.196.196.512.196.708 0 .195-.195.195-.513 0-.707l-6.647-6.646 6.793-6.793v2.793c0 .276.224.5.5.5s.5001512-.224.5001512-.5v-3.998c.0068488-.27-.2301512-.508-.5011512-.50211105h-3.999c-.276 0-.5.22311105-.5.50011105 0 .276.224.5.5.5h2.793l-6.793 6.793-6.793-6.793h2.793c.276 0 .5-.224.5-.5 0-.277-.224-.50011105-.5-.50011105h-3.999c-.265-.00488895-.498.22111105-.501.48611105" fill="rgb(0,0,0)"/></g></svg>