<svg height="512" viewBox="0 0 24 24" width="512" xmlns="http://www.w3.org/2000/svg"><g id="order/loop-clockwise" fill="rgb(0,0,0)" fill-rule="evenodd"><path id="Fill-132" d="m19.50025 16.9981c-.276 0-.5.224-.5.5 0 .827-.673 1.5-1.5 1.5h-12c-.827 0-1.5-.673-1.5-1.5v-6.793l2.146 2.147c.196.195.512.195.708 0 .195-.196.195-.512 0-.708l-2.999-2.999c-.188-.194-.522-.194-.71 0l-2.999 2.999c-.195.196-.195.512 0 .708.196.195.512.195.708 0l2.146-2.147v6.793c0 1.379 1.122 2.5 2.5 2.5h12c1.378 0 2.5-1.121 2.5-2.5 0-.276-.224-.5-.5-.5"/><path id="Fill-134" d="m22.14665 10.1446-2.146 2.146v-6.792c0-1.379-1.122-2.5-2.5-2.5h-12c-1.379 0-2.5 1.121-2.5 2.5 0 .276.223.5.5.5.276 0 .5-.224.5-.5 0-.828.672-1.5 1.5-1.5h12c.827 0 1.5.672 1.5 1.5v6.792l-2.147-2.146c-.195-.195-.512-.195-.707 0s-.195.512 0 .707l2.999 2.999c.186.195.523.195.709 0l2.999-2.999c.195-.195.195-.512 0-.707s-.512-.195-.707 0"/></g></svg>