<svg height="512" viewBox="0 0 24 24" width="512" xmlns="http://www.w3.org/2000/svg"><g id="order/loop-clockwise-alt" fill="rgb(0,0,0)" fill-rule="evenodd"><path id="Fill-136" d="m14.50025 18.9981h-9c-.827 0-1.5-.673-1.5-1.5v-12.793l2.146 2.147c.196.195.512.195.708 0 .195-.196.195-.512 0-.708l-2.999-2.999c-.188-.194-.522-.194-.71 0l-2.999 2.999c-.195.196-.195.512 0 .708.196.195.512.195.708 0l2.146-2.147v12.793c0 1.379 1.122 2.5 2.5 2.5h9c.276 0 .5-.224.5-.5s-.224-.5-.5-.5"/><path id="Fill-138" d="m22.14665 16.1446-2.146 2.146v-12.792c0-1.379-1.122-2.5-2.5-2.5h-9c-.277 0-.5.223-.5.5 0 .276.223.5.5.5h9c.827 0 1.5.672 1.5 1.5v12.792l-2.147-2.146c-.195-.195-.512-.195-.707 0s-.195.512 0 .707l2.999 2.999c.186.195.523.195.709 0l2.999-2.999c.195-.195.195-.512 0-.707s-.512-.195-.707 0"/></g></svg>