<svg height="512" viewBox="0 0 24 24" width="512" xmlns="http://www.w3.org/2000/svg"><g id="order/loop-clockwise-alt-3" fill="rgb(0,0,0)" fill-rule="evenodd"><path id="Fill-145" d="m19.50015 7.9981c-.276 0-.5.224-.5.5v9c0 .827-.673 1.5-1.5 1.5h-12.793l2.147-2.146c.195-.196.195-.512 0-.708-.196-.195-.512-.195-.708 0l-2.998 3c-.197.185-.195.522-.001.708l2.999 3c.196.195.512.195.708 0 .195-.196.195-.512 0-.708l-2.147-2.146h12.793c1.378 0 2.5-1.121 2.5-2.5v-9c0-.276-.224-.5-.5-.5"/><path id="Fill-148" d="m19.85275 3.1436-2.999-2.999c-.195-.195-.512-.195-.707 0s-.195.512 0 .707l2.146 2.146h-12.793c-1.378 0-2.5 1.122-2.5 2.5v9c0 .277.224.5.5.5.277 0 .5-.223.5-.5v-9c0-.827.673-1.5 1.5-1.5h12.793l-2.146 2.147c-.195.195-.195.512 0 .707s.512.195.707 0l2.999-2.999c.196-.186.195-.522 0-.709"/></g></svg>