<svg height="512" viewBox="0 0 24 24" width="512" xmlns="http://www.w3.org/2000/svg"><g id="sort/merge-down" fill="rgb(0,0,0)" fill-rule="evenodd"><path id="Fill-174" d="m7.85375 17.1446c-.195-.195-.512-.195-.707 0s-.195.512 0 .707l3.999 3.999c.186.195.523.195.709 0l3.999-3.999c.195-.195.195-.512 0-.707s-.512-.195-.707 0l-3.147 3.146v-9.792c0-.133-.052-.26-.146-.354l-7-7c-.195-.195-.512-.195-.707 0s-.195.512 0 .707l6.853 6.855v9.584z"/><path id="Fill-176" d="m18.85375 3.1446c-.195-.195-.512-.195-.707 0l-4 4c-.195.195-.195.512 0 .707.196.196.511.195.707 0l4-4c.195-.195.195-.512 0-.707"/></g></svg>