<svg height="512" viewBox="0 0 24 24" width="512" xmlns="http://www.w3.org/2000/svg"><g id="sort/merge-left" fill="rgb(0,0,0)" fill-rule="evenodd"><path id="Fill-178" d="m15.85375 14.1446c-.195-.195-.512-.195-.707 0s-.195.512 0 .707l4 4c.196.196.511.195.707 0 .195-.195.195-.512 0-.707z"/><path id="Fill-180" d="m5.50015 15.9981c.128 0 .256-.049.354-.146.195-.196.195-.512 0-.708l-3.147-3.146h9.793c.133 0 .26-.053.354-.146l7-7c.195-.196.195-.512 0-.708-.196-.195-.512-.195-.708 0l-6.853 6.854h-9.586l3.147-3.146c.195-.196.195-.512 0-.708-.196-.195-.512-.195-.708 0l-3.999 4c-.195.187-.195.521 0 .708l3.999 4c.098.097.226.146.354.146"/></g></svg>