<svg height="512" viewBox="0 0 24 24" width="512" xmlns="http://www.w3.org/2000/svg"><g id="sort/merge-up" fill="rgb(0,0,0)" fill-rule="evenodd"><path id="Fill-166" d="m11.14665 12.8516 7 7c.196.194.511.195.707 0 .195-.195.195-.512 0-.707l-6.853-6.854v-9.585l3.146 3.146c.195.195.512.195.707 0s.195-.512 0-.707l-3.999-3.999c-.186-.195-.523-.195-.709 0l-3.999 3.999c-.195.195-.195.512 0 .707s.512.195.707 0l3.147-3.146v9.792c0 .133.052.26.146.354"/><path id="Fill-168" d="m4.50015 19.9981c.128 0 .256-.049.354-.146l4-4c.195-.196.195-.512 0-.708-.196-.195-.512-.195-.708 0l-4 4c-.195.196-.195.512 0 .708.098.097.226.146.354.146"/></g></svg>