<svg height="512" viewBox="0 0 24 24" width="512" xmlns="http://www.w3.org/2000/svg"><g id="sort/shuffle-alt" fill="rgb(0,0,0)" fill-rule="evenodd"><path id="Fill-100" d="m8.39965 15.5489c.153-.229.092-.54-.139-.693-.23-.154-.541-.091-.692.138-.837 1.255-2.236 2.004-3.744 2.004h-1.324c-.277 0-.5.224-.5.5 0 .277.223.5.5.5h1.324c1.843 0 3.554-.916 4.575-2.449"/><path id="Fill-102" d="m18.85375 2.1446c-.195-.195-.512-.195-.707 0s-.195.512 0 .707l2.146 2.147h-3.117c-1.843 0-3.553.917-4.576 2.449-.153.229-.091.54.139.693.228.152.539.091.693-.139.837-1.253 2.237-2.003 3.744-2.003h3.117l-2.146 2.146c-.195.195-.195.512 0 .707.098.098.226.147.353.147.128 0 .256-.049.354-.147l3-3c.195-.196.194-.511 0-.707z"/><path id="Fill-104" d="m21.85275 17.1436-2.999-2.999c-.195-.195-.512-.195-.707 0s-.195.512 0 .707l2.146 2.146h-3.117c-1.508 0-2.907-.749-3.743-2.003l-5.032-7.546c-1.023-1.534-2.734-2.451-4.577-2.451h-1.324c-.276 0-.5.224-.5.5 0 .277.224.5.5.5h1.324c1.508 0 2.909.75 3.745 2.005l5.032 7.546c1.022 1.533 2.731 2.449 4.575 2.449h3.117l-2.146 2.147c-.195.195-.195.512 0 .707s.512.196.707 0l2.999-2.999c.196-.186.195-.522 0-.709"/></g></svg>