<svg height="512" viewBox="0 0 24 24" width="512" xmlns="http://www.w3.org/2000/svg"><g id="sort/shuffle-down" fill="rgb(0,0,0)" fill-rule="evenodd"><path id="Fill-106" d="m8.14665 18.1446-2.146 2.146v-3.117c0-1.508.749-2.907 2.004-3.743l7.546-5.032c1.534-1.022 2.45-2.733 2.45-4.576v-1.324c0-.277-.224-.5-.5-.5-.277 0-.5.223-.5.5v1.324c0 1.509-.75 2.908-2.005 3.744l-7.546 5.032c-1.533 1.022-2.449 2.733-2.449 4.575v3.117l-2.147-2.146c-.195-.195-.512-.195-.707 0s-.195.512 0 .707l2.999 2.999c.186.195.523.195.709 0l2.999-2.999c.195-.195.195-.512 0-.707s-.512-.195-.707 0"/><path id="Fill-108" d="m5.50015 1.9981c-.276 0-.5.224-.5.5v1.324c0 1.844.916 3.555 2.45 4.576.226.152.539.093.693-.138.153-.23.091-.54-.139-.694-1.255-.836-2.004-2.235-2.004-3.744v-1.324c0-.276-.224-.5-.5-.5"/><path id="Fill-110" d="m20.14665 18.1446-2.146 2.146v-3.117c0-1.842-.916-3.55-2.449-4.576-.232-.153-.541-.091-.694.139-.153.229-.091.54.138.693 1.255.838 2.005 2.237 2.005 3.744v3.117l-2.147-2.146c-.195-.195-.512-.195-.707 0s-.195.512 0 .707l3 3c.195.218.54.149.721-.014l2.986-2.986c.195-.195.195-.512 0-.707s-.512-.195-.707 0"/></g></svg>