<svg height="512" viewBox="0 0 24 24" width="512" xmlns="http://www.w3.org/2000/svg"><g id="sort/shuffle-down-alt" fill="rgb(0,0,0)" fill-rule="evenodd"><path id="Fill-112" d="m8.14665 18.1446-2.147 2.146v-3.117c0-1.507.75-2.906 2.005-3.744.229-.153.291-.464.138-.693-.154-.23-.464-.292-.694-.139-1.533 1.026-2.449 2.734-2.449 4.576v3.117l-2.146-2.146c-.195-.195-.512-.195-.707 0s-.195.512 0 .707l2.986 2.986c.179.203.525.219.721.014l3-3c.195-.195.195-.512 0-.707s-.512-.195-.707 0"/><path id="Fill-114" d="m20.14665 18.1446-2.146 2.146v-3.117c0-1.842-.917-3.553-2.45-4.575l-7.546-5.032c-1.255-.836-2.004-2.235-2.004-3.744v-1.324c0-.277-.224-.5-.5-.5-.277 0-.5.223-.5.5v1.324c0 1.843.916 3.554 2.449 4.576l7.546 5.032c1.255.836 2.005 2.235 2.005 3.743v3.117l-2.147-2.146c-.195-.195-.512-.195-.707 0s-.195.512 0 .707l2.999 2.999c.186.195.523.195.709 0l2.999-2.999c.195-.195.195-.512 0-.707s-.512-.195-.707 0"/><path id="Fill-116" d="m17.00015 2.4981v1.324c0 1.509-.749 2.908-2.004 3.744-.23.154-.292.464-.139.694.154.231.467.29.693.138 1.534-1.021 2.45-2.732 2.45-4.576v-1.324c0-.276-.224-.5-.5-.5s-.5.224-.5.5"/></g></svg>