<svg height="512" viewBox="0 0 24 24" width="512" xmlns="http://www.w3.org/2000/svg"><g id="sort/shuffle-left" fill="rgb(0,0,0)" fill-rule="evenodd"><path id="Fill-118" d="m21.50015 4.9981h-1.324c-1.843 0-3.554.916-4.576 2.45-.153.231-.091.54.139.695.226.151.539.091.693-.14.836-1.256 2.235-2.005 3.744-2.005h1.324c.276 0 .5-.224.5-.5s-.224-.5-.5-.5"/><path id="Fill-120" d="m21.50015 16.9981h-1.324c-1.508 0-2.907-.749-3.744-2.004l-5.032-7.546c-1.023-1.534-2.733-2.45-4.576-2.45h-3.117l2.147-2.146c.195-.196.195-.512 0-.708-.196-.195-.512-.195-.708 0l-3 3c-.193.186-.195.523.002.708l2.998 3c.196.195.512.195.708 0 .195-.196.195-.512 0-.708l-2.147-2.146h3.117c1.508 0 2.907.749 3.744 2.005l5.032 7.546c1.022 1.533 2.733 2.449 4.576 2.449h1.324c.276 0 .5-.224.5-.5s-.224-.5-.5-.5"/><path id="Fill-122" d="m10.56855 14.9942c-.837 1.255-2.237 2.005-3.744 2.005h-3.118l2.147-2.148c.195-.195.195-.511 0-.707-.195-.195-.512-.195-.707 0l-3 3c-.201.198-.19.535.014.721l2.986 2.986c.195.196.513.197.707 0 .195-.195.195-.511 0-.707l-2.145-2.145h3.116c1.842 0 3.553-.916 4.576-2.45.153-.23.091-.54-.139-.694-.23-.153-.54-.09-.693.139"/></g></svg>