<svg height="512" viewBox="0 0 24 24" width="512" xmlns="http://www.w3.org/2000/svg"><g id="sort/shuffle-left-alt" fill="rgb(0,0,0)" fill-rule="evenodd"><path id="Fill-124" d="m21.50015 16.9981h-1.324c-1.508 0-2.907-.749-3.744-2.004-.155-.23-.466-.292-.694-.139-.23.154-.292.464-.138.694 1.023 1.533 2.733 2.449 4.576 2.449h1.324c.276 0 .5-.224.5-.5s-.224-.5-.5-.5"/><path id="Fill-127" d="m21.50015 4.9981h-1.324c-1.843 0-3.554.916-4.576 2.45l-5.032 7.546c-.837 1.255-2.236 2.004-3.744 2.004h-3.117l2.147-2.146c.195-.196.195-.512 0-.708-.196-.195-.512-.195-.708 0l-2.998 3c-.197.185-.195.522-.002.708l3 3c.196.195.512.195.708 0 .195-.196.195-.512 0-.708l-2.147-2.146h3.117c1.843 0 3.553-.916 4.576-2.449l5.032-7.546c.837-1.256 2.236-2.005 3.744-2.005h1.324c.276 0 .5-.224.5-.5s-.224-.5-.5-.5"/><path id="Fill-130" d="m10.56855 8.002c.153.229.463.291.693.139.23-.154.292-.464.139-.694-1.024-1.534-2.734-2.449-4.576-2.449h-3.117l2.146-2.146c.195-.196.195-.512 0-.707-.195-.196-.512-.196-.707 0l-3 3c-.195.195-.194.512 0 .707l3 3c.195.194.513.195.707 0 .195-.196.195-.512 0-.707l-2.146-2.147h3.117c1.507 0 2.907.749 3.744 2.004"/></g></svg>