<svg height="512" viewBox="0 0 24 24" width="512" xmlns="http://www.w3.org/2000/svg"><g id="sort/shuffle-up" fill="rgb(0,0,0)" fill-rule="evenodd"><path id="Fill-82" d="m14.99635 10.5665c-.23.153-.292.464-.139.693.155.232.467.291.694.139 1.534-1.022 2.449-2.733 2.449-4.576v-3.116l2.146 2.145c.196.195.512.195.707 0 .196-.195.196-.512 0-.707l-3-3c-.195-.195-.511-.195-.707 0l-3 3c-.195.195-.195.512 0 .707.196.195.512.195.707 0l2.147-2.146v3.117c0 1.508-.749 2.907-2.004 3.744"/><path id="Fill-84" d="m2.85375 5.8516 2.146-2.146v3.117c0 1.843.917 3.554 2.45 4.576l7.547 5.032c1.254.836 2.003 2.234 2.003 3.743v1.324c0 .277.224.5.5.5.277 0 .5-.223.5-.5v-1.324c0-1.843-.916-3.553-2.449-4.575l-7.547-5.032c-1.254-.836-2.004-2.236-2.004-3.744v-3.117l2.147 2.146c.195.195.512.195.707 0s.195-.512 0-.707l-2.999-2.999c-.186-.195-.523-.195-.709 0l-2.999 2.999c-.195.195-.195.512 0 .707s.512.195.707 0"/><path id="Fill-86" d="m7.45035 15.5987c-1.534 1.021-2.45 2.731-2.45 4.575v1.324c0 .277.223.5.5.5.276 0 .5-.223.5-.5v-1.324c0-1.508.749-2.907 2.004-3.743.23-.153.292-.463.139-.693-.153-.231-.464-.292-.693-.139"/></g></svg>