<svg height="512" viewBox="0 0 24 24" width="512" xmlns="http://www.w3.org/2000/svg"><g id="sort/shuffle-up-alt" fill="rgb(0,0,0)" fill-rule="evenodd"><path id="Fill-88" d="m18.00025 3.7051 2.146 2.146c.196.196.512.196.708 0 .195-.195.195-.511 0-.707l-2.999-2.999c-.188-.194-.522-.194-.71 0l-2.999 2.999c-.195.196-.195.512 0 .707.196.196.512.196.708 0l2.146-2.146v3.117c0 1.509-.749 2.908-2.004 3.744l-7.546 5.033c-1.534 1.021-2.45 2.731-2.45 4.575v1.324c0 .276.224.5.5.5s.5-.224.5-.5v-1.324c0-1.508.749-2.906 2.004-3.743l7.546-5.033c1.534-1.021 2.45-2.731 2.45-4.576z"/><path id="Fill-90" d="m7.44945 11.3985c.227.152.539.093.693-.139.154-.229.092-.54-.138-.693-1.255-.837-2.005-2.236-2.005-3.744v-3.117l2.147 2.146c.196.195.512.195.707 0 .196-.195.196-.512 0-.707l-3-3c-.195-.195-.511-.195-.707 0l-3 3c-.195.195-.195.512 0 .707.196.195.512.195.707 0l2.146-2.145v3.116c0 1.843.916 3.554 2.45 4.576"/><path id="Fill-92" d="m17.50025 21.9981c.276 0 .5-.224.5-.5v-1.324c0-1.844-.916-3.554-2.45-4.575-.23-.154-.541-.092-.693.138-.153.231-.091.54.139.694 1.255.837 2.004 2.235 2.004 3.743v1.324c0 .276.224.5.5.5"/></g></svg>