<svg height="512" viewBox="0 0 24 24" width="512" xmlns="http://www.w3.org/2000/svg"><g id="sort/split-down" fill="rgb(0,0,0)" fill-rule="evenodd"><path id="Fill-158" d="m14.00015 18.4981c0 .276.224.500078.5.500078h4.999c.271.004922.507-.231078.501-.502078v-4.998c0-.276-.224-.5-.5-.5s-.5.224-.5.5v3.793l-7-7v-8.793c0-.276-.224-.5-.5-.5s-.5.224-.5.5v9c0 .133.053.26.146.354l7.147 7.146h-3.793c-.276 0-.5.224-.5.5"/><path id="Fill-160" d="m8.85375 13.1446c-.195-.195-.512-.195-.707 0l-4.147 4.146v-3.792c0-.277-.223-.5-.5-.5-.276 0-.5.223-.5.5v4.999c-.005.27.232.505.502.5010503h4.998c.277 0 .5-.2240503.5-.5000503 0-.277-.223-.5-.5-.5h-3.792l4.146-4.147c.195-.195.195-.512 0-.707"/></g></svg>