<svg height="512" viewBox="0 0 24 24" width="512" xmlns="http://www.w3.org/2000/svg"><g id="sort/split-left" fill="rgb(0,0,0)" fill-rule="evenodd"><path id="Fill-162" d="m3.50015 13.9981c-.276 0-.5.224-.5.5v4.998c-.006.271.23.507.501.502h4.999c.276 0 .5-.224.5-.5s-.224-.5-.5-.5h-3.793l4.147-4.146c.195-.196.195-.512 0-.708-.196-.195-.512-.195-.708 0l-4.146 4.147v-3.793c0-.276-.224-.5-.5-.5"/><path id="Fill-164" d="m20.50015 11.9981c.276 0 .5-.224.5-.5s-.224-.5-.5-.5h-8.793l-7-7h3.793c.276 0 .5-.224.5-.5s-.224-.50007803-.5-.50007803h-4.999c-.271-.00492197-.507.23107803-.50111197.50207803v4.998c0 .276.22411197.5.50011197.5s.5-.224.5-.5v-3.793l7.146 7.147c.094.093.221.146.354.146z"/></g></svg>