<svg height="512" viewBox="0 0 24 24" width="512" xmlns="http://www.w3.org/2000/svg"><g id="sort/split-up" fill="rgb(0,0,0)" fill-rule="evenodd"><path id="Fill-150" d="m11.50015 20.9981c.276 0 .5-.224.5-.5v-9c0-.133-.053-.26-.146-.354l-7.147-7.146h3.793c.276 0 .5-.224.5-.5s-.224-.50007803-.5-.50007803h-4.999c-.271-.00492197-.507.23107803-.501.50207803v4.998c0 .276.224.5.5.5s.5-.224.5-.5v-3.793l7 7v8.793c0 .276.224.5.5.5"/><path id="Fill-152" d="m19.50015 8.9981c.276 0 .5-.224.5-.5v-4.998c.006-.271-.23-.507-.501-.502h-4.999c-.276 0-.5.224-.5.5s.224.5.5.5h3.793l-4.147 4.146c-.195.196-.195.512 0 .708.196.195.512.195.708 0l4.146-4.147v3.793c0 .276.224.5.5.5"/></g></svg>