<svg height="512" viewBox="0 0 24 24" width="512" xmlns="http://www.w3.org/2000/svg"><g id="sort/swap-alt" fill="rgb(0,0,0)" fill-rule="evenodd"><path id="Fill-22" d="m7.50025 2.9981c-.276 0-.5.224-.5.5v15.793l-3.146-3.147c-.196-.195-.512-.195-.708 0-.195.196-.195.512 0 .708l3.999 4c.188.193.522.193.71 0l3.999-4c.195-.196.195-.512 0-.708-.196-.195-.512-.195-.708 0l-3.146 3.147v-15.793c0-.276-.224-.5-.5-.5"/><path id="Fill-24" d="m15.50025 19.9981c.276 0 .5-.224.5-.5v-15.793l3.146 3.147c.196.195.512.195.708 0 .195-.196.195-.512 0-.708l-3.999-3.999c-.188-.194-.522-.194-.71 0l-3.999 3.999c-.195.196-.195.512 0 .708.196.195.512.195.708 0l3.146-3.147v15.793c0 .276.224.5.5.5"/></g></svg>