<svg height="512" viewBox="0 0 24 24" width="512" xmlns="http://www.w3.org/2000/svg"><g id="sort/swap-diagonal" fill="rgb(0,0,0)" fill-rule="evenodd"><path id="Fill-34" d="m2.14665 14.8516c.196.194.511.195.707 0l11.147-11.146v3.792c0 .277.223.5.5.5.276 0 .5000768-.223.5000768-.5v-4.998c.0049232-.272-.2350768-.507-.5020768-.50207836h-4.998c-.277 0-.5.22407836-.5.50007836 0 .277.223.5.5.5h3.792l-11.146 11.147c-.195.195-.195.512 0 .707"/><path id="Fill-36" d="m20.14665 8.1446-11.146 11.146v-3.792c0-.277-.224-.5-.5-.5-.277 0-.5.223-.5.5v4.999c-.007.27.231.505.501.5010503h4.999c.276 0 .5-.2240503.5-.5000503 0-.277-.224-.5-.5-.5h-3.793l11.146-11.147c.195-.195.195-.512 0-.707s-.512-.195-.707 0"/></g></svg>