<svg height="512" viewBox="0 0 24 24" width="512" xmlns="http://www.w3.org/2000/svg"><g id="sort/swap-diagonal-alt" fill="rgb(0,0,0)" fill-rule="evenodd"><path id="Fill-38" d="m2.50015 8.9981c-.276 0-.50011197.224-.50011197.5v4.998c-.00588803.271.23011197.507.50111197.502078h4.999c.276 0 .5-.224078.5-.500078s-.224-.5-.5-.5h-3.793l11.147-11.146c.195-.196.195-.512 0-.708-.196-.195-.512-.195-.708 0l-11.146 11.147v-3.793c0-.276-.224-.5-.5-.5"/><path id="Fill-40" d="m20.86545 8.1563c-.095-.103-.227-.158-.367-.158h-4.998c-.277 0-.5.223-.5.5 0 .276.223.5.5.5h3.793l-11.147 11.146c-.195.196-.195.512 0 .707.196.196.512.197.707 0l11.147-11.146v3.793c0 .276.223.5.5.5.276 0 .5000156-.224.5000156-.5v-4.998c.0009844-.13-.0460156-.248-.1350156-.344"/></g></svg>