<svg height="512" viewBox="0 0 24 24" width="512" xmlns="http://www.w3.org/2000/svg"><g id="sort/swap-diagonal-alt-2" fill="rgb(0,0,0)" fill-rule="evenodd"><path id="Fill-42" d="m14.00015 2.4981c0-.276-.224-.50011197-.5-.50011197h-4.999c-.267-.00588803-.508.23011197-.501.50211197v4.998c0 .276.224.5.5.5s.5-.224.5-.5v-3.793l11.146 11.147c.196.195.512.195.708 0 .195-.196.195-.512 0-.708l-11.147-11.146h3.793c.276 0 .5-.224.5-.5"/><path id="Fill-44" d="m2.14665 8.1446c-.195.195-.195.512 0 .707l11.146 11.147h-3.792c-.277 0-.5.223-.5.5 0 .276.223.5000503.5.5000503h4.998c.27.0039497.507-.2310503.5020777-.5010503v-4.999c0-.277-.2240777-.5-.5000777-.5-.277 0-.5.223-.5.5v3.792l-11.147-11.146c-.195-.195-.512-.195-.707 0"/></g></svg>