<svg height="512" viewBox="0 0 24 24" width="512" xmlns="http://www.w3.org/2000/svg"><g id="sort/swap-diagonal-alt-3" fill="rgb(0,0,0)" fill-rule="evenodd"><path id="Fill-46" d="m15.00015 14.4981c0 .276.224.5000784.5.5000784h4.998c.272.0049216.507-.2300784.5020784-.5020784v-4.998c0-.276-.2240784-.5-.5000784-.5s-.5.224-.5.5v3.793l-11.146-11.147c-.196-.195-.512-.195-.708 0-.195.196-.195.512 0 .708l11.147 11.146h-3.793c-.276 0-.5.224-.5.5"/><path id="Fill-48" d="m8.00015 8.4981c0-.276-.224-.50007803-.5-.50007803h-4.999c-.271-.00492197-.507.23107803-.50111197.50207803v4.998c0 .276.22411197.5.50011197.5s.5-.224.5-.5v-3.793l11.146 11.147c.196.195.512.195.708 0 .195-.196.195-.512 0-.708l-11.147-11.146h3.793c.276 0 .5-.224.5-.5"/></g></svg>