<svg height="512" viewBox="0 0 24 24" width="512" xmlns="http://www.w3.org/2000/svg"><g id="sort/swap-horizonal" fill="rgb(0,0,0)" fill-rule="evenodd"><path id="Fill-26" d="m16.14665 11.8516c.196.194.511.195.707 0l3.999-3.999c.195-.186.195-.523 0-.709l-3.999-3.999c-.195-.195-.512-.195-.707 0s-.195.512 0 .707l3.146 3.146h-15.792c-.277 0-.5.224-.5.5 0 .277.223.5.5.5h15.792l-3.146 3.147c-.195.195-.195.512 0 .707"/><path id="Fill-28" d="m2.14765 15.8526 3.999 3.999c.195.195.512.194.707 0 .195-.195.195-.512 0-.707l-3.146-3.146h15.793c.276 0 .5-.223.5-.5s-.224-.5-.5-.5h-15.793l3.146-3.147c.195-.195.195-.512 0-.707s-.512-.195-.707 0l-3.999 3.999c-.196.186-.195.522 0 .709"/></g></svg>