<svg height="512" viewBox="0 0 24 24" width="512" xmlns="http://www.w3.org/2000/svg"><g id="sort/swap-horizontal-alt" fill="rgb(0,0,0)" fill-rule="evenodd"><path id="Fill-30" d="m16.14665 19.8516c.196.194.511.195.707 0l3.999-3.999c.195-.186.195-.523 0-.709l-3.999-3.999c-.195-.195-.512-.195-.707 0s-.195.512 0 .707l3.146 3.146h-15.792c-.277 0-.5.224-.5.5 0 .277.223.5.5.5h15.792l-3.146 3.147c-.195.195-.195.512 0 .707"/><path id="Fill-32" d="m2.00015 7.4845c-.004.14.049.271.148.368l3.998 3.999c.196.196.512.196.708 0 .195-.195.195-.512 0-.707l-3.147-3.146h15.793c.276 0 .5-.224.5-.5 0-.277-.224-.5-.5-.5h-15.793l3.147-3.147c.195-.195.195-.512 0-.707-.196-.195-.512-.195-.708 0l-3.999 3.999c-.091.094-.144.211-.147.341"/></g></svg>