<svg height="512" viewBox="0 0 24 24" width="512" xmlns="http://www.w3.org/2000/svg"><g id="direction/trend-bottom-left" fill="none" fill-rule="evenodd"><path id="Fill-194" d="m2.13495 15.8399c.095.103.227.158.367.158h3.998c.277 0 .5-.222.5-.5 0-.276-.223-.5-.5-.5h-2.793l5.793-5.793 4.647 4.647c.195.195.511.195.707 0l6-6c.195-.196.195-.512 0-.707-.196-.196-.512-.196-.707 0l-5.647 5.646-4.646-4.646c-.196-.196-.512-.196-.707 0l-6.147 6.146v-2.793c0-.276-.223-.5-.5-.5-.276 0-.50001563.224-.50001563.5v3.998c-.00098437.13.04601563.248.13501563.344" fill="rgb(0,0,0)"/></g></svg>