<svg height="512" viewBox="0 0 24 24" width="512" xmlns="http://www.w3.org/2000/svg"><g id="direction/trend-bottom-right" fill="none" fill-rule="evenodd"><path id="Fill-192" d="m20.50025 15.9981503c.271.0039497.506-.2310503.5001124-.5020503v-3.998c0-.276-.2241124-.5-.5001124-.5s-.5.224-.5.5v2.793l-6.146-6.147c-.196-.195-.512-.195-.708 0l-4.646 4.647-5.646-5.647c-.196-.195-.512-.195-.708 0-.195.196-.195.512 0 .708l6 6c.196.195.512.195.708 0l4.646-4.647 5.793 5.793h-2.793c-.276 0-.5.224-.5.5s.224.5000503.5.5000503h3.999z" fill="rgb(0,0,0)"/></g></svg>