<svg height="512" viewBox="0 0 24 24" width="512" xmlns="http://www.w3.org/2000/svg"><g id="direction/trend-top-left" fill="none" fill-rule="evenodd"><path id="Fill-196" d="m7.00015 7.4981c0-.276-.224-.5-.5-.5h-3.999c-.268-.006-.508.23-.50114941.502v3.998c0 .276.22414941.5.50014941.5s.5-.224.5-.5v-2.793l6.146 6.147c.196.195.512.195.708 0l4.646-4.647 5.646 5.647c.196.195.512.195.708 0 .195-.196.195-.512 0-.708l-6-6c-.196-.195-.512-.195-.708 0l-4.646 4.647-5.793-5.793h2.793c.276 0 .5-.224.5-.5" fill="rgb(0,0,0)"/></g></svg>