<svg height="512" viewBox="0 0 24 24" width="512" xmlns="http://www.w3.org/2000/svg"><g id="direction/turn-left-alt" fill="none" fill-rule="evenodd"><path id="Fill-64" d="m2.13495 7.8404c.001 0 .012.012.013.013l4.999 4.999c.195.195.511.195.707 0 .195-.196.195-.512 0-.707l-4.147-4.147h15.293v12.5c0 .277.224.5.5.5.277 0 .5-.223.5-.5v-13c0-.276-.223-.5-.5-.5h-15.793l4.147-4.146c.195-.196.195-.512 0-.707-.196-.196-.512-.196-.707 0l-4.999 4.998c-.19.182-.198.507-.013.697" fill="rgb(0,0,0)"/></g></svg>