<svg height="512" viewBox="0 0 24 24" width="512" xmlns="http://www.w3.org/2000/svg"><g id="direction/u-turn-down" fill="none" fill-rule="evenodd"><path id="Fill-70" d="m11.85375 16.1451c-.195-.195-.512-.195-.707 0s-.195.512 0 .707l3.999 3.999c.186.195.524.195.709 0l3.999-3.999c.195-.195.195-.512 0-.707s-.512-.195-.707 0l-3.147 3.146v-10.792c0-3.584-2.917-6.5-6.5-6.5s-6.5 2.916-6.5 6.5v10c0 .276.224.5.5.5.277 0 .5-.224.5-.5v-10c0-3.033 2.468-5.5 5.5-5.5 3.033 0 5.5 2.467 5.5 5.5v10.792z" fill="rgb(0,0,0)"/></g></svg>