<svg height="512" viewBox="0 0 24 24" width="512" xmlns="http://www.w3.org/2000/svg"><g id="direction/u-turn-down-alt" fill="none" fill-rule="evenodd"><path id="Fill-78" d="m18.50015 18.9986c.276 0 .5-.224.5-.5v-10c0-3.584-2.916-6.5-6.5-6.5s-6.5 2.916-6.5 6.5v10.793l-3.146-3.147c-.196-.195-.512-.195-.708 0-.195.196-.195.512 0 .708l3.999 3.999c.186.194.525.195.709-.001l4-3.998c.195-.196.195-.512 0-.708-.196-.195-.512-.195-.708 0l-3.146 3.147v-10.793c0-3.033 2.467-5.5 5.5-5.5s5.5 2.467 5.5 5.5v10c0 .276.224.5.5.5" fill="rgb(0,0,0)"/></g></svg>