<svg height="512" viewBox="0 0 24 24" width="512" xmlns="http://www.w3.org/2000/svg"><g id="direction/u-turn-right-alt" fill="none" fill-rule="evenodd"><path id="Fill-76" d="m8.50015 16.9986h10.793l-3.147 3.146c-.195.196-.195.512 0 .708.196.195.512.195.708 0l3.999-3.999c.193-.186.196-.523-.001-.71l-3.998-3.999c-.196-.195-.512-.195-.708 0-.195.196-.195.512 0 .708l3.147 3.146h-10.793c-3.033 0-5.5-2.467-5.5-5.5s2.467-5.5 5.5-5.5h10c.276 0 .5-.224.5-.5s-.224-.5-.5-.5h-10c-3.584 0-6.5 2.916-6.5 6.5s2.916 6.5 6.5 6.5" fill="rgb(0,0,0)"/></g></svg>