<svg height="512" viewBox="0 0 24 24" width="512" xmlns="http://www.w3.org/2000/svg"><g id="direction/u-turn-up-alt" fill="none" fill-rule="evenodd"><path id="Fill-74" d="m20.85375 6.8521c.195-.195.195-.512 0-.707l-3.999-3.999c-.185-.195-.524-.195-.709 0l-3.999 3.999c-.195.195-.195.512 0 .707s.512.195.707 0l3.146-3.146v10.792c0 3.033-2.467 5.5-5.5 5.5-3.032 0-5.5-2.467-5.5-5.5v-10c0-.276-.223-.5-.5-.5-.276 0-.5.224-.5.5v10c0 3.584 2.916 6.5 6.5 6.5 3.583 0 6.5-2.916 6.5-6.5v-10.792l3.147 3.146c.195.195.512.195.707 0" fill="rgb(0,0,0)"/></g></svg>