<svg height="512" viewBox="0 0 24 24" width="512" xmlns="http://www.w3.org/2000/svg"><g id="direction/zigzag-down-left" fill="none" fill-rule="evenodd"><path id="Fill-241" d="m17.50015 9.9986c.276 0 .5-.224.5-.5v-8c0-.276-.224-.5-.5-.5s-.5.224-.5.5v7.5h-9.5c-.276 0-.5.224-.5.5v9.793l-2.146-2.147c-.196-.195-.512-.195-.708 0-.195.196-.195.512 0 .708l2.999 2.999c.185.193.526.195.71-.001l2.999-2.998c.195-.196.195-.512 0-.708-.196-.195-.512-.195-.708 0l-2.146 2.147v-9.293z" fill="rgb(0,0,0)"/></g></svg>