<svg height="512" viewBox="0 0 24 24" width="512" xmlns="http://www.w3.org/2000/svg"><g id="direction/zigzag-down-right" fill="none" fill-rule="evenodd"><path id="Fill-239" d="m17.85375 17.1451c-.195-.195-.512-.195-.707 0l-2.147 2.146v-9.792c0-.277-.223-.5-.5-.5h-9.5v-7.5c0-.277-.223-.5-.5-.5-.276 0-.5.223-.5.5v8c0 .276.224.5.5.5h9.5v9.292l-2.146-2.146c-.195-.195-.512-.195-.707 0s-.195.512 0 .707l2.999 2.999c.185.195.524.195.709 0l2.999-2.999c.195-.195.195-.512 0-.707" fill="rgb(0,0,0)"/></g></svg>