<svg height="512" viewBox="0 0 24 24" width="512" xmlns="http://www.w3.org/2000/svg"><g id="direction/zigzag-left-down" fill="none" fill-rule="evenodd"><path id="Fill-243" d="m1.14765 16.8536 2.999 2.999c.195.195.512.194.707 0 .195-.196.195-.512 0-.707l-2.146-2.147h9.793c.276 0 .5-.223.5-.5v-9.5h7.5c.276 0 .5-.223.5-.5 0-.276-.224-.5-.5-.5h-8c-.277 0-.5.224-.5.5v9.5h-9.293l2.146-2.146c.195-.196.195-.512 0-.707-.195-.196-.512-.196-.707 0l-2.999 2.998c-.193.184-.197.523 0 .71" fill="rgb(0,0,0)"/></g></svg>