<svg height="512" viewBox="0 0 24 24" width="512" xmlns="http://www.w3.org/2000/svg"><g id="direction/zigzag-left-up" fill="none" fill-rule="evenodd"><path id="Fill-245" d="m1.14765 6.8536c.751.749 2.999 2.999 2.999 2.999.195.195.512.195.707 0 .195-.196.195-.512 0-.707l-2.146-2.147h9.293v9.5c0 .277.223.5.5.5h8c.276 0 .5-.223.5-.5 0-.276-.224-.5-.5-.5h-7.5v-9.5c0-.276-.224-.5-.5-.5h-9.793l2.146-2.146c.195-.196.195-.512 0-.707-.195-.196-.512-.196-.707 0l-2.999 2.998c-.194.185-.197.523 0 .71" fill="rgb(0,0,0)"/></g></svg>