<svg height="512" viewBox="0 0 24 24" width="512" xmlns="http://www.w3.org/2000/svg"><g id="direction/zigzag-right-down" fill="none" fill-rule="evenodd"><path id="Fill-237" d="m21.85275 16.1436-2.999-2.999c-.195-.195-.512-.195-.707 0-.195.196-.195.512 0 .707l2.146 2.147h-9.293v-9.5c0-.277-.223-.5-.5-.5h-8c-.276 0-.5.223-.5.5 0 .276.224.5.5.5h7.5v9.5c0 .276.224.5.5.5h9.793l-2.146 2.146c-.195.196-.195.512 0 .707.195.196.512.197.707 0l2.999-2.998c.194-.186.196-.523 0-.71" fill="rgb(0,0,0)"/></g></svg>