<svg height="512" viewBox="0 0 24 24" width="512" xmlns="http://www.w3.org/2000/svg"><g id="direction/zigzag-right-up" fill="none" fill-rule="evenodd"><path id="Fill-235" d="m21.85275 6.1436-2.999-2.999c-.195-.195-.512-.195-.707 0-.195.196-.195.512 0 .707l2.146 2.147h-9.793c-.276 0-.5.223-.5.5v9.5h-7.5c-.276 0-.5.223-.5.5 0 .276.224.5.5.5h8c.277 0 .5-.224.5-.5v-9.5h9.293l-2.146 2.146c-.195.196-.195.512 0 .707.195.196.512.196.707 0l2.999-2.998c.194-.185.197-.523 0-.71" fill="rgb(0,0,0)"/></g></svg>