<svg height="512" viewBox="0 0 24 24" width="512" xmlns="http://www.w3.org/2000/svg"><g id="direction/zigzag-up-left" fill="none" fill-rule="evenodd"><path id="Fill-231" d="m17.50025 20.9986c.276 0 .5-.224.5-.5v-8c0-.276-.224-.5-.5-.5h-9.5v-9.293l2.146 2.147c.196.195.512.195.708 0 .195-.196.195-.512 0-.708l-2.999-2.998c-.185-.196-.524-.194-.71-.001l-2.999 2.999c-.195.196-.195.512 0 .708.196.195.512.195.708 0l2.146-2.147v9.793c0 .276.224.5.5.5h9.5v7.5c0 .276.224.5.5.5" fill="rgb(0,0,0)"/></g></svg>