<svg id="Capa_1" enable-background="new 0 0 512 512" height="512" viewBox="0 0 512 512" width="512" xmlns="http://www.w3.org/2000/svg"><g><path d="m254.163 297.891c0-12.529-10.193-22.723-22.723-22.723s-22.723 10.193-22.723 22.723 10.193 22.723 22.723 22.723 22.723-10.194 22.723-22.723zm-30.445 0c0-4.258 3.464-7.723 7.723-7.723s7.723 3.464 7.723 7.723-3.464 7.723-7.723 7.723-7.723-3.465-7.723-7.723z"/><path d="m273.187 25.116h-34.373c-4.142 0-7.5 3.358-7.5 7.5s3.358 7.5 7.5 7.5h34.373c4.142 0 7.5-3.358 7.5-7.5s-3.358-7.5-7.5-7.5z"/><path d="m196.23 124.412c0 19.415 15.795 35.21 35.21 35.21s35.21-15.795 35.21-35.21-15.795-35.21-35.21-35.21-35.21 15.795-35.21 35.21zm55.421 0c0 11.144-9.066 20.21-20.21 20.21s-20.21-9.066-20.21-20.21 9.066-20.21 20.21-20.21 20.21 9.066 20.21 20.21z"/><path d="m279.797 441.66h-47.594c-9.018 0-16.354 7.336-16.354 16.354v12.321c0 9.018 7.336 16.354 16.354 16.354h47.594c9.018 0 16.354-7.336 16.354-16.354v-12.321c0-9.017-7.336-16.354-16.354-16.354zm1.354 28.675c0 .747-.607 1.354-1.354 1.354h-47.594c-.747 0-1.354-.607-1.354-1.354v-12.321c0-.747.607-1.354 1.354-1.354h47.594c.747 0 1.354.607 1.354 1.354z"/><path d="m408.47 34.12c0-18.814-15.306-34.12-34.12-34.12h-236.7c-18.814 0-34.12 15.306-34.12 34.12v24.32c0 4.142 3.358 7.5 7.5 7.5h75.778c-17.878 13.538-29.453 34.983-29.453 59.086 0 58.838 65.602 135.95 68.395 139.204 1.425 1.66 3.503 2.615 5.691 2.615s4.267-.955 5.691-2.615c.527-.614 13.071-15.284 27.403-36.689 19.394-28.964 32.082-55.151 37.71-77.833.998-4.021-1.453-8.088-5.473-9.086-4.023-.996-8.088 1.453-9.086 5.473-9.917 39.961-42.886 84.494-56.246 101.376-15.811-19.981-59.086-78.674-59.086-122.444 0-32.58 26.506-59.086 59.086-59.086 28.469 0 52.899 20.278 58.089 48.216.756 4.072 4.665 6.757 8.744 6.004 4.072-.757 6.76-4.671 6.004-8.744-3.474-18.696-13.816-34.654-28.128-45.476h71.741v127.934l-56.418 56.418c-7.171 7.157-9.818 17.638-6.906 27.354l8.172 27.229-65.284 65.284-108.924-108.927v-167.735c0-4.142-3.358-7.5-7.5-7.5s-7.5 3.358-7.5 7.5v384.382c0 18.814 15.306 34.12 34.12 34.12h236.7c18.813 0 34.12-15.306 34.12-34.12v-107.716c0-4.142-3.358-7.5-7.5-7.5s-7.5 3.358-7.5 7.5v45.304h-15.906l-58.817-58.818 24.507-24.507c7.167-7.167 9.807-17.648 6.89-27.35l-8.171-27.219 51.498-51.498v108.949c0 4.142 3.358 7.5 7.5 7.5s7.5-3.358 7.5-7.5v-300.905zm-289.94 16.82v-16.82c0-10.543 8.577-19.12 19.12-19.12h236.7c10.542 0 19.12 8.577 19.12 19.12v16.82zm244.36 15h30.58v82.354l-30.58 30.58zm-146.041 314.825-10.608 10.608-87.71-87.71v-21.217zm-98.319 34.703v-90.591l77.104 77.104-13.488 13.488h-63.616zm274.94 62.412c0 10.543-8.577 19.12-19.12 19.12h-236.7c-10.543 0-19.12-8.577-19.12-19.12v-47.412h274.94zm-106.54-89.414 27.001 27.001h-54.003zm69.421 27.002h-21.207l-37.607-37.608 10.604-10.604zm-28.154-145.331c-1.952 1.951-2.673 4.816-1.88 7.46l9.461 31.514c1.326 4.408.126 9.169-3.131 12.426l-93.931 93.931h-35.357l103.155-103.155c1.951-1.951 2.673-4.816 1.88-7.458l-9.459-31.517c-1.323-4.416-.123-9.178 3.139-12.434l91.396-91.396v35.357z"/><circle cx="300.403" cy="32.616" r="7.293"/></g></svg>