<svg id="Capa_1" enable-background="new 0 0 512 512" height="512" viewBox="0 0 512 512" width="512" xmlns="http://www.w3.org/2000/svg"><g><path d="m382.5 0c-4.143 0-7.5 3.358-7.5 7.5v387.921c0 4.142 3.357 7.5 7.5 7.5s7.5-3.358 7.5-7.5v-387.921c0-4.142-3.357-7.5-7.5-7.5z"/><path d="m129.501 0c-4.142 0-7.5 3.358-7.5 7.5v497c0 4.142 3.358 7.5 7.5 7.5s7.5-3.358 7.5-7.5v-497c0-4.142-3.358-7.5-7.5-7.5z"/><path d="m382.5 422.926c-4.143 0-7.5 3.358-7.5 7.5v74.074c0 4.142 3.357 7.5 7.5 7.5s7.5-3.358 7.5-7.5v-74.074c0-4.142-3.357-7.5-7.5-7.5z"/><path d="m158.5 121.804c-4.142 0-7.5 3.358-7.5 7.5v375.196c0 4.142 3.358 7.5 7.5 7.5s7.5-3.358 7.5-7.5v-375.196c0-4.142-3.358-7.5-7.5-7.5z"/><path d="m353.5 0c-4.143 0-7.5 3.358-7.5 7.5v497c0 4.142 3.357 7.5 7.5 7.5s7.5-3.358 7.5-7.5v-497c0-4.142-3.357-7.5-7.5-7.5z"/><path d="m158.5 0c-4.142 0-7.5 3.358-7.5 7.5v86.671c0 4.142 3.358 7.5 7.5 7.5s7.5-3.358 7.5-7.5v-86.671c0-4.142-3.358-7.5-7.5-7.5z"/><path d="m256 66.01c-4.142 0-7.5 3.358-7.5 7.5v25c0 4.142 3.358 7.5 7.5 7.5 4.143 0 7.5-3.358 7.5-7.5v-25c0-4.142-3.357-7.5-7.5-7.5z"/><path d="m256 468.01c-4.142 0-7.5 3.358-7.5 7.5v25c0 4.142 3.358 7.5 7.5 7.5 4.143 0 7.5-3.358 7.5-7.5v-25c0-4.142-3.357-7.5-7.5-7.5z"/><path d="m256 133.01c-4.142 0-7.5 3.358-7.5 7.5v25c0 4.142 3.358 7.5 7.5 7.5 4.143 0 7.5-3.358 7.5-7.5v-25c0-4.142-3.357-7.5-7.5-7.5z"/><path d="m256 0c-4.142 0-7.5 3.358-7.5 7.5v24.01c0 4.142 3.358 7.5 7.5 7.5 4.143 0 7.5-3.358 7.5-7.5v-24.01c0-4.142-3.357-7.5-7.5-7.5z"/><path d="m256 334.01c-4.142 0-7.5 3.358-7.5 7.5v25c0 4.142 3.358 7.5 7.5 7.5 4.143 0 7.5-3.358 7.5-7.5v-25c0-4.142-3.357-7.5-7.5-7.5z"/><path d="m256 267.01c-4.142 0-7.5 3.358-7.5 7.5v25c0 4.142 3.358 7.5 7.5 7.5 4.143 0 7.5-3.358 7.5-7.5v-25c0-4.142-3.357-7.5-7.5-7.5z"/><path d="m256 401.01c-4.142 0-7.5 3.358-7.5 7.5v25c0 4.142 3.358 7.5 7.5 7.5 4.143 0 7.5-3.358 7.5-7.5v-25c0-4.142-3.357-7.5-7.5-7.5z"/><path d="m256 200.01c-4.142 0-7.5 3.358-7.5 7.5v25c0 4.142 3.358 7.5 7.5 7.5 4.143 0 7.5-3.358 7.5-7.5v-25c0-4.142-3.357-7.5-7.5-7.5z"/><g><path d="m87.685 389.036c-11.527 0-20.905 9.378-20.905 20.905v34.023c0 11.527 9.378 20.905 20.905 20.905s20.905-9.378 20.905-20.905v-34.023c0-11.527-9.378-20.905-20.905-20.905zm5.905 54.928c0 3.256-2.649 5.905-5.905 5.905s-5.905-2.649-5.905-5.905v-34.023c0-3.256 2.649-5.905 5.905-5.905s5.905 2.649 5.905 5.905z"/><path d="m424.316 389.036c-11.527 0-20.905 9.378-20.905 20.905v34.023c0 11.527 9.378 20.905 20.905 20.905 11.526 0 20.904-9.378 20.904-20.905v-34.023c0-11.527-9.378-20.905-20.904-20.905zm5.904 54.928c0 3.256-2.648 5.905-5.904 5.905s-5.905-2.649-5.905-5.905v-34.023c0-3.256 2.649-5.905 5.905-5.905s5.904 2.649 5.904 5.905z"/><path d="m87.685 218.083c-11.527 0-20.905 9.378-20.905 20.905v34.023c0 11.527 9.378 20.905 20.905 20.905s20.905-9.378 20.905-20.905v-34.023c0-11.527-9.378-20.905-20.905-20.905zm5.905 54.929c0 3.256-2.649 5.905-5.905 5.905s-5.905-2.649-5.905-5.905v-34.023c0-3.256 2.649-5.905 5.905-5.905s5.905 2.649 5.905 5.905z"/><path d="m424.316 218.083c-11.527 0-20.905 9.378-20.905 20.905v34.023c0 11.527 9.378 20.905 20.905 20.905 11.526 0 20.904-9.378 20.904-20.905v-34.023c0-11.527-9.378-20.905-20.904-20.905zm5.904 54.929c0 3.256-2.648 5.905-5.904 5.905s-5.905-2.649-5.905-5.905v-34.023c0-3.256 2.649-5.905 5.905-5.905s5.904 2.649 5.904 5.905z"/><path d="m87.685 47.131c-11.527 0-20.905 9.378-20.905 20.905v34.023c0 11.527 9.378 20.905 20.905 20.905s20.905-9.378 20.905-20.905v-34.023c0-11.527-9.378-20.905-20.905-20.905zm5.905 54.928c0 3.256-2.649 5.905-5.905 5.905s-5.905-2.649-5.905-5.905v-34.023c0-3.256 2.649-5.905 5.905-5.905s5.905 2.649 5.905 5.905z"/><path d="m424.316 47.131c-11.527 0-20.905 9.378-20.905 20.905v34.023c0 11.527 9.378 20.905 20.905 20.905 11.526 0 20.904-9.378 20.904-20.905v-34.023c0-11.527-9.378-20.905-20.904-20.905zm5.904 54.928c0 3.256-2.648 5.905-5.904 5.905s-5.905-2.649-5.905-5.905v-34.023c0-3.256 2.649-5.905 5.905-5.905s5.904 2.649 5.904 5.905z"/></g></g></svg>