<svg id="Capa_1" enable-background="new 0 0 512 512" height="512" viewBox="0 0 512 512" width="512" xmlns="http://www.w3.org/2000/svg"><g><path d="m502.729 52.905c-5.89-4.87-13.574-6.838-21.074-5.402l-85.11 16.22c-41.603 7.938-83.789 7.937-125.487-.018l-71.386-12.642c-4.075-.72-7.971 1.998-8.692 6.077-.723 4.079 1.998 7.971 6.077 8.693l71.288 12.624c43.465 8.293 87.543 8.293 131.01 0l85.115-16.221c3.094-.592 6.271.219 8.702 2.229 2.432 2.012 3.828 4.976 3.828 8.135v331.46c0 5.064-3.608 9.427-8.585 10.373l-91.869 17.52c-41.603 7.928-83.791 7.928-125.487-.018l-100.355-17.782v-17.378l103.639 18.472c19.527 3.731 39.548 5.624 59.508 5.624 19.956 0 39.98-1.892 59.515-5.623l80.54-15.35c3.537-.674 6.096-3.767 6.096-7.367v-218.327c0-4.142-3.357-7.5-7.5-7.5s-7.5 3.358-7.5 7.5v127.219l-53.272-53.271 11.124-11.118c4.146-4.16 6.428-9.676 6.428-15.534v-29.81c0-1.866.726-3.619 2.043-4.937l46.48-46.48c1.148-1.254 2.228-2.966 2.196-5.308v-45.505c0-2.235-.997-4.354-2.719-5.779-1.724-1.425-3.991-2.009-6.186-1.588l-68.559 13.069c-44.243 8.464-91.544 8.757-137.25.024l-94.584-16.876v-35.66c0-18.45-15.01-33.459-33.46-33.459h-103.783c-18.45-.001-33.46 15.009-33.46 33.459v388.488c0 18.45 15.01 33.459 33.46 33.459h10.755v15.065c0 12.763 10.384 23.147 23.146 23.147h35.98c12.763 0 23.146-10.384 23.146-23.147v-15.065h10.755c18.691.1 34.332-16.143 33.46-35.211l97.643 17.302c21.732 4.141 43.618 6.212 65.504 6.212s43.772-2.071 65.506-6.212l91.865-17.519c12.041-2.29 20.78-12.85 20.78-25.109v-331.46c0-7.646-3.379-14.825-9.271-19.695zm-169.915 63.734-92.844 92.844-69.267-69.267v-27.158l49.73 49.722c5.243 5.25 12.215 8.14 19.633 8.14 7.416 0 14.391-2.89 19.638-8.137l47.112-47.112c8.638.613 17.357.945 25.998.968zm-114.055 114.053-48.056-48.056v-21.206l58.659 58.66zm-10.608 10.606-37.448 37.444v-74.892zm201.301 155.613c-1.202-20.304-7.729-36.423-19.107-46.959-11.305-10.468-26.771-15.108-44.729-13.418-13.187 1.24-20.854-4.684-30.54-12.191-13.673-10.597-30.687-23.784-65.897-12.966-3.959 1.216-6.183 5.413-4.966 9.372s5.409 6.18 9.372 4.966c27.767-8.534 39.137.28 52.302 10.484 10.325 8.001 22.027 17.073 41.136 15.269 9.474-.889 22.915.032 33.131 9.491 8.816 8.164 13.756 21.498 14.426 38.788-37.701 7.701-78.704 8.251-117.514.75l-66.597-11.87c3.75-17.883 10.344-33.607 18.874-44.829 2.507-3.297 1.865-8.003-1.432-10.509-3.3-2.507-8.003-1.865-10.51 1.432-9.918 13.048-17.5 31.052-21.694 51.276l-25.005-4.457v-25.005l142.878-142.888 151.42 151.42v21.257zm55.548-53.057-146.116-146.117c-2.01-2.148-7.29-3.256-10.607 0l-137.574 137.582v-35.365l183.88-183.87c11.127-.629 25.01-1.889 39.58-4.23l-64.667 64.673c-2.929 2.929-2.929 7.678 0 10.606l135.504 135.503zm0-211.991-44.284 44.284c-4.149 4.15-6.436 9.67-6.436 15.543v29.81c0 1.861-.729 3.617-2.042 4.935l-11.117 11.11-55.715-55.715 74.747-74.755 44.847-8.55zm-196.754-20.898c5.318.912 11.601 1.902 19.213 2.849l-38.362 38.362c-2.413 2.414-5.62 3.743-9.03 3.743-3.407 0-6.61-1.328-9.023-3.744l-58.27-58.26 89.8 16.022c1.884.359 3.777.699 5.672 1.028zm-156.758 368.698c0 4.492-3.654 8.147-8.146 8.147h-35.98c-4.492 0-8.146-3.655-8.146-8.147v-15.065h52.273v15.065zm25.755-30.066h-103.783c-10.179 0-18.46-8.281-18.46-18.459v-388.488c0-10.179 8.281-18.459 18.46-18.459h103.783c10.179 0 18.46 8.281 18.46 18.459v388.488c0 10.178-8.281 18.459-18.46 18.459z"/><path d="m85.352 212.209c-4.143 0-7.5 3.358-7.5 7.5v56.788c0 4.142 3.357 7.5 7.5 7.5s7.5-3.358 7.5-7.5v-56.788c0-4.142-3.358-7.5-7.5-7.5z"/><path d="m296.729 263.979c-4.02-.927-8.025 1.578-8.97 5.598-.943 4.021 1.556 8.051 5.572 9.012.2.048 20.147 5.004 33.582 24.107 1.46 2.076 3.782 3.186 6.142 3.186 1.49 0 2.996-.443 4.308-1.366 3.388-2.383 4.203-7.061 1.82-10.449-16.849-23.958-41.416-29.849-42.454-30.088z"/></g></svg>