<svg id="Capa_1" enable-background="new 0 0 512 512" height="512" viewBox="0 0 512 512" width="512" xmlns="http://www.w3.org/2000/svg"><g><path d="m28.869 385.651v51.058c-5.776 5.95-9.027 13.895-9.027 22.306v10.132.01c0 2.071.84 3.946 2.197 5.303s3.232 2.197 5.304 2.197h80.476c4.142 0 7.5-3.358 7.5-7.5v-10.142c0-8.411-3.25-16.355-9.026-22.306v-51.058c14.703.456 27.919-12.084 27.903-27.279v-41.628c.186-21.001-18.922-37.056-39.858-35.024 2.934-4.773 4.629-10.384 4.629-16.386 0-17.306-14.08-31.386-31.386-31.386s-31.386 14.08-31.386 31.386c0 6.001 1.696 11.613 4.629 16.386-21.007-2.066-39.789 13.812-39.858 35.024v41.628c-.104 14.754 12.676 27.6 27.903 27.279zm22.325-120.317c0-9.035 7.351-16.386 16.386-16.386s16.386 7.351 16.386 16.386-7.351 16.386-16.386 16.386-16.386-7.35-16.386-16.386zm-35.228 93.039v-41.628c-.12-10.522 9.264-20.211 20.403-20.024h62.422c10.506-.332 20.39 8.901 20.403 20.024v41.628c.079 6.004-5.688 12.608-12.903 12.279v-49.069c0-4.142-3.358-7.5-7.5-7.5s-7.5 3.358-7.5 7.5v118.407c0 2.252 1.012 4.385 2.756 5.809 3.985 3.254 6.271 8.071 6.271 13.216v2.642h-25.238v-94.448c0-4.142-3.358-7.5-7.5-7.5s-7.5 3.358-7.5 7.5v94.448h-25.238v-2.642c0-5.145 2.286-9.962 6.271-13.216 1.745-1.424 2.756-3.557 2.756-5.809v-118.408c0-4.142-3.358-7.5-7.5-7.5s-7.5 3.358-7.5 7.5v49.069c-5.942.365-12.86-4.971-12.903-12.278z"/><path d="m384.81 353.923-38.482-38.474 66.201-65.726 28.112.3c4.136.034 7.535-3.277 7.58-7.419.044-4.142-3.277-7.536-7.419-7.58l-28.566-.305c-.018 0-.035 0-.052 0-3.762 0-7.301 1.458-9.971 4.11l-71.794 71.279c-1.415 1.405-2.212 3.315-2.216 5.309-.003 1.994.787 3.907 2.197 5.317l43.802 43.792c3.965 3.971 3.967 10.427.004 14.391l-115.105 115.103c-1.922 1.922-4.478 2.98-7.195 2.98h-224.564c-4.142 0-7.5 3.358-7.5 7.5s3.358 7.5 7.5 7.5h224.564c6.724 0 13.045-2.619 17.801-7.374l115.104-115.103c9.807-9.808 9.808-25.775-.001-35.6z"/><path d="m474.361 69.735c0-18.549-15.091-33.641-33.64-33.641s-33.641 15.092-33.641 33.641 15.091 33.64 33.641 33.64 33.64-15.091 33.64-33.64zm-52.281 0c0-10.278 8.362-18.641 18.641-18.641s18.64 8.362 18.64 18.641-8.362 18.64-18.64 18.64-18.641-8.362-18.641-18.64z"/><path d="m378.098 78.729c-4.068.782-6.731 4.713-5.95 8.781 4.255 22.142 16.161 48.156 35.386 77.319 10.236 15.528 19.745 27.638 24.442 33.405h-36.555c-1.989 0-3.896.79-5.303 2.196l-97.209 97.2c-9.806 9.82-9.804 25.788.003 35.595l38.494 38.503-89.928 89.928h-98.686c-4.142 0-7.5 3.358-7.5 7.5s3.358 7.5 7.5 7.5h101.792c1.989 0 3.897-.79 5.303-2.197l97.428-97.428c2.929-2.929 2.929-7.677 0-10.606l-43.796-43.807c-3.963-3.963-3.961-10.419 0-14.386l95.009-94.999h42.192c4.142 0 7.5-3.358 7.5-7.5 0-1.613-.514-3.104-1.381-4.327 6.083-7.181 64.195-77.199 64.195-131.093.001-38.771-31.542-70.313-70.313-70.313-30.745 0-57.671 19.666-67.003 48.936-1.258 3.947.921 8.166 4.867 9.424 3.946 1.26 8.166-.921 9.424-4.867 7.34-23.024 28.524-38.493 52.712-38.493 30.5 0 55.314 24.814 55.314 55.314 0 40.857-40.159 95.615-55.314 114.822-13.416-17.003-46.428-61.883-53.841-100.458-.783-4.067-4.712-6.731-8.782-5.949z"/><path d="m210.206 329.082c4.142 0 7.5-3.358 7.5-7.5v-47.334c14.121-3.389 24.651-16.114 24.651-31.26v-38.682c0-17.729-14.423-32.151-32.151-32.151s-32.152 14.423-32.152 32.151v38.682c0 15.146 10.53 27.871 24.652 31.26v47.334c0 4.142 3.358 7.5 7.5 7.5zm-17.151-86.094v-38.682c0-9.458 7.694-17.151 17.152-17.151s17.151 7.694 17.151 17.151v38.682c0 9.458-7.694 17.152-17.151 17.152s-17.152-7.694-17.152-17.152z"/><path d="m8.466 148.173h355.573c4.142 0 7.5-3.358 7.5-7.5s-3.358-7.5-7.5-7.5h-130.814l-68.493-63.626c-10.923-10.147-27.906-10.009-38.662.316l-16.481 15.819-19.943-17.608c-5.951-5.253-13.892-7.758-21.774-6.875-7.888.884-15.073 5.085-19.711 11.526l-45.781 63.565c-1.645 2.284-1.873 5.297-.589 7.802 1.282 2.505 3.86 4.081 6.675 4.081zm127.991-67.488c5.026-4.825 12.962-4.889 18.066-.147l56.662 52.636h-50.825l-39.674-37.351zm-76.125.807c2.2-3.054 5.471-4.967 9.211-5.386 3.74-.421 7.354.722 10.174 3.212l58.759 53.855h-115.366z"/><path d="m503.535 497h-30.663v-41.913c14.121-3.388 24.651-16.113 24.651-31.259v-38.682c0-17.729-14.423-32.151-32.151-32.151s-32.151 14.423-32.151 32.151v38.682c0 15.146 10.53 27.871 24.651 31.259v41.913h-157.881c-4.142 0-7.5 3.358-7.5 7.5s3.358 7.5 7.5 7.5h203.544c4.142 0 7.5-3.358 7.5-7.5s-3.358-7.5-7.5-7.5zm-55.314-73.172v-38.682c0-9.458 7.694-17.151 17.151-17.151s17.151 7.694 17.151 17.151v38.682c0 9.458-7.694 17.151-17.151 17.151s-17.151-7.694-17.151-17.151z"/></g></svg>