<svg id="Capa_1" enable-background="new 0 0 512 512" height="512" viewBox="0 0 512 512" width="512" xmlns="http://www.w3.org/2000/svg"><g><path d="m475.738 444.055c-4.142 0-7.5 3.358-7.5 7.5v9.507l-340.347-258.829h326.86c4.142 0 7.5-3.358 7.5-7.5s-3.358-7.5-7.5-7.5h-349.112c-3.219 0-6.079 2.054-7.107 5.104s.005 6.417 2.567 8.365l363.195 276.205c3.416 2.598 4.79 7.075 3.419 11.141-1.37 4.066-5.174 6.798-9.465 6.798h-401c-4.142 0-7.5 3.358-7.5 7.5s3.358 7.5 7.5 7.5h401c10.735 0 20.251-6.835 23.68-17.007.496-1.436 1.219-4.649 1.31-7.797v-33.488c0-4.141-3.358-7.499-7.5-7.499z"/><path d="m85.452 366.567c0-15.552-12.652-28.204-28.203-28.204s-28.203 12.652-28.203 28.204c0 15.551 12.652 28.203 28.203 28.203s28.203-12.653 28.203-28.203zm-41.407 0c0-7.28 5.923-13.204 13.203-13.204s13.203 5.923 13.203 13.204c0 7.28-5.923 13.203-13.203 13.203s-13.203-5.924-13.203-13.203z"/><path d="m51.876 472.597c2.19 1.461.956 1.769 5.543 2.273h234.413c4.142 0 7.5-3.358 7.5-7.5s-3.358-7.5-7.5-7.5h-219.045c14.995-19.923 41.71-60.024 41.71-92.845 0-31.567-25.682-57.249-57.249-57.249s-57.248 25.682-57.248 57.249c0 44.654 49.452 102.786 51.557 105.239.101.117.212.223.319.333zm5.373-147.82c23.296 0 42.249 18.953 42.249 42.249 0 30.85-29.545 72.103-42.249 88.412-12.704-16.311-42.249-57.563-42.249-88.413 0-23.296 18.953-42.248 42.249-42.248z"/><path d="m482.955 58.943c0-15.551-12.652-28.203-28.203-28.203s-28.203 12.652-28.203 28.203 12.652 28.203 28.203 28.203 28.203-12.652 28.203-28.203zm-41.407 0c0-7.28 5.923-13.203 13.203-13.203s13.203 5.923 13.203 13.203-5.923 13.203-13.203 13.203-13.203-5.923-13.203-13.203z"/><path d="m405.313 68.142c-4.031.951-6.528 4.99-5.578 9.022 6.703 28.413 27.105 58.641 39.488 75.092h-395.461v-7.149c0-4.142-3.358-7.5-7.5-7.5s-7.5 3.358-7.5 7.5v31.857c-.256 6.62 3.36 15.202 9.863 20.171l345.484 262.735h-57.234c-4.142 0-7.5 3.358-7.5 7.5s3.358 7.5 7.5 7.5h79.486c3.219 0 6.079-2.054 7.107-5.104s-.005-6.417-2.567-8.365l-363.195-276.205c-2.56-1.947-3.973-4.951-3.943-8.046v-.007c.011-1.031.182-2.073.524-3.088 1.371-4.066 5.175-6.798 9.466-6.798h401c1.675 0 4.203-.758 5.691-2.615 2.104-2.454 51.556-60.586 51.556-105.24 0-31.567-25.682-57.249-57.249-57.249-23.403 0-44.224 14.005-53.044 35.681-1.562 3.837.283 8.213 4.12 9.774 3.839 1.563 8.213-.283 9.774-4.12 6.51-15.998 21.878-26.335 39.151-26.335 23.296 0 42.249 18.953 42.249 42.249 0 30.85-29.545 72.103-42.249 88.412-10.789-13.856-33.725-45.726-40.417-74.094-.951-4.031-4.988-6.526-9.022-5.578z"/><path d="m475.738 413.19c-4.142 0-7.5 3.358-7.5 7.5v5c0 4.142 3.358 7.5 7.5 7.5s7.5-3.358 7.5-7.5v-5c0-4.142-3.358-7.5-7.5-7.5z"/><path d="m475.738 382.19c-4.142 0-7.5 3.358-7.5 7.5v5c0 4.142 3.358 7.5 7.5 7.5s7.5-3.358 7.5-7.5v-5c0-4.142-3.358-7.5-7.5-7.5z"/><path d="m475.738 308.601c-17.446 0-31.64 14.194-31.64 31.64s14.194 31.64 31.64 31.64 31.64-14.194 31.64-31.64-14.194-31.64-31.64-31.64zm0 48.281c-9.175 0-16.64-7.465-16.64-16.64s7.465-16.64 16.64-16.64 16.64 7.465 16.64 16.64-7.465 16.64-16.64 16.64z"/><path d="m28.762 119.242c0 4.142 3.358 7.5 7.5 7.5s7.5-3.358 7.5-7.5v-5c0-4.142-3.358-7.5-7.5-7.5s-7.5 3.358-7.5 7.5z"/><path d="m36.262 95.742c4.142 0 7.5-3.358 7.5-7.5v-5c0-4.142-3.358-7.5-7.5-7.5s-7.5 3.358-7.5 7.5v5c0 4.142 3.358 7.5 7.5 7.5z"/><path d="m36.262 65.434c17.446 0 31.64-14.194 31.64-31.64 0-17.447-14.194-31.641-31.64-31.641s-31.64 14.194-31.64 31.641c0 17.446 14.194 31.64 31.64 31.64zm0-48.281c9.175 0 16.64 7.465 16.64 16.641 0 9.175-7.465 16.64-16.64 16.64s-16.64-7.465-16.64-16.64c0-9.176 7.465-16.641 16.64-16.641z"/><path d="m161.745 434.524c0 4.142 3.358 7.5 7.5 7.5h73.457c3.034 0 5.768-1.827 6.929-4.63s.519-6.028-1.626-8.173l-17.667-17.667c-2.929-2.929-7.678-2.929-10.606 0-2.929 2.929-2.929 7.678 0 10.606l4.864 4.864h-55.35c-4.143 0-7.501 3.358-7.501 7.5z"/><path d="m312.546 277.288c-.542-4.107-4.31-7-8.418-6.452l-24.77 3.276c-3.007.397-5.479 2.567-6.262 5.498s.276 6.044 2.684 7.89l58.303 44.684c1.361 1.043 2.965 1.548 4.557 1.548 2.253 0 4.481-1.012 5.958-2.938 2.52-3.288 1.897-7.995-1.391-10.515l-43.932-33.669 6.82-.902c4.106-.545 6.995-4.314 6.451-8.42z"/><path d="m219.271 132.608h73.457c3.034 0 5.768-1.827 6.929-4.63s.519-6.028-1.626-8.173l-17.668-17.667c-2.929-2.929-7.678-2.929-10.606 0-2.929 2.929-2.929 7.678 0 10.606l4.864 4.864h-55.35c-4.142 0-7.5 3.358-7.5 7.5s3.358 7.5 7.5 7.5z"/></g></svg>