<svg id="Capa_1" enable-background="new 0 0 512 512" height="512" viewBox="0 0 512 512" width="512" xmlns="http://www.w3.org/2000/svg"><g><path d="m412.862 388.8c1.919 0 3.839-.732 5.304-2.197l36.175-36.175c2.145-2.145 2.786-5.371 1.625-8.173-1.16-2.803-3.896-4.63-6.929-4.63h-24.986c-4.143 0-7.5 3.358-7.5 7.5s3.357 7.5 7.5 7.5h6.88l-23.372 23.372c-2.929 2.929-2.929 7.678 0 10.606 1.464 1.464 3.384 2.197 5.303 2.197z"/><path d="m425.95 404.187c1.16 2.803 3.896 4.63 6.929 4.63h24.986c4.143 0 7.5-3.358 7.5-7.5s-3.357-7.5-7.5-7.5h-6.88l23.372-23.372c2.929-2.929 2.929-7.678 0-10.606-2.93-2.929-7.678-2.929-10.607 0l-36.175 36.175c-2.144 2.144-2.786 5.37-1.625 8.173z"/><path d="m78.07 372.729c-4.142 0-7.5 3.358-7.5 7.5s3.358 7.5 7.5 7.5h132.044c4.142 0 7.5-3.358 7.5-7.5s-3.358-7.5-7.5-7.5z"/><path d="m328.518 372.282h-11.733c-4.143 0-7.5 3.358-7.5 7.5s3.357 7.5 7.5 7.5h11.733c4.143 0 7.5-3.358 7.5-7.5s-3.358-7.5-7.5-7.5z"/><path d="m438.122 58.396c-23.73 0-43.036 19.306-43.036 43.037 0 13.992 6.365 31.214 18.918 51.189 9.076 14.442 18.049 24.942 18.427 25.382 1.425 1.66 3.504 2.615 5.691 2.615s4.267-.956 5.691-2.615c.377-.44 9.351-10.94 18.427-25.382 12.554-19.975 18.919-37.197 18.919-51.189 0-23.731-19.306-43.037-43.037-43.037zm-.004 102.742c-11.062-14.542-28.032-40.869-28.032-59.705 0-15.459 12.577-28.037 28.036-28.037 15.46 0 28.037 12.577 28.037 28.037 0 18.798-16.977 45.149-28.041 59.705z"/><path d="m44.078 319.637c4.028 0 7.293-3.265 7.293-7.293s-3.265-7.293-7.293-7.293-7.293 3.265-7.293 7.293 3.265 7.293 7.293 7.293z"/><path d="m438.29 97.383c-4.028 0-7.293 3.265-7.293 7.293s3.265 7.293 7.293 7.293 7.293-3.265 7.293-7.293-3.265-7.293-7.293-7.293z"/><path d="m78.07 319.844h83.149c4.142 0 7.5-3.358 7.5-7.5s-3.358-7.5-7.5-7.5h-83.149c-4.142 0-7.5 3.358-7.5 7.5s3.358 7.5 7.5 7.5z"/><path d="m76.219 419.423h267.791c21.26.047 39.812-17.82 39.641-39.641.204-21.095-17.848-39.794-39.641-39.641h-45.869c-21.858 0-39.641 17.783-39.641 39.641 0 9.308 3.233 17.87 8.623 24.641h-190.904c-13.587 0-24.641-11.054-24.641-24.641s11.054-24.641 24.641-24.641h169.772c4.142 0 7.5-3.358 7.5-7.5s-3.358-7.5-7.5-7.5h-169.772c-21.858 0-39.641 17.783-39.641 39.641 0 21.859 17.783 39.641 39.641 39.641zm197.281-39.641c0-13.587 11.054-24.641 24.641-24.641h45.869c13.587 0 24.641 11.054 24.641 24.641s-11.054 24.641-24.641 24.641h-45.869c-13.587 0-24.641-11.053-24.641-24.641z"/><path d="m266 217.688h86.06l64.709 22.574c5.229 5.908 12.861 9.643 21.353 9.643 15.727 0 28.521-12.795 28.521-28.521s-12.795-28.521-28.521-28.521c-4.453 0-8.67 1.028-12.429 2.855l-61.842-21.627c-2.524-.931-5.151-1.403-7.811-1.403h-67.54v-27.68c0-12.407-10.094-22.5-22.5-22.5h-49.805l-22.726-48.418c-3.689-7.856-11.684-12.932-20.369-12.932h-56.424c-4.142 0-7.5 3.358-7.5 7.5s3.358 7.5 7.5 7.5h56.424c2.896 0 5.562 1.691 6.791 4.307l24.75 52.73c1.236 2.632 3.882 4.313 6.79 4.313h54.569c4.136 0 7.5 3.365 7.5 7.5v35.18c0 4.142 3.357 7.5 7.5 7.5h75.04c.892 0 1.782.164 2.647.487.049.018.098.036.146.053l54.509 19.062c-2.376 4.161-3.741 8.969-3.741 14.094 0 .166.01.33.013.495l-53.813-18.773c-.795-.277-1.63-.418-2.471-.418h-87.33c-4.136 0-7.5-3.364-7.5-7.5v-35.18c0-4.142-3.358-7.5-7.5-7.5h-49.1c-2.896 0-5.561-1.693-6.791-4.317l-24.75-52.72c-1.236-2.632-3.881-4.313-6.789-4.313h-71.815c.653-2.392 1.008-4.906 1.008-7.502 0-15.727-12.794-28.521-28.521-28.521s-28.521 12.794-28.521 28.521 12.794 28.521 28.521 28.521c6.589 0 12.659-2.252 17.494-6.019h77.069l22.724 48.403c3.687 7.865 11.683 12.947 20.371 12.947h41.6v27.68c0 12.406 10.093 22.5 22.5 22.5zm185.644 3.695c0 7.456-6.065 13.521-13.521 13.521-7.455 0-13.521-6.066-13.521-13.521s6.065-13.521 13.521-13.521c7.455 0 13.521 6.066 13.521 13.521zm-400.923-137.728c0-7.456 6.065-13.521 13.521-13.521s13.522 6.066 13.522 13.521-6.066 13.521-13.521 13.521-13.522-6.065-13.522-13.521z"/><path d="m59.456 219.357h-15.378c-4.142 0-7.5 3.358-7.5 7.5s3.358 7.5 7.5 7.5h15.378c4.142 0 7.5-3.358 7.5-7.5s-3.358-7.5-7.5-7.5z"/><path d="m59.456 186.367h-15.378c-4.142 0-7.5 3.358-7.5 7.5s3.358 7.5 7.5 7.5h15.378c4.142 0 7.5-3.358 7.5-7.5s-3.358-7.5-7.5-7.5z"/><path d="m504.5 245.831c4.143 0 7.5-3.358 7.5-7.5v-191.109c0-20.98-17.068-38.048-38.049-38.048h-435.903c-20.98 0-38.048 17.068-38.048 38.048v366.484c0 20.98 17.068 38.048 38.048 38.048h185.003l22.221 44.442c2.045 4.09 6.156 6.63 10.729 6.629 4.572 0 8.682-2.542 10.725-6.63l22.221-44.442h185.004c20.98 0 38.049-17.068 38.049-38.048v-140.367c0-4.142-3.357-7.5-7.5-7.5h-489.5v-218.616c0-12.709 10.339-23.048 23.048-23.048h435.903c12.709 0 23.049 10.339 23.049 23.048v191.109c0 4.142 3.357 7.5 7.5 7.5zm-7.5 35.007v132.868c0 12.709-10.34 23.048-23.049 23.048h-189.639c-2.841 0-5.437 1.605-6.708 4.146l-21.604 43.209-21.605-43.209c-1.271-2.541-3.867-4.146-6.708-4.146h-189.639c-12.709 0-23.048-10.339-23.048-23.048v-132.868z"/></g></svg>