<svg id="Capa_1" enable-background="new 0 0 512 512" height="512" viewBox="0 0 512 512" width="512" xmlns="http://www.w3.org/2000/svg"><g><path d="m332.918 246.426c21.151-18.154 35.251-43.224 39.702-70.592.665-4.088-2.11-7.942-6.198-8.607-4.097-.666-7.941 2.111-8.606 6.199-3.885 23.882-16.196 45.765-34.667 61.618-18.666 16.021-42.514 24.844-67.148 24.844-56.882 0-103.158-46.276-103.158-103.158-.001-56.883 46.275-103.16 103.157-103.16 24.742 0 48.669 8.892 67.372 25.037 18.515 15.982 30.781 38.014 34.54 62.035.641 4.091 4.469 6.892 8.569 6.25 4.093-.64 6.891-4.477 6.251-8.569-4.309-27.528-18.357-52.769-39.559-71.07-21.425-18.496-48.833-28.683-77.173-28.683-65.152 0-118.158 53.006-118.158 118.159s53.006 118.158 118.158 118.158c28.217.001 55.533-10.107 76.918-28.461z"/><path d="m436.678 497h-33.637c.367-22.723-18.661-42.684-42.041-42.55h-89.131c13.875-17.289 39.964-51.202 65.79-92.297 50.734-80.728 76.459-149.375 76.459-204.035 0-87.187-70.931-158.118-158.118-158.118s-158.118 70.931-158.118 158.118c0 54.66 25.725 123.307 76.459 204.035 25.827 41.095 51.915 75.008 65.79 92.297h-89.131c-22.741-.092-42.44 19.167-42.041 42.55h-33.637c-4.143 0-7.5 3.358-7.5 7.5s3.357 7.5 7.5 7.5h361.355c4.143 0 7.5-3.358 7.5-7.5s-3.357-7.5-7.499-7.5zm-323.796-338.882c0-78.916 64.202-143.118 143.118-143.118s143.118 64.202 143.118 143.118c0 51.021-25.605 118.755-74.05 195.879-28.431 45.262-57.173 81.662-69.068 96.219-11.896-14.557-40.638-50.957-69.068-96.219-48.445-77.124-74.05-144.858-74.05-195.879zm11.077 338.373c0-14.911 12.131-27.042 27.041-27.042h210c14.582-.108 27.301 12.507 27.041 27.55h-264.082z"/><path d="m256 246.3c4.143 0 7.5-3.358 7.5-7.5v-17.929c29.807-3.465 53.487-27.291 56.709-57.171h18.402c4.143 0 7.5-3.358 7.5-7.5s-3.357-7.5-7.5-7.5h-18.536c-3.662-29.381-27.12-52.689-56.574-56.113v-18.997c0-4.142-3.357-7.5-7.5-7.5s-7.5 3.358-7.5 7.5v18.992c-17.716 2.091-34.038 11.507-44.683 26.076-2.443 3.345-1.714 8.037 1.631 10.48s8.036 1.713 10.48-1.631c7.825-10.71 19.646-17.775 32.571-19.771v14.062c-13.514 2.899-24.209 13.462-27.309 26.902h-47.791c-4.143 0-7.5 3.358-7.5 7.5s3.357 7.5 7.5 7.5h18.391c3.222 29.88 26.901 53.706 56.709 57.171v17.929c0 4.142 3.357 7.5 7.5 7.5zm7.5-40.547v-14.093c13.868-2.975 24.773-14.018 27.542-27.96h14.049c-3.053 21.6-20.064 38.773-41.591 42.053zm41.431-57.053h-14.123c-3.1-13.44-13.794-24.003-27.309-26.902v-14.093c21.175 3.226 37.981 19.895 41.432 40.995zm-48.936-12.7h.005s.003 0 .005 0c11.428.003 20.725 9.301 20.725 20.73 0 11.43-9.299 20.729-20.729 20.729s-20.729-9.299-20.729-20.729c-.001-11.429 9.295-20.728 20.723-20.73zm-49.086 27.7h14.049c2.769 13.942 13.674 24.985 27.542 27.96v14.093c-21.527-3.28-38.538-20.453-41.591-42.053z"/></g></svg>