<svg id="Capa_1" enable-background="new 0 0 512.053 512.053" height="512" viewBox="0 0 512.053 512.053" width="512" xmlns="http://www.w3.org/2000/svg"><g><path d="m376.113 373.611c-.449-3.238-3.352-6.505-7.429-6.471h-88.813c-3.041-3.17-6.693-5.746-10.769-7.536 9.319-11.598 25.876-33.018 43.33-59.46 16.751 10.6 30.523 25.902 39.174 43.716 1.297 2.671 3.97 4.225 6.752 4.225 1.099 0 2.215-.243 3.271-.755 3.726-1.81 5.279-6.297 3.47-10.023-9.842-20.267-25.495-37.683-44.534-49.766 39.719-62.777 61.018-118.93 60.788-161.827 0-21.712-5.582-42.9-16.162-61.666l8.95-8.95c4.166-4.166 6.461-9.704 6.461-15.595s-2.295-11.429-6.46-15.594c-4.165-4.167-9.704-6.46-15.596-6.46-5.891 0-11.43 2.294-15.595 6.46l-5.964 5.964c-22.712-19.311-51.32-29.873-81.348-29.873-69.319 0-125.715 56.395-125.715 125.714-.166 42.836 20.803 98.609 60.787 161.823-34.748 21.654-56.737 60.992-56.702 102.842-1.526 65.132 56.936 123.842 123.003 121.612 59.313-.035 112.214-46.508 119.303-106.302.632-5.026.952-10.177.952-15.31.001-5.594-.388-11.235-1.154-16.768zm-25.846 65.952c-16.204 31.365-49.551 54.961-87.128 57.151v-22.268c0-3.708 3.016-6.724 6.723-6.724h5.09c11.978 0 21.723-9.745 21.723-21.724 0-3.708 3.017-6.724 6.724-6.724h47.013c-.05.096-.096.194-.145.289zm-46.869-15.288c-11.979 0-21.724 9.745-21.724 21.724 0 3.708-3.016 6.724-6.723 6.724h-5.09c-11.978 0-21.723 9.745-21.723 21.724v22.277c-18.607-1.274-36.218-7.28-51.668-17.637l55.334-55.334c1.259.144 2.537.225 3.834.225 10.176 0 19.303-4.554 25.47-11.723h78.9c-.922 4.003-1.12 5.431-3.247 12.021h-53.363zm-119.012 45.414c-.726-.867-2.752-1.923-10.374-10.725l52.27-52.27c2.492 4.465 5.972 8.304 10.144 11.223l-51.897 51.897c-.047-.042-.096-.082-.143-.125zm71.253-97.91c10.255 0 18.599 8.343 18.599 18.599s-8.344 18.599-18.599 18.599c-10.256 0-18.6-8.343-18.6-18.599s8.344-18.599 18.6-18.599zm106.3 10.361c-.074 1.583.671 1.861.11 15.113h-73.521c.464-2.22.71-4.52.71-6.875 0-2.842-.358-5.601-1.025-8.238zm-3.393-349.691c1.885 0 3.656.733 4.989 2.067 1.332 1.333 2.066 3.104 2.066 4.988s-.734 3.655-2.067 4.988l-102.005 102.007c-1.332 1.332-3.104 2.066-4.988 2.066-1.885 0-3.656-.734-4.988-2.066l-26.022-26.022c-1.332-1.332-2.066-3.104-2.066-4.988s.734-3.655 2.067-4.989c1.332-1.333 3.104-2.066 4.988-2.066s3.655.734 4.987 2.067l15.73 15.73c2.93 2.929 7.678 2.929 10.607 0l91.715-91.715c1.332-1.334 3.104-2.067 4.987-2.067zm-213.622 93.265c0-61.047 49.666-110.714 110.715-110.714 26.034 0 50.857 9.01 70.706 25.515l-17.226 17.226c-15.144-12.14-33.868-18.765-53.48-18.765-47.225 0-85.645 38.42-85.645 85.644s38.42 85.644 85.645 85.644c45.829 0 83.406-35.832 85.549-81.575.193-4.137-3.004-7.648-7.142-7.842-4.145-.212-7.649 3.004-7.843 7.141-1.767 37.726-32.762 67.277-70.564 67.277-38.953 0-70.645-31.69-70.645-70.644s31.691-70.644 70.645-70.644c15.615 0 30.543 5.093 42.795 14.45l-41.894 41.893-10.427-10.426c-4.164-4.167-9.703-6.461-15.595-6.461s-11.431 2.294-15.595 6.46c-4.166 4.166-6.461 9.704-6.461 15.595 0 5.892 2.295 11.43 6.46 15.595l26.021 26.021c4.165 4.166 9.704 6.46 15.596 6.46s11.431-2.294 15.596-6.46l81.985-81.987c8.016 15.582 12.231 32.888 12.231 50.596 0 76.875-72.731 178.16-103.214 217.23l-7.5 9.058-7.5-9.052c-30.483-39.058-103.213-140.314-103.213-217.235zm8.318 234.879c.455-.924.209-2.512 5.253-14.208h27.813c1.989 0 3.896-.79 5.304-2.197l22.199-22.199c3.106 4.377 6.111 8.519 8.976 12.401l-24.887 24.888c-1.438 1.432-3.34 2.22-5.357 2.22h-39.555c.083-.301.167-.603.254-.905zm45.602-60.451c2.106 3.19 4.196 6.301 6.265 9.337l-21.907 21.907h-16.401c8.34-12.575 19.213-23.179 32.043-31.244zm-48.93 76.357h42.628c6.014 0 11.676-2.341 15.954-6.603l23.399-23.399c3.973 5.179 7.46 9.596 10.281 13.107-11.648 5.115-19.853 16.65-20.119 30.102l-56.983 56.983c-10.534-16.853-16.064-36.148-16.064-56.309-.001-4.662.307-9.306.904-13.881z"/><path d="m390.647 287.066c-2.52-3.287-7.228-3.911-10.515-1.391-3.288 2.52-3.911 7.228-1.392 10.515 20.861 27.223 31.889 59.793 31.889 94.189 0 34.834-11.285 67.739-32.637 95.157-2.544 3.268-1.958 7.98 1.31 10.525 1.37 1.066 2.992 1.583 4.604 1.583 2.233 0 4.443-.994 5.923-2.893 23.421-30.078 35.801-66.169 35.801-104.373-.001-37.722-12.097-73.447-34.983-103.312z"/><path d="m93.195 381.861c.248.024.494.036.738.036 3.813 0 7.077-2.897 7.456-6.771 2.804-28.708 13.574-56.003 31.147-78.936 2.52-3.288 1.896-7.996-1.392-10.515-3.287-2.52-7.996-1.896-10.515 1.391-19.278 25.157-31.095 55.104-34.171 86.602-.401 4.123 2.615 7.791 6.737 8.193z"/><path d="m101.738 408.863c-.487-4.114-4.219-7.05-8.332-6.563-4.113.489-7.052 4.219-6.562 8.333 3.638 30.635 15.608 59.724 34.617 84.122 1.479 1.898 3.688 2.891 5.921 2.891 1.611 0 3.235-.517 4.604-1.584 3.268-2.546 3.853-7.258 1.307-10.526-17.328-22.241-28.239-48.754-31.555-76.673z"/></g></svg>