<svg id="Capa_1" enable-background="new 0 0 511.912 511.912" height="512" viewBox="0 0 511.912 511.912" width="512" xmlns="http://www.w3.org/2000/svg"><g><path d="m322.475 189.426c17.811 0 32.3-14.49 32.3-32.3s-14.49-32.3-32.3-32.3-32.3 14.49-32.3 32.3 14.49 32.3 32.3 32.3zm0-49.601c9.54 0 17.3 7.761 17.3 17.3s-7.761 17.3-17.3 17.3-17.3-7.761-17.3-17.3 7.761-17.3 17.3-17.3z"/><path d="m255.381 157.675c0 40.266 34.056 89.94 51.475 112.715h-15.212c-4.142 0-7.5 3.358-7.5 7.5s3.358 7.5 7.5 7.5h61.663c4.142 0 7.5-3.358 7.5-7.5s-3.358-7.5-7.5-7.5h-15.213c17.419-22.775 51.475-72.449 51.475-112.715 0-36.996-30.098-67.094-67.094-67.094s-67.094 30.098-67.094 67.094zm67.094-52.094c28.725 0 52.094 23.369 52.094 52.094 0 38.379-37.519 89.793-52.097 108.318-14.579-18.515-52.091-69.892-52.091-108.318 0-28.725 23.369-52.094 52.094-52.094z"/><path d="m456.844 55.067c-73.424-73.423-192.892-73.422-266.316 0-67.048 67.048-72.856 172.486-17.452 246.202l-52.362 52.362c-11.954-2.154-28.888 2.736-38.033 12.579l-69.629 69.629c-8.417 8.417-13.052 19.607-13.052 31.51s4.635 23.094 13.052 31.51c8.417 8.417 19.607 13.052 31.51 13.052s23.093-4.635 31.51-13.052l69.629-69.629c8.499-8.626 13.82-21.174 12.962-34.215l32.78-32.78c2.929-2.929 2.929-7.678 0-10.606-2.929-2.929-7.678-2.929-10.606 0l-26.572 26.572c-2.141-4.386-5.011-8.438-8.564-11.991-2.8-2.8-5.912-5.171-9.251-7.103l46.159-46.159c2.541 2.87 5.172 5.689 7.918 8.435 36.712 36.711 84.935 55.067 133.158 55.067s96.446-18.356 133.158-55.067c73.425-73.423 73.425-192.892.001-266.316zm-321.749 363.557-69.629 69.629c-11.526 11.527-30.281 11.526-41.807 0-5.584-5.583-8.659-13.007-8.659-20.904 0-7.896 3.075-15.32 8.659-20.903l69.629-69.629c5.763-5.763 13.333-8.645 20.903-8.645s15.141 2.881 20.904 8.645c11.526 11.526 11.526 30.281 0 41.807zm311.143-107.847c-67.576 67.574-177.528 67.574-245.103 0-67.575-67.575-67.575-177.528 0-245.103 33.788-33.787 78.169-50.681 122.552-50.681 44.382 0 88.764 16.894 122.551 50.681 67.574 67.575 67.574 177.528 0 245.103z"/><path d="m426.249 85.663c-22.215-22.216-50.341-36.369-81.337-40.93-4.102-.604-7.909 2.23-8.512 6.328s2.23 7.909 6.328 8.512c27.782 4.088 52.996 16.778 72.915 36.697 24.562 24.562 38.09 57.22 38.09 91.957 0 34.736-13.527 67.394-38.09 91.956s-57.22 38.09-91.956 38.09c-34.737 0-67.394-13.527-91.957-38.09s-38.09-57.22-38.09-91.956c0-34.737 13.527-67.394 38.09-91.957 20.646-20.646 46.834-33.468 75.731-37.08 4.11-.514 7.025-4.262 6.512-8.372s-4.268-7.025-8.372-6.512c-32.239 4.029-61.451 18.33-84.478 41.357-27.396 27.396-42.483 63.819-42.483 102.563 0 38.743 15.087 75.167 42.483 102.562 27.396 27.396 63.819 42.483 102.563 42.483 38.743 0 75.167-15.087 102.562-42.483 27.396-27.396 42.483-63.819 42.483-102.562.001-38.744-15.086-75.168-42.482-102.563z"/><path d="m58.679 444.374-12.759 12.758c-2.929 2.929-2.929 7.678 0 10.606 1.464 1.464 3.384 2.197 5.303 2.197s3.839-.732 5.303-2.197l12.758-12.758c2.929-2.929 2.929-7.678 0-10.606-2.928-2.929-7.677-2.929-10.605 0z"/></g></svg>