<svg id="Capa_1" enable-background="new 0 0 512.002 512.002" height="512" viewBox="0 0 512.002 512.002" width="512" xmlns="http://www.w3.org/2000/svg"><g><path d="m2.197 415.992c-2.929 2.929-2.929 7.678 0 10.606 1.464 1.464 3.384 2.197 5.303 2.197s3.839-.732 5.303-2.197l142.943-142.943h36.349c4.142 0 7.5-3.358 7.5-7.5v-10.142c0-8.411-3.251-16.355-9.027-22.306v-51.058c14.726.417 27.911-12.148 27.903-27.356v-41.443c.109-19.041-16.008-35.254-35.403-35.131h-4.455c2.934-4.773 4.629-10.384 4.629-16.386 0-17.306-14.08-31.385-31.385-31.385-17.306 0-31.386 14.08-31.386 31.385 0 6.001 1.696 11.613 4.629 16.386h-4.455c-19.03-.263-35.385 15.744-35.403 35.131v41.444c-.108 14.764 12.67 27.636 27.903 27.356v51.058c-5.776 5.95-9.026 13.895-9.026 22.306v2.643l-96.619-.001c-4.142 0-7.5 3.358-7.5 7.5s3.358 7.5 7.5 7.5l86.014-.001-91.318 91.326c-2.929 2.929-2.928 7.678 0 10.607 2.93 2.929 7.678 2.928 10.607 0l101.923-101.932h19.807zm133.275-343.66c0-9.035 7.351-16.385 16.386-16.385s16.385 7.351 16.385 16.385c0 9.035-7.351 16.386-16.385 16.386-9.035 0-16.386-7.35-16.386-16.386zm-22.872 105.317c-6.813 0-12.356-5.543-12.356-12.356v-41.443c-.124-10.539 9.252-20.258 20.403-20.131h62.422c10.532-.277 20.382 8.99 20.403 20.131v41.444c.095 6.182-5.817 12.602-12.903 12.356v-49.07c0-4.142-3.358-7.5-7.5-7.5s-7.5 3.358-7.5 7.5v118.407c0 2.252 1.012 4.385 2.756 5.809 3.985 3.254 6.271 8.072 6.271 13.216v2.642h-25.238v-94.448c0-4.142-3.358-7.5-7.5-7.5s-7.5 3.358-7.5 7.5v94.448h-25.238v-2.642c0-5.145 2.286-9.962 6.271-13.216 1.744-1.424 2.756-3.557 2.756-5.809v-119.407c0-4.142-3.358-7.5-7.5-7.5s-7.5 3.358-7.5 7.5v50.069z"/><path d="m511.641 465.846c1.03-3.392-.359-7.662-4.288-9.226l-246.691-110.375c-2.528-1.107-6.013-.863-8.366 1.543l-26.079 26.079c-1.324 1.324-3.084 2.053-4.957 2.053h-47.7c-1.989 0-3.897.79-5.303 2.197l-77.938 77.938h-19.806l92.09-92.082c1.306-1.305 3.109-2.054 4.947-2.054h47.71c1.989 0 3.897-.791 5.304-2.197l76.053-76.062h19.807l-42.172 42.172c-3.173 3.37-3.277 9.418 2.241 12.15l224.945 100.604c2.631 1.093 7.582.797 9.908-3.785 1.691-3.781-.003-8.217-3.784-9.908l-215.001-96.158 34.474-34.474v19.704c0 10.839 8.818 19.657 19.657 19.657s19.658-8.818 19.658-19.657v-30.309h138.15c4.142 0 7.5-3.358 7.5-7.5s-3.358-7.5-7.5-7.5h-138.15v-43.865h33.83c5.312 0 10.303-2.597 13.351-6.947s3.786-9.928 1.973-14.92l-21.156-58.255v-41.609h4.363c8.429 0 15.287-6.857 15.287-15.287v-31.539c0-8.429-6.857-15.287-15.287-15.287h-104.037c-8.429 0-15.287 6.857-15.287 15.287v31.538c0 8.429 6.857 15.287 15.287 15.287h4.363v41.609l-21.157 58.255c-1.813 4.993-1.075 10.571 1.973 14.921s8.039 6.947 13.351 6.947h33.831v43.869l-99.893-.003c-4.142 0-7.5 3.358-7.5 7.5s3.357 7.5 7.5 7.5l48.265.003-63.253 63.261h-44.604c-5.787 0-11.456 2.35-15.553 6.446l-102.699 102.688h-41.798c-4.142 0-7.5 3.358-7.5 7.5s3.358 7.5 7.5 7.5h352.285c4.142 0 7.5-3.358 7.5-7.5s-3.358-7.5-7.5-7.5h-248.254l65.135-65.135h44.593c5.879 0 11.406-2.29 15.563-6.447l22.426-22.426 210.113 94.008h-74.327c-4.142 0-7.5 3.358-7.5 7.5s3.358 7.5 7.5 7.5h109.327c2.82.014 6.142-1.625 7.28-5.209zm-219.503-256.61c-.258-.369-.312-.77-.158-1.192l21.607-59.496c.298-.82.451-1.687.451-2.56v-42.929h8.022c4.142 0 7.5-3.358 7.5-7.5s-3.358-7.5-7.5-7.5h-27.385c-.158 0-.287-.128-.287-.287v-31.538c0-.158.128-.287.287-.287h104.035c.158 0 .287.128.287.287v31.538c0 .158-.128.287-.287.287h-41.3c-4.142 0-7.5 3.358-7.5 7.5s3.358 7.5 7.5 7.5h21.938v35.429h-19.184c-4.142 0-7.5 3.358-7.5 7.5s3.358 7.5 7.5 7.5h21.428l19.812 54.556c.154.423.101.824-.158 1.192-.258.368-.617.555-1.067.555h-106.975c-.449 0-.808-.187-1.066-.555zm59.212 15.555v89.174c0 2.568-2.089 4.657-4.658 4.657-2.568 0-4.657-2.089-4.657-4.657v-89.174z"/></g></svg>