<svg id="Capa_1" enable-background="new 0 0 512 512" height="512" viewBox="0 0 512 512" width="512" xmlns="http://www.w3.org/2000/svg"><g><path d="m206.047 385.174-134.666-120.256c-8.994-8.031-14.152-19.553-14.152-31.611v-100.573c0-4.142-3.358-7.5-7.5-7.5s-7.5 3.358-7.5 7.5v100.573c0 16.326 6.984 31.926 19.161 42.8l134.666 120.256c5.45 4.867 8.576 11.846 8.579 19.153 0 .005-.001.01-.001.014v88.97c0 4.142 3.358 7.5 7.5 7.5s0 0 0 0c4.142 0 7.5-3.358 7.5-7.5v-88.976c.001-11.577-4.952-22.639-13.587-30.35z"/><path d="m494.285 75.557-64-69.849c-3.315-3.624-8.034-5.703-12.946-5.707-.005 0-.008 0-.012 0-4.913 0-9.637 2.077-12.963 5.703l-64.003 69.852c-4.777 5.213-5.976 12.473-3.127 18.947 2.85 6.476 9.013 10.499 16.085 10.499h13.718v107.095l-89.262 79.165c-3.099 2.749-3.383 7.489-.635 10.588 2.749 3.099 7.489 3.384 10.588.635l91.785-81.403c1.604-1.423 2.523-3.466 2.523-5.611v-117.969c0-4.142-3.357-7.5-7.5-7.5h-21.218c-1.46 0-2.102-.965-2.355-1.54-.252-.574-.528-1.697.456-2.771l64-69.849c.67-.731 1.482-.84 1.907-.84h.001c.422 0 1.229.109 1.895.836l64.004 69.853c.984 1.074.707 2.198.455 2.771-.253.575-.896 1.54-2.355 1.54h-19.058c-4.143 0-7.5 3.358-7.5 7.5v135.806c0 12.053-5.159 23.576-14.154 31.612l-133.251 118.997c.667-16.149-6.704-33.903-19.308-44.912l-143.097-126.904v-107.096h13.718c7.073 0 13.237-4.022 16.086-10.496s1.65-13.736-3.128-18.951l-64-69.856c-3.321-3.623-8.044-5.702-12.959-5.702s-9.638 2.079-12.958 5.703l-64 69.856c-4.778 5.215-5.977 12.477-3.128 18.951s9.013 10.496 16.086 10.496h19.054c4.142 0 7.5-3.358 7.5-7.5s-3.358-7.5-7.5-7.5h-19.054c-1.461 0-2.104-.963-2.356-1.538s-.529-1.699.458-2.776l64.001-69.856c.665-.728 1.474-.836 1.897-.836s1.232.108 1.898.835l64.001 69.856c.987 1.078.711 2.202.458 2.776-.252.574-.895 1.538-2.356 1.538h-21.218c-4.142 0-7.5 3.358-7.5 7.5v117.969c0 2.146.918 4.188 2.524 5.611l145.621 129.143c9.063 8.037 14.261 19.594 14.261 31.708v122.564c0 4.142 3.357 7.5 7.5 7.5h.001s.001 0 .001 0c4.143 0 7.5-3.358 7.5-7.5v-89.791c0-6.793 2.905-13.282 7.975-17.804l135.268-120.799c12.177-10.879 19.161-26.479 19.161-42.799v-128.305h11.558c7.072 0 13.235-4.023 16.085-10.499 2.847-6.474 1.649-13.733-3.128-18.946z"/><path d="m106.602 80.012c1.483 1.735 3.587 2.626 5.704 2.626 1.724 0 3.457-.591 4.87-1.799 3.148-2.691 3.519-7.426.827-10.574l-17.666-20.666c-2.113-2.391-6.582-4.081-10.574-.827-.29.255.007-.009-.827.827l-17.665 20.666c-2.692 3.149-2.321 7.883.827 10.575 3.149 2.692 7.884 2.322 10.574-.828l4.465-5.223v150.601c0 7.817 3.044 15.167 8.572 20.695.072.072.146.143.221.212l50.832 46.833c1.442 1.328 3.263 1.984 5.08 1.984 2.022 0 4.039-.813 5.518-2.418 2.806-3.046 2.612-7.791-.434-10.598l-50.708-46.718c-2.633-2.684-4.082-6.226-4.082-9.991v-150.601z"/></g></svg>