<svg id="Capa_1" enable-background="new 0 0 512 512" height="512" viewBox="0 0 512 512" width="512" xmlns="http://www.w3.org/2000/svg"><g><path d="m478.543 497h-58.738v-30.336c.094-9.866-8.981-18.804-19.507-18.136l3.094-32.759h8.902c23.037 0 41.779-18.742 41.779-41.78v-100.747l15.14-22.066c1.771-2.579 2.707-5.589 2.707-8.705v-27.59c0-8.48-6.899-15.38-15.38-15.38h-5.44v-8.004c0-15.133 12.311-27.444 27.443-27.444 4.143 0 7.5-3.358 7.5-7.5s-3.357-7.5-7.5-7.5c-23.403 0-42.443 19.04-42.443 42.444v8.004h-16.295v-15.296c0-11.221-9.13-20.351-20.352-20.351h-20.514v-14.796c6.543-1.063 11.56-6.736 11.56-13.575v-23.271c0-7.592-6.177-13.769-13.77-13.769h-13.304c-4.143 0-7.5 3.358-7.5 7.5s3.357 7.5 7.5 7.5h12.073v20.809h-127.054v-20.809h79.568c4.143 0 7.5-3.358 7.5-7.5s-3.357-7.5-7.5-7.5h-80.799c-7.593 0-13.77 6.177-13.77 13.769v23.271c0 6.839 5.016 12.513 11.56 13.575v14.796h-20.513c-11.222 0-20.351 9.129-20.351 20.351v57.44c0 .235.011.471.033.705l16.926 179.21c.39 4.125 4.063 7.146 8.172 6.762 4.124-.39 7.151-4.048 6.762-8.172l-16.892-178.859v-57.087c0-2.95 2.4-5.351 5.351-5.351h174.963c2.951 0 5.352 2.4 5.352 5.351v22.699c0 .033-.005.064-.005.097s.004.064.005.097v34.194l-19.576 207.237h-38.219v-53.101c0-4.142-3.357-7.5-7.5-7.5s-7.5 3.358-7.5 7.5v53.101h-109.736c-10 0-18.136 8.136-18.136 18.136v30.336h-21.573v-11.854c0-10.413-8.472-18.884-18.884-18.884h-57.953v-101.777h17.407c14.134 0 25.632-11.498 25.632-25.631v-58.257c0-14.133-11.498-25.631-25.632-25.631h-17.407v-173.523l44.006-17.373c6.27-2.475 12.865-3.73 19.604-3.73h171.975c12.745 0 23.113-10.369 23.113-23.113v-14.114c.001-12.744-10.367-23.113-23.113-23.113h-171.974c-8.633 0-17.082 1.607-25.112 4.778l-48.752 19.247c-24.11 10.821-40.816 36.233-40.672 63.197v351.324c0 4.142 3.357 7.5 7.5 7.5s7.5-3.358 7.5-7.5v-351.324c0-16.91 7.932-32.706 20.926-42.895v421.935h-28.426c-4.143 0-7.5 3.358-7.5 7.5v23.238h-21.347c-4.143 0-7.5 3.358-7.5 7.5s3.357 7.5 7.5 7.5h378.848 66.238c4.143 0 7.5-3.358 7.5-7.5s-3.357-7.5-7.5-7.5zm-218.539-333.146v-14.602h103.936v14.602zm152.29 236.915h-7.486l11.556-122.349h22.709v95.569c0 14.767-12.012 26.78-26.779 26.78zm44.246-186.269c.209 0 .38.17.38.38v27.59c0 .067-.028.15-.074.217l-14.226 20.733h-24.839l1.99-21.07c.022-.234.033-.47.033-.705v-27.145zm-333.403 55.465c5.862 0 10.632 4.769 10.632 10.631v58.257c0 5.862-4.77 10.631-10.632 10.631h-17.407v-79.52h17.407zm26.598-251.235c6.27-2.475 12.865-3.73 19.604-3.73h171.975c4.474 0 8.113 3.64 8.113 8.113v14.113c0 4.474-3.64 8.113-8.113 8.113h-171.974c-8.633 0-17.082 1.607-25.112 4.778l-38.498 15.199v-29.212zm-79.931 478.27v-15.737h93.879c2.142 0 3.884 1.742 3.884 3.884v11.853zm149.336 0v-30.336c0-1.729 1.406-3.136 3.136-3.136h179.393c1.729 0 3.137 1.407 3.137 3.136v30.336z"/><path d="m347.012 264.313v-46.808c0-9.474-7.707-17.181-17.181-17.181h-67.646c-9.474 0-17.182 7.707-17.182 17.181v46.808c0 9.474 7.708 17.181 17.182 17.181h67.646c9.474 0 17.181-7.708 17.181-17.181zm-87.008 0v-46.808c0-1.203.979-2.181 2.182-2.181h67.646c1.202 0 2.181.978 2.181 2.181v46.808c0 1.203-.979 2.181-2.181 2.181h-67.646c-1.204 0-2.182-.979-2.182-2.181z"/><path d="m381.955 226.328v-18.504c0-4.142-3.357-7.5-7.5-7.5s-7.5 3.358-7.5 7.5v18.504c0 4.142 3.357 7.5 7.5 7.5s7.5-3.358 7.5-7.5z"/><path d="m245.12 305.722c0 4.078 3.306 7.383 7.384 7.383s7.383-3.306 7.383-7.383c0-4.078-3.306-7.384-7.383-7.384s-7.384 3.306-7.384 7.384z"/><ellipse cx="284.839" cy="305.722" rx="7.384" ry="7.383" transform="matrix(.987 -.16 .16 .987 -45.293 49.574)"/></g></svg>