<svg id="Capa_1" enable-background="new 0 0 512.001 512.001" height="512" viewBox="0 0 512.001 512.001" width="512" xmlns="http://www.w3.org/2000/svg"><g><path d="m252.515 406.576c4.143 0 7.5-3.358 7.5-7.5v-10.758c0-4.142-3.357-7.5-7.5-7.5s-7.5 3.358-7.5 7.5v10.758c0 4.143 3.357 7.5 7.5 7.5z"/><path d="m504.501 496.48h-13.969v-24.93c0-18.199-8.273-34.498-21.251-45.349v-139.267c0-4.142-3.357-7.5-7.5-7.5s-7.5 3.358-7.5 7.5v130.112c-7.034-2.961-14.756-4.601-22.854-4.601h-59.6c-17.518 0-33.272 7.668-44.104 19.815v-93.861c0-31.343-25.499-56.842-56.842-56.842s-56.842 25.5-56.842 56.842v93.861c-10.833-12.147-26.587-19.815-44.104-19.815h-24.287c-4.143 0-7.5 3.358-7.5 7.5s3.357 7.5 7.5 7.5h24.287c21.764 0 39.896 15.845 43.467 36.604h-146.533c3.571-20.76 21.703-36.604 43.467-36.604 4.143 0 7.5-3.358 7.5-7.5s-3.357-7.5-7.5-7.5c-8.095 0-15.813 1.639-22.845 4.597v-157.881h373.698c17.741.131 33.289-14.971 33.25-33.25v-24.238c0-9.269-7.541-16.81-16.81-16.81h-8.349v-37.715c0-8.966-7.295-16.26-16.261-16.26h-116.609v-3.776c0-13.175-10.719-23.894-23.895-23.894h-83.268c-13.175 0-23.894 10.719-23.894 23.894v19.599c0 13.175 10.719 23.894 23.894 23.894h83.268c12.929.085 24.317-11.244 23.895-24.717h116.61c.695 0 1.261.565 1.261 1.26v37.715h-366.79v-37.715c0-.695.561-1.26 1.25-1.26h88.917c4.143 0 7.5-3.358 7.5-7.5s-3.357-7.5-7.5-7.5h-88.917c-8.96 0-16.25 7.294-16.25 16.26v37.715h-8.357c-9.269 0-16.81 7.541-16.81 16.81v24.238c0 15.547 10.727 28.631 25.167 32.252v44.007h-19.204c1.047-14.058-10.767-27.494-25.513-27.401-14.126-1.203-27.904 10.604-27.773 25.513v71.827c-.057 14.467 12.811 26.561 27.773 25.512 13.708 0 24.922-10.87 25.486-24.442h19.231v53.015c-12.983 10.851-21.26 27.153-21.26 45.357v24.931h-13.967c-4.143 0-7.5 3.358-7.5 7.5s3.357 7.5 7.5 7.5h467.237c4.143 0 7.5-3.358 7.5-7.5s-3.358-7.502-7.5-7.502zm-183.091-349.769c0 4.904-3.99 8.894-8.895 8.894h-83.268c-4.904 0-8.894-3.99-8.894-8.894v-19.599c0-4.904 3.989-8.894 8.894-8.894h83.268c4.904 0 8.895 3.99 8.895 8.894zm-28.058 97.45h-44.939v-44.29h44.939zm15-44.29h52.028v44.29h-52.028zm-74.94 44.29h-52.027v-44.29h52.027zm141.968 0v-44.29h44.929v44.29zm-208.995-44.29v44.29h-44.929v-44.29zm313.054 1.802v24.238c0 10.06-8.181 18.245-18.24 18.25h-25.891v-44.29h26.473c.052 0 .103-.007.155-.008h15.694c.998 0 1.809.812 1.809 1.81zm-417.115 24.238v-24.238c0-.998.812-1.81 1.81-1.81h15.703c.052.001.103.008.155.008h26.465v44.29h-25.891c-10.059-.005-18.242-8.19-18.242-18.25zm-24.037 146.197c0 5.796-4.716 10.512-10.513 10.512-5.483.918-12.8-3.617-12.773-10.512v-71.827c.068-5.97 5.787-11.357 12.773-10.513 5.797 0 10.513 4.716 10.513 10.513zm15-13.93v-41.008h19.204v41.008zm318.541 69.267h59.6c21.764 0 39.896 15.845 43.467 36.604h-146.534c3.572-20.759 21.703-36.604 43.467-36.604zm-100.946-130.888c23.071 0 41.842 18.771 41.842 41.842v125.65h-83.684v-125.65c0-23.072 18.771-41.842 41.842-41.842zm-204.651 182.493h147.809v17.431h-147.809zm162.809 17.43v-17.43h83.684v17.431h-83.684zm98.684 0v-17.43h147.809v17.431h-147.809z"/><path d="m110.293 323.647v60.384c0 7.903 6.43 14.333 14.333 14.333h51.734c7.903 0 14.333-6.43 14.333-14.333v-60.384c0-22.167-18.034-40.201-40.2-40.201s-40.2 18.034-40.2 40.201zm15 59.717v-28.583h50.4v28.583zm50.4-59.717v16.134h-50.4v-16.134c0-13.896 11.305-25.201 25.2-25.201s25.2 11.305 25.2 25.201z"/><path d="m390.618 283.446c-22.166 0-40.2 18.034-40.2 40.201v60.384c0 7.903 6.43 14.333 14.333 14.333h51.734c7.903 0 14.333-6.43 14.333-14.333v-60.384c0-22.167-18.034-40.201-40.2-40.201zm0 15c13.896 0 25.2 11.305 25.2 25.201v16.134h-50.4v-16.134c0-13.896 11.305-25.201 25.2-25.201zm-25.2 84.918v-28.583h50.4v28.583z"/><path d="m254.927 82.562c3.041 6.083 9.154 9.861 15.955 9.861s12.914-3.779 15.955-9.861l28.107-56.214c3.27-6.54 2.255-14.306-2.584-19.786s-12.419-7.444-19.314-5.012l-21.218 7.498c-.609.216-1.282.216-1.892 0l-21.218-7.498c-6.895-2.433-14.475-.468-19.314 5.012s-5.854 13.247-2.584 19.786zm-14.28-66.071c.362-.41 1.048-.983 2.053-.983.31 0 .65.054 1.021.185l21.22 7.498c3.831 1.353 8.051 1.354 11.886 0l21.219-7.497c1.567-.555 2.6.261 3.073.797s1.156 1.658.411 3.149l-28.107 56.215c-.683 1.365-1.884 1.569-2.539 1.569s-1.856-.204-2.539-1.569l-28.107-56.214c-.747-1.492-.064-2.614.409-3.15z"/></g></svg>