<svg id="Capa_1" enable-background="new 0 0 512 512" height="512" viewBox="0 0 512 512" width="512" xmlns="http://www.w3.org/2000/svg"><g><path d="m489.576 333.279c-7.124-4.27-15.3-6.527-23.646-6.527h-337.706c-.253-19.559-11.431-36.521-27.704-45.061v-49.499c5.008 3.191 10.943 5.048 17.308 5.048 17.815 0 32.31-14.494 32.31-32.31s-14.494-32.31-32.31-32.31c-6.365 0-12.301 1.858-17.308 5.048v-51.833l2.412 2.412c8.033 7.989 22.504 8.971 31.512-.45 4.148-4.148 6.434-9.665 6.434-15.531s-2.285-11.383-6.434-15.531l-48.191-48.19 27.295-27.295c1.311-1.312 3.055-2.036 4.913-2.036 1.86 0 3.609.725 4.925 2.041 2.327 2.028 3.504 6.56.45 10.304l-7.795 7.795c-2.929 2.929-2.929 7.678 0 10.606 2.929 2.929 7.678 2.929 10.606 0l7.795-7.795c8.355-8.204 8.495-23.033-.45-31.517-4.149-4.149-9.665-6.434-15.532-6.434-5.87 0-11.385 2.287-15.524 6.434l-27.29 27.29-27.287-27.287c-4.148-4.148-9.664-6.434-15.531-6.434s-11.383 2.285-15.531 6.434c-8.571 7.909-9.148 22.837-.45 31.512l27.288 27.288-27.288 27.288c-4.149 4.149-6.434 9.664-6.434 15.528s2.285 11.379 6.434 15.528c3.348 3.538 9.434 6.849 15.983 6.884 5.868 0 11.384-2.285 15.533-6.434l2.407-2.407v55.137c-5.007-3.19-10.943-5.048-17.307-5.048-17.815 0-32.31 14.494-32.31 32.31s14.494 32.31 32.31 32.31c6.365 0 12.3-1.857 17.307-5.048v46.192c-16.46 8.638-27.72 25.891-27.72 45.734v129.052c-11.937-.488-23.077 9.837-23.05 22.358v21.45c0 4.142 3.358 7.5 7.5 7.5h136.291c4.142 0 7.5-3.358 7.5-7.5v-21.45c.095-12.006-10.485-22.714-23.05-22.357v-37.717c0-4.142-3.358-7.5-7.5-7.5s-7.5 3.358-7.5 7.5v37.717h-75.191v-129.052c-.097-20.542 17.679-37.586 38.566-36.624 20.194 0 36.624 16.43 36.624 36.624v56.046c0 4.142 3.358 7.5 7.5 7.5h373.11c4.847 0 9.405-1.888 12.833-5.316 3.429-3.429 5.317-7.986 5.317-12.833 0-16.106-8.593-31.258-22.424-39.544zm-360.642 138.199c4.057 0 7.357 3.3 7.357 7.357v13.95h-121.291v-13.95c0-4.057 3.301-7.357 7.357-7.357zm-11.106-283.857c9.544 0 17.31 7.765 17.31 17.31s-7.765 17.31-17.31 17.31c-9.535 0-17.292-7.75-17.308-17.281v-.058c.016-9.531 7.774-17.281 17.308-17.281zm-92.414-160.989c.177-1.161.001-2.381 2.49-5.375 1.315-1.315 3.064-2.04 4.924-2.04s3.609.725 4.924 2.04l86.085 86.085c1.315 1.315 2.04 3.064 2.04 4.924s-.725 3.609-2.04 4.924c-1.306.931-4.45 4.731-10.299.45l-86.084-86.083c-1.316-1.316-2.04-3.064-2.04-4.925zm12.343 91.007c-1.345.708-4.46 4.409-10.304-.45-1.316-1.316-2.041-3.064-2.041-4.921 0-1.858.725-3.606 2.041-4.922l27.288-27.288 10.299 10.298zm-4.294 107.908c-9.544 0-17.31-7.765-17.31-17.31s7.765-17.31 17.31-17.31c9.528 0 17.281 7.739 17.307 17.261v.096c-.026 9.524-7.779 17.263-17.307 17.263zm41.211 50.255c-3.037 0-6.009.279-8.904.784v-165.748l9.876-9.876 9.874 9.874v165.75c-2.141-.373-6.428-.854-10.846-.784zm310.451 100.17 17.423-34.22h34.945l-17.43 34.22zm-90.55 0 17.423-34.22h34.946l-17.43 34.22zm-90.55 0 17.423-34.22h34.945l-17.43 34.22zm-75.784 0v-34.22h37.594l-17.423 34.22zm37.004 0 17.423-34.22h21.948l-17.423 34.22zm90.552 0 17.43-34.22h21.938l-17.423 34.22zm90.55 0 17.43-34.22h21.938l-17.423 34.22zm90.55 0 17.43-34.22c6.51.236 14.089-.85 21.165 1.519l-16.649 32.701zm59.18-.923c-.345.345-1.092.923-2.227.923h-18.176l12.605-24.757c5.556 5.711 8.721 13.364 8.721 21.607 0 1.134-.579 1.882-.923 2.227z"/><ellipse cx="75.646" cy="314.556" rx="7.383" ry="7.384" transform="matrix(.973 -.23 .23 .973 -70.246 25.794)"/></g></svg>