<svg id="Capa_1" enable-background="new 0 0 512 512" height="512" viewBox="0 0 512 512" width="512" xmlns="http://www.w3.org/2000/svg"><g><path d="m504.5 496.992h-15.697v-302.791c0-4.142-3.358-7.5-7.5-7.5h-2.999c-10.462 0-20.566 1.553-30.104 4.427v-66.421c0-4.142-3.358-7.5-7.5-7.5s-7.5 3.358-7.5 7.5v72.24c-18.421 8.853-33.862 22.951-44.377 40.347v-91.383c0-14.005-11.394-25.398-25.398-25.398h-221.221c-14.005 0-25.398 11.394-25.398 25.398v59.25h-32c-11.722 0-21.259 9.537-21.259 21.258v22.255h-19.244c-11.722 0-21.258 9.537-21.258 21.259v227.057h-15.545c-4.142 0-7.5 3.358-7.5 7.5s3.358 7.5 7.5 7.5h287.456c4.142 0 7.5-3.358 7.5-7.5v-72.998c0-10.621-8.641-19.262-19.262-19.262h-60.758c-10.621 0-19.262 8.641-19.262 19.262v65.498h-71.368v-351.08c0-5.734 4.665-10.398 10.398-10.398h221.222c5.733 0 10.398 4.665 10.398 10.398v351.08h-43.556c-4.142 0-7.5 3.358-7.5 7.5s3.358 7.5 7.5 7.5h174.232c4.142 0 7.5-3.358 7.5-7.5s-3.358-7.498-7.5-7.498zm-387.694-99.808h-38.259v-18.654h38.259zm0-75.603h-38.259v-18.654h38.259zm-38.259-95.16c0-3.451 2.808-6.258 6.259-6.258h32v28.514h-38.259zm-34.244 37.255h72.503v24.251h-41.01c-6.754 0-12.249 5.495-12.249 12.248v24.158c0 6.753 5.495 12.248 12.249 12.248h41.01v26.948h-41.01c-6.754 0-12.249 5.495-12.249 12.249v24.157c0 6.754 5.495 12.249 12.249 12.249h41.01v47.696h-78.762v-189.945c0-3.451 2.808-6.259 6.259-6.259zm243.153 167.818v65.498h-26.64v-69.76h22.377c2.351 0 4.263 1.912 4.263 4.262zm-69.283 0c0-2.35 1.912-4.262 4.262-4.262h23.381v69.76h-27.643zm-180.129 65.498v-22.113h78.761v22.113zm435.759-295.179v36.083h-33.102c-4.142 0-7.5 3.358-7.5 7.5s3.358 7.5 7.5 7.5h33.102v16.598h-43.411c-4.142 0-7.5 3.358-7.5 7.5s3.358 7.5 7.5 7.5h43.411v16.598h-52.689c-4.142 0-7.5 3.358-7.5 7.5s3.358 7.5 7.5 7.5h52.689v16.598h-52.689c-4.142 0-7.5 3.358-7.5 7.5s3.358 7.5 7.5 7.5h52.689v16.598h-52.689c-4.142 0-7.5 3.358-7.5 7.5s3.358 7.5 7.5 7.5h52.689v16.598h-52.689c-4.142 0-7.5 3.358-7.5 7.5s3.358 7.5 7.5 7.5h52.689v16.598h-52.689c-4.142 0-7.5 3.358-7.5 7.5s3.358 7.5 7.5 7.5h52.689v17.397h-84.979v-168.699c0-47.831 37.721-87.017 84.979-89.369zm-84.979 295.179v-22.113h84.979v22.113z"/><path d="m339.208 180.138c4.142 0 7.5-3.358 7.5-7.5v-2.5c0-4.142-3.358-7.5-7.5-7.5s-7.5 3.358-7.5 7.5v2.5c0 4.142 3.357 7.5 7.5 7.5z"/><path d="m331.708 202.582c0 4.142 3.358 7.5 7.5 7.5s7.5-3.358 7.5-7.5v-4.83c0-4.142-3.358-7.5-7.5-7.5s-7.5 3.358-7.5 7.5z"/><path d="m331.708 322.356c0 4.142 3.358 7.5 7.5 7.5s7.5-3.358 7.5-7.5v-4.83c0-4.142-3.358-7.5-7.5-7.5s-7.5 3.358-7.5 7.5z"/><path d="m331.708 352.3c0 4.142 3.358 7.5 7.5 7.5s7.5-3.358 7.5-7.5v-4.83c0-4.142-3.358-7.5-7.5-7.5s-7.5 3.358-7.5 7.5z"/><path d="m331.708 262.469c0 4.142 3.358 7.5 7.5 7.5s7.5-3.358 7.5-7.5v-4.83c0-4.142-3.358-7.5-7.5-7.5s-7.5 3.358-7.5 7.5z"/><path d="m331.708 292.413c0 4.142 3.358 7.5 7.5 7.5s7.5-3.358 7.5-7.5v-4.83c0-4.142-3.358-7.5-7.5-7.5s-7.5 3.358-7.5 7.5z"/><path d="m331.708 232.525c0 4.142 3.358 7.5 7.5 7.5s7.5-3.358 7.5-7.5v-4.83c0-4.142-3.358-7.5-7.5-7.5s-7.5 3.358-7.5 7.5z"/><path d="m331.708 379.914c0 4.142 3.358 7.5 7.5 7.5s7.5-3.358 7.5-7.5v-2.5c0-4.142-3.358-7.5-7.5-7.5s-7.5 3.358-7.5 7.5z"/><path d="m216.396 174.295c0-6.457-5.253-11.71-11.71-11.71h-32.79c-6.457 0-11.71 5.253-11.71 11.71v32.79c0 6.457 5.253 11.71 11.71 11.71h32.79c6.457 0 11.71-5.253 11.71-11.71zm-15 29.5h-26.21v-26.21h26.21z"/><path d="m293.645 162.584h-32.79c-6.457 0-11.71 5.253-11.71 11.71v32.79c0 6.457 5.253 11.71 11.71 11.71h32.79c6.457 0 11.71-5.253 11.71-11.71v-32.79c0-6.456-5.253-11.71-11.71-11.71zm-3.29 41.211h-26.21v-26.21h26.21z"/><path d="m216.396 258.809c0-6.457-5.253-11.71-11.71-11.71h-32.79c-6.457 0-11.71 5.253-11.71 11.71v32.79c0 6.457 5.253 11.71 11.71 11.71h32.79c6.457 0 11.71-5.253 11.71-11.71zm-15 29.5h-26.21v-26.21h26.21z"/><path d="m293.645 247.099h-32.79c-6.457 0-11.71 5.253-11.71 11.71v32.79c0 6.457 5.253 11.71 11.71 11.71h32.79c6.457 0 11.71-5.253 11.71-11.71v-32.79c0-6.457-5.253-11.71-11.71-11.71zm-3.29 41.21h-26.21v-26.21h26.21z"/><path d="m204.687 331.613h-32.79c-6.457 0-11.71 5.253-11.71 11.71v32.79c0 6.457 5.253 11.71 11.71 11.71h32.79c6.457 0 11.71-5.253 11.71-11.71v-32.79c-.001-6.457-5.253-11.71-11.71-11.71zm-3.291 41.21h-26.21v-26.21h26.21z"/><path d="m293.645 331.613h-32.79c-6.457 0-11.71 5.253-11.71 11.71v32.79c0 6.457 5.253 11.71 11.71 11.71h32.79c6.457 0 11.71-5.253 11.71-11.71v-32.79c0-6.457-5.253-11.71-11.71-11.71zm-3.29 41.21h-26.21v-26.21h26.21z"/><path d="m239.938 82.207c3.045 6.09 9.167 9.874 15.976 9.874 6.809 0 12.931-3.784 15.976-9.874l28.169-56.338c3.274-6.547 2.258-14.324-2.587-19.811-4.846-5.487-12.436-7.458-19.339-5.019l-21.267 7.514c-.613.217-1.29.217-1.905 0l-21.265-7.514c-6.902-2.438-14.493-.468-19.339 5.019-4.845 5.487-5.861 13.263-2.587 19.81zm-14.338-66.22c.365-.413 1.057-.991 2.069-.991.312 0 .656.055 1.029.187l21.264 7.513c3.838 1.356 8.066 1.356 11.902 0l21.265-7.514c1.583-.563 2.621.264 3.099.804.477.54 1.166 1.671.415 3.173l-28.169 56.338c-.688 1.377-1.899 1.583-2.56 1.583s-1.871-.206-2.559-1.582l-28.169-56.338c-.751-1.502-.063-2.633.414-3.173z"/></g></svg>