<svg id="Capa_1" enable-background="new 0 0 513.822 513.822" height="512" viewBox="0 0 513.822 513.822" width="512" xmlns="http://www.w3.org/2000/svg"><g><path d="m505.411 498.822h-18.098v-102.049c0-4.142-3.357-7.5-7.5-7.5s-7.5 3.358-7.5 7.5v102.049h-81.145v-47.51h40.572c4.143 0 7.5-3.358 7.5-7.5s-3.357-7.5-7.5-7.5h-40.572v-20.717h40.572c4.143 0 7.5-3.358 7.5-7.5s-3.357-7.5-7.5-7.5h-40.572v-31.408h88.645c.029 0 .058-.004.087-.004h8.051c6.128 0 11.604-3.172 14.65-8.486 3.044-5.31 3.014-11.632-.075-16.908l-46.529-79.63c-4.757-8.14-13.564-13.196-22.986-13.196h-29.137l-37.614-62.522c-4.697-7.82-13.288-12.678-22.419-12.678h-215.755v-52.633h44.513v25.035c0 4.142 3.358 7.5 7.5 7.5s7.5-3.358 7.5-7.5v-25.035h12.629c4.142 0 7.5-3.358 7.5-7.5s-3.358-7.5-7.5-7.5h-99.772c-4.142 0-7.5 3.358-7.5 7.5s3.358 7.5 7.5 7.5h12.629v52.633h-28.104c-9.131 0-17.721 4.858-22.417 12.674l-51.311 85.291c-2.985 4.963-3.065 10.936-.215 15.976 2.851 5.041 8.01 8.05 13.803 8.05h12.813v201.069h-29.243c-4.142 0-7.5 3.358-7.5 7.5s3.358 7.5 7.5 7.5h497c4.143 0 7.5-3.358 7.5-7.5s-3.357-7.501-7.5-7.501zm-373.857-172.669h-27.733c-1.081 0-1.602-.646-1.847-1.188-.246-.542-.39-1.36.322-2.173l112.115-128.139 112.116 128.14c.711.813.567 1.63.321 2.172s-.766 1.188-1.848 1.188h-27.73l-77.206-88.549c-1.424-1.634-3.485-2.571-5.653-2.571s-4.229.938-5.653 2.571zm169.807 15h23.64c6.77 0 12.712-3.828 15.508-9.99 2.796-6.163 1.764-13.155-2.693-18.248l-13.266-15.162h51.619v63.934 7.249h-21.071c-11.346 0-20.576 9.23-20.576 20.576v70.119c0 11.346 9.23 20.576 20.576 20.576h21.071v18.614h-74.808zm74.808 124.055h-21.071c-3.075 0-5.576-2.501-5.576-5.576v-70.119c0-3.075 2.501-5.576 5.576-5.576h21.071zm56.842-199.244c4.112 0 7.958 2.209 10.035 5.764l46.533 79.636c.452.773.255 1.446.009 1.875-.247.431-.731.945-1.637.945h-96.78v-56.43h12.811c5.792 0 10.951-3.009 13.802-8.049s2.771-11.012-.215-15.977l-4.671-7.764zm-79.607-69.794 51.31 85.289c.077.128.258.428.013.861-.245.434-.596.434-.745.434h-92.556l-80.487-91.99h112.902c3.895-.001 7.559 2.069 9.563 5.406zm-329.308 86.15c-.245-.433-.064-.733.012-.86l51.312-85.294c2.002-3.333 5.665-5.402 9.561-5.402h112.903l-80.487 91.99h-92.556c-.15 0-.5 0-.745-.434zm28.559 101.617h21.072c3.075 0 5.576 2.501 5.576 5.576v70.119c0 3.075-2.501 5.576-5.576 5.576h-21.072zm0 96.271h21.072c11.346 0 20.576-9.23 20.576-20.576v-70.119c0-11.346-9.23-20.576-20.576-20.576h-21.072v-71.183h51.618l-13.265 15.161c-4.458 5.094-5.489 12.086-2.693 18.249 2.796 6.162 8.738 9.99 15.507 9.99h23.642v157.669h-74.809zm198.139 18.614v-78.852c0-10.683-8.691-19.375-19.375-19.375h-34.013c-10.684 0-19.375 8.691-19.375 19.375v20.035c0 4.142 3.358 7.5 7.5 7.5s7.5-3.358 7.5-7.5v-20.035c0-2.412 1.962-4.375 4.375-4.375h34.013c2.413 0 4.375 1.962 4.375 4.375v78.852h-42.763v-23.806c0-4.142-3.358-7.5-7.5-7.5s-7.5 3.358-7.5 7.5v23.806h-35.567v-162.356l71.949-82.521 71.949 82.521v162.356z"/><circle cx="214.411" cy="304.782" r="7.384"/><path d="m240.956 82.042c3.042 6.083 9.156 9.861 15.957 9.861s12.914-3.779 15.954-9.861l28.107-56.214c3.27-6.54 2.255-14.306-2.585-19.787-4.839-5.48-12.419-7.444-19.313-5.011l-21.219 7.498c-.609.215-1.281.215-1.891 0l-21.219-7.498c-6.895-2.436-14.474-.47-19.314 5.011s-5.854 13.247-2.585 19.787zm-14.28-66.072c.473-.536 1.5-1.355 3.073-.797l21.218 7.497c3.833 1.354 8.055 1.354 11.887 0l21.219-7.498c1.57-.556 2.6.262 3.072.797.474.537 1.157 1.659.412 3.149l-28.107 56.217c-.683 1.365-1.884 1.568-2.539 1.568-.656 0-1.857-.204-2.54-1.569l-28.106-56.214c-.745-1.491-.062-2.614.411-3.15z"/></g></svg>