<svg id="Capa_1" enable-background="new 0 0 512 512" height="512" viewBox="0 0 512 512" width="512" xmlns="http://www.w3.org/2000/svg"><g><path d="m512 307.856c0-39.737-32.328-72.065-72.065-72.065-39.736 0-72.064 32.328-72.064 72.065 0 24.25 11.248 54.444 33.433 89.743 8.439 13.428 16.809 24.928 23.005 33h-205.948c-4.143 0-7.5 3.358-7.5 7.5s3.357 7.5 7.5 7.5h286.139c4.143 0 7.5-3.358 7.5-7.5s-3.357-7.5-7.5-7.5h-48.939c6.197-8.072 14.567-19.572 23.006-33 22.185-35.299 33.433-65.493 33.433-89.743zm-129.13 0c0-31.466 25.599-57.065 57.064-57.065s57.066 25.6 57.066 57.065c0 42.208-41.603 98.79-57.065 118.36-15.462-19.57-57.065-76.152-57.065-118.36z"/><path d="m474.304 307.261c0-18.951-15.418-34.369-34.369-34.369s-34.368 15.418-34.368 34.369 15.417 34.369 34.368 34.369 34.369-15.418 34.369-34.369zm-53.738 0c0-10.68 8.688-19.369 19.368-19.369 10.681 0 19.369 8.689 19.369 19.369s-8.688 19.369-19.369 19.369c-10.679 0-19.368-8.689-19.368-19.369z"/><path d="m57.899 182.199h168.109l14.93 29.859c2.871 5.741 8.643 9.308 15.062 9.308s12.19-3.567 15.062-9.309l17.002-34.004c1.853-3.705.351-8.21-3.354-10.062-3.706-1.854-8.211-.351-10.062 3.354l-17.002 34.004c-.42.84-1.127 1.017-1.646 1.017s-1.226-.177-1.646-1.017l-17.002-34.004c-1.271-2.541-3.867-4.146-6.708-4.146h-172.745c-23.655 0-42.899-19.244-42.899-42.899s19.244-42.899 42.899-42.899h396.201c23.655 0 42.899 19.244 42.899 42.899s-19.244 42.899-42.899 42.899h-137.657c-4.143 0-7.5 3.358-7.5 7.5s3.357 7.5 7.5 7.5h137.657c31.926 0 57.899-25.974 57.899-57.899s-25.974-57.899-57.899-57.899h-396.201c-31.925 0-57.899 25.973-57.899 57.899s25.974 57.899 57.899 57.899z"/><path d="m30.404 124.3c0 15.935 12.964 28.899 28.899 28.899s28.899-12.964 28.899-28.899-12.963-28.899-28.898-28.899-28.9 12.964-28.9 28.899zm42.799 0c0 7.664-6.235 13.899-13.899 13.899s-13.899-6.235-13.899-13.899 6.235-13.899 13.899-13.899 13.899 6.235 13.899 13.899z"/><path d="m227.101 124.3c0 15.935 12.964 28.899 28.899 28.899s28.899-12.964 28.899-28.899-12.963-28.899-28.899-28.899-28.899 12.964-28.899 28.899zm42.798 0c0 7.664-6.235 13.899-13.899 13.899s-13.899-6.235-13.899-13.899 6.235-13.899 13.899-13.899 13.899 6.235 13.899 13.899z"/><path d="m416.866 147.002 3.128-17.334 5.246 17.78c.026.088.054.175.083.263 1.168 3.482 4.412 5.814 8.082 5.814h.041c3.687-.018 6.93-2.385 8.068-5.892.028-.087.055-.174.08-.261l5.062-17.757 3.338 17.463c.777 4.069 4.704 6.735 8.774 5.959 4.068-.777 6.736-4.706 5.958-8.774l-8.473-44.334c-.773-3.789-4.011-6.588-7.872-6.807-3.856-.209-7.394 2.198-8.59 5.876-.029.087-.056.175-.081.263l-6.412 22.494-6.658-22.568c-.026-.089-.055-.178-.084-.267-1.233-3.669-4.79-6.054-8.653-5.79-3.861.259-7.069 3.095-7.816 6.98l-7.982 44.228c-.735 4.076 1.973 7.977 6.049 8.713 4.07.732 7.977-1.972 8.712-6.049z"/><path d="m356.762 93.108c-4.143 0-7.5 3.358-7.5 7.5v45.417c0 4.142 3.357 7.5 7.5 7.5s7.5-3.358 7.5-7.5v-7.469l13.337 12.867c1.455 1.404 3.332 2.103 5.206 2.103 1.965 0 3.927-.767 5.398-2.292 2.876-2.981 2.791-7.729-.19-10.605l-18.857-18.193 17.113-15.731c3.05-2.803 3.25-7.548.446-10.598-2.802-3.049-7.548-3.25-10.597-.446l-11.856 10.898v-5.949c0-4.144-3.358-7.502-7.5-7.502z"/><path d="m231.69 416.219c10.256 0 18.6-8.344 18.6-18.6v-43.35c0-10.251-8.344-18.59-18.6-18.59h-47.54l-14.864-42.958c-3.617-10.426-13.453-17.432-24.477-17.432h-82.149c-11.037 0-20.875 7.009-24.478 17.436l-14.872 42.954h-4.71c-10.256 0-18.6 8.339-18.6 18.59v43.35c0 10.256 8.344 18.6 18.6 18.6h13.5c-.354 3.948.302 9.369 2.73 14.38h-27.33c-4.143 0-7.5 3.358-7.5 7.5s3.357 7.5 7.5 7.5h165.405c15.231-.044 28.351-13.415 26.93-29.38zm-213.09-15c-1.984 0-3.6-1.615-3.6-3.6v-43.35c0-1.98 1.615-3.59 3.6-3.59h10.05c3.196 0 6.041-2.026 7.087-5.046l16.621-48.004c1.517-4.39 5.657-7.339 10.302-7.339h82.149c4.639 0 8.78 2.953 10.303 7.342l16.609 48c1.046 3.021 3.891 5.047 7.088 5.047h52.881c1.984 0 3.6 1.61 3.6 3.59v8.388h-11.618c-4.143 0-7.5 3.358-7.5 7.5s3.357 7.5 7.5 7.5h11.618v19.962c0 1.985-1.615 3.6-3.6 3.6h-38.062c-4.964-5.922-12.41-9.696-20.723-9.696s-15.76 3.774-20.723 9.696h-72.429c-4.964-5.922-12.41-9.696-20.723-9.696s-15.76 3.774-20.723 9.696zm67.359 15h60.016c-.354 3.948.302 9.369 2.73 14.38h-65.475c1.538-3.343 3.301-8.719 2.729-14.38zm-38.968 2.342c0-6.638 5.4-12.038 12.038-12.038s12.038 5.4 12.038 12.038-5.4 12.038-12.038 12.038-12.038-5.4-12.038-12.038zm125.914 12.038c-6.638 0-12.038-5.4-12.038-12.038s5.4-12.038 12.038-12.038 12.038 5.4 12.038 12.038-5.4 12.038-12.038 12.038z"/><path d="m59.277 350.852h88.909c2.426 0 4.702-1.173 6.109-3.15 1.407-1.976 1.771-4.511.978-6.804l-10.925-31.56c-1.045-3.021-3.891-5.046-7.087-5.046h-67.06c-3.196 0-6.042 2.026-7.087 5.046l-10.925 31.56c-.794 2.293-.43 4.828.978 6.804s3.685 3.15 6.11 3.15zm16.266-31.56h56.378l5.732 16.56h-67.842z"/><path d="m111.802 128.837c0 4.142 3.357 7.5 7.5 7.5h73.457c3.033 0 5.769-1.827 6.929-4.63 1.161-2.803.52-6.028-1.625-8.173l-17.668-17.667c-2.93-2.929-7.678-2.929-10.607 0s-2.929 7.678 0 10.606l4.864 4.864h-55.35c-4.143 0-7.5 3.358-7.5 7.5z"/></g></svg>