<svg id="Capa_1" enable-background="new 0 0 512 512" height="512" viewBox="0 0 512 512" width="512" xmlns="http://www.w3.org/2000/svg"><g><path d="m512 307.856c0-39.737-32.328-72.065-72.064-72.065-39.737 0-72.065 32.328-72.065 72.065 0 24.25 11.248 54.444 33.433 89.743 8.439 13.428 16.809 24.928 23.006 33h-201.267c-4.143 0-7.5 3.358-7.5 7.5s3.357 7.5 7.5 7.5h281.457c4.143 0 7.5-3.358 7.5-7.5s-3.357-7.5-7.5-7.5h-48.938c6.197-8.072 14.567-19.572 23.005-33 22.185-35.299 33.433-65.493 33.433-89.743zm-129.13 0c0-31.466 25.6-57.065 57.065-57.065s57.065 25.6 57.065 57.065c0 42.208-41.603 98.79-57.064 118.36-15.463-19.57-57.066-76.152-57.066-118.36z"/><path d="m474.304 307.261c0-18.951-15.417-34.369-34.368-34.369s-34.369 15.418-34.369 34.369 15.418 34.369 34.369 34.369 34.368-15.418 34.368-34.369zm-53.738 0c0-10.68 8.688-19.369 19.369-19.369 10.68 0 19.368 8.689 19.368 19.369s-8.688 19.369-19.368 19.369-19.369-8.689-19.369-19.369z"/><path d="m57.899 182.199h168.11l14.93 29.858c2.87 5.741 8.641 9.308 15.06 9.309h.001c6.419 0 12.19-3.567 15.062-9.309l17.002-34.004c1.853-3.705.351-8.21-3.354-10.062-3.706-1.854-8.211-.351-10.062 3.354l-17.002 34.004c-.42.84-1.127 1.017-1.646 1.017s-1.225-.176-1.645-1.017l-17.003-34.004c-1.271-2.541-3.867-4.146-6.708-4.146h-172.745c-23.655 0-42.899-19.244-42.899-42.899s19.244-42.899 42.899-42.899h396.202c23.654 0 42.898 19.244 42.898 42.899s-19.244 42.899-42.898 42.899h-137.638c-4.143 0-7.5 3.358-7.5 7.5s3.357 7.5 7.5 7.5h137.639c31.925 0 57.898-25.974 57.898-57.899s-25.974-57.899-57.898-57.899h-396.203c-31.925 0-57.899 25.973-57.899 57.899s25.974 57.899 57.899 57.899z"/><path d="m188.025 430.599h-51.551l18.751-8.072c1.827-.787 3.267-2.267 4.003-4.115.735-1.848.706-3.913-.08-5.74l-4.01-9.31c-3.391-7.873-9.688-13.967-17.551-17.101l-36.578-65.329v-14.178l20.493 17.378c5.137 4.352 11.424 6.478 17.68 6.477 7.761 0 15.471-3.273 20.86-9.628 2.391-2.799 3.707-6.375 3.707-10.071 0-4.587-2.004-8.912-5.489-11.86l-51.047-43.288c-2.642-2.242-5.791-3.781-9.139-4.541 3.15-4.891 4.987-10.705 4.987-16.943 0-17.306-14.08-31.385-31.386-31.385s-31.385 14.08-31.385 31.385c0 6.215 1.823 12.008 4.952 16.888-5.826 1.28-10.965 4.953-14.007 10.223l-27.572 47.743c-7.537 13.067-3.042 29.829 10.008 37.357 2.894 1.333 6.268 2.88 11.801 1.566 4.015-1.074 7.369-3.648 9.443-7.246l5.434-9.412-20.1 94.019c-.392 1.831-.072 3.653.771 5.183h-13.52c-4.143 0-7.5 3.358-7.5 7.5s3.357 7.5 7.5 7.5h180.525c4.143 0 7.5-3.358 7.5-7.5s-3.357-7.5-7.5-7.5zm-57.649-30.97c4.946 1.416 8.95 4.939 10.985 9.666l1.043 2.42-23.643 10.177-33.401-64.827 8.646-17.937 31.89 56.955c.967 1.727 2.578 3.001 4.48 3.546zm-58.7-181.737c9.035 0 16.386 7.351 16.386 16.385 0 9.009-7.309 16.34-16.309 16.382h-.154c-8.998-.042-16.308-7.373-16.308-16.382 0-9.035 7.351-16.385 16.385-16.385zm-49.753 115.42c-.036-.054-.201.438-.745.19-5.897-3.402-7.926-10.973-4.522-16.873l25.685-44.476v25.796zm35.24-8.817c.075-.366.04-.136.177-1.606v-57.23h35.89c.013 0 .027 0 .04.001.048.002.095.008.143.009 1.062.013 2.634.29 4.096 1.531l51.058 43.296c.018.063.331.279.053.762-4.405 5.194-12.221 5.834-17.419 1.431l-32.906-27.903c-.008-.007-.016-.013-.024-.02l-7.206-6.111c-3.16-2.68-7.893-2.29-10.571.87-2.679 3.159-2.289 7.892.87 10.571l4.646 3.939v27.141l-15.785 32.744c-.132.38-.235.359-.562 1.61l-11.344 50.396c-.46 2.047-.042 4.194 1.153 5.919 2.93 3.995 3.888 11.245 1.646 16.974l-24.738-7.11zm16.459 81.757 6.144-27.295 26.608 51.642h-30.16l.051-.176c2.348-8.172 1.373-16.803-2.643-24.171z"/><path d="m30.405 124.3c0 15.935 12.964 28.899 28.898 28.899 15.936 0 28.899-12.964 28.899-28.899s-12.963-28.899-28.898-28.899-28.899 12.964-28.899 28.899zm42.798 0c0 7.664-6.235 13.899-13.899 13.899s-13.898-6.235-13.898-13.899 6.234-13.899 13.898-13.899 13.899 6.235 13.899 13.899z"/><path d="m227.101 124.3c0 15.935 12.964 28.899 28.899 28.899s28.899-12.964 28.899-28.899-12.963-28.899-28.899-28.899-28.899 12.964-28.899 28.899zm42.798 0c0 7.664-6.235 13.899-13.899 13.899s-13.899-6.235-13.899-13.899 6.235-13.899 13.899-13.899 13.899 6.235 13.899 13.899z"/><path d="m416.866 147.002 3.128-17.334 5.246 17.78c.026.088.054.175.083.263 1.168 3.482 4.412 5.814 8.082 5.814h.041c3.687-.018 6.93-2.385 8.068-5.892.028-.087.055-.174.08-.261l5.062-17.756 3.338 17.462c.777 4.069 4.706 6.735 8.774 5.959 4.068-.777 6.736-4.706 5.958-8.774l-8.472-44.327c-.771-3.793-4.008-6.595-7.873-6.814-3.88-.204-7.396 2.201-8.592 5.882-.027.085-.054.171-.078.257l-6.413 22.495-6.658-22.569c-.025-.087-.053-.174-.082-.261-1.23-3.67-4.762-6.056-8.651-5.797-3.863.258-7.073 3.094-7.82 6.981l-7.982 44.228c-.735 4.076 1.973 7.977 6.049 8.713 4.071.732 7.977-1.972 8.712-6.049z"/><path d="m356.763 93.108c-4.143 0-7.5 3.358-7.5 7.5v45.417c0 4.142 3.357 7.5 7.5 7.5s7.5-3.358 7.5-7.5v-7.468l13.336 12.866c1.455 1.404 3.332 2.103 5.206 2.103 1.965 0 3.927-.767 5.398-2.292 2.876-2.981 2.791-7.729-.19-10.605l-18.857-18.193 17.113-15.731c3.05-2.803 3.25-7.548.446-10.598-2.803-3.049-7.547-3.25-10.597-.446l-11.855 10.897v-5.948c0-4.144-3.358-7.502-7.5-7.502z"/><path d="m111.802 128.837c0 4.142 3.357 7.5 7.5 7.5h73.457c3.033 0 5.769-1.827 6.929-4.63 1.161-2.803.52-6.028-1.625-8.173l-17.668-17.667c-2.93-2.929-7.678-2.929-10.607 0s-2.929 7.678 0 10.606l4.864 4.864h-55.35c-4.143 0-7.5 3.358-7.5 7.5z"/></g></svg>