<svg id="Capa_1" enable-background="new 0 0 512 512" height="512" viewBox="0 0 512 512" width="512" xmlns="http://www.w3.org/2000/svg"><g><path d="m473.94 9.174h-435.88c-20.986 0-38.06 17.069-38.06 38.05v366.48c0 20.981 17.069 38.05 38.05 38.05h155.69c4.142 0 7.5-3.358 7.5-7.5v-420.08h272.7c12.715 0 23.06 10.34 23.06 23.05v366.48c0 12.71-10.34 23.05-23.05 23.05h-56.24c-2.84 0-5.438 1.605-6.708 4.146l-21.611 43.214-21.602-43.214c-1.271-2.541-3.868-4.146-6.708-4.146h-132.295c-4.142 0-7.5 3.358-7.5 7.5s3.358 7.5 7.5 7.5h127.659l22.222 44.452c2.049 4.084 6.158 6.62 10.728 6.62h.015c4.57-.005 8.676-2.548 10.71-6.628l22.227-44.444h51.605c20.981 0 38.05-17.069 38.05-38.05v-366.48c-.002-20.981-17.076-38.05-38.062-38.05zm-443.801 16.401c2.471-.906 5.139-1.401 7.921-1.401h137.624l-66.088 66.088c-2.929 2.929-2.929 7.678 0 10.606 2.929 2.929 7.678 2.929 10.606 0l66.038-66.038v19.797l-106.323 106.333c-2.24 2.24-2.831 5.646-1.476 8.51l14.4 30.439c1.261 2.667.709 5.858-1.374 7.94l-76.467 76.468v-19.797l59.343-59.343c2.24-2.24 2.831-5.646 1.477-8.51l-14.402-30.454c-1.261-2.663-.708-5.852 1.375-7.936l32.599-32.599c2.929-2.929 2.929-7.678 0-10.606-2.929-2.929-7.678-2.929-10.606 0l-32.599 32.598c-6.556 6.555-8.293 16.588-4.327 24.96l12.142 25.675-45.002 45.002v-196.083c0-9.93 6.314-18.413 15.139-21.649zm156.101 50.267v121.093l-55.329-65.76zm-148.19 360.912c-9.929 0-18.413-6.311-21.649-15.133-.906-2.47-1.401-5.137-1.401-7.917v-108.174l87.073-87.073c6.551-6.551 8.29-16.581 4.327-24.96l-12.141-25.665 26.008-26.01 65.974 78.412v216.52z"/><path d="m221.414 159.254c0 21.858 17.783 39.641 39.641 39.641h175.065c21.858 0 39.641-17.783 39.641-39.641s-17.783-39.641-39.641-39.641h-175.065c-21.859 0-39.641 17.783-39.641 39.641zm39.641-24.641h175.065c13.587 0 24.641 11.054 24.641 24.641s-11.054 24.641-24.641 24.641h-175.065c-13.587 0-24.641-11.054-24.641-24.641s11.053-24.641 24.641-24.641z"/><path d="m265.417 328.729c-21.858 0-39.641 17.783-39.641 39.641s17.783 39.641 39.641 39.641h45.869c21.858 0 39.641-17.783 39.641-39.641s-17.783-39.641-39.641-39.641zm70.51 39.64c0 13.587-11.054 24.641-24.641 24.641h-45.869c-13.587 0-24.641-11.054-24.641-24.641s11.054-24.641 24.641-24.641h45.869c13.588.001 24.641 11.054 24.641 24.641z"/><path d="m266 166.754h55.075c4.142 0 7.5-3.358 7.5-7.5s-3.358-7.5-7.5-7.5h-55.075c-4.142 0-7.5 3.358-7.5 7.5s3.358 7.5 7.5 7.5z"/><path d="m261.055 303.453h175.065c21.858 0 39.641-17.783 39.641-39.641s-17.783-39.641-39.641-39.641h-175.065c-21.858 0-39.641 17.783-39.641 39.641s17.782 39.641 39.641 39.641zm0-64.282h175.065c13.587 0 24.641 11.054 24.641 24.641s-11.054 24.641-24.641 24.641h-175.065c-13.587 0-24.641-11.054-24.641-24.641s11.053-24.641 24.641-24.641z"/><path d="m266 271.312h55.075c4.142 0 7.5-3.358 7.5-7.5s-3.358-7.5-7.5-7.5h-55.075c-4.142 0-7.5 3.358-7.5 7.5s3.358 7.5 7.5 7.5z"/><ellipse cx="243.56" cy="67.904" rx="7.384" ry="7.383" transform="matrix(.707 -.707 .707 .707 23.322 192.111)"/><path d="m468.26 75.403c4.142 0 7.5-3.358 7.5-7.5s-3.358-7.5-7.5-7.5h-42.797c-4.142 0-7.5 3.358-7.5 7.5s3.358 7.5 7.5 7.5z"/><path d="m390.245 75.403c4.142 0 7.5-3.358 7.5-7.5s-3.358-7.5-7.5-7.5h-114.765c-4.142 0-7.5 3.358-7.5 7.5s3.358 7.5 7.5 7.5z"/><path d="m43.298 73.403h4.722v4.723c0 4.142 3.358 7.5 7.5 7.5s7.5-3.358 7.5-7.5v-4.723h4.723c4.142 0 7.5-3.358 7.5-7.5s-3.358-7.5-7.5-7.5h-4.723v-4.722c0-4.142-3.358-7.5-7.5-7.5s-7.5 3.358-7.5 7.5v4.722h-4.722c-4.142 0-7.5 3.358-7.5 7.5s3.358 7.5 7.5 7.5z"/><path d="m148.813 350.048c-.772-3.791-4.01-6.592-7.873-6.811-3.866-.218-7.396 2.199-8.591 5.879-.028.086-.055.173-.08.26l-6.412 22.494-6.658-22.567c-.026-.089-.054-.178-.084-.266-1.233-3.67-4.795-6.06-8.653-5.792-3.862.259-7.07 3.095-7.817 6.98l-7.982 44.228c-.735 4.076 1.973 7.977 6.049 8.713 4.076.731 7.978-1.972 8.713-6.049l3.128-17.334 5.246 17.78c.026.089.054.178.084.266 1.169 3.481 4.413 5.811 8.081 5.811h.045c3.687-.019 6.928-2.388 8.065-5.894.028-.086.054-.172.079-.259l5.062-17.756 3.337 17.462c.777 4.069 4.706 6.738 8.774 5.959 4.069-.778 6.736-4.706 5.959-8.774z"/><path d="m61.713 372.55 17.114-15.731c3.049-2.803 3.249-7.548.446-10.598-2.802-3.049-7.547-3.25-10.597-.446l-11.855 10.897v-5.948c0-4.142-3.358-7.5-7.5-7.5s-7.5 3.358-7.5 7.5v45.417c0 4.142 3.358 7.5 7.5 7.5s7.5-3.358 7.5-7.5v-7.468l13.336 12.866c1.456 1.404 3.332 2.103 5.207 2.103 1.964 0 3.927-.767 5.398-2.292 2.876-2.981 2.791-7.729-.19-10.605z"/><path d="m82.602 311.203h-33.065c-4.142 0-7.5 3.358-7.5 7.5s3.358 7.5 7.5 7.5h33.065c4.142 0 7.5-3.358 7.5-7.5s-3.358-7.5-7.5-7.5z"/><path d="m375.633 394.975c1.464 1.464 3.384 2.197 5.303 2.197s3.839-.732 5.303-2.197l21.302-21.303c2.929-2.929 2.929-7.678 0-10.606l-21.302-21.303c-2.929-2.929-7.678-2.929-10.606 0-2.929 2.929-2.929 7.678 0 10.606l15.999 16-15.999 16c-2.929 2.928-2.929 7.677 0 10.606z"/></g></svg>