<svg id="Capa_1" enable-background="new 0 0 512 512" height="512" viewBox="0 0 512 512" width="512" xmlns="http://www.w3.org/2000/svg"><g><path d="m466.625 411.678c8.986 0 16.297-7.311 16.297-16.297v-55.048c0-8.986-7.311-16.297-16.297-16.297h-22.165v-42.756h22.16c8.988 0 16.3-7.312 16.3-16.3v-55.05c0-8.988-7.312-16.3-16.3-16.3h-81.948c-4.142 0-7.5 3.358-7.5 7.5s3.358 7.5 7.5 7.5h6.607l-27.802 57.65h-39.155l29.003-60.153 39.374-68.199c5.877-10.18 5.877-22.827 0-33.007l-51.048-88.417c-5.877-10.18-16.83-16.504-28.584-16.504h-114.134c-11.754 0-22.707 6.324-28.584 16.503l-51.049 88.418c-5.877 10.18-5.877 22.827 0 33.007l32.159 55.702h-106.079c-8.988 0-16.3 7.312-16.3 16.3v55.05c0 8.988 7.312 16.3 16.3 16.3h23.63v42.756h-23.635c-8.986 0-16.297 7.311-16.297 16.297v55.048c0 8.986 7.311 16.297 16.297 16.297h23.635v85.322h-30.96c-4.142 0-7.5 3.358-7.5 7.5s3.358 7.5 7.5 7.5h117.168c4.142 0 7.5-3.358 7.5-7.5s-3.358-7.5-7.5-7.5h-30.968v-57.668c0-4.142-3.358-7.5-7.5-7.5s-7.5 3.358-7.5 7.5v57.668h-25.24v-85.322h305.21v85.322h-30.966c-4.142 0-7.5 3.358-7.5 7.5s3.358 7.5 7.5 7.5h38.466 40.24 38.462c4.142 0 7.5-3.358 7.5-7.5s-3.358-7.5-7.5-7.5h-30.962v-85.322zm1.297-71.345v55.048c0 .715-.582 1.297-1.297 1.297h-41.147l27.798-57.642h13.349c.715 0 1.297.582 1.297 1.297zm-38.462-16.297h-25.24v-42.756h25.24zm-105.136 72.642 27.798-57.642h39.156l-27.798 57.642zm-101.144 0 27.798-57.642h39.145l-27.798 57.642zm-98.93-72.642v-42.756h264.97v42.756zm-2.223 72.642 27.798-57.642h39.156l-27.798 57.642zm11.145-188.045-27.798 57.642h-28.692l27.798-57.642zm56.593 32.894c2.946.857 6.026 1.322 9.168 1.322h18.895l-11.298 23.431h-28.698zm33.418 24.753 11.298-23.431h39.147l-11.298 23.431zm243.437-57.65c.717 0 1.3.583 1.3 1.3v55.05c0 .717-.583 1.3-1.3 1.3h-41.145l27.802-57.65zm-58.69.003h28.692l-27.798 57.642h-28.692zm-128.948 57.647 11.298-23.431h22.787c2.097 0 4.166-.21 6.188-.599l-11.586 24.03zm-146.691-153.859 51.048-88.417c3.206-5.554 9.181-9.004 15.594-9.004h114.135c6.413 0 12.388 3.45 15.594 9.003l51.048 88.417c3.206 5.553 3.206 12.454 0 18.007l-38.04 65.887c-.157.145-.752 1.02-1.609 2.787l-11.399 19.743c-3.207 5.554-9.182 9.004-15.594 9.004h-114.135c-6.412 0-12.388-3.45-15.594-9.003l-51.048-88.417c-3.207-5.553-3.207-12.454 0-18.007zm38.057 113.925c1.707 2.957 3.854 5.576 6.313 7.822l-15.481 32.112h-39.155l27.802-57.65h10.294zm-126.268 38.634v-55.05c0-.717.583-1.3 1.3-1.3h42.449l-27.802 57.65h-14.647c-.717 0-1.3-.583-1.3-1.3zm39.93 16.3h25.24v42.756h-25.24zm-39.932 114.101v-55.048c0-.715.582-1.297 1.297-1.297h42.452l-27.798 57.642h-14.654c-.715 0-1.297-.582-1.297-1.297zm32.604 1.297 27.798-57.642h28.692l-27.798 57.642zm101.153 0 27.798-57.642h28.692l-27.798 57.642zm101.144 0 27.798-57.642h28.692l-27.798 57.642zm128.951-57.642h28.692l-27.798 57.642h-28.692zm21.53 157.964h-25.24v-85.322h25.24z"/><path d="m201.003 213.755h109.993c2.68 0 5.155-1.43 6.495-3.75l48.977-84.831c1.34-2.32 1.34-5.18 0-7.5l-48.977-84.831c-1.34-2.32-3.815-3.75-6.495-3.75h-60.432c-4.142 0-7.5 3.358-7.5 7.5s3.358 7.5 7.5 7.5h56.102l44.647 77.331-44.647 77.331h-101.333l-44.647-77.332 44.647-77.331h10.189c4.142 0 7.5-3.358 7.5-7.5s-3.358-7.5-7.5-7.5h-14.52c-2.68 0-5.155 1.43-6.495 3.75l-48.977 84.831c-1.34 2.32-1.34 5.18 0 7.5l48.977 84.832c1.341 2.321 3.817 3.75 6.496 3.75z"/><path d="m194.488 109.604v24.803c0 9.577 7.792 17.369 17.369 17.369h92.298c9.577 0 17.369-7.792 17.369-17.369v-24.803c0-9.577-7.792-17.369-17.369-17.369h-92.298c-9.577-.001-17.369 7.791-17.369 17.369zm112.036 0v24.803c0 1.306-1.063 2.369-2.369 2.369h-92.298c-1.306 0-2.369-1.063-2.369-2.369v-24.803c0-1.306 1.063-2.369 2.369-2.369h92.298c1.306-.001 2.369 1.062 2.369 2.369z"/></g></svg>