<svg id="Capa_1" enable-background="new 0 0 512 512" height="512" viewBox="0 0 512 512" width="512" xmlns="http://www.w3.org/2000/svg"><g><path d="m439.027 91.911-82.408-82.408c-6.129-6.128-14.276-9.503-22.943-9.503h-155.352c-8.667 0-16.814 3.375-22.943 9.503l-82.408 82.408c-6.128 6.128-9.503 14.276-9.503 22.943v141.009c0 8.667 3.375 16.815 9.503 22.943l82.408 82.408c6.128 6.128 14.276 9.503 22.943 9.503h47.886v133.783c0 4.142 3.358 7.5 7.5 7.5s7.5-3.358 7.5-7.5v-133.783h92.466c8.667 0 16.814-3.375 22.944-9.503l82.406-82.407c6.129-6.128 9.504-14.276 9.504-22.943v-141.01c0-8.667-3.375-16.815-9.503-22.943zm-5.497 163.952c0 4.66-1.814 9.042-5.11 12.336l-82.406 82.407c-3.296 3.295-7.678 5.11-12.338 5.11h-155.352c-4.66 0-9.041-1.815-12.336-5.11l-82.408-82.407c-3.295-3.294-5.11-7.676-5.11-12.336v-141.009c0-4.66 1.814-9.042 5.11-12.336l82.408-82.408c3.295-3.295 7.676-5.11 12.336-5.11h155.352c4.66 0 9.042 1.815 12.337 5.11l82.408 82.408c3.295 3.294 5.109 7.676 5.109 12.336z"/><path d="m337.231 31.366c-1.257-1.198-3.06-2.204-5.304-2.197h-115.762c-4.142 0-7.5 3.358-7.5 7.5s3.358 7.5 7.5 7.5h103.985l-6.947 14.884c-1.752 3.753-.13 8.216 3.624 9.968 1.026.479 2.104.706 3.167.706 2.823 0 5.528-1.603 6.801-4.33l7.4-15.854 70.167 70.167v131.298l-70.166 70.166-7.399-15.854c-1.751-3.754-6.217-5.374-9.968-3.625-3.754 1.752-5.376 6.215-3.624 9.968l6.947 14.884h-128.006l7.282-14.733c1.835-3.713.313-8.211-3.4-10.047-3.714-1.835-8.211-.313-10.047 3.4l-7.999 16.183-70.344-70.344v-131.296l70.343-70.343 7.999 16.182c1.308 2.646 3.966 4.178 6.729 4.178 1.116 0 2.25-.25 3.317-.778 3.713-1.835 5.236-6.334 3.4-10.047l-12.632-25.556c-1.934-4.161-8.32-5.861-12.026-1.98l-79.933 79.934c-1.407 1.406-2.197 3.314-2.197 5.303v137.511c0 1.989.79 3.897 2.197 5.303l79.934 79.934c1.262 1.193 3.026 2.204 5.319 2.197h151.817c1.695-.023 3.763-.606 5.326-2.197l79.934-79.934c1.406-1.406 2.196-3.314 2.196-5.303v-137.51c0-1.989-.79-3.897-2.196-5.303z"/><path d="m278.29 390.824c-4.143 0-7.5 3.358-7.5 7.5v106.176c0 4.142 3.357 7.5 7.5 7.5s7.5-3.358 7.5-7.5v-106.176c0-4.142-3.357-7.5-7.5-7.5z"/><path d="m155.472 207.138c-5.234 0-10.264-2.103-13.455-5.624-2.782-3.069-7.524-3.303-10.594-.521s-3.303 7.524-.521 10.594c6.077 6.706 15.032 10.551 24.57 10.551 11.828 0 21.765-7.573 23.627-18.006 1.407-7.878-2.135-18.157-16.294-23.38-6.584-2.429-12.722-5.071-14.728-5.948-1.147-.978-1.105-2.309-1.025-2.87.12-.834.736-2.875 3.863-3.816 7.317-2.205 14.17 3.174 14.388 3.347 3.17 2.625 7.871 2.206 10.524-.951 2.665-3.171 2.255-7.902-.915-10.567-.526-.442-13.07-10.788-28.324-6.191-7.788 2.346-13.299 8.495-14.384 16.047-1.02 7.103 2.06 13.936 8.037 17.833.332.216.679.405 1.041.566.316.142 7.849 3.494 16.332 6.624 1.741.642 7.371 3.021 6.719 6.67-.496 2.773-3.945 5.642-8.861 5.642z"/><path d="m217.261 222.138c4.142 0 7.5-3.358 7.5-7.5v-47.058h7.626c4.142 0 7.5-3.358 7.5-7.5s-3.358-7.5-7.5-7.5h-30.13c-4.142 0-7.5 3.358-7.5 7.5s3.358 7.5 7.5 7.5h7.504v47.059c0 4.141 3.358 7.499 7.5 7.499z"/><path d="m352.151 214.638v-16.239c2.865-.014 5.888-.027 7.691-.027 12.792 0 23.198-10.271 23.198-22.896s-10.406-22.896-23.198-22.896h-15.191c-1.553.071-3.576.428-5.309 2.203-1.111 1.159-2.212 2.986-2.191 5.297v54.559c0 4.142 3.357 7.5 7.5 7.5s7.5-3.359 7.5-7.501zm7.692-47.058c4.444 0 8.198 3.616 8.198 7.896s-3.754 7.896-8.198 7.896c-1.791 0-4.777.012-7.627.026-.014-2.956-.026-6.079-.026-7.923 0-1.569-.008-4.797-.016-7.896h7.669z"/><path d="m318.487 187.359c0-19.177-15.602-34.779-34.778-34.779-19.178 0-34.779 15.602-34.779 34.779s15.602 34.779 34.779 34.779 34.778-15.602 34.778-34.779zm-54.557 0c0-10.906 8.873-19.779 19.779-19.779s19.778 8.873 19.778 19.779-8.872 19.779-19.778 19.779-19.779-8.873-19.779-19.779z"/></g></svg>