<svg id="Capa_1" enable-background="new 0 0 512 512" height="512" viewBox="0 0 512 512" width="512" xmlns="http://www.w3.org/2000/svg"><g><path d="m278.29 386.16c-4.143 0-7.5 3.358-7.5 7.5v110.84c0 4.142 3.357 7.5 7.5 7.5s7.5-3.358 7.5-7.5v-110.84c0-4.142-3.357-7.5-7.5-7.5z"/><path d="m388.034 0h-264.068c-16.615 0-30.133 13.517-30.133 30.132v305.453c0 16.615 13.518 30.132 30.133 30.132h102.244v138.783c0 4.142 3.357 7.5 7.5 7.5s7.5-3.358 7.5-7.5v-138.783h146.824c16.615 0 30.133-13.517 30.133-30.132v-305.453c0-16.615-13.518-30.132-30.133-30.132zm15.133 335.585c0 8.344-6.788 15.132-15.133 15.132h-264.068c-8.345 0-15.133-6.788-15.133-15.132v-305.453c0-8.344 6.788-15.132 15.133-15.132h264.068c8.345 0 15.133 6.789 15.133 15.132z"/><path d="m381.667 29h-251.334c-4.143 0-7.5 3.358-7.5 7.5v292.717c0 4.142 3.357 7.5 7.5 7.5h251.334c4.143 0 7.5-3.358 7.5-7.5v-292.717c0-4.142-3.357-7.5-7.5-7.5zm-7.5 292.717h-236.334v-277.717h236.334z"/><path d="m219.226 254.667c12.131 0 22-9.869 22-22v-32.241c8.123-.04 16.825-.076 21.989-.076 37.195 0 67.456-29.869 67.456-66.583s-30.261-66.583-67.456-66.583h-43.739c-10.82-.532-22.537 9.833-22.25 22v143.484c0 12.13 9.869 21.999 22 21.999zm-6.998-165.482c.282-2.886 2.258-7.015 7.248-7.001h43.739c28.925 0 52.456 23.14 52.456 51.583s-23.531 51.583-52.456 51.583c-6.845 0-19.837.062-29.53.115-4.126.022-7.459 3.374-7.459 7.5v39.702c0 3.86-3.141 7-7 7s-7-3.14-7-7z"/><path d="m228.668 169.288c1.405 1.394 3.304 2.175 5.282 2.175h.038c.225-.001 22.616-.113 29.227-.113 20.846 0 38.456-17.211 38.456-37.583 0-17.563-13.398-33.417-31.166-36.879-4.065-.794-8.004 1.861-8.796 5.927-.792 4.065 1.861 8.003 5.927 8.795 10.852 2.114 19.035 11.64 19.035 22.156 0 12.242-10.741 22.583-23.456 22.583-4.175 0-14.572.044-21.787.078l-.158-52.767c-.013-4.135-3.368-7.478-7.5-7.478-.007 0-.015 0-.022 0-4.143.012-7.49 3.38-7.478 7.522l.181 60.28c.005 1.993.803 3.901 2.217 5.304z"/><path d="m280.364 268.47c-2.93-2.929-7.678-2.929-10.607 0s-2.929 7.678 0 10.606l4.864 4.864h-55.35c-4.143 0-7.5 3.358-7.5 7.5s3.357 7.5 7.5 7.5h73.457c3.033 0 5.769-1.827 6.929-4.63 1.161-2.803.52-6.028-1.625-8.173z"/></g></svg>