<svg id="Capa_1" enable-background="new 0 0 512.002 512.002" height="512" viewBox="0 0 512.002 512.002" width="512" xmlns="http://www.w3.org/2000/svg"><g><path d="m504.5 493.286h-246.738l65.145-65.145h44.593c5.879 0 11.406-2.29 15.563-6.447l40.377-40.378 77.974 35.191c1.001.452 2.049.666 3.081.666 2.857 0 5.588-1.643 6.84-4.417 1.704-3.776.024-8.218-3.751-9.921l-82.69-37.32c-2.533-1.015-5.783-1.062-8.398 1.533l-44.04 44.04c-1.323 1.324-3.084 2.053-4.956 2.053h-47.7c-1.989 0-3.896.79-5.304 2.197l-77.942 77.943h-19.807l92.097-92.087c1.291-1.291 3.07-2.034 4.888-2.05h3.035c.02 0 .038-.003.058-.003h44.675c1.989 0 3.897-.791 5.304-2.197l76.048-76.059h19.811l-24.029 24.036c-3.064 3.007-3.722 9.707 2.19 12.411l60.593 27.334c1.001.452 2.049.666 3.08.666 2.857 0 5.589-1.643 6.841-4.418 1.703-3.775.022-8.217-3.753-9.92l-50.866-22.947 27.154-27.162h20.627c4.143 0 7.5-3.358 7.5-7.5s-3.357-7.5-7.5-7.5l-64.75-.005c-1.989 0-3.897.791-5.304 2.197l-76.053 76.063h-27.743v-15.536c0-6.851-4.993-12.545-11.528-13.668v-17.849c0-5.929-1.663-11.477-4.546-16.202h85.966c4.143 0 7.5-3.358 7.5-7.5s-3.357-7.5-7.5-7.5h-120.86v-184.558h23.038v9.244c0 9.732 7.922 17.65 17.66 17.65h58.59c4.705 0 8.959-2.41 11.38-6.446 2.419-4.034 2.541-8.919.331-13.056l-13.585-25.537 13.583-25.525c2.213-4.154 2.088-9.042-.334-13.076-2.421-4.033-6.673-6.44-11.375-6.44h-9.864c-4.143 0-7.5 3.358-7.5 7.5s3.357 7.5 7.5 7.5h6.985l-14.112 26.517c-1.172 2.202-1.172 4.843 0 7.046l14.107 26.517h-55.706c-1.467 0-2.66-1.189-2.66-2.65v-9.244h6.15c9.734 0 17.653-7.919 17.653-17.653v-54.774c0-9.734-7.919-17.653-17.653-17.653h-44.188v-9.799c0-9.777-7.954-17.731-17.73-17.731h-11.902c-9.776 0-17.73 7.954-17.73 17.731v256.902c0 4.142 3.357 7.5 7.5 7.5s7.5-3.358 7.5-7.5v-256.903c0-1.506 1.225-2.731 2.73-2.731h11.902c1.506 0 2.73 1.225 2.73 2.731v284.439h-257.182c-4.143 0-7.5 3.358-7.5 7.5s3.357 7.5 7.5 7.5h86.013l-91.316 91.325c-2.929 2.929-2.929 7.678.001 10.607 1.464 1.464 3.384 2.196 5.303 2.196s3.839-.732 5.304-2.197l101.921-101.932h19.807l-41.305 41.305c-2.929 2.929-2.929 7.678 0 10.606 2.93 2.929 7.678 2.929 10.607 0l51.911-51.912h41.679c-2.883 4.726-4.546 10.273-4.546 16.202v17.849c-6.535 1.124-11.528 6.817-11.528 13.668v16.655c0 7.656 6.229 13.884 13.884 13.884h94.446l-94.152 94.142h-188.029c-4.143 0-7.5 3.358-7.5 7.5s3.357 7.5 7.5 7.5h497c4.143 0 7.5-3.358 7.5-7.5s-3.357-7.498-7.5-7.498zm-180.63-447.04c1.463 0 2.653 1.19 2.653 2.653v54.774c0 1.463-1.19 2.653-2.653 2.653h-44.188v-60.08zm-35.949 274.64c8.934 0 16.201 7.268 16.201 16.202v17.633h-96.244v-17.633c0-8.934 7.268-16.202 16.201-16.202zm-91.571 48.835h119.301v14.42l-119.301.003z"/><path d="m68.264 387.154-66.067 66.067c-2.929 2.929-2.929 7.678 0 10.606 1.465 1.464 3.385 2.197 5.304 2.197s3.839-.732 5.304-2.197l66.067-66.067c2.929-2.929 2.929-7.678 0-10.606-2.93-2.929-7.678-2.929-10.608 0z"/><path d="m58.981 458.525c0 4.142 3.357 7.5 7.5 7.5h28.562c4.143 0 7.5-3.358 7.5-7.5s-3.357-7.5-7.5-7.5h-28.562c-4.143 0-7.5 3.357-7.5 7.5z"/></g></svg>