<svg id="Capa_1" enable-background="new 0 0 512 512" height="512" viewBox="0 0 512 512" width="512" xmlns="http://www.w3.org/2000/svg"><g><path d="m474.442 319.143v120.658c0 4.143 3.358 7.5 7.5 7.5s7.5-3.357 7.5-7.5v-120.658c10.496 1.544 22.47-5.642 22.558-18.149 0-16.104-8.593-31.257-22.425-39.544-7.125-4.27-15.301-6.526-23.645-6.526h-242.551v-183.88h53.594c12.098 0 23.144-7.587 27.486-18.88l8.695-22.614c2.375-6.179 1.557-13.125-2.191-18.581s-9.938-8.714-16.557-8.714h-286.906c-4.142 0-7.5 3.357-7.5 7.5s3.358 7.5 7.5 7.5h286.906c2.417 0 3.737 1.543 4.193 2.207.456.663 1.422 2.449.555 4.705l-8.694 22.613c-2.131 5.541-7.55 9.264-13.486 9.264h-269.474c-4.142 0-7.5 3.357-7.5 7.5s3.358 7.5 7.5 7.5h89.943v215.628c0 17.904 14.566 32.471 32.471 32.471zm21.635-15.923c-.345.345-1.092.923-2.227.923h-18.175l12.605-24.757c5.556 5.711 8.72 13.364 8.72 21.608 0 1.133-.579 1.882-.923 2.226zm-110.952.923 17.423-34.22h34.945l-17.43 34.22zm-90.55 0 17.423-34.22h34.945l-17.43 34.22zm-86.196-49.22h-40.468v-34.596c0-11.156 9.077-20.233 20.234-20.233s20.234 9.077 20.234 20.233zm0-183.879v120.465c-5.731-4.036-12.708-6.415-20.234-6.415-19.428 0-35.234 15.806-35.234 35.233v34.596h-40.468v-183.879zm-95.936 215.628v-16.749h95.936v34.22h-78.465c-9.633 0-17.471-7.837-17.471-17.471zm110.936-16.749h33.013l-17.43 34.22h-15.584v-34.22zm32.418 34.22 17.43-34.22h21.938l-17.423 34.22zm90.55 0 17.43-34.22h21.938l-17.423 34.22zm90.55 0 17.43-34.22c6.513.237 14.084-.851 21.165 1.519l-16.649 32.7h-21.946z"/><path d="m235.938 457.452h-12.558v-110.468c0-4.143-3.358-7.5-7.5-7.5s-7.5 3.357-7.5 7.5v110.468h-200.88c-4.142 0-7.5 3.357-7.5 7.5s3.358 7.5 7.5 7.5h228.438c2.134 0 3.871 1.736 3.871 3.871v14.552c0 2.134-1.736 3.87-3.871 3.87h-228.438c-4.142 0-7.5 3.357-7.5 7.5s3.358 7.5 7.5 7.5h228.438c10.405 0 18.871-8.465 18.871-18.87v-14.552c-.001-10.405-8.466-18.871-18.871-18.871z"/><path d="m133.947 365.034c4.142 0 7.5-3.357 7.5-7.5s-3.358-7.5-7.5-7.5h-29.004c-4.142 0-7.5 3.357-7.5 7.5s3.358 7.5 7.5 7.5z"/><path d="m147.321 129.514c1.919 0 3.839-.732 5.303-2.196l20.198-20.197c2.929-2.93 2.929-7.678 0-10.607-2.928-2.927-7.677-2.929-10.606 0l-20.198 20.197c-2.929 2.93-2.929 7.678 0 10.607 1.464 1.463 3.383 2.196 5.303 2.196z"/><path d="m147.321 170.232c1.919 0 3.839-.732 5.303-2.196l20.198-20.198c2.929-2.93 2.929-7.678 0-10.607-2.929-2.928-7.678-2.928-10.606 0l-20.198 20.198c-2.929 2.93-2.929 7.678 0 10.607 1.464 1.464 3.383 2.196 5.303 2.196z"/><path d="m503.618 494.745h-14.176v-19.845c0-4.143-3.358-7.5-7.5-7.5s-7.5 3.357-7.5 7.5v19.845h-15.067c-4.142 0-7.5 3.357-7.5 7.5s3.358 7.5 7.5 7.5h44.243c4.142 0 7.5-3.357 7.5-7.5s-3.358-7.5-7.5-7.5z"/></g></svg>