<svg id="Capa_1" enable-background="new 0 0 512 512" height="512" viewBox="0 0 512 512" width="512" xmlns="http://www.w3.org/2000/svg"><g><path d="m413.87 86.938-41.126-44.888c-2.638-2.886-6.395-4.541-10.307-4.541 0 0 0 0-.001 0-3.912 0-7.67 1.655-10.302 4.535l-41.133 44.895c-3.798 4.147-4.75 9.922-2.484 15.068 2.265 5.146 7.165 8.343 12.788 8.343h6.137v20.875c0 4.587-1.648 9.021-4.643 12.49l-31.104 36.058v-79.166c0-4.143-3.358-7.5-7.5-7.5s-7.5 3.357-7.5 7.5v117.347c-6.775-.959-13.685-1.456-20.695-1.456-7.02 0-13.923.503-20.685 1.455v-152.612c0-4.143-3.358-7.5-7.5-7.5h-10.613l38.798-42.346 38.798 42.346h-10.603c-4.142 0-7.5 3.357-7.5 7.5s3.358 7.5 7.5 7.5h12.937c5.623 0 10.522-3.196 12.788-8.343 2.266-5.146 1.314-10.921-2.485-15.069l-41.127-44.888c-2.638-2.886-6.396-4.541-10.309-4.541s-7.669 1.655-10.301 4.535l-41.133 44.895c-3.798 4.147-4.75 9.922-2.484 15.068 2.265 5.146 7.165 8.343 12.788 8.343h5.447v106.937l-31.116-36.064c-2.992-3.466-4.64-7.9-4.64-12.487v-20.875h6.137c5.623 0 10.523-3.196 12.788-8.343 2.266-5.147 1.314-10.921-2.485-15.069l-41.126-44.888c-2.638-2.886-6.396-4.541-10.309-4.541s-7.669 1.655-10.301 4.535l-41.135 44.893c-3.798 4.147-4.75 9.922-2.484 15.068 2.265 5.146 7.165 8.343 12.788 8.343h4.747v40.045c0 8.173 2.941 16.087 8.285 22.288l42.472 49.226v26.868c-33.916 27.096-55.687 68.786-55.687 115.471-.001 81.471 66.28 147.752 147.75 147.752 74.534 0 137.577-55.705 146.644-129.575.504-4.111-2.419-7.854-6.531-8.358-4.116-.505-7.853 2.42-8.358 6.53-8.144 66.361-64.787 116.403-131.755 116.403-73.199 0-132.751-59.552-132.751-132.751 0-73.198 59.552-132.75 132.751-132.75 66.558 0 123.157 49.696 131.653 115.598.529 4.108 4.289 7.01 8.397 6.479 4.108-.529 7.009-4.289 6.479-8.397-5.049-39.159-25.355-73.174-54.456-96.382v-26.887l42.465-49.229c5.34-6.197 8.282-14.111 8.282-22.284v-40.045h4.747c5.623 0 10.522-3.196 12.788-8.343 2.266-5.148 1.315-10.922-2.485-15.071zm-236.756 127.284-44.291-51.333c-2.996-3.477-4.645-7.913-4.645-12.493v-47.545c0-4.143-3.358-7.5-7.5-7.5h-9.913l38.798-42.346 38.798 42.346h-11.303c-4.142 0-7.5 3.357-7.5 7.5v28.375c0 8.186 2.943 16.102 8.285 22.288l42.472 49.226v18.127c-14.794 3.683-28.715 9.598-41.379 17.371v-19.116c0-1.8-.647-3.538-1.822-4.9zm214.207-118.871c-4.142 0-7.5 3.357-7.5 7.5v47.545c0 4.58-1.649 9.017-4.643 12.49l-44.283 51.337c-1.174 1.361-1.821 3.1-1.821 4.898v19.155c-12.698-7.787-26.627-13.701-41.38-17.387v-18.151l42.46-49.224c5.344-6.188 8.287-14.104 8.287-22.29v-28.375c0-4.143-3.358-7.5-7.5-7.5h-11.303l38.798-42.346 38.798 42.346h-9.913z"/><path d="m256 457.551h46.491c12.943 0 23.473-10.53 23.473-23.474v-21.73h17.468c12.338 0 22.376-10.038 22.376-22.376v-45.76c0-12.338-10.038-22.376-22.376-22.376h-17.468v-11.363c0-27.004-21.969-48.973-48.972-48.973h-41.983c-27.003 0-48.972 21.969-48.972 48.973v11.363h-17.468c-12.338 0-22.376 10.038-22.376 22.376v45.76c0 12.338 10.038 22.376 22.376 22.376h24.968c4.142 0 7.5-3.357 7.5-7.5v-94.375c0-18.732 15.24-33.973 33.972-33.973h41.983c18.732 0 33.972 15.24 33.972 33.973v94.375 29.23c0 4.673-3.801 8.474-8.473 8.474h-38.991v-2.434c0-4.143-3.358-7.5-7.5-7.5s-7.5 3.357-7.5 7.5v9.934c0 4.142 3.358 7.5 7.5 7.5zm-69.964-60.204h-17.468c-4.067 0-7.376-3.309-7.376-7.376v-45.76c0-4.067 3.309-7.376 7.376-7.376h17.468zm164.772-53.136v45.76c0 4.067-3.309 7.376-7.376 7.376h-17.468v-60.512h17.468c4.067 0 7.376 3.309 7.376 7.376z"/><circle cx="228.299" cy="356.245" r="7.387"/><path d="m241.539 383.093c1.464 1.464 3.384 2.196 5.303 2.196s3.839-.732 5.303-2.196c14.804-14.804 14.804-38.892 0-53.695-2.929-2.928-7.678-2.928-10.606 0-2.929 2.93-2.929 7.678 0 10.607 8.955 8.955 8.955 23.525 0 32.48-2.929 2.93-2.929 7.678 0 10.608z"/><path d="m260.931 391.878c-2.929 2.93-2.929 7.678 0 10.607 1.464 1.464 3.384 2.196 5.303 2.196s3.839-.732 5.303-2.196c25.497-25.497 25.497-66.983 0-92.48-2.929-2.928-7.678-2.928-10.606 0-2.929 2.93-2.929 7.678 0 10.607 19.648 19.648 19.648 51.618 0 71.266z"/></g></svg>