<svg id="Capa_1" enable-background="new 0 0 512 512" height="512" viewBox="0 0 512 512" width="512" xmlns="http://www.w3.org/2000/svg"><g><path d="m249.235 298.958c1.475 1.951 3.718 2.979 5.99 2.979 1.574 0 3.162-.494 4.516-1.516l133.501-100.869-1.476 6.766c-.884 4.047 1.682 8.043 5.729 8.926.538.118 1.076.175 1.605.175 3.45 0 6.556-2.395 7.32-5.903l5.797-26.565c.742-3.475-1.265-8.646-6.888-9.086l-27.144-1.594c-4.146-.253-7.684 2.913-7.927 7.048-.242 4.135 2.913 7.684 7.048 7.927l6.812.399-133.42 100.807c-3.305 2.497-3.96 7.201-1.463 10.506z"/><path d="m445.979 151.054c-2.945-3.936-7.44-6.471-12.33-6.957l-94.285-9.383c-7.045-.709-13.571 2.691-17.048 8.851-3.476 6.161-3.003 13.506 1.235 19.169l9.624 12.858-216.861 162.515c-3.132 2.345-5.978 4.999-8.546 7.88v-248.477c0-4.143-3.358-7.5-7.5-7.5h-20.14c-1.461 0-2.104-.963-2.356-1.537s-.53-1.699.456-2.776l64.013-69.863c.663-.725 1.473-.833 1.897-.833s1.234.108 1.9.836l64.006 69.856c.989 1.081.712 2.206.459 2.78s-.895 1.537-2.356 1.537h-20.14c-4.142 0-7.5 3.357-7.5 7.5v158.49c0 4.143 3.358 7.5 7.5 7.5s7.5-3.357 7.5-7.5v-150.99h12.64c7.071 0 13.233-4.02 16.083-10.491s1.654-13.733-3.124-18.955l-64.005-69.858c-3.319-3.627-8.044-5.706-12.963-5.706s-9.643 2.08-12.959 5.703l-64.014 69.864c-4.775 5.218-5.971 12.48-3.121 18.951 2.85 6.472 9.013 10.491 16.084 10.491h12.64l.001 399.49c0 4.143 3.358 7.5 7.5 7.5s7.5-3.357 7.5-7.5v-119.354c0-13.715 6.555-26.811 17.537-35.031l222.863-167.013c3.312-2.483 3.987-7.182 1.507-10.496l-14.115-18.859c-.876-1.17-.49-2.262-.182-2.809.309-.545 1.039-1.441 2.498-1.297l94.286 9.383c.981.098 1.553.681 1.807 1.02s.652 1.053.469 2.021l-17.581 93.106c-.271 1.437-1.337 1.889-1.948 2.03-.612.142-1.767.206-2.644-.966l-14.201-18.974c-2.483-3.315-7.185-3.994-10.499-1.511-3.316 2.482-3.992 7.183-1.511 10.499l14.201 18.974c4.238 5.663 11.151 8.19 18.042 6.59 6.891-1.598 11.986-6.908 13.3-13.859l17.581-93.106c.911-4.831-.255-9.859-3.2-13.793z"/><path d="m359.429 256.836-155.376 116.439c-14.743 11.036-23.545 28.619-23.545 47.036v84.189c0 4.143 3.358 7.5 7.5 7.5s7.5-3.357 7.5-7.5v-84.188c0-13.715 6.555-26.81 17.537-35.03l155.38-116.441c3.314-2.484 3.987-7.185 1.504-10.5-2.484-3.316-7.185-3.99-10.5-1.505z"/></g></svg>