<svg id="Capa_1" enable-background="new 0 0 512.002 512.002" height="512" viewBox="0 0 512.002 512.002" width="512" xmlns="http://www.w3.org/2000/svg"><g><path d="m2.197 374.297c-2.929 2.93-2.929 7.678 0 10.607 1.465 1.464 3.385 2.196 5.304 2.196s3.839-.732 5.304-2.196l142.942-142.942h100.253c4.143 0 7.5-3.357 7.5-7.5v-76.279h21.163c5.248 0 10.089-2.852 12.635-7.441 2.544-4.588 2.398-10.203-.38-14.653l-12.155-19.476v-19.137c5.624-.955 9.925-5.849 9.925-11.741v-23.369c0-6.574-5.349-11.922-11.923-11.922h-53.529c-6.574 0-11.923 5.348-11.923 11.922v23.369c0 5.892 4.301 10.786 9.925 11.741v19.136l-12.155 19.475c-2.778 4.451-2.924 10.066-.379 14.655 2.545 4.59 7.386 7.44 12.634 7.44h21.162v68.779h-196.922v-35.171h21.163c5.247 0 10.088-2.851 12.633-7.439 2.546-4.589 2.4-10.205-.378-14.655l-12.155-19.476v-19.136c5.624-.955 9.925-5.85 9.925-11.742v-23.368c0-6.574-5.349-11.922-11.923-11.922h-53.529c-6.574 0-11.923 5.348-11.923 11.922v23.368c0 5.892 4.301 10.787 9.925 11.742v19.136l-12.157 19.474c-2.778 4.451-2.923 10.066-.378 14.655 2.545 4.59 7.386 7.44 12.633 7.44h21.164v35.172h-29.078c-4.143 0-7.5 3.357-7.5 7.5s3.357 7.5 7.5 7.5h29.078v18.88c0 4.143 3.357 7.5 7.5 7.5s7.5-3.357 7.5-7.5v-18.88h41.936l-91.317 91.327c-2.929 2.929-2.929 7.678.001 10.606 2.928 2.928 7.677 2.929 10.606-.001l101.922-101.932h19.807zm230.116-308.853h47.375v17.213h-47.375zm8.787 57.287c.743-1.19 1.138-2.566 1.138-3.971v-21.103h27.525v21.104c0 1.404.395 2.78 1.138 3.971l12.764 20.451h-55.328zm-220.709-23.679h47.375v17.213h-47.375zm8.787 57.288c.743-1.191 1.138-2.567 1.138-3.972v-21.104h27.525v21.104c0 1.404.395 2.78 1.138 3.971l12.764 20.451h-55.33z"/><path d="m504.5 481.302h-229.491l5.166-20.646c3.278-13.073 14.979-22.204 28.455-22.204h22.26c16.089 0 30.937-8.74 38.747-22.81 5.173-9.314 15.006-15.101 25.663-15.101 3.948 0 7.796.785 11.438 2.334l94.83 40.27c3.812 1.618 8.216-.158 9.835-3.972 1.619-3.812-.159-8.216-3.972-9.835l-94.826-40.268c-5.506-2.342-11.328-3.529-17.306-3.529-16.103 0-30.961 8.744-38.777 22.819-5.167 9.309-14.989 15.091-25.633 15.091h-22.26c-20.366 0-38.051 13.799-43.005 33.56l-6.079 24.29h-124.071l79.827-92.463v60.962c0 4.143 3.357 7.5 7.5 7.5s7.5-3.357 7.5-7.5v-69.052h21.163c5.247 0 10.088-2.851 12.633-7.439 2.546-4.589 2.4-10.205-.378-14.655l-5.886-9.432h35.937c5.878 0 11.405-2.289 15.564-6.446l40.387-40.387 151.694 68.457c1.001.452 2.049.666 3.08.666 2.858 0 5.589-1.643 6.841-4.417 1.704-3.775.024-8.217-3.751-9.921l-146.525-66.124 10.59-10.591 129.765 58.568c3.775 1.703 8.217.024 9.921-3.751s.024-8.217-3.751-9.921l-59.947-27.056v-56.337h56.862c4.143 0 7.5-3.357 7.5-7.5s-3.357-7.5-7.5-7.5h-21.268c-.094-2.475-.818-4.929-2.175-7.104l-12.155-19.476v-19.136c5.624-.955 9.924-5.849 9.924-11.741v-23.369c0-6.574-5.348-11.922-11.922-11.922h-53.53c-6.574 0-11.923 5.348-11.923 11.922v23.369c0 5.892 4.301 10.786 9.925 11.741v19.136l-12.155 19.476c-1.357 2.175-2.082 4.628-2.175 7.104h-105.745c-4.143 0-7.5 3.357-7.5 7.5s3.357 7.5 7.5 7.5h56.614l-63.252 63.261h-23.175v-20.29c0-6.574-5.349-11.922-11.923-11.922h-53.529c-6.574 0-11.923 5.348-11.923 11.922v23.368c0 5.892 4.301 10.787 9.925 11.742v19.136l-12.156 19.475c-2.778 4.451-2.923 10.066-.378 14.655 2.545 4.59 7.386 7.44 12.633 7.44h8.332l-86.812 100.553h-20.958l73.333-83.042c2.741-3.105 2.447-7.845-.657-10.587-3.105-2.742-7.844-2.445-10.587.657l-82.101 92.972h-67.187c-4.143 0-7.5 3.357-7.5 7.5s3.357 7.5 7.5 7.5h497c4.143 0 7.5-3.357 7.5-7.5s-3.357-7.5-7.5-7.5zm-71.862-189.773-49.649-22.408 27.159-27.159h22.49zm-6.263-88.998v-21.104h27.526v21.104c0 1.404.395 2.78 1.138 3.971l12.764 20.451h-55.33l12.765-20.451c.743-1.19 1.137-2.566 1.137-3.971zm-9.925-53.316h47.375v17.213h-47.375zm-128.68 171.008c1.989 0 3.897-.79 5.304-2.197l76.053-76.063h19.808l-90.206 90.206c-1.325 1.325-3.086 2.055-4.958 2.055h-42.206v-14h36.205zm-88.656-32.212h47.375v17.212l-47.375.001zm8.787 57.288c.743-1.191 1.138-2.567 1.138-3.972v-21.104h27.525v21.104c-.027 1.097.592 3.371 2.184 5.647l11.718 18.775h-55.329z"/><path d="m423.597 102.252c3.153 6.306 9.492 10.223 16.542 10.223 7.05-.001 13.388-3.918 16.54-10.223l29.888-59.774c3.39-6.78 2.339-14.832-2.679-20.514-5.018-5.681-12.881-7.722-20.022-5.194l-22.564 7.972c-.752.266-1.577.265-2.327 0l-22.562-7.972c-7.147-2.526-15.007-.486-20.023 5.194-5.017 5.682-6.068 13.733-2.679 20.514zm-15.965-70.358c.47-.531 1.776-1.691 3.783-.981l22.561 7.972c3.974 1.403 8.352 1.405 12.323 0l22.563-7.972c2.009-.71 3.312.45 3.782.981.469.531 1.457 1.973.506 3.875l-29.888 59.775c-.871 1.742-2.476 1.931-3.124 1.931-.649 0-2.254-.188-3.126-1.932l-29.887-59.774c-.95-1.903.038-3.344.507-3.875z"/></g></svg>