<svg id="Capa_1" enable-background="new 0 0 512 512" height="512" viewBox="0 0 512 512" width="512" xmlns="http://www.w3.org/2000/svg"><g><path d="m278.29 386.105c-4.142 0-7.5 3.357-7.5 7.5v110.895c0 4.143 3.358 7.5 7.5 7.5s7.5-3.357 7.5-7.5v-110.895c0-4.142-3.358-7.5-7.5-7.5z"/><path d="m417.546 0h-323.092c-16.615 0-30.133 13.518-30.133 30.133v305.452c0 16.615 13.518 30.132 30.133 30.132h131.756v138.783c0 4.143 3.358 7.5 7.5 7.5s7.5-3.357 7.5-7.5v-138.783h176.336c16.615 0 30.133-13.517 30.133-30.132v-305.452c0-16.615-13.518-30.133-30.133-30.133zm15.133 335.585c0 8.344-6.789 15.132-15.133 15.132h-323.092c-8.344 0-15.133-6.788-15.133-15.132v-305.452c0-8.345 6.789-15.133 15.133-15.133h323.092c8.344 0 15.133 6.788 15.133 15.133z"/><path d="m411.178 29h-224.321c-4.142 0-7.5 3.357-7.5 7.5s3.358 7.5 7.5 7.5h216.821v277.717h-295.357v-277.717h43.391c4.142 0 7.5-3.357 7.5-7.5s-3.358-7.5-7.5-7.5h-50.891c-4.142 0-7.5 3.357-7.5 7.5v292.717c0 4.143 3.358 7.5 7.5 7.5h310.357c4.142 0 7.5-3.357 7.5-7.5v-292.717c0-4.143-3.358-7.5-7.5-7.5z"/><path d="m129.626 136.941c1.556 3.538 6.464 7.609 12.138 7.197v23.855c0 9.508 4.544 18.586 12.157 24.285l68.49 51.27c3.928 2.94 6.273 7.625 6.273 12.531l-.004 38.03c0 4.143 3.358 7.5 7.5 7.5h39.64c4.142 0 7.5-3.357 7.5-7.5v-38.03c0-4.908 2.341-9.591 6.265-12.526l68.496-51.273c7.614-5.711 12.159-14.792 12.159-24.29v-23.85c4.047.282 9.609-1.948 12.129-7.193 1.926-4.372 1.089-9.474-2.138-13.003l-28.931-31.583c-2.279-2.467-5.51-3.881-8.869-3.881-.006 0-.012 0-.017 0-3.359.005-6.588 1.425-8.863 3.902l-28.925 31.565c-3.223 3.523-4.061 8.626-2.134 12.997 1.866 4.19 7.233 7.782 13.109 7.194v15.646l-14.05 10.518c-3.316 2.481-3.992 7.182-1.51 10.498 2.481 3.316 7.183 3.994 10.499 1.51l17.056-12.767c1.892-1.416 3.006-3.641 3.006-6.004v-26.9c0-4.143-3.358-7.5-7.5-7.5h-2.886l22.221-24.249 22.213 24.249h-1.908c-4.142 0-7.5 3.357-7.5 7.5v31.351c0 4.803-2.303 9.397-6.154 12.286l-65.766 49.23v-111.736c4.255.45 10.171-1.977 12.619-7.193 1.926-4.372 1.089-9.474-2.138-13.003l-28.933-31.583c-2.278-2.467-5.511-3.881-8.87-3.881s-6.591 1.414-8.89 3.903l-28.915 31.564c-3.222 3.524-4.06 8.626-2.133 12.998 1.664 3.86 6.957 7.725 12.619 7.193v66.182l-32.284-24.167v-15.646c4.303.581 10.766-1.928 13.116-7.198 1.924-4.372 1.082-9.473-2.145-12.994l-28.913-31.559c-2.276-2.485-5.515-3.91-8.885-3.91-3.371 0-6.609 1.425-8.886 3.91l-28.913 31.559c-3.228 3.523-4.069 8.624-2.145 12.996zm106.554-34.171h-2.398l22.218-24.254 22.218 24.254h-2.398c-4.142 0-7.5 3.357-7.5 7.5v103.355l-24.64-18.444v-84.911c0-4.143-3.358-7.5-7.5-7.5zm-66.611 2.124 22.212 24.245h-2.885c-4.142 0-7.5 3.357-7.5 7.5v26.9c0 2.363 1.114 4.588 3.005 6.004l77.642 58.12c3.928 2.94 6.273 7.625 6.273 12.531v46.415h-24.632v-30.529c0-9.607-4.592-18.78-12.284-24.539l-68.49-51.27c-3.848-2.881-6.146-7.471-6.146-12.277v-31.355c0-4.143-3.358-7.5-7.5-7.5h-1.908z"/></g></svg>