<svg id="Capa_1" enable-background="new 0 0 512.005 512.005" height="512" viewBox="0 0 512.005 512.005" width="512" xmlns="http://www.w3.org/2000/svg"><g><path d="m511.992 78.907c.032-4.639-5.18-8.876-10.175-6.827-7.046 2.7-14.296 5.819-21.548 9.271-22.06 10.496-44.806 24.293-67.8 41.099l4.765-33.816c38.455-25.482 69.72-38.394 89.353-44.757 2.864-.922 5.659-3.981 5.162-8.017-2.288-20.446-19.53-35.857-40.128-35.857h-50.53c-3.462-.02-6.977 2.678-7.427 6.454l-29.85 211.849c-.408 2.896.903 5.763 3.36 7.349l113.259 73.101c4.083 2.967 11.785-.012 11.567-6.302v-213.371c.001-.059-.007-.117-.008-.176zm-16.475-47.117c-18.459 6.503-44.48 17.832-75.52 37.228l7.611-54.014h44.013c10.933-.001 20.362 6.904 23.896 16.786zm-86.007 111.661c26.273-20.339 52.235-36.676 77.204-48.555 3.44-1.638 6.877-3.195 10.287-4.663v188.453l-97.664-63.034z"/><path d="m.038 326.985c.358 5.503 7.907 9.437 12.766 4.562l103.538-103.538c2.929-2.93 2.929-7.678 0-10.607l-101.341-101.341v-39.651l17.504 18.281c7.556 7.888 17.725 11.864 27.912 11.864 9.514 0 19.043-3.471 26.467-10.464l86.073-81.089h26.657l-55.946 55.948c-6.897 6.897-8.573 17.378-4.167 26.084l29.131 57.471-38.125 38.126c-2.929 2.93-2.929 7.678 0 10.607 1.464 1.464 3.384 2.196 5.303 2.196s3.839-.732 5.303-2.196l41.97-41.971c2.293-2.294 2.853-5.802 1.386-8.694l-31.587-62.316c-1.469-2.902-.91-6.398 1.392-8.699l68.75-68.75c4.248-3.794 1.955-12.862-5.303-12.804h-177.34c-22.266 0-40.38 18.119-40.38 40.39v285.848c0 .247.013.496.037.743zm100.394-104.279-85.431 85.431v-170.863zm-85.431-182.313c0-14 11.385-25.39 25.38-25.39h110.702l-74.485 70.171c-9.402 8.856-24.323 8.472-33.261-.857l-28.336-29.596z"/><path d="m511.974 327.626c-.151-2.034-1.167-4.335-3.406-5.774l-137.585-88.793c-2.447-1.577-3.765-4.459-3.355-7.35l30.59-217.16c.654-4.087-2.737-8.654-7.427-8.546h-130.64c-1.743.071-3.659.536-5.303 2.196l-82.28 82.28c-2.293 2.294-2.853 5.801-1.387 8.694l31.578 62.314c1.469 2.904.912 6.403-1.381 8.701l-199.181 199.172c-1.144 1.248-2.229 2.97-2.197 5.306v102.958c0 22.266 18.114 40.38 40.38 40.38h122.677c3.292.033 6.795-2.474 7.381-6.103 2.077-10.953 4.321-21.825 6.673-32.436h25.618c-2.178 9.668-4.267 19.55-6.23 29.496-.835 3.72 1.822 9.065 7.37 9.042h267.75c22.266 0 40.38-18.114 40.38-40.38v-143.47c-.006-.233.002-.02-.025-.527zm-355.087 169.377h-116.506c-13.995 0-25.38-11.386-25.38-25.38v-99.853l196.989-196.98c6.884-6.899 8.553-17.377 4.151-26.078l-29.123-57.47 76.239-76.239h118.903l-12.663 89.897c-21.635 17.227-43.274 36.859-64.356 58.406-31.439 32.122-59.495 74.399-83.389 125.659-8.258 17.725-16.107 36.757-23.378 56.623h-87.344c-35.255 0-63.938 28.683-63.938 63.938s28.683 63.938 63.938 63.938h50.715c-1.69 7.741-3.309 15.616-4.858 23.539zm20.896-38.538c13.958-11.738 22.851-29.316 22.851-48.938 0-19.623-8.893-37.2-22.851-48.938h81.214c26.984 0 48.938 21.954 48.938 48.938s-21.954 48.938-48.938 48.938zm7.851-48.937c0 26.984-21.954 48.938-48.938 48.938h-25.666c-26.984 0-48.938-21.953-48.938-48.938s21.954-48.938 48.938-48.938h25.666c26.984-.001 48.938 21.953 48.938 48.938zm285.987 87.475h-258.615c1.636-7.951 3.35-15.814 5.116-23.538h40.875c35.255 0 63.938-28.683 63.938-63.938 0-35.256-28.683-63.938-63.938-63.938h-44.632c6.584-17.603 13.62-34.484 20.983-50.287 23.174-49.717 50.263-90.596 80.513-121.504 16.606-16.972 33.551-32.719 50.55-46.996l-5.355 38.017c-9.15 8.394-18.332 17.274-27.326 26.468-30.2 30.855-57.261 72.948-80.431 125.107-1.682 3.785.024 8.218 3.809 9.899.99.439 2.023.647 3.041.647 2.874 0 5.616-1.661 6.858-4.457 22.442-50.521 48.498-91.132 77.444-120.706 4.382-4.48 8.811-8.878 13.256-13.188l-4.933 35.021c-1.227 8.661 2.731 17.319 10.079 22.054l134.147 86.574v139.384c.001 13.996-11.385 25.381-25.379 25.381z"/><path d="m106.952 400.337c-4.142 0-7.5 3.357-7.5 7.5s3.358 7.5 7.5 7.5h11.372v11.373c0 4.143 3.358 7.5 7.5 7.5s7.5-3.357 7.5-7.5v-11.373h11.372c4.142 0 7.5-3.357 7.5-7.5s-3.358-7.5-7.5-7.5h-11.372v-11.372c0-4.143-3.358-7.5-7.5-7.5s-7.5 3.357-7.5 7.5v11.372z"/><path d="m276.219 407.837c0-4.143-3.358-7.5-7.5-7.5h-37.745c-4.142 0-7.5 3.357-7.5 7.5s3.358 7.5 7.5 7.5h37.745c4.143 0 7.5-3.357 7.5-7.5z"/><path d="m459.521 400.333h-13.458c-3.023-15.288-15.094-27.358-30.382-30.381v-13.459c0-4.143-3.358-7.5-7.5-7.5s-7.5 3.357-7.5 7.5v13.458c-15.291 3.021-27.365 15.092-30.389 30.382h-13.461c-4.142 0-7.5 3.357-7.5 7.5s3.358 7.5 7.5 7.5h13.46c3.021 15.294 15.096 27.369 30.39 30.391v13.459c0 4.143 3.358 7.5 7.5 7.5s7.5-3.357 7.5-7.5v-13.46c15.291-3.023 27.363-15.097 30.383-30.389h13.456c4.142 0 7.5-3.357 7.5-7.5s-3.357-7.501-7.499-7.501zm-51.344 31.127c-13.026 0-23.623-10.598-23.623-23.623s10.597-23.622 23.623-23.622 23.623 10.597 23.623 23.622-10.597 23.623-23.623 23.623z"/></g></svg>