<svg id="Capa_1" enable-background="new 0 0 512 512" height="512" viewBox="0 0 512 512" width="512" xmlns="http://www.w3.org/2000/svg"><g><path d="m504.5 239.697h-141.271c-12.799 0-23.212 10.413-23.212 23.212v147.082c0 4.143 3.357 7.5 7.5 7.5s7.5-3.357 7.5-7.5v-147.082c0-4.528 3.684-8.212 8.212-8.212h141.271c4.143 0 7.5-3.357 7.5-7.5s-3.357-7.5-7.5-7.5z"/><path d="m347.518 437.762c-4.143 0-7.5 3.357-7.5 7.5v55.248c0 4.143 3.357 7.5 7.5 7.5s7.5-3.357 7.5-7.5v-55.248c0-4.143-3.358-7.5-7.5-7.5z"/><path d="m148.771 239.697h-141.271c-4.142 0-7.5 3.357-7.5 7.5s3.358 7.5 7.5 7.5h141.271c4.528 0 8.212 3.684 8.212 8.212v237.601c0 4.143 3.358 7.5 7.5 7.5s7.5-3.357 7.5-7.5v-237.601c-.001-12.799-10.413-23.212-23.212-23.212z"/><path d="m504.5 56.661h-497c-4.142 0-7.5 3.357-7.5 7.5s3.358 7.5 7.5 7.5h497c4.143 0 7.5-3.357 7.5-7.5s-3.357-7.5-7.5-7.5z"/><path d="m504.5 210.696h-153.908c-21.821 0-39.574 17.753-39.574 39.574v250.24c0 4.143 3.357 7.5 7.5 7.5s7.5-3.357 7.5-7.5v-250.239c0-13.55 11.024-24.574 24.574-24.574h153.908c4.143 0 7.5-3.357 7.5-7.5s-3.357-7.501-7.5-7.501z"/><path d="m504.5 85.661h-230.903c-4.143 0-7.5 3.357-7.5 7.5s3.357 7.5 7.5 7.5h230.903c4.143 0 7.5-3.357 7.5-7.5s-3.357-7.5-7.5-7.5z"/><path d="m245.789 93.161c0-4.143-3.358-7.5-7.5-7.5h-230.789c-4.142 0-7.5 3.357-7.5 7.5s3.358 7.5 7.5 7.5h230.789c4.142 0 7.5-3.357 7.5-7.5z"/><path d="m161.408 210.696h-153.908c-4.142 0-7.5 3.357-7.5 7.5s3.358 7.5 7.5 7.5h153.908c13.55 0 24.574 11.024 24.574 24.574v250.24c0 4.143 3.358 7.5 7.5 7.5s7.5-3.357 7.5-7.5v-250.239c0-21.822-17.753-39.575-39.574-39.575z"/><path d="m7.5 162.224h12.5c4.142 0 7.5-3.357 7.5-7.5s-3.358-7.5-7.5-7.5h-12.5c-4.142 0-7.5 3.357-7.5 7.5s3.358 7.5 7.5 7.5z"/><path d="m64.648 147.224c-4.142 0-7.5 3.357-7.5 7.5s3.358 7.5 7.5 7.5h26.577c4.142 0 7.5-3.357 7.5-7.5s-3.358-7.5-7.5-7.5z"/><path d="m304.9 147.224h-97.801c-4.142 0-7.5 3.357-7.5 7.5s3.358 7.5 7.5 7.5h41.401v70.286c0 4.143 3.358 7.5 7.5 7.5 4.143 0 7.5-3.357 7.5-7.5v-70.286h41.4c4.143 0 7.5-3.357 7.5-7.5s-3.357-7.5-7.5-7.5z"/><path d="m135.874 147.224c-4.142 0-7.5 3.357-7.5 7.5s3.358 7.5 7.5 7.5h26.577c4.142 0 7.5-3.357 7.5-7.5s-3.358-7.5-7.5-7.5z"/><path d="m447.352 162.224c4.143 0 7.5-3.357 7.5-7.5s-3.357-7.5-7.5-7.5h-26.577c-4.143 0-7.5 3.357-7.5 7.5s3.357 7.5 7.5 7.5z"/><path d="m376.126 162.224c4.143 0 7.5-3.357 7.5-7.5s-3.357-7.5-7.5-7.5h-26.577c-4.143 0-7.5 3.357-7.5 7.5s3.357 7.5 7.5 7.5z"/><path d="m504.5 147.224h-12.5c-4.143 0-7.5 3.357-7.5 7.5s3.357 7.5 7.5 7.5h12.5c4.143 0 7.5-3.357 7.5-7.5s-3.357-7.5-7.5-7.5z"/><path d="m256 334.01c-4.142 0-7.5 3.357-7.5 7.5v25c0 4.143 3.358 7.5 7.5 7.5 4.143 0 7.5-3.357 7.5-7.5v-25c0-4.143-3.357-7.5-7.5-7.5z"/><path d="m256 401.01c-4.142 0-7.5 3.357-7.5 7.5v25c0 4.143 3.358 7.5 7.5 7.5 4.143 0 7.5-3.357 7.5-7.5v-25c0-4.143-3.357-7.5-7.5-7.5z"/><path d="m256 267.01c-4.142 0-7.5 3.357-7.5 7.5v25c0 4.143 3.358 7.5 7.5 7.5 4.143 0 7.5-3.357 7.5-7.5v-25c0-4.143-3.357-7.5-7.5-7.5z"/><path d="m256 468.01c-4.142 0-7.5 3.357-7.5 7.5v25c0 4.143 3.358 7.5 7.5 7.5 4.143 0 7.5-3.357 7.5-7.5v-25c0-4.143-3.357-7.5-7.5-7.5z"/><path d="m20.905 45.8h188.835c11.527 0 20.905-9.378 20.905-20.905 0-11.526-9.378-20.904-20.905-20.904h-188.835c-11.527-.001-20.905 9.377-20.905 20.904s9.378 20.905 20.905 20.905zm0-26.81h188.835c3.256 0 5.905 2.648 5.905 5.904s-2.649 5.905-5.905 5.905h-188.835c-3.256.001-5.905-2.649-5.905-5.904s2.649-5.905 5.905-5.905z"/><path d="m302.26 45.8h188.835c11.527 0 20.905-9.378 20.905-20.905 0-11.526-9.378-20.904-20.905-20.904h-188.835c-11.526 0-20.904 9.378-20.904 20.904-.001 11.527 9.377 20.905 20.904 20.905zm0-26.81h188.835c3.256 0 5.905 2.648 5.905 5.904s-2.649 5.905-5.905 5.905h-188.835c-3.256 0-5.904-2.649-5.904-5.905s2.648-5.904 5.904-5.904z"/></g></svg>