<svg id="Capa_1" enable-background="new 0 0 512 512" height="512" viewBox="0 0 512 512" width="512" xmlns="http://www.w3.org/2000/svg"><g><path d="m465.47 113.281h-203.792c-4.143 0-7.5 3.357-7.5 7.5s3.357 7.5 7.5 7.5h203.792c17.386 0 31.53 14.148 31.53 31.54v238.301c0 17.386-14.145 31.529-31.53 31.529h-418.94c-17.386 0-31.53-14.144-31.53-31.529v-238.301c0-17.392 14.145-31.54 31.53-31.54h48.816c2.161 6.694 4.798 13.398 7.753 20h-56.569c-6.357 0-11.53 5.177-11.53 11.54v238.301c0 6.357 5.173 11.529 11.53 11.529h352.079c4.143 0 7.5-3.357 7.5-7.5s-3.357-7.5-7.5-7.5h-39.412l102.803-102.801v102.802h-28.189c-4.143 0-7.5 3.357-7.5 7.5s3.357 7.5 7.5 7.5h31.659c6.357 0 11.53-5.172 11.53-11.529v-238.302c0-6.363-5.173-11.54-11.53-11.54h-241.966c8.149-18.208 13.883-37.198 13.883-54.592 0-40.852-33.234-74.086-74.086-74.086s-74.085 33.235-74.085 74.086c0 6.356.769 12.926 2.138 19.592h-44.824c-25.657 0-46.53 20.878-46.53 46.54v238.301c0 25.656 20.873 46.529 46.53 46.529h36.04v29.484c0 10.069 8.192 18.261 18.262 18.261h12.413c7.71 0 14.625-4.88 17.207-12.145l12.656-35.601h225.785l12.656 35.602c2.582 7.264 9.497 12.144 17.207 12.144h12.413c10.069 0 18.262-8.191 18.262-18.261v-29.484h36.04c25.657 0 46.53-20.873 46.53-46.529v-238.301c-.001-25.662-20.874-46.54-46.531-46.54zm-415.47 173.508 25.614 25.614c2.93 2.928 7.678 2.928 10.607 0 2.929-2.93 2.929-7.678 0-10.607l-36.221-36.221v-21.217l112.492 112.493-10.608 10.607-40.827-40.827c-2.93-2.928-7.678-2.928-10.607 0-2.929 2.93-2.929 7.678 0 10.607l40.827 40.827-16.585 16.585h-74.692zm95.906 107.862 119.247-119.246c2.383-2.384 2.884-6.064 1.224-8.998l-16.632-29.382c-2.76-4.872-1.923-11.035 2.039-14.991l58.743-58.753h35.365l-65.675 65.667c-2.385 2.384-2.885 6.066-1.224 9l16.642 29.38c2.749 4.855 1.921 11.004-2.008 14.967-.01.01-.022.019-.032.029-.02.02-.036.041-.055.061l-112.267 112.266zm152.995-96.413 46.533 46.533-46.724 46.724-46.533-46.534zm57.141 35.926-47.293-47.293c4.568-8.229 4.732-18.47-.062-26.935l-13.829-24.414 47.911-47.905 79.915 79.905zm-135.683 42.614 17.873 17.873h-35.746zm10.608-10.607 10.603-10.603 39.083 39.083h-21.206zm228.84-93.343-121.824 121.823h-21.216l121.826-121.826c1.406-1.407 2.196-3.314 2.196-5.304s-.79-3.897-2.197-5.304l-85.217-85.207 10.614-10.612 95.817 95.827c1.414 1.414 2.193 3.298 2.193 5.306.001 2.002-.778 3.883-2.192 5.297zm2.193-29.624-79.915-79.923h79.915zm-172.684-79.923-48.134 48.143c-8.717 8.703-10.562 22.271-4.489 32.992l13.82 24.416-77.413 77.412-123.1-123.099v-59.863h60.41c19.435 36.996 45.463 67.589 47.2 69.612 1.425 1.66 3.504 2.615 5.691 2.615s4.267-.955 5.691-2.615c1.737-2.024 27.765-32.616 47.2-69.612h73.124zm-126.014-128.677c32.58 0 59.086 26.506 59.086 59.086.092 17.392-7.698 39.776-17.648 59.047-13.847 27.179-32.264 51.803-41.438 63.396-9.192-11.616-27.664-36.316-41.521-63.561-8.864-17.694-17.293-38.227-17.565-58.883 0-32.58 26.506-59.085 59.086-59.085zm-46.983 440.624c-.462 1.297-1.697 2.169-3.074 2.169h-12.413c-1.799 0-3.262-1.463-3.262-3.261v-29.481h29.617zm298.111-1.092c0 1.798-1.463 3.261-3.262 3.261h-12.413c-1.377 0-2.612-.872-3.074-2.168l-10.868-30.574h29.617z"/><path d="m140.579 269.554c0 12.529 10.193 22.723 22.723 22.723s22.723-10.193 22.723-22.723-10.193-22.723-22.723-22.723-22.723 10.193-22.723 22.723zm30.445 0c0 4.258-3.465 7.723-7.723 7.723s-7.723-3.465-7.723-7.723 3.465-7.723 7.723-7.723 7.723 3.465 7.723 7.723z"/><path d="m163.302 128.285c19.415 0 35.21-15.795 35.21-35.21s-15.795-35.21-35.21-35.21-35.21 15.795-35.21 35.21 15.795 35.21 35.21 35.21zm0-55.42c11.144 0 20.21 9.066 20.21 20.21s-9.066 20.21-20.21 20.21-20.21-9.066-20.21-20.21 9.066-20.21 20.21-20.21z"/><path d="m91.07 176.651h-16.828c-4.143 0-7.5 3.357-7.5 7.5s3.357 7.5 7.5 7.5h16.828c4.143 0 7.5-3.357 7.5-7.5s-3.357-7.5-7.5-7.5z"/></g></svg>