<svg id="Capa_1" enable-background="new 0 0 511.998 511.998" height="512" viewBox="0 0 511.998 511.998" width="512" xmlns="http://www.w3.org/2000/svg"><g><path d="m58.081 175.101c11.526 0 20.904-9.378 20.904-20.904v-34.02c0-11.526-9.378-20.904-20.904-20.904s-20.903 9.378-20.903 20.904v34.02c0 11.526 9.377 20.904 20.903 20.904zm-5.903-54.924c0-3.256 2.648-5.904 5.903-5.904 3.256 0 5.904 2.648 5.904 5.904v34.02c0 3.256-2.648 5.904-5.904 5.904-3.255 0-5.903-2.648-5.903-5.904z"/><path d="m490.987 344.135c-11.526 0-20.904 9.377-20.904 20.903v34.021c0 11.526 9.378 20.903 20.904 20.903s20.903-9.377 20.903-20.903v-34.021c0-11.526-9.377-20.903-20.903-20.903zm5.903 54.924c0 3.255-2.648 5.903-5.903 5.903-3.256 0-5.904-2.648-5.904-5.903v-34.021c0-3.255 2.648-5.903 5.904-5.903 3.255 0 5.903 2.648 5.903 5.903z"/><path d="m268.758 260.387c1.329.961 2.866 1.424 4.39 1.424 2.324 0 4.617-1.078 6.083-3.105 2.428-3.356 1.675-8.046-1.682-10.473l-20.258-14.65c-3.355-2.427-8.046-1.674-10.473 1.682-2.428 3.356-1.674 8.046 1.682 10.473z"/><path d="m281.119 55.855c-4.143 0-7.5 3.357-7.5 7.5s3.357 7.5 7.5 7.5h25c4.143 0 7.5-3.357 7.5-7.5s-3.357-7.5-7.5-7.5z"/><path d="m504.263 55.855h-22.145c-4.143 0-7.5 3.357-7.5 7.5s3.357 7.5 7.5 7.5h22.145c4.143 0 7.5-3.357 7.5-7.5s-3.357-7.5-7.5-7.5z"/><path d="m447.619 63.355c0-4.143-3.357-7.5-7.5-7.5h-25c-4.143 0-7.5 3.357-7.5 7.5s3.357 7.5 7.5 7.5h25c4.143 0 7.5-3.357 7.5-7.5z"/><path d="m323.048 299.65c1.329.961 2.866 1.424 4.39 1.424 2.324 0 4.617-1.078 6.083-3.105 2.428-3.356 1.674-8.046-1.682-10.473l-20.258-14.65c-3.356-2.426-8.044-1.674-10.473 1.682-2.428 3.356-1.675 8.046 1.682 10.473z"/><path d="m348.119 55.855c-4.143 0-7.5 3.357-7.5 7.5s3.357 7.5 7.5 7.5h25c4.143 0 7.5-3.357 7.5-7.5s-3.357-7.5-7.5-7.5z"/><path d="m7.607 456.142h25c4.143 0 7.5-3.357 7.5-7.5s-3.357-7.5-7.5-7.5h-25c-4.143 0-7.5 3.357-7.5 7.5s3.358 7.5 7.5 7.5z"/><path d="m74.607 441.142c-4.143 0-7.5 3.357-7.5 7.5s3.357 7.5 7.5 7.5h25c4.143 0 7.5-3.357 7.5-7.5s-3.357-7.5-7.5-7.5z"/><path d="m208.607 441.142c-4.143 0-7.5 3.357-7.5 7.5s3.357 7.5 7.5 7.5h25c4.143 0 7.5-3.357 7.5-7.5s-3.357-7.5-7.5-7.5z"/><path d="m141.607 441.142c-4.143 0-7.5 3.357-7.5 7.5s3.357 7.5 7.5 7.5h25c4.143 0 7.5-3.357 7.5-7.5s-3.357-7.5-7.5-7.5z"/><path d="m169.945 115.418c9.117-26.461 31.569-44.642 61.265-44.562h7.909c4.143 0 7.5-3.357 7.5-7.5s-3.357-7.5-7.5-7.5h-7.908c-30.278-.587-61.105 18.609-72.935 47.999-5.744 12.765-8.124 31.158-5.496 45.238 3.123 19.293 14.699 38.192 31.903 50.492l29.785 21.541c1.329.961 2.866 1.424 4.39 1.424 2.324 0 4.617-1.078 6.083-3.105 2.428-3.356 1.674-8.046-1.682-10.473l-29.785-21.541c-13.485-10.199-22.77-22.935-25.903-40.719-1.762-10.289-.967-20.975 2.374-31.294z"/><path d="m382.185 392.572c-6.581 27.733-32.614 49.09-62.42 48.571h-44.158c-4.143 0-7.5 3.357-7.5 7.5s3.357 7.5 7.5 7.5h44.158c32.823.503 64.594-21.017 75.184-53.923 11.245-32.178-.006-69.892-28.656-89.805-.011-.008.004.003-.426-.308-3.357-2.424-8.047-1.669-10.472 1.688-2.425 3.358-1.669 8.047 1.688 10.472 21.55 15.044 32.051 41.97 25.102 68.305z"/><path d="m150.905 250.153 168.585 121.924c.003.002.006.004.009.007.736.531 1.073 1.473.8 2.339-.007.023-.015.046-.022.07-.007.023-.015.045-.022.068-.287.861-1.111 1.426-2.018 1.426-.005 0-.01 0-.015 0h-192.247c-4.107 0-7.688 3.165-7.811 7.27-.127 4.247 3.278 7.73 7.497 7.73h192.562c10.316 0 14.572-6.457 16.326-11.874 1.755-5.42 2.091-13.15-6.271-19.192l-168.637-121.961c-.036-.026-.072-.052-.109-.077-22.668-15.789-38.537-37.674-45.892-63.288-6.727-23.43-6.089-49.744 1.794-74.094 7.885-24.353 22.792-46.05 41.977-61.095 20.971-16.445 46.671-24.891 74.265-24.386.045.001.089.001.134.001h272.14c4.107 0 7.688-3.165 7.811-7.27.127-4.247-3.278-7.73-7.497-7.73h-272.391c-60.176-1.043-111.516 36.575-130.709 95.859-19.192 59.278.333 119.826 49.741 154.273z"/><path d="m7.607 390.987h82.886c4.143 0 7.5-3.357 7.5-7.5s-3.357-7.5-7.5-7.5h-82.886c-4.143 0-7.5 3.357-7.5 7.5s3.358 7.5 7.5 7.5z"/><path d="m399.129 261.846-168.588-121.925-.009-.007c-.75-.543-1.066-1.506-.785-2.388l.007-.021c.007-.021.014-.042.021-.063.287-.864 1.114-1.431 2.024-1.431h.011 180.463c4.107 0 7.688-3.165 7.811-7.27.127-4.247-3.278-7.73-7.497-7.73h-180.778c-10.317 0-14.573 6.457-16.326 11.874-1.756 5.42-2.092 13.15 6.27 19.192l168.637 121.961c.036.026.072.052.109.077 22.668 15.789 38.537 37.674 45.892 63.288 6.727 23.43 6.09 49.743-1.794 74.094-7.885 24.353-22.792 46.05-41.977 61.095-20.971 16.446-46.664 24.889-74.264 24.386-.045-.001-.089-.001-.134-.001h-310.301c-4.107 0-7.688 3.165-7.811 7.27-.127 4.247 3.278 7.73 7.497 7.73h310.548c.82.015 1.629.021 2.445.021 59.152-.004 109.334-37.403 128.267-95.881 19.191-59.277-.33-119.823-49.738-154.271z"/><path d="m447.885 136.01h56.379c4.143 0 7.5-3.357 7.5-7.5s-3.357-7.5-7.5-7.5h-56.379c-4.143 0-7.5 3.357-7.5 7.5s3.357 7.5 7.5 7.5z"/></g></svg>