<svg id="Capa_1" enable-background="new 0 0 512.002 512.002" height="512" viewBox="0 0 512.002 512.002" width="512" xmlns="http://www.w3.org/2000/svg"><g><path d="m7.508 464.352c1.296 0 2.609-.336 3.807-1.043l497-293.46c3.566-2.105 4.751-6.705 2.645-10.271-2.105-3.567-6.705-4.749-10.271-2.645l-202.045 119.299c.359-4.792-.272-9.576-1.874-14.1l35.238-20.805c5.167-3.056 8.837-7.94 10.334-13.755 1.499-5.819.641-11.87-2.413-17.035l-17.238-29.195c-.011-.019-.019-.038-.03-.057-.022-.036-.047-.069-.069-.105-6.391-10.765-16.581-18.413-28.709-21.538-12.172-3.135-24.835-1.342-35.656 5.05l-23.586 13.929c-7.268 4.286-16.468 3.497-22.895-1.966l-37.448-31.81c-10.505-8.927-25.536-10.217-37.401-3.203l-95.507 56.398c-11.873 7.004-18.005 20.785-15.26 34.29l10.931 53.915c.981 4.821-1.213 9.748-5.445 12.252-6.825 4.018-11.065 11.44-11.065 19.373 0 4 1.083 7.95 3.132 11.423l29.756 50.394c5.839 10.23 20.066 14.422 30.795 7.932l19.702-11.632c3.189 3.589 7.074 6.454 11.445 8.455l-111.693 65.951c-3.566 2.105-4.751 6.704-2.645 10.271 1.399 2.37 3.899 3.688 6.465 3.688zm239.284-180.56c-5.565-9.425-2.424-21.621 7-27.187 8.019-5.025 21.507-2.875 27.187 7.001 2.696 4.565 3.453 9.908 2.13 15.043s-4.565 9.447-9.131 12.144c-4.566 2.696-9.908 3.454-15.043 2.13-5.134-1.321-9.447-4.564-12.143-9.131zm-170.184 90.911c-2.995 1.791-7.982 1.224-10.249-2.636l-15.74-26.657 14.384-8.693c3.545-2.143 4.682-6.753 2.54-10.298-2.143-3.545-6.751-4.684-10.298-2.54l-14.253 8.614-6.392-10.824c-.687-1.164-1.049-2.477-1.049-3.798 0-2.683 1.374-5.093 3.688-6.455 9.744-5.764 14.776-17.08 12.522-28.155l-10.931-53.914c-1.472-7.242 1.816-14.631 8.184-18.388l95.512-56.401c6.363-3.761 14.423-3.07 20.059 1.719l37.448 31.809c11.291 9.6 27.458 10.987 40.231 3.454l23.59-13.931c7.372-4.354 15.996-5.573 24.286-3.439 5.811 1.497 10.965 4.522 15.029 8.735l-11.382 6.721c-3.567 2.105-4.751 6.705-2.645 10.271 1.399 2.37 3.899 3.688 6.465 3.688 1.296 0 2.61-.336 3.807-1.043l12.141-7.169 13.459 22.796c1.015 1.717 1.3 3.729.802 5.664-.499 1.938-1.722 3.565-3.439 4.581l-35.527 20.976c-10.951-11.246-28.582-14.028-42.685-5.699-14.101 8.326-20.181 25.105-15.627 40.125l-35.988 21.248-27.717-46.941c-2.105-3.567-6.703-4.751-10.271-2.645-3.566 2.105-4.751 6.704-2.645 10.271l27.716 46.941-26.712 15.772c-9.872-10.607-28.988-14.164-42.692-5.689-8.016 4.732-13.709 12.304-16.031 21.318-1.62 6.29-1.458 12.756.393 18.813zm34.118-26.871c1.322-5.135 4.565-9.447 9.131-12.144 7.815-5.055 21.646-2.893 27.187 7.001 2.696 4.565 3.453 9.908 2.13 15.043s-4.565 9.447-9.131 12.144c-4.565 2.695-9.907 3.451-15.043 2.13-5.135-1.322-9.447-4.564-12.143-9.131-2.697-4.565-3.453-9.908-2.131-15.043zm52.106-6.622 75.04-44.306c3.188 3.589 7.073 6.454 11.444 8.454l-84.608 49.958c.36-4.794-.273-9.58-1.876-14.106z"/><path d="m115.08 496.231h-107.579c-4.142 0-7.5 3.357-7.5 7.5s3.358 7.5 7.5 7.5h107.579c4.142 0 7.5-3.357 7.5-7.5s-3.358-7.5-7.5-7.5z"/><path d="m262.045 280.85c3.949 1.017 7.975-1.36 8.991-5.309 1.017-3.949-1.36-7.975-5.309-8.991-3.949-1.017-7.975 1.36-8.991 5.309-1.017 3.948 1.36 7.974 5.309 8.991z"/><ellipse cx="129.95" cy="352.782" rx="7.383" ry="7.384" transform="matrix(.629 -.777 .777 .629 -226.029 231.863)"/><path d="m181.866 216.873c4.2-2.479 6.984-6.857 7.449-11.712.465-4.856-1.439-9.685-5.093-12.916l-20.156-17.824c-6.139-5.429-15.005-6.278-22.061-2.11l-76.379 45.098c-6.908 4.08-10.479 12.104-8.885 19.968l5.397 26.617c.981 4.84 4.261 8.927 8.772 10.935 3.788 1.541 8.335 2.103 13.995-.804zm-32.234-31.646c.608-.359 1.283-.535 1.954-.535.914 0 1.821.327 2.543.966l20.156 17.824c.05.045.113.1.099.25-.014.148-.085.191-.143.225 0 0 0 .001-.001.001l-29.204 17.244-14.561-24.662zm-72.354 75.981c-.058.035-.132.076-.27.016-.139-.062-.155-.142-.169-.211l-5.397-26.616c-.325-1.604.403-3.24 1.812-4.072l44.303-26.159 14.561 24.662z"/><circle cx="418.284" cy="96.945" r="7.383"/><path d="m374.242 129.822h88.084c9.937 0 18.808-5.153 23.73-13.786 4.922-8.632 4.839-18.891-.222-27.441l-44.042-74.419c-4.967-8.394-13.755-13.404-23.508-13.404-9.752 0-18.541 5.011-23.508 13.404l-44.042 74.418c-5.061 8.552-5.145 18.811-.223 27.442 4.923 8.633 13.794 13.786 23.731 13.786zm-10.599-33.588 44.042-74.419c2.239-3.784 6.202-6.043 10.599-6.043s8.36 2.259 10.599 6.043l44.042 74.42c2.282 3.854 2.319 8.48.1 12.372-2.219 3.893-6.219 6.216-10.699 6.216h-88.084c-4.48 0-8.48-2.323-10.699-6.216-2.219-3.892-2.182-8.517.1-12.373z"/><path d="m418.709 78.843c4.142 0 7.5-3.357 7.5-7.5v-29.623c0-4.143-3.358-7.5-7.5-7.5s-7.5 3.357-7.5 7.5v29.623c0 4.143 3.358 7.5 7.5 7.5z"/><path d="m500.626 239.923-37.642 22.714c-3.546 2.141-4.687 6.75-2.546 10.297 1.409 2.334 3.887 3.626 6.429 3.626 1.319 0 2.656-.349 3.868-1.079l37.642-22.714c3.546-2.141 4.687-6.75 2.546-10.297-2.14-3.545-6.75-4.685-10.297-2.547z"/><path d="m504.501 496.231h-338.338l78.043-95.809c4.746-5.828 12.041-8.85 19.524-8.105l78.107 7.857c16.146 1.631 31.386-7.273 37.901-22.146l25.529-58.271c1.859-4.244 4.938-7.752 8.905-10.146l26.182-15.8c3.546-2.14 4.687-6.749 2.546-10.296-2.14-3.547-6.749-4.684-10.296-2.547l-26.182 15.8c-6.635 4.003-11.785 9.871-14.895 16.969l-25.529 58.271c-3.896 8.892-13.005 14.207-22.661 13.241l-78.107-7.857c-12.511-1.262-24.716 3.81-32.655 13.557l-87.978 108.004c-.004.005-.008.01-.011.014-3.326 3.847-1.623 12.13 5.794 12.263h354.121c4.142 0 7.5-3.357 7.5-7.5s-3.358-7.499-7.5-7.499z"/></g></svg>