<svg id="Capa_1" enable-background="new 0 0 512 512" height="512" viewBox="0 0 512 512" width="512" xmlns="http://www.w3.org/2000/svg"><g><path d="m105.743 239.951c4.142 0 7.5-3.357 7.5-7.5v-224.951c0-4.143-3.358-7.5-7.5-7.5s-7.5 3.357-7.5 7.5v224.951c0 4.143 3.358 7.5 7.5 7.5z"/><path d="m458.327 108.081c-34.644-34.758-80.749-53.899-129.822-53.899-35.851 0-69.394 9.889-99.915 29.409v-76.091c0-4.143-3.358-7.5-7.5-7.5s-7.5 3.357-7.5 7.5v90.37c-.2 5.573 6.949 9.937 11.973 6.021 31-23.031 65.634-34.709 102.942-34.709 45.057 0 87.389 17.575 119.197 49.488 31.801 31.916 49.23 74.309 49.078 119.369-.325 92.465-76.387 167.691-169.553 167.691l-319.504-.003c-2.33 0-4.412 1.063-5.788 2.73-1.072 1.297-1.715 2.96-1.715 4.774 0 .023.003.045.003.068v14.542c0 12.709 10.34 23.049 23.049 23.049h74.971v53.61c0 4.143 3.358 7.5 7.5 7.5s7.5-3.357 7.5-7.5v-53.611h100.347v53.611c0 4.143 3.358 7.5 7.5 7.5s7.5-3.357 7.5-7.5v-53.611h65.942c12.709 0 23.048-10.34 23.048-23.049v-7.109h9.646c101.409 0 184.199-81.932 184.553-182.64.167-49.077-18.816-95.248-53.452-130.01zm-155.746 319.759c0 4.438-3.61 8.049-8.048 8.049h-271.262c-4.438 0-8.049-3.61-8.049-8.049v-7.109h287.358v7.109z"/><path d="m7.719 305.383h.003 319.504c.056 0 .111-.001.167-.002 26.177-.582 47.889-13.358 59.569-35.054 12.193-22.648 11.559-51.921-1.58-72.84-12.02-19.136-32.342-29.074-57.212-27.949-22.161.992-41.451 10.215-58.972 28.194-14.179 14.549-26.989 34.494-40.124 62.485h-55.237c4.89-13.518 15.503-39.399 32.891-64.983 14.485-21.313 30.771-38.247 48.404-50.331 21.717-14.882 45.642-22.427 71.111-22.427h.011c62.789.005 113.871 51.087 113.871 113.87 0 62.788-51.082 113.87-113.87 113.87h-25c-4.142 0-7.5 3.357-7.5 7.5s3.358 7.5 7.5 7.5h25c71.059 0 128.87-57.811 128.87-128.87 0-71.054-57.811-128.865-128.87-128.87-.006 0-.005 0-.012 0-51.147 0-96.848 27.549-132.149 79.662-9.722 14.352-17.373 28.622-23.183 40.988v-220.626c0-4.143-3.358-7.5-7.5-7.5s-7.5 3.357-7.5 7.5v252.718h-132.64c-12.709 0-23.049 10.34-23.049 23.049v14.548c0 .023-.003.045-.003.068 0 4.142 3.358 7.5 7.5 7.5zm321.121-120.861c24.672-1.097 37.457 10.78 43.84 20.943 10.36 16.494 10.792 39.702 1.075 57.751-9.17 17.032-25.723 26.678-46.615 27.166h-9.559v-7.116c0-12.709-10.339-23.049-23.048-23.049h-48.819c24.991-50.788 50.893-74.251 83.126-75.695zm-313.617 98.745c0-4.438 3.611-8.049 8.049-8.049h271.261c4.438 0 8.048 3.61 8.048 8.049v7.113h-287.358z"/><path d="m163.412 470.894c-4.142 0-7.5 3.357-7.5 7.5v26.106c0 4.143 3.358 7.5 7.5 7.5s7.5-3.357 7.5-7.5v-26.106c0-4.143-3.358-7.5-7.5-7.5z"/><path d="m33.255 350.217c-4.142 0-7.5 3.357-7.5 7.5s3.358 7.5 7.5 7.5h25c4.142 0 7.5-3.357 7.5-7.5s-3.358-7.5-7.5-7.5z"/><path d="m100.255 350.217c-4.142 0-7.5 3.357-7.5 7.5s3.358 7.5 7.5 7.5h25c4.142 0 7.5-3.357 7.5-7.5s-3.358-7.5-7.5-7.5z"/><path d="m167.255 350.217c-4.142 0-7.5 3.357-7.5 7.5s3.358 7.5 7.5 7.5h25c4.142 0 7.5-3.357 7.5-7.5s-3.358-7.5-7.5-7.5z"/><path d="m234.255 350.217c-4.142 0-7.5 3.357-7.5 7.5s3.358 7.5 7.5 7.5h25c4.142 0 7.5-3.357 7.5-7.5s-3.358-7.5-7.5-7.5z"/></g></svg>