<svg id="Capa_1" enable-background="new 0 0 512 512" height="512" viewBox="0 0 512 512" width="512" xmlns="http://www.w3.org/2000/svg"><g><path d="m480.81 26.518h-449.55c-17.237 0-31.26 14.023-31.26 31.26v346.36c-.1 16.98 14.441 31.512 31.82 31.189h186.996l22.785 41.619c2.88 5.266 8.397 8.536 14.4 8.536s11.521-3.271 14.399-8.533l24.92-45.521c1.988-3.634.655-8.191-2.978-10.181-3.636-1.988-8.191-.655-10.181 2.978l-24.921 45.523c-.266.486-.684.733-1.24.733s-.974-.247-1.241-.736l-24.892-45.468c-1.187-2.117-3.66-4.051-6.663-3.951h-123.777l57.466-57.466c12.831-.099 24.081-6.96 30.348-17.193h55.238c22.311 0 42.768-11.249 54.722-30.091l29.947-47.176c11.025-1.268 20.541-7.55 26.211-16.503l70.075-18.72h73.565v170.96c0 8.927-7.263 16.189-16.19 16.189h-156.709c-4.143 0-7.5 3.357-7.5 7.5s3.357 7.5 7.5 7.5h156.71c17.198 0 31.19-13.991 31.19-31.189v-346.43c0-17.198-13.992-31.189-31.19-31.189zm-465.809 31.26c0-8.966 7.294-16.26 16.26-16.26h281.185l-113.26 135.437c-2.024 1.895-4.812 2.644-7.528 2.004l-43.623-10.19c-17.727-4.135-35.993 1.077-48.856 13.94l-84.177 84.176v-209.107zm0 230.32 94.783-94.783c9.172-9.173 22.198-12.89 34.841-9.939l43.607 10.188c7.889 1.858 16.024-.459 21.762-6.197.157-.157.308-.322.45-.492l121.552-145.353h21.22l-133.517 155.933c-9.161 9.038-22.087 12.683-34.643 9.742l-43.62-10.189c-7.893-1.842-16.027.478-21.76 6.21l-104.675 104.677zm141.614 59.77c-11.519 0-20.89-9.371-20.89-20.89 0-11.52 9.371-20.891 20.89-20.891s20.89 9.371 20.89 20.891c0 11.519-9.371 20.89-20.89 20.89zm127.923-40.328c-9.188 14.481-24.911 23.128-42.057 23.128h-50.164c.685-5.557-.53-13.76-3.748-20h53.912c10.273 0 19.685-5.177 25.172-13.842l26.853-42.315c4.103 5.365 9.678 9.547 16.123 11.926zm38.486-53.894c-11.519 0-20.89-9.371-20.89-20.891 0-11.519 9.371-20.89 20.89-20.89 11.52 0 20.891 9.371 20.891 20.89 0 11.52-9.372 20.891-20.891 20.891zm19.933-50.72c-5.706-3.825-12.563-6.061-19.933-6.061-19.79 0-35.89 16.1-35.89 35.89 0 1.645.121 3.262.337 4.849l-32.486 51.191c-2.726 4.304-7.4 6.873-12.504 6.873h-68.382c-5.179-2.904-11.135-4.58-17.483-4.58-19.79 0-35.89 16.101-35.89 35.891 0 13.735 7.759 25.686 19.12 31.717l-61.631 61.631h-28.288l57.906-57.905c2.929-2.93 2.929-7.678 0-10.607-2.928-2.927-7.677-2.929-10.606 0l-68.331 68.331c-7.841-1.12-13.895-7.862-13.895-16.007v-75.03l115.283-115.283c2.04-2.04 4.933-2.868 7.741-2.21l43.618 10.188c17.73 4.147 35.998-1.063 48.864-13.941.136-.136.267-.277.391-.423l142.068-165.922h22.174v147.47zm154.044 15.252h-74.55c-.485.024-1.01.028-1.936.254l-61.671 16.475c.385-5.657-.989-13.359-4.424-19.516l50.156-13.397c3.281-.877 5.564-3.85 5.564-7.246v-153.23h20v149.16c0 4.143 3.357 7.5 7.5 7.5h59.36v20zm0-35h-51.86v-141.66h35.67c8.928 0 16.19 7.263 16.19 16.189z"/><path d="m356.959 348.021c3.949 1.017 7.975-1.36 8.991-5.309s-1.36-7.975-5.309-8.991-7.974 1.36-8.991 5.309 1.36 7.974 5.309 8.991z"/><path d="m392.059 348.371h66.389c4.143 0 7.5-3.357 7.5-7.5s-3.357-7.5-7.5-7.5h-66.389c-4.143 0-7.5 3.357-7.5 7.5s3.358 7.5 7.5 7.5z"/><path d="m356.959 380.071c3.949 1.017 7.975-1.36 8.991-5.309s-1.36-7.975-5.309-8.992-7.974 1.36-8.991 5.309 1.36 7.975 5.309 8.992z"/><path d="m392.059 380.42h66.389c4.143 0 7.5-3.357 7.5-7.5s-3.357-7.5-7.5-7.5h-66.389c-4.143 0-7.5 3.357-7.5 7.5s3.358 7.5 7.5 7.5z"/><path d="m123.839 143.623c4.839-5.48 5.854-13.246 2.584-19.786l-28.107-56.215c-3.041-6.082-9.155-9.86-15.955-9.86-6.801 0-12.915 3.778-15.956 9.86l-28.107 56.215c-3.27 6.54-2.255 14.306 2.584 19.786 3.461 3.919 8.325 6.042 13.336 6.041 1.996 0 4.015-.336 5.978-1.03l21.217-7.496c.611-.217 1.284-.216 1.894-.001l21.218 7.497c6.894 2.439 14.475.469 19.314-5.011zm-47.421-16.629-21.219 7.497c-1.572.556-2.6-.261-3.074-.798-.473-.536-1.156-1.657-.411-3.147l28.107-56.215c.683-1.365 1.884-1.569 2.54-1.569.655 0 1.856.204 2.539 1.569l28.107 56.215c.745 1.49.062 2.611-.411 3.147-.474.536-1.502 1.353-3.074.798l-21.22-7.498c-3.831-1.353-8.051-1.352-11.884.001z"/><ellipse cx="323.024" cy="232.756" rx="7.384" ry="7.384" transform="matrix(.844 -.537 .537 .844 -74.458 209.789)"/><ellipse cx="157.615" cy="326.978" rx="7.383" ry="7.384" transform="matrix(.355 -.935 .935 .355 -204.02 358.247)"/></g></svg>