<svg id="Capa_1" enable-background="new 0 0 512.002 512.002" height="512" viewBox="0 0 512.002 512.002" width="512" xmlns="http://www.w3.org/2000/svg"><g><path d="m103.088 38.291c17.736 23.194 32.446 46.943 43.722 70.588 1.286 2.696 3.974 4.273 6.774 4.273 1.082 0 2.182-.235 3.224-.732 3.738-1.782 5.324-6.259 3.541-9.998-11.722-24.581-26.978-49.224-45.347-73.245-6.923-9.044-14.283-18.003-21.879-26.631-2.736-3.108-7.477-3.411-10.585-.673-3.108 2.736-3.41 7.476-.673 10.585 7.37 8.371 14.511 17.064 21.223 25.833z"/><path d="m210.985 239.961c-1.273 3.941.89 8.169 4.831 9.442.767.248 1.543.365 2.308.365 3.166 0 6.109-2.021 7.135-5.196 9.224-28.549 24.081-56.198 44.158-82.18 34.598-44.755 77.603-107.722 86.004-153.538.747-4.074-1.95-7.982-6.024-8.729-4.069-.751-7.982 1.95-8.729 6.024-4.337 23.653-22.278 68.368-83.118 147.07-21.142 27.357-36.809 56.541-46.565 86.742z"/><path d="m236.38 409.589c6.848-.992 13.237-4.394 18.153-9.961 8.312-9.412 9.986-22.236 4.371-33.468l-61.642-123.283c-5.145-10.288-15.485-16.68-26.988-16.68s-21.844 6.392-26.988 16.68l-15.571 31.142c2.911-22.547 8.336-44.982 16.26-67.037 12.557-34.904 31.023-68.254 54.887-99.123 37.326-48.285 54.568-79.568 62.46-97.31 1.684-3.784-.02-8.217-3.805-9.9-3.782-1.682-8.217.02-9.9 3.805-7.557 16.988-24.209 47.127-60.622 94.231-21.205 27.43-38.308 56.775-51.007 87.426-9.484-50.435-36.613-95.02-59.911-125.662-19.856-26.11-39.805-46.198-53.045-58.451-3.041-2.815-7.786-2.631-10.599.409s-2.631 7.785.409 10.599c12.803 11.849 32.093 31.274 51.293 56.524 26.764 35.2 58.845 89.513 60.285 148.852-9.054 29.833-13.822 60.226-14.188 90.602l-28.588 57.177c-5.615 11.23-3.94 24.055 4.371 33.467 8.312 9.411 20.829 12.661 32.67 8.477l5.382-1.902c7.569 25.276 18.255 50.397 31.843 74.784 4.998 8.979 10.462 17.982 16.239 26.76 1.441 2.189 3.833 3.377 6.271 3.377 1.415 0 2.847-.4 4.117-1.236 3.46-2.277 4.418-6.929 2.141-10.389-5.574-8.468-10.844-17.15-15.664-25.81-13.185-23.667-23.52-48.02-30.789-72.49l26.994-9.538c3.26-1.151 6.85-1.153 10.109 0l43.585 15.4c14.276 34.219 36.544 68.373 66.274 101.564 1.481 1.654 3.531 2.496 5.59 2.496 1.781 0 3.569-.631 5.001-1.913 3.086-2.764 3.347-7.506.583-10.591-26.184-29.229-46.308-59.126-59.981-89.028zm-58.606-32.841v-47.047c0-4.143-3.357-7.5-7.5-7.5s-7.5 3.357-7.5 7.5v47.047c-.86.22-1.712.475-2.553.772l-46.534 16.442c-7.117 2.515-13.152-.554-16.429-4.263-3.275-3.71-5.573-10.079-2.198-16.83l61.642-123.283c2.627-5.253 7.7-8.389 13.572-8.389s10.945 3.136 13.572 8.389l61.642 123.282c3.375 6.752 1.077 13.121-2.198 16.831-3.272 3.704-9.301 6.768-16.403 4.271-.003-.001-.007-.002-.01-.003-.005-.002-.011-.003-.016-.005l-46.534-16.442c-.841-.297-1.694-.552-2.553-.772z"/><path d="m477.663 372.003h-108.048c-13.18 0-23.901 10.722-23.901 23.901v92.196c0 13.18 10.722 23.901 23.901 23.901h108.048c13.18 0 23.901-10.722 23.901-23.901v-92.196c.001-13.179-10.721-23.901-23.901-23.901zm-44.314 15v18.972c-3.098-.836-6.351-1.289-9.709-1.289-3.359 0-6.612.453-9.71 1.289v-18.972zm-32.03 55.004c0-12.308 10.014-22.321 22.321-22.321s22.32 10.014 22.32 22.321-10.013 22.32-22.32 22.32-22.321-10.012-22.321-22.32zm-40.605 46.094v-92.196c0-4.908 3.993-8.901 8.901-8.901h29.314v27.068c-7.727 6.843-12.611 16.827-12.611 27.936 0 11.108 4.884 21.092 12.611 27.935v27.06h-29.314c-4.908-.001-8.901-3.994-8.901-8.902zm53.216 8.901v-18.964c3.098.836 6.351 1.289 9.71 1.289 3.358 0 6.611-.453 9.709-1.289v18.964zm72.635-8.901c0 4.908-3.993 8.901-8.901 8.901h-29.314v-27.06c7.727-6.843 12.611-16.827 12.611-27.935 0-11.109-4.884-21.093-12.611-27.936v-27.068h29.314c4.908 0 8.901 3.993 8.901 8.901z"/><path d="m375.431 252.268c-.824 1.22-1.465 2.425-1.485 4.472v18.303c0 4.143 3.357 7.5 7.5 7.5s7.5-3.357 7.5-7.5v-.202l27.195 27.194v45.948c0 4.143 3.357 7.5 7.5 7.5s7.5-3.357 7.5-7.5v-45.948l27.195-27.194v.202c0 4.143 3.357 7.5 7.5 7.5s7.5-3.357 7.5-7.5v-18.303c.055-3.785-3.292-7.635-7.5-7.505h-18.361c-4.143 0-7.5 3.357-7.5 7.5s3.357 7.5 7.5 7.5h.254l-24.088 24.087-24.088-24.087h.254c4.143 0 7.5-3.357 7.5-7.5s-3.357-7.5-7.5-7.5h-18.361c-2.082.069-4.434.834-6.015 3.033z"/><path d="m430.777 443.845c1.015-3.942-1.358-7.961-5.3-8.976s-7.961 1.358-8.976 5.3 1.358 7.96 5.3 8.976c3.942 1.015 7.961-1.358 8.976-5.3z"/><path d="m192.472 189.662c1.156.645 2.409.95 3.646.95 2.632 0 5.186-1.388 6.558-3.849l13.632-24.451c.688 2.28 4.158 5.872 8.516 5.161 4.073-.748 6.769-4.658 6.02-8.732l-3.599-19.575c-.61-3.622-4.943-7.535-9.863-5.719l-18.777 6.601c-3.907 1.373-5.962 5.654-4.588 9.562 1.373 3.907 5.655 5.959 9.562 4.588l.098-.034-14.102 25.295c-2.018 3.618-.72 8.187 2.897 10.203z"/></g></svg>