<svg id="Capa_1" enable-background="new 0 0 512 512" height="512" viewBox="0 0 512 512" width="512" xmlns="http://www.w3.org/2000/svg"><g><path d="m317.867 103.92c4.143 0 7.5-3.357 7.5-7.5v-88.92c0-4.143-3.357-7.5-7.5-7.5s-7.5 3.357-7.5 7.5v88.92c0 4.142 3.358 7.5 7.5 7.5z"/><path d="m282.969 170.759c-5.141-10.282-15.476-16.67-26.972-16.67s-21.831 6.388-26.972 16.669l-61.592 123.184c-5.612 11.225-3.938 24.04 4.368 33.446 8.307 9.407 20.816 12.652 32.65 8.473l46.496-16.429c3.255-1.15 6.843-1.151 10.098 0l46.497 16.429c3.414 1.207 6.884 1.795 10.294 1.795 8.407-.001 16.446-3.575 22.355-10.268 8.307-9.406 9.98-22.222 4.368-33.446zm45.98 146.7c-3.272 3.705-9.303 6.77-16.409 4.259l-46.496-16.429c-.839-.296-1.689-.551-2.547-.77v-38.175c0-4.143-3.357-7.5-7.5-7.5s-7.5 3.357-7.5 7.5v38.175c-.858.22-1.708.474-2.547.77l-46.495 16.429c-7.107 2.508-13.138-.553-16.41-4.259-3.271-3.705-5.566-10.066-2.195-16.809l61.592-123.185c2.623-5.245 7.69-8.377 13.556-8.377s10.933 3.132 13.556 8.377v.001l61.592 123.184c3.37 6.743 1.075 13.104-2.197 16.809z"/><path d="m401.208 256c0-42.152-18.06-80.161-46.841-106.712v-141.788c0-4.143-3.357-7.5-7.5-7.5s-7.5 3.357-7.5 7.5v129.675c-23.611-16.615-52.37-26.386-83.37-26.386-19.216 0-37.568 3.761-54.37 10.571v-113.86c0-4.143-3.357-7.5-7.5-7.5s-7.5 3.357-7.5 7.5v120.959c-4.84 2.643-9.512 5.558-14 8.716v-129.675c0-4.143-3.357-7.5-7.5-7.5s-7.5 3.357-7.5 7.5v141.788c-28.781 26.552-46.841 64.56-46.841 106.712s18.06 80.161 46.841 106.712v141.788c0 4.143 3.357 7.5 7.5 7.5s7.5-3.357 7.5-7.5v-129.675c4.488 3.158 9.16 6.073 14 8.716v120.959c0 4.143 3.357 7.5 7.5 7.5s7.5-3.357 7.5-7.5v-113.86c16.802 6.81 35.154 10.571 54.37 10.571s37.568-3.761 54.37-10.571v113.86c0 4.143 3.357 7.5 7.5 7.5s7.5-3.357 7.5-7.5v-120.959c4.84-2.643 9.512-5.558 14-8.716v129.675c0 4.143 3.357 7.5 7.5 7.5s7.5-3.357 7.5-7.5v-141.788c28.781-26.551 46.841-64.56 46.841-106.712zm-275.422 0c0-71.799 58.412-130.211 130.211-130.211s130.211 58.412 130.211 130.211-58.412 130.211-130.211 130.211-130.211-58.412-130.211-130.211z"/><path d="m429.376 266.03c-4.134-.433-7.799 2.589-8.214 6.71-3.819 37.908-20.788 73.65-47.781 100.643-2.93 2.93-2.93 7.678-.001 10.607 1.465 1.464 3.384 2.196 5.304 2.196 1.919 0 3.839-.732 5.304-2.196 29.432-29.432 47.935-68.407 52.099-109.746.414-4.121-2.59-7.799-6.711-8.214z"/><path d="m421.151 239.159c.392 3.864 3.65 6.745 7.453 6.745.252 0 .508-.014.765-.039 4.121-.418 7.124-4.097 6.706-8.218-4.186-41.298-22.685-80.234-52.089-109.638-2.928-2.928-7.677-2.929-10.606.001-2.929 2.929-2.929 7.678.001 10.606 26.968 26.968 43.933 62.674 47.77 100.543z"/><path d="m89.991 256c0-44.342 17.268-86.029 48.623-117.383 2.929-2.93 2.929-7.678 0-10.607-2.93-2.927-7.678-2.929-10.607 0-34.188 34.187-53.016 79.641-53.016 127.99s18.828 93.803 53.016 127.99c1.465 1.464 3.385 2.196 5.304 2.196s3.839-.732 5.304-2.196c2.929-2.93 2.929-7.678 0-10.607-31.356-31.354-48.624-73.041-48.624-117.383z"/><path d="m407.697 104.3c-2.93-2.928-7.678-2.928-10.607 0-2.929 2.93-2.929 7.678 0 10.607 37.688 37.687 58.443 87.795 58.443 141.093s-20.756 103.406-58.443 141.093c-2.929 2.93-2.929 7.678 0 10.607 1.465 1.464 3.385 2.196 5.304 2.196s3.839-.732 5.304-2.196c40.521-40.521 62.836-94.396 62.836-151.7s-22.316-111.18-62.837-151.7z"/><path d="m114.904 114.907c2.929-2.93 2.929-7.678 0-10.607-2.93-2.928-7.678-2.928-10.607 0-59.852 59.854-78.934 149.605-48.614 228.654 1.145 2.984 3.988 4.816 7.005 4.816.893 0 1.801-.16 2.684-.499 3.868-1.483 5.801-5.821 4.317-9.688-28.202-73.526-10.454-157.007 45.215-212.676z"/><path d="m84.387 357.901c-2.119-3.561-6.721-4.729-10.28-2.612s-4.729 6.72-2.612 10.28c9.083 15.271 20.119 29.445 32.803 42.13 1.465 1.465 3.384 2.197 5.304 2.197 1.919 0 3.839-.732 5.303-2.196 2.93-2.929 2.93-7.678.001-10.606-11.805-11.805-22.073-24.991-30.519-39.193z"/></g></svg>