<svg id="Capa_1" enable-background="new 0 0 512.045 512.045" height="512" viewBox="0 0 512.045 512.045" width="512" xmlns="http://www.w3.org/2000/svg"><g><path d="m512.045 370.475c0-5.351-2.083-10.38-5.867-14.163l-104.621-104.621c-3.783-3.784-8.812-5.867-14.163-5.867-5.35 0-10.38 2.083-14.163 5.866l-25.953 25.953-16.358-16.358 54.833-54.833c.005-.005.01-.009.015-.014l34.582-34.582c9.086-9.086 9.086-23.872 0-32.958v-.001c-9.087-9.086-23.872-9.087-32.958.001l-29.276 29.276-6.996-6.996c-22.157-22.156-58.209-22.155-80.367 0l-19.969 19.969-16.358-16.358 25.953-25.953c3.783-3.783 5.866-8.812 5.866-14.162 0-5.351-2.083-10.38-5.867-14.163l-104.622-104.621c-3.783-3.784-8.812-5.867-14.163-5.867-5.35 0-10.38 2.083-14.163 5.866l-62.512 62.512c-7.809 7.809-7.809 20.516 0 28.325v.001l104.622 104.623c3.905 3.904 9.034 5.856 14.163 5.856s10.258-1.952 14.163-5.856l25.953-25.954 16.358 16.358-49.008 49.007c-2.929 2.93-2.929 7.678 0 10.607 2.928 2.928 7.677 2.928 10.606 0l79.584-79.583c16.309-16.308 42.846-16.309 59.154 0l29.345 29.348-127.066 127.066c-6.614-12.258-15.049-23.623-25.175-33.749-27.328-27.327-63.662-42.378-102.309-42.378s-74.981 15.051-102.309 42.378c-6.704 6.704-6.704 17.61 0 24.314l59.208 59.208c-18.474 15.549-20.294 46.713-2.252 64.139 17.463 17.681 47.164 16.81 64.139-2.252l59.208 59.208c3.352 3.352 7.754 5.027 12.157 5.027s8.806-1.676 12.157-5.027c27.328-27.328 42.378-63.662 42.378-102.31 0-18.85-3.59-37.146-10.43-54.119l70.748-70.748 16.358 16.358-25.953 25.953c-7.809 7.809-7.809 20.516 0 28.325v.001l104.622 104.622c3.905 3.904 9.034 5.856 14.163 5.856s10.258-1.952 14.163-5.856l62.513-62.514c3.784-3.781 5.867-8.811 5.867-14.16zm-260.801-245.801c0 1.343-.523 2.606-1.473 3.556l-25.953 25.953-30.869-30.869 29.509-29.509 27.313 27.313c.95.95 1.473 2.212 1.473 3.556zm-139.16-1.994 29.509-29.509 30.143 30.143-29.509 29.509zm40.116-40.116 29.509-29.509 30.143 30.143-29.509 29.509zm-14.163-66.069c.95-.949 2.212-1.473 3.556-1.473s2.606.522 3.556 1.474l25.952 25.952-29.509 29.509-29.509-29.509zm-62.513 62.514 25.953-25.954 29.509 29.509-29.509 29.509-25.953-25.953v.001c-1.96-1.961-1.96-5.152 0-7.112zm111.735 111.733c-1.96 1.961-5.151 1.961-7.112 0l-27.313-27.313 29.509-29.509 30.869 30.869zm-66.023 240.763c-11.213 11.215-29.459 11.214-40.674.001-11.706-11.143-10.922-32.043 2.252-42.927l40.674 40.674zm85.775 56.956c-.855.854-2.245.856-3.101 0l-180.304-180.304c-.531-.53-.642-1.136-.642-1.55s.111-1.02.643-1.55c24.495-24.495 57.062-37.985 91.702-37.985s67.208 13.49 91.702 37.985c23.915 23.823 38.06 56.931 37.984 91.701 0 34.643-13.49 67.209-37.984 91.703zm190.987-338.957c3.239-3.238 8.508-3.237 11.745-.001 3.238 3.239 3.238 8.508 0 11.746l-29.277 29.277-11.745-11.745zm20.696 199.555c-2.929-2.928-7.678-2.928-10.606 0-2.929 2.93-2.929 7.678 0 10.607l9.812 9.812-29.509 29.509-29.509-29.509 69.625-69.625 29.509 29.509-29.509 29.509zm-34.856-86.763c.95-.949 2.212-1.473 3.556-1.473s2.606.522 3.556 1.474l26.949 26.949-29.508 29.508-30.506-30.506zm-62.513 62.514 25.953-25.954 30.506 30.506-29.509 29.509-26.95-26.95v.001c-1.96-1.961-1.96-5.152 0-7.112zm111.734 111.733c-1.961 1.96-5.151 1.962-7.112 0l-26.95-26.95 29.509-29.509 30.506 30.506zm62.513-62.513-25.953 25.953-30.506-30.506 29.509-29.509 26.95 26.95c.95.949 1.473 2.212 1.473 3.556s-.523 2.607-1.473 3.556z"/><path d="m287.57 235.105 36.218-36.218c2.929-2.93 2.929-7.678 0-10.607-2.929-2.928-7.678-2.928-10.606 0l-36.218 36.218c-2.929 2.93-2.929 7.678 0 10.607 1.464 1.464 3.384 2.196 5.303 2.196s3.839-.733 5.303-2.196z"/><path d="m145.136 484.792c-13.269 8.001-28.566 12.23-44.24 12.23-22.92 0-44.479-8.932-60.704-25.147-27.934-27.933-33.23-71.083-12.882-104.933 2.134-3.55.986-8.158-2.563-10.292-3.551-2.136-8.159-.986-10.292 2.563-23.905 39.765-17.682 90.454 15.133 123.27 19.059 19.049 44.384 29.539 71.309 29.539 18.403 0 36.379-4.975 51.986-14.385 3.547-2.14 4.688-6.749 2.55-10.296-2.141-3.546-6.75-4.688-10.297-2.549z"/><path d="m45.103 377.36c-3.767-1.721-8.217-.063-9.938 3.704-9.346 20.45-8.594 44.479 2.011 64.277 1.352 2.524 3.942 3.961 6.618 3.961 1.195 0 2.408-.287 3.535-.891 3.651-1.956 5.025-6.501 3.07-10.152-8.407-15.694-9.001-34.745-1.591-50.961 1.721-3.767.062-8.216-3.705-9.938z"/><path d="m100.896 483.478c10.55 0 20.691-2.204 30.144-6.553 3.763-1.73 5.411-6.185 3.679-9.947-1.73-3.763-6.183-5.411-9.948-3.68-7.472 3.437-15.505 5.18-23.875 5.18-10.311 0-20.387-2.743-29.139-7.935-3.562-2.11-8.165-.937-10.276 2.625-2.113 3.563-.938 8.164 2.625 10.277 11.067 6.564 23.788 10.033 36.79 10.033z"/><path d="m273.246 262.74c0-13.066-10.63-23.696-23.696-23.696s-23.696 10.63-23.696 23.696 10.63 23.696 23.696 23.696c13.066.001 23.696-10.629 23.696-23.696zm-32.393 0c0-4.795 3.901-8.696 8.696-8.696s8.696 3.901 8.696 8.696-3.901 8.696-8.696 8.696-8.696-3.901-8.696-8.696z"/></g></svg>