<svg id="Capa_1" enable-background="new 0 0 512 512" height="512" viewBox="0 0 512 512" width="512" xmlns="http://www.w3.org/2000/svg"><g><path d="m445.486 309.359-69.311-63.661c-5.51-5.062-13.187-6.334-20.037-3.326-6.849 3.009-11.104 9.525-11.104 17.007v14.097h-34.796v-43.266h74.901c13.24 0 24.012-10.771 24.012-24.012v-64.854c0-13.24-10.772-24.013-24.012-24.013h-74.901v-40.786h28.012c2.992 7.496 10.311 12.813 18.861 12.813h72.567c11.201 0 20.313-9.112 20.313-20.313v-30.443c0-11.201-9.113-20.313-20.313-20.313h-72.567c-8.55 0-15.869 5.317-18.861 12.813h-28.012v-12.362c0-10.333-8.402-18.74-18.73-18.74h-22.4c-10.328 0-18.73 8.407-18.73 18.74v71.021c0 4.143 3.358 7.5 7.5 7.5s7.5-3.357 7.5-7.5v-43.66h29.86v71.23h-128.273v-14.097c0-7.48-4.254-13.997-11.104-17.006-6.848-3.011-14.527-1.735-20.038 3.325l-69.311 63.661c-5.739 5.271-9.03 12.765-9.03 20.557s3.292 15.283 9.03 20.554l69.311 63.661c3.534 3.246 7.958 4.934 12.485 4.934 2.532 0 5.096-.528 7.552-1.607 6.849-3.009 11.104-9.525 11.104-17.006v-21.597c0-4.143-3.358-7.5-7.5-7.5s-7.5 3.357-7.5 7.5v21.598c0 2.106-1.495 2.99-2.137 3.272-.643.283-2.306.785-3.857-.64l-69.31-63.661c-2.693-2.474-4.177-5.851-4.177-9.508s1.483-7.034 4.177-9.509l69.31-63.66c1.552-1.426 3.215-.922 3.858-.641.643.282 2.137 1.167 2.137 3.273v21.597c0 4.143 3.358 7.5 7.5 7.5h225.675c4.969 0 9.012 4.043 9.012 9.013v64.854c0 4.969-4.043 9.012-9.012 9.012h-190.699c-4.142 0-7.5 3.357-7.5 7.5s3.358 7.5 7.5 7.5h55.938v43.266h-58.226c-13.24 0-24.012 10.771-24.012 24.012v64.854c0 13.24 10.772 24.013 24.012 24.013h58.226v118.145c0 4.143 3.358 7.5 7.5 7.5s7.5-3.357 7.5-7.5v-118.146h29.86v118.146c0 4.143 3.358 7.5 7.5 7.5s7.5-3.357 7.5-7.5v-118.146h34.796v14.097c0 7.481 4.255 13.998 11.104 17.007 2.458 1.08 5.02 1.608 7.552 1.607 4.526 0 8.952-1.688 12.485-4.934l69.311-63.661c5.739-5.271 9.03-12.763 9.03-20.556 0-7.792-3.292-15.284-9.031-20.555zm-88.374-276.071h72.567c2.93 0 5.313 2.384 5.313 5.313v30.443c0 2.93-2.384 5.313-5.313 5.313h-72.567c-2.93 0-5.313-2.384-5.313-5.313v-30.442c-.001-2.93 2.383-5.314 5.313-5.314zm-91.733-2.186v-12.362c0-2.062 1.673-3.74 3.73-3.74h22.4c2.057 0 3.73 1.678 3.73 3.74v12.361h-29.86zm71.419 15v15.443h-26.56v-15.443zm-71.419 184.108h29.86v43.266h-29.86zm169.961 109.213-69.311 63.661c-1.552 1.426-3.214.923-3.857.64-.643-.282-2.137-1.166-2.137-3.273v-21.597c0-4.143-3.358-7.5-7.5-7.5h-160.382c-4.969 0-9.012-4.043-9.012-9.013v-64.854c0-4.969 4.043-9.012 9.012-9.012h160.382c4.142 0 7.5-3.357 7.5-7.5v-21.597c0-2.107 1.495-2.991 2.137-3.273.643-.282 2.305-.786 3.857.64l69.311 63.661c2.693 2.475 4.177 5.851 4.177 9.508 0 3.658-1.484 7.034-4.177 9.509z"/><path d="m193.847 196.474h113.691c11.966 0 21.702-9.735 21.702-21.702s-9.735-21.702-21.702-21.702h-113.691c-11.966 0-21.702 9.735-21.702 21.702s9.735 21.702 21.702 21.702zm0-28.405h113.691c3.695 0 6.702 3.007 6.702 6.702s-3.006 6.702-6.702 6.702h-113.691c-3.695 0-6.702-3.007-6.702-6.702s3.006-6.702 6.702-6.702z"/><ellipse cx="146.239" cy="174.771" rx="7.384" ry="7.383" transform="matrix(.654 -.757 .757 .654 -81.616 171.16)"/><path d="m334.438 308.213h-70.148c-11.966 0-21.702 9.735-21.702 21.701 0 11.967 9.735 21.702 21.702 21.702h20.769c4.142 0 7.5-3.357 7.5-7.5s-3.358-7.5-7.5-7.5h-20.769c-3.695 0-6.702-3.007-6.702-6.702s3.006-6.701 6.702-6.701h70.148c3.695 0 6.702 3.006 6.702 6.701s-3.006 6.702-6.702 6.702h-14.178c-4.142 0-7.5 3.357-7.5 7.5s3.358 7.5 7.5 7.5h14.178c11.966 0 21.702-9.735 21.702-21.702 0-11.966-9.736-21.701-21.702-21.701z"/><ellipse cx="218.682" cy="329.914" rx="7.384" ry="7.383" transform="matrix(.809 -.589 .589 .809 -152.27 191.857)"/><path d="m379.892 61.323h28.184c4.142 0 7.5-3.357 7.5-7.5s-3.358-7.5-7.5-7.5h-28.184c-4.142 0-7.5 3.357-7.5 7.5s3.358 7.5 7.5 7.5z"/></g></svg>