<svg id="Capa_1" enable-background="new 0 0 512 512" height="512" viewBox="0 0 512 512" width="512" xmlns="http://www.w3.org/2000/svg"><g><path d="m194.129 441.215c-4.142 0-7.5 3.357-7.5 7.5v55.785c0 4.143 3.358 7.5 7.5 7.5s7.5-3.357 7.5-7.5v-55.785c0-4.143-3.358-7.5-7.5-7.5z"/><path d="m482.82 175.07s.001 0 0 0c4.144 0 7.501-3.357 7.501-7.5v-43.821c.136-8.029-4.139-17.314-11.235-22.39-3.62-2.848-10.741-5.797-16.719-5.564h-107.998v-88.295c0-4.143-3.357-7.5-7.5-7.5s-7.5 3.357-7.5 7.5v88.295h-14v-88.295c0-4.143-3.357-7.5-7.5-7.5s-7.5 3.357-7.5 7.5v88.295h-108.74v-88.295c0-4.143-3.358-7.5-7.5-7.5s-7.5 3.357-7.5 7.5v88.295h-14v-88.295c0-4.143-3.358-7.5-7.5-7.5s-7.5 3.357-7.5 7.5v88.295h-107.999c-15.414 0-27.954 12.54-27.954 27.954v269.287c0 15.414 12.54 27.954 27.954 27.954h107.999v83.51c0 4.143 3.358 7.5 7.5 7.5s7.5-3.357 7.5-7.5v-83.51h137.74v83.51c0 4.143 3.357 7.5 7.5 7.5s7.5-3.357 7.5-7.5v-83.51h14v83.51c0 4.143 3.357 7.5 7.5 7.5s7.5-3.357 7.5-7.5v-83.51h107.998c15.414 0 27.954-12.54 27.954-27.954v-190.246c0-4.143-3.357-7.5-7.5-7.5s-7.5 3.357-7.5 7.5v190.246c0 7.143-5.812 12.954-12.954 12.954h-412.737c-7.143 0-12.954-5.812-12.954-12.954v-217.966h446.144c-.001 0 0 0 0 0zm-101.651-15 24.109-49.271h26.091l-24.11 49.271zm-72.131 0 24.11-49.271h26.091l-24.109 49.271zm-72.129 0 24.109-49.271h26.091l-24.11 49.271zm-72.132 0 24.103-49.27h26.099l-24.11 49.271h-26.092zm-72.138 0 24.11-49.271h26.1l-24.11 49.271zm-55.96-36.32c0-7.141 5.809-12.95 12.95-12.95h21.09l-24.11 49.271h-9.93zm26.63 36.32 24.11-49.271h12.63l-24.11 49.271zm72.13 0 24.11-49.271h12.632l-24.103 49.271zm72.129 0 24.11-49.271h12.64l-24.109 49.271zm72.13 0 24.11-49.271h12.641l-24.11 49.271zm72.131 0 24.109-49.271h12.641l-24.109 49.271zm72.129 0 24.11-49.271h12.638l-24.106 49.271zm51.361 0h-22.021l20.622-42.148c.607 1.404 1.321 2.652 1.399 5.828z"/><path d="m323.516 279.747v-36.606l27.35 39.604c2.208 3.189 5.886 4.548 9.379 3.456 3.562-1.112 5.862-4.449 5.862-8.573l-.568-58.731c-.04-4.118-3.39-7.428-7.498-7.428-.025 0-.05 0-.074 0-4.143.04-7.468 3.431-7.428 7.572l.362 37.358-28.713-41.578c-1.865-2.701-5.266-3.873-8.404-2.898-3.133.977-5.268 3.878-5.268 7.16v60.665c0 4.143 3.357 7.5 7.5 7.5s7.5-3.358 7.5-7.501z"/><path d="m454.711 250.738c0-4.143-3.357-7.5-7.5-7.5h-18.182c-4.143 0-7.5 3.357-7.5 7.5s3.357 7.5 7.5 7.5h9.83c-1.923 8.142-7.28 15.39-17.882 15.39-12.621 0-22.89-10.269-22.89-22.89s10.269-22.89 22.89-22.89c4.587 0 9.011 1.351 12.793 3.905 3.432 2.317 8.094 1.416 10.413-2.017 2.318-3.433 1.416-8.095-2.017-10.413-6.271-4.236-13.599-6.476-21.189-6.476-20.893 0-37.89 16.997-37.89 37.89s16.997 37.89 37.89 37.89c19.862.001 33.734-15.58 33.734-37.889z"/><path d="m132.486 211.275c-4.063-.809-8.011 1.829-8.82 5.892l-7.118 35.767-11.282-36.622c-1.219-3.959-5.419-6.18-9.375-4.96-2.69.829-4.574 3.035-5.125 5.604l-11.136 35.982-7.096-35.873c-.804-4.063-4.75-6.705-8.813-5.902-4.063.804-6.706 4.749-5.902 8.812l11.842 59.866c.071.359.168.712.291 1.057 1.257 3.536 4.611 5.901 8.359 5.901.021 0 .042-.001.062-.001 3.773-.026 7.124-2.444 8.338-6.017.022-.064.043-.13.063-.195l11.326-36.592 11.275 36.599c.031.102.065.203.101.304 1.256 3.536 4.611 5.901 8.359 5.901.02 0 .041-.001.061-.001 3.772-.025 7.124-2.442 8.339-6.014.105-.312.191-.63.255-.952l11.889-59.737c.808-4.062-1.83-8.01-5.893-8.819z"/><path d="m204.617 234.764c0-12.846-10.852-23.296-24.189-23.296h-16.151c-.003 0-.007 0-.01 0s-.006 0-.01 0c-4.142 0-7.5 3.357-7.5 7.5v60.779c0 4.143 3.358 7.5 7.5 7.5s7.5-3.357 7.5-7.5v-17.463l19.73 22.418c1.482 1.685 3.552 2.545 5.633 2.545 1.76 0 3.527-.616 4.952-1.87 3.109-2.736 3.412-7.476.675-10.585l-15.55-17.667c10.052-2.828 17.42-11.779 17.42-22.361zm-24.19 8.296c-2.003 0-5.415.014-8.581.029-.016-3.089-.038-13.383-.047-16.621h8.628c4.981 0 9.189 3.799 9.189 8.296s-4.207 8.296-9.189 8.296z"/><path d="m292.597 250.63c0-20.893-16.997-37.89-37.89-37.89s-37.89 16.997-37.89 37.89c0 20.892 16.997 37.889 37.89 37.889s37.89-16.998 37.89-37.889zm-60.779 0c0-12.621 10.268-22.89 22.89-22.89 12.621 0 22.89 10.269 22.89 22.89s-10.269 22.889-22.89 22.889c-12.622 0-22.89-10.268-22.89-22.889z"/><path d="m208.398 375.27h95.202c8.021 0 14.546-6.525 14.546-14.546v-27.467c0-8.021-6.525-14.546-14.546-14.546h-95.203c-8.021 0-14.546 6.525-14.546 14.546v27.467c0 8.02 6.526 14.546 14.547 14.546zm.453-41.559h94.295v26.559h-94.295z"/><path d="m422.874 322.723c-2.93-2.928-7.678-2.928-10.607 0l-10.104 10.104-10.104-10.104c-2.93-2.928-7.678-2.928-10.607 0-2.929 2.93-2.929 7.678 0 10.607l10.104 10.104-10.104 10.104c-2.929 2.93-2.929 7.678 0 10.607 1.465 1.464 3.385 2.196 5.304 2.196s3.839-.732 5.304-2.196l10.104-10.104 10.104 10.104c1.465 1.464 3.385 2.196 5.304 2.196s3.839-.732 5.304-2.196c2.929-2.93 2.929-7.678 0-10.607l-10.104-10.104 10.104-10.104c2.926-2.93 2.926-7.678-.002-10.607z"/><path d="m130.546 322.723c-2.929-2.928-7.678-2.928-10.606 0l-10.104 10.104-10.104-10.104c-2.928-2.928-7.677-2.928-10.606 0-2.929 2.93-2.929 7.678 0 10.607l10.104 10.104-10.104 10.104c-2.929 2.93-2.929 7.678 0 10.607 1.464 1.464 3.384 2.196 5.303 2.196s3.839-.732 5.303-2.196l10.104-10.104 10.104 10.104c1.464 1.464 3.384 2.196 5.303 2.196s3.839-.732 5.303-2.196c2.929-2.93 2.929-7.678 0-10.607l-10.104-10.104 10.104-10.104c2.929-2.93 2.929-7.678 0-10.607z"/></g></svg>