<svg id="Capa_1" enable-background="new 0 0 512.11 512.11" height="512" viewBox="0 0 512.11 512.11" width="512" xmlns="http://www.w3.org/2000/svg"><g><path d="m498.529 173.707c-33.197-101.745-135.022-174.921-242.451-173.619-135.711-3.321-259.632 118.665-256 256-.904 97.612 58.489 190.949 147.561 231.963 4.146 2.102 10.784-.803 10.679-6.793v-45.209c0-2.475-.47-4.893-1.394-7.182l-20.916-51.883c-2.944-7.306-9.937-12.026-17.813-12.026-10.591 0-19.207 8.616-19.207 19.207v54.686c-6.33-5.443-12.381-11.225-18.106-17.284l-10.365-98.617c-.707-6.727 2.215-13.425 7.626-17.482l16.445-12.333h.001c6.51-4.884 11.085-11.943 12.882-19.877 3.736-16.488-5.34-33.516-21.11-39.606l-66.473-25.675c1.835-9.044 4.202-18.022 7.074-26.815l75.036 6.159c10.35 1.33 23.781-4.647 31.409-12.964 7.766-6.837 12.22-16.693 12.22-27.041v-12.106c0-3.81 1.036-7.551 2.997-10.818 10.045-16.744 5.073-38.172-11.318-48.782l-22.663-14.669c8.06-5.848 16.494-11.191 25.182-15.982l47.399 13.315c5.449 1.531 11.025 2.295 16.596 2.295 6.463 0 12.917-1.029 19.156-3.082l100.104-32.938c26.654 7.688 51.436 19.77 73.886 36.004l-22.43 5.649c-6.9 1.729-13.116 5.778-17.504 11.406-4.375 5.614-6.784 12.625-6.784 19.739 0 6.613-3.866 12.696-9.854 15.499l-19.73 9.25c-5.695 2.67-10.438 6.983-13.694 12.25-14.645-9.573-32.128-15.148-50.892-15.148-21.198 0-41.95 7.306-58.434 20.57-16.234 13.064-27.75 31.378-32.428 51.568-.935 4.035 1.579 8.064 5.614 8.999 4.034.936 8.064-1.578 8.999-5.614 3.923-16.933 13.589-32.299 27.219-43.268 14.028-11.289 30.982-17.256 49.029-17.256 43.156 0 78.267 35.11 78.267 78.267 0 58.69-59.38 137.578-78.269 161.184-17.336-21.651-68.771-89.847-77.124-146.452-.604-4.098-4.416-6.926-8.515-6.325-4.098.604-6.93 4.417-6.325 8.515 9.854 66.779 72.684 144.706 84.466 158.831v36.66c0 4.143 3.357 7.5 7.5 7.5s7.5-3.357 7.5-7.5v-36.66c4.548-5.45 16.645-20.338 30.377-40.409l10.711 9.927c3.059 2.839 4.812 6.859 4.812 11.032v60.101c0 2.15-.469 4.309-1.361 6.253l-8.479 18.556c-5.942 12.69-1.595 29.159 10.401 37.335-17.615 4.03-35.701 6.076-53.962 6.076-21.876 0-43.55-2.928-64.421-8.703-1.913-.529-3.857-1.094-5.78-1.678-3.966-1.205-8.152 1.031-9.356 4.995s1.032 8.152 4.995 9.356c2.042.621 4.108 1.221 6.141 1.783 22.174 6.136 45.194 9.246 68.422 9.246 25.016 0 49.735-3.602 73.47-10.705 105.585-30.403 184.378-134.512 182.53-245.295.001-28.21-4.558-55.928-13.548-82.38zm-380.334 206.251c1.726 0 3.257 1.034 3.901 2.635l20.918 51.888c.201.499.304 1.027.304 1.568v33.08c-8.526-4.614-17.443-9.692-29.33-18.396v-66.568c0-2.319 1.888-4.207 4.207-4.207zm-25.352-110.015c-1.012 4.467-3.588 8.441-7.255 11.191l-16.444 12.333c-9.609 7.206-14.799 19.104-13.544 31.05l8.06 76.689c-36.777-48.255-55.547-113.712-46.329-178.137l63.626 24.575c8.879 3.429 13.989 13.016 11.886 22.299zm42.919-153.269c-3.358 5.598-5.134 12.007-5.134 18.535v12.106c0 6.04-2.6 11.792-7.132 15.783l-4.652 4.097c-4.264 3.754-9.953 5.631-15.618 5.176l-70.961-5.825c14.374-35.917 38.011-69.469 69.84-95.857l27.051 17.511c9.567 6.194 12.469 18.701 6.606 28.474zm82.527-73.438c-8.775 2.887-18.114 3.092-27.008.594l-31.296-8.792c40.632-17.506 87.1-24.577 134.547-16.888zm100.66 100.401c1.707-3.454 4.547-6.302 8.082-7.958l19.727-9.249c11.232-5.258 18.49-16.674 18.49-29.082 0-3.791 1.284-7.527 3.615-10.519 2.372-3.043 5.594-5.144 9.327-6.079l33.734-8.496c30.38 25.851 55.478 60.104 70.03 99.638l-50.209 20.55c-2.724 1.12-5.723 1.511-8.658 1.138l-78.359-10.098c-5.061-15.442-14.047-29.119-25.779-39.845zm129.486 257.658c-25.213 33.345-59.111 59.788-97.268 76.265l42.327-50.393c3.117-3.717 5.31-8.17 6.338-12.868l18.799-85.455c1.047-4.739 4.333-8.705 8.783-10.604 11.094-4.721 18.263-15.559 18.263-27.611 0-2.538-.326-5.083-.97-7.562l-4.499-17.346c-3.426-13.249-15.381-22.502-29.071-22.502h-39.996c-4.143 0-7.5 3.357-7.5 7.5s3.357 7.5 7.5 7.5h39.996c6.853 0 12.835 4.629 14.551 11.263l4.5 17.352c.324 1.251.489 2.528.489 3.796 0 6.027-3.586 11.447-9.144 13.812-8.901 3.8-15.462 11.714-17.551 21.176l-18.802 85.468c-.515 2.349-1.614 4.577-3.177 6.44l-55.889 66.539-7.911-5.653c-5.844-4.185-7.916-11.962-4.926-18.495l8.476-18.548c1.782-3.883 2.724-8.204 2.724-12.499v-60.101c0-8.33-3.502-16.358-9.612-22.03l-12.505-11.589c22.917-35.602 46.983-82.54 46.983-122.683 0-4.547-.333-9.016-.965-13.39l72.798 9.382c1.356.173 2.719.259 4.078.259 4.177 0 8.326-.811 12.183-2.396l49.318-20.185c6.844 22.587 10.321 46.078 10.321 69.954.002 52.906-16.818 103.118-48.641 145.204z"/><path d="m299.27 211.675c0-23.816-19.376-43.192-43.192-43.192s-43.192 19.376-43.192 43.192 19.376 43.192 43.192 43.192 43.192-19.376 43.192-43.192zm-71.384 0c0-15.545 12.647-28.192 28.192-28.192s28.192 12.647 28.192 28.192-12.647 28.192-28.192 28.192-28.192-12.647-28.192-28.192z"/><path d="m475.042 262.318-9.952-23.54c-1.613-3.815-6.014-5.6-9.829-3.987-3.814 1.613-5.6 6.014-3.987 9.829l9.952 23.54c1.21 2.861 3.988 4.581 6.911 4.581.975 0 1.964-.19 2.918-.594 3.814-1.614 5.599-6.014 3.987-9.829z"/></g></svg>