<svg id="Capa_1" enable-background="new 0 0 511.958 511.958" height="512" viewBox="0 0 511.958 511.958" width="512" xmlns="http://www.w3.org/2000/svg"><g><path d="m510.277 260.734c2.152-2.545 2.492-7.106-.495-10.06l-14.204-14.204c-2.93-2.928-7.678-2.928-10.607 0-2.929 2.93-2.929 7.678 0 10.607l1.401 1.4h-33.689v-8.968c0-4.143-3.357-7.5-7.5-7.5s-7.5 3.357-7.5 7.5v8.968h-30.242v-8.968c0-4.143-3.357-7.5-7.5-7.5s-7.5 3.357-7.5 7.5v8.968h-30.243v-8.968c0-4.143-3.357-7.5-7.5-7.5s-7.5 3.357-7.5 7.5v8.968h-30.242v-8.968c0-4.143-3.357-7.5-7.5-7.5s-7.5 3.357-7.5 7.5v8.968h-38.477v-30.242h8.968c4.143 0 7.5-3.357 7.5-7.5s-3.357-7.5-7.5-7.5h-8.968v-30.243h8.968c4.143 0 7.5-3.357 7.5-7.5s-3.357-7.5-7.5-7.5h-8.968v-30.242h8.968c4.143 0 7.5-3.357 7.5-7.5s-3.357-7.5-7.5-7.5h-8.968v-30.243h8.968c4.143 0 7.5-3.357 7.5-7.5s-3.357-7.5-7.5-7.5h-8.968v-41.922l1.4 1.401c1.465 1.464 3.385 2.196 5.304 2.196s3.839-.732 5.304-2.196c2.929-2.93 2.929-7.678 0-10.607l-14.205-14.205c-2.663-2.721-7.712-3.061-10.607 0l-14.204 14.204c-2.929 2.93-2.929 7.678 0 10.607 2.93 2.928 7.678 2.928 10.607 0l1.4-1.401v222.893h-22.008v-8.968c0-4.143-3.357-7.5-7.5-7.5s-7.5 3.357-7.5 7.5v8.968h-30.242v-8.968c0-4.143-3.357-7.5-7.5-7.5s-7.5 3.357-7.5 7.5v8.968h-30.243v-8.968c0-4.143-3.357-7.5-7.5-7.5s-7.5 3.357-7.5 7.5v8.968h-30.243v-8.968c0-4.143-3.357-7.5-7.5-7.5s-7.5 3.357-7.5 7.5v8.968h-50.156l1.401-1.4c2.929-2.93 2.929-7.678 0-10.607-2.93-2.928-7.678-2.928-10.607 0l-14.205 14.204c-2.58 2.499-3.203 7.455 0 10.607l14.204 14.204c1.465 1.464 3.385 2.196 5.304 2.196s3.839-.732 5.304-2.196c2.929-2.93 2.929-7.678 0-10.607l-1.401-1.4h222.893v222.893l-1.4-1.401c-2.93-2.928-7.678-2.928-10.607 0-2.929 2.93-2.929 7.678 0 10.607l14.204 14.204c2.614 2.678 7.64 3.106 10.607 0l14.204-14.204c2.929-2.93 2.929-7.678 0-10.607-2.93-2.928-7.678-2.928-10.607 0l-1.4 1.401v-41.922h8.968c4.143 0 7.5-3.357 7.5-7.5s-3.357-7.5-7.5-7.5h-8.968v-30.243h8.968c4.143 0 7.5-3.357 7.5-7.5s-3.357-7.5-7.5-7.5h-8.968v-30.242h8.968c4.143 0 7.5-3.357 7.5-7.5s-3.357-7.5-7.5-7.5h-8.968v-30.244h8.968c4.143 0 7.5-3.357 7.5-7.5s-3.357-7.5-7.5-7.5h-8.968v-30.242h222.893l-1.401 1.4c-2.929 2.93-2.929 7.678 0 10.607 1.465 1.464 3.385 2.196 5.304 2.196s3.839-.732 5.304-2.196l14.204-14.204c.222-.241.036-.038.493-.547z"/><path d="m307.837 127.75h17.605c3.118 33.97 31.48 63.734 66.998 66.998v9.638c0 4.143 3.357 7.5 7.5 7.5s7.5-3.357 7.5-7.5v-9.638c37.742-3.796 67.454-36.063 67.375-74.498 0-10.639-2.188-20.921-6.502-30.561-1.692-3.782-6.13-5.475-9.909-3.782-3.781 1.692-5.475 6.129-3.782 9.909 3.446 7.7 5.193 15.921 5.193 24.434 0 6.252-.967 12.283-2.753 17.953-6.509-6.927-15.729-11.159-25.635-11.159h-4.729c2.933-4.772 4.628-10.383 4.628-16.383 0-17.306-14.08-31.386-31.386-31.386s-31.386 14.08-31.386 31.386c0 6 1.695 11.611 4.628 16.383h-4.727c-9.906 0-19.127 4.233-25.636 11.159-1.786-5.67-2.753-11.701-2.753-17.953 0-33.016 26.859-59.875 59.875-59.875 12.724 0 24.872 3.937 35.131 11.385 3.351 2.431 8.041 1.69 10.476-1.663 2.434-3.353 1.688-8.042-1.663-10.476-12.838-9.32-28.033-14.246-43.943-14.246-38.755 0-70.724 29.597-74.499 67.375h-17.605c-4.143 0-7.5 3.357-7.5 7.5s3.356 7.5 7.499 7.5zm75.717-17.089c0-9.035 7.351-16.386 16.386-16.386s16.386 7.351 16.386 16.386c0 9.016-7.32 16.351-16.328 16.383h-.116c-9.009-.032-16.328-7.367-16.328-16.383zm-15.099 31.383h62.971c7.844 0 14.937 4.624 18.214 11.558-10.762 15.985-29.022 26.522-49.699 26.522s-38.938-10.537-49.7-26.522c3.277-6.934 10.371-11.558 18.214-11.558z"/><path d="m210.511 76.847-.039 15.86c-.01 4.142 3.339 7.508 7.481 7.519h.019c4.134 0 7.489-3.346 7.5-7.481l.039-15.886 10.016-15.387c2.26-3.472 1.278-8.118-2.193-10.377-3.471-2.262-8.118-1.278-10.377 2.193l-4.95 7.604-5.03-7.703c-2.265-3.469-6.913-4.443-10.38-2.179-3.468 2.265-4.444 6.912-2.179 10.38z"/><path d="m454.364 301.26 8.555-12.143c2.386-3.386 1.575-8.065-1.812-10.45-3.386-2.389-8.066-1.574-10.45 1.812l-5.46 7.751-5.45-7.747c-2.382-3.385-7.058-4.205-10.449-1.818-3.388 2.383-4.202 7.062-1.818 10.449l8.541 12.141-10.328 14.66c-2.386 3.386-1.575 8.065 1.812 10.45 1.312.926 2.82 1.37 4.312 1.37 2.357 0 4.678-1.108 6.138-3.182l7.234-10.268 7.22 10.264c1.46 2.075 3.781 3.186 6.141 3.186 1.49 0 2.996-.443 4.309-1.367 3.388-2.383 4.202-7.062 1.818-10.449z"/><path d="m237.709 293.687c0-10.884-8.855-19.739-19.739-19.739s-19.739 8.855-19.739 19.739v19.572c0 10.884 8.855 19.739 19.739 19.739s19.739-8.855 19.739-19.739zm-15 19.572c0 2.613-2.126 4.739-4.739 4.739s-4.739-2.126-4.739-4.739v-19.572c0-2.613 2.126-4.739 4.739-4.739s4.739 2.126 4.739 4.739z"/><path d="m221 384.205h-55.38c-4.143 0-7.5 3.357-7.5 7.5s3.357 7.5 7.5 7.5h55.38c4.143 0 7.5-3.357 7.5-7.5s-3.357-7.5-7.5-7.5z"/><path d="m130.646 384.205h-18.75c-2.702-10.315-10.839-18.452-21.154-21.154v-71.917c0-4.143-3.357-7.5-7.5-7.5s-7.5 3.357-7.5 7.5v71.917c-12.711 3.33-22.118 14.913-22.118 28.654 0 16.331 13.287 29.618 29.618 29.618 13.74 0 25.324-9.407 28.654-22.118h18.75c4.143 0 7.5-3.357 7.5-7.5s-3.358-7.5-7.5-7.5zm-47.404 22.118c-8.061 0-14.618-6.558-14.618-14.618s6.558-14.618 14.618-14.618 14.618 6.558 14.618 14.618-6.557 14.618-14.618 14.618z"/><path d="m166.228 194.146v10.788c0 4.143 3.357 7.5 7.5 7.5s7.5-3.357 7.5-7.5v-10.788c10.315-2.702 18.452-10.839 21.154-21.154h17.959c4.143 0 7.5-3.357 7.5-7.5s-3.357-7.5-7.5-7.5h-17.959c-3.33-12.711-14.913-22.118-28.654-22.118-4.143 0-7.5 3.357-7.5 7.5s3.357 7.5 7.5 7.5c8.061 0 14.618 6.558 14.618 14.618s-6.558 14.618-14.618 14.618-14.619-6.558-14.619-14.618c0-4.143-3.357-7.5-7.5-7.5s-7.5 3.357-7.5 7.5c0 13.741 9.407 25.325 22.119 28.654z"/></g></svg>