<svg id="Capa_1" enable-background="new 0 0 512 512" height="512" viewBox="0 0 512 512" width="512" xmlns="http://www.w3.org/2000/svg"><g><path d="m463.668 0h-114.434c-12.352 0-22.401 10.049-22.401 22.401v57.27c-24.83-9.249-50.938-13.931-77.772-13.931-59.601 0-115.634 23.209-157.777 65.353s-65.353 98.177-65.353 157.777 23.209 115.634 65.353 157.777 98.176 65.353 157.777 65.353 115.633-23.209 157.777-65.353 65.353-98.177 65.353-157.777c0-42.188-11.827-83.258-34.203-118.771-2.21-3.505-6.84-4.557-10.344-2.348-3.504 2.208-4.556 6.839-2.348 10.344 19.539 31.011 30.451 66.572 31.76 103.283-4.08.072-7.366 3.396-7.366 7.493 0 4.092 3.278 7.412 7.351 7.492-3.295 92.604-67.37 169.984-153.459 193.376 12.697-11.082 24.331-26.138 34.427-44.831 12.632-23.389 22.086-51.041 27.966-81.164 5.196 4.242 11.825 6.792 19.04 6.792 16.627 0 30.155-13.527 30.155-30.155s-13.528-30.155-30.155-30.155c-4.54 0-8.845 1.014-12.71 2.819.469-7.976.716-16.041.716-24.175 0-50.486-9.169-98.452-26.04-137.467h116.687c12.352 0 22.401-10.049 22.401-22.401v-106.601c0-12.352-10.049-22.401-22.401-22.401zm-93.734 338.921c.551-6.722 7.078-13.682 15.081-13.696 8.356 0 15.155 6.799 15.155 15.155s-6.799 15.155-15.155 15.155-15.155-6.799-15.155-15.155c0-.492.028-.978.074-1.459zm-43.101-243.158v18.755c-7.235-10.482-15.05-19.373-23.317-26.577 7.896 2.138 15.677 4.739 23.317 7.822zm-85.272 400.719c-22.472-3.055-44.201-19.746-61.876-47.782-20.208-32.053-33.72-76.511-38.05-125.183-.367-4.126-4.003-7.162-8.135-6.807-4.126.367-7.173 4.01-6.806 8.135 6.587 74.048 32.673 134.223 68.059 164.952-86.196-23.321-150.375-100.753-153.673-193.433 4.073-.08 7.353-3.4 7.353-7.493s-3.279-7.413-7.353-7.493c3.296-92.665 67.453-170.086 153.626-193.423-22.764 19.771-41.883 51.943-54.412 93.275-16.54.103-29.966 13.586-29.966 30.15 0 12.254 7.351 22.816 17.871 27.529-2.047 16.311-3.088 33.085-3.088 49.96 0 4.143 3.358 7.5 7.5 7.5.298 0 15.926.001 15.926.001 4.142 0 7.5-3.357 7.5-7.5s-3.358-7.5-7.5-7.5h-8.35c.255-13.494 1.194-26.877 2.81-39.948 15.455-1.282 27.642-14.262 27.642-30.042 0-11.424-6.386-21.385-15.776-26.5 9.337-30.512 22.62-56.182 38.62-74.532 14.716-16.877 31.2-26.819 48.079-29.099v200.143c-3.945.22-7.079 3.479-7.079 7.479s3.134 7.259 7.079 7.479v92.929c-13.011 3.343-22.655 15.171-22.655 29.21s9.644 25.868 22.655 29.21v48.783zm-85.922-285.101c0 8.356-6.799 15.155-15.155 15.155s-15.155-6.799-15.155-15.155 6.799-15.155 15.155-15.155 15.155 6.798 15.155 15.155zm93.422 222.259c-.016 0-.032.002-.048.002-8.334-.027-15.107-6.813-15.107-15.153 0-8.356 6.799-15.155 15.155-15.155s15.155 6.799 15.155 15.155c0 8.34-6.773 15.126-15.107 15.153-.016 0-.032-.002-.048-.002zm100.525-137.269h8.356c-.459 77.341-32.385 188.309-101.382 200.124v-48.795c13.011-3.343 22.656-15.171 22.656-29.211s-9.645-25.868-22.656-29.211v-92.928c3.945-.219 7.08-3.478 7.08-7.479s-3.134-7.26-7.08-7.479v-200.147c25.461 3.382 49.461 23.925 68.251 58.716 20.462 37.887 32.132 87.858 33.131 141.41h-8.356c-4.142 0-7.5 3.357-7.5 7.5s3.358 7.5 7.5 7.5zm121.483-167.369c0 4.081-3.32 7.401-7.401 7.401h-114.434c-4.081 0-7.401-3.32-7.401-7.401v-106.601c0-4.081 3.32-7.401 7.401-7.401h114.434c4.081 0 7.401 3.32 7.401 7.401z"/><path d="m422.311 37.661c-3.178-6.354-9.565-10.302-16.669-10.302s-13.492 3.948-16.668 10.302l-30.276 60.553c-3.416 6.832-2.356 14.945 2.699 20.671 3.616 4.095 8.697 6.312 13.933 6.312 2.085 0 4.195-.353 6.246-1.077l22.857-8.075c.78-.275 1.64-.275 2.422 0l22.855 8.075c7.203 2.547 15.123.49 20.179-5.235s6.115-13.839 2.699-20.671zm16.333 71.295c-.489.553-1.85 1.757-3.938 1.021l-22.855-8.075c-4.005-1.416-8.416-1.417-12.418 0l-22.856 8.075c-2.089.734-3.449-.469-3.937-1.021-.488-.553-1.517-2.053-.527-4.033l30.276-60.553c.907-1.814 2.577-2.011 3.252-2.011.676 0 2.346.196 3.253 2.011l30.276 60.553c.991 1.98-.038 3.48-.526 4.033z"/><path d="m202.339 281.371h-14.158c-4.142 0-7.5 3.357-7.5 7.5s3.358 7.5 7.5 7.5h14.158c4.142 0 7.5-3.357 7.5-7.5s-3.358-7.5-7.5-7.5z"/><path d="m94.735 281.371h-14.159c-4.142 0-7.5 3.357-7.5 7.5s3.358 7.5 7.5 7.5h14.159c4.142 0 7.5-3.357 7.5-7.5s-3.358-7.5-7.5-7.5z"/><path d="m395.889 288.871c0 4.143 3.358 7.5 7.5 7.5h14.158c4.142 0 7.5-3.357 7.5-7.5s-3.358-7.5-7.5-7.5h-14.158c-4.142 0-7.5 3.358-7.5 7.5z"/><path d="m309.943 281.371h-14.158c-4.142 0-7.5 3.357-7.5 7.5s3.358 7.5 7.5 7.5h14.158c4.142 0 7.5-3.357 7.5-7.5s-3.358-7.5-7.5-7.5z"/></g></svg>