<svg id="Capa_1" enable-background="new 0 0 512 512" height="512" viewBox="0 0 512 512" width="512" xmlns="http://www.w3.org/2000/svg"><g><path d="m257.841 300.899c-3.949-1.017-7.975 1.36-8.992 5.309s1.36 7.975 5.309 8.992 7.975-1.36 8.992-5.309c1.017-3.95-1.36-7.975-5.309-8.992z"/><path d="m284.76 106.135v-29.862c9.329-8.217 14.81-20.162 14.81-32.703 0-24.024-19.546-43.57-43.57-43.57s-43.57 19.546-43.57 43.57c0 12.541 5.481 24.487 14.81 32.703v36.467c0 .006.001.012.001.018 0 .059.007.119.009.178.105 4.051 3.414 7.304 7.49 7.304.299 0 .592-.022.882-.056 6.723-.72 13.578-1.086 20.378-1.086 104.188 0 188.951 84.763 188.951 188.951s-84.763 188.951-188.951 188.951-188.951-84.763-188.951-188.951c0-41.52 13.207-80.914 38.194-113.925 24.183-31.949 58.531-55.811 96.715-67.188 3.97-1.183 6.229-5.359 5.046-9.329s-5.359-6.23-9.329-5.046c-41.222 12.281-78.296 38.032-104.393 72.51-26.975 35.639-41.233 78.163-41.233 122.978 0 112.459 91.492 203.951 203.951 203.951s203.951-91.492 203.951-203.951c0-102.697-76.303-187.895-175.191-201.914zm-28.76-91.135c15.753 0 28.57 12.816 28.57 28.57 0 3.573-.686 7.07-1.952 10.328-1.428-3.479-3.546-6.671-6.284-9.402-5.434-5.434-12.655-8.426-20.333-8.426-12 0-22.301 7.39-26.607 17.855-1.274-3.266-1.963-6.772-1.963-10.355-.001-15.754 12.816-28.57 28.569-28.57zm-13.76 89.574v-39.744c0-7.587 6.172-13.76 13.76-13.76 3.672 0 7.126 1.433 9.733 4.04 2.597 2.589 4.026 6.041 4.026 9.72v39.742c-4.549-.304-9.135-.474-13.76-.474-4.579 0-9.18.172-13.759.476z"/><path d="m377.74 308.05c0 4.143 3.358 7.5 7.5 7.5h29.6c4.142 0 7.5-3.357 7.5-7.5 0-.009-.001-.017-.001-.025-.014-91.709-74.628-166.315-166.339-166.315s-166.325 74.606-166.339 166.314c0 .009-.001.017-.001.025 0 .009.001.017.001.026.015 91.69 74.6 166.283 166.287 166.311.017 0 .034.003.052.003.017 0 .033-.002.049-.002 37.983-.011 75.123-13.158 104.582-37.022 29.042-23.526 49.522-56.453 57.666-92.715.908-4.042-1.633-8.054-5.674-8.961-4.043-.914-8.053 1.632-8.961 5.674-7.407 32.981-26.042 62.936-52.472 84.346-24.868 20.144-55.754 31.887-87.69 33.484v-21.903c0-4.143-3.358-7.5-7.5-7.5s-7.5 3.357-7.5 7.5v21.911c-77.493-3.801-139.851-66.159-143.652-143.651h21.912c4.142 0 7.5-3.357 7.5-7.5s-3.358-7.5-7.5-7.5h-21.912c3.8-77.493 66.159-139.852 143.652-143.653v15.595c-9.813 3.173-16.931 12.394-16.931 23.249 0 13.472 10.96 24.432 24.431 24.432s24.431-10.96 24.431-24.432c0-10.855-7.119-20.076-16.931-23.249v-15.595c77.493 3.801 139.852 66.16 143.652 143.653h-21.912c-4.142 0-7.5 3.357-7.5 7.5zm-121.74-102.877c-5.2 0-9.431-4.231-9.431-9.432s4.231-9.432 9.431-9.432 9.431 4.231 9.431 9.432-4.231 9.432-9.431 9.432z"/><path d="m321.037 222.66-57.125 45.038h-24.829c-13.239 0-24.01 10.771-24.01 24.01v26.585l-43.217 59.285c-4.681 6.435-3.944 14.781 1.791 20.296 3.059 2.941 6.867 4.43 10.703 4.43 3.351 0 6.724-1.137 9.634-3.434l62.562-49.316h16.373c13.239 0 24.01-10.771 24.01-24.01v-18.156l46.231-63.427c4.686-6.422 3.963-14.762-1.759-20.28-5.729-5.524-14.099-5.949-20.364-1.021zm-136.343 164.433c-.186.146-.292.185-.291.19-.204-.027-.571-.383-.6-.555 0-.001.025-.111.177-.32l34.913-47.893c3.258 5.053 8.354 8.811 14.341 10.315zm97.234-61.549c0 4.968-4.042 9.01-9.01 9.01h-18.766c-.048-.001-.096 0-.144 0h-14.926c-4.968 0-9.01-4.042-9.01-9.01v-33.836c0-4.968 4.042-9.01 9.01-9.01h33.836c4.968 0 9.01 4.042 9.01 9.01zm48.689-91.292c.203.023.573.378.605.546-.006.028-.05.143-.183.324l-35.464 48.654c-1.977-5.631-5.992-10.31-11.162-13.141l45.903-36.191c.194-.151.302-.187.301-.192z"/></g></svg>