<svg id="Capa_1" enable-background="new 0 0 512 512" height="512" viewBox="0 0 512 512" width="512" xmlns="http://www.w3.org/2000/svg"><g><path d="m334.411 440.288c-1.017 3.949 1.36 7.975 5.309 8.992s7.974-1.36 8.991-5.309-1.36-7.975-5.309-8.991-7.974 1.359-8.991 5.308z"/><path d="m299.704 440.288c-1.017 3.949 1.36 7.975 5.309 8.992s7.975-1.36 8.992-5.309-1.36-7.975-5.309-8.991-7.975 1.359-8.992 5.308z"/><path d="m481.13 22.565h-376.975c-4.142 0-7.5 3.357-7.5 7.5s3.358 7.5 7.5 7.5h376.975c8.751 0 15.87 7.119 15.87 15.87v405.13c0 8.751-7.119 15.87-15.87 15.87h-187.49c-6.853 0-12.905-4.368-15.061-10.869l-8.133-24.538c-.923-2.958-3.889-5.416-7.32-5.282h-232.256c-8.751 0-15.87-7.119-15.87-15.87v-364.441c0-8.751 7.119-15.87 15.87-15.87h38.067c4.142 0 7.5-3.357 7.5-7.5s-3.358-7.5-7.5-7.5h-38.067c-17.022 0-30.87 13.849-30.87 30.87v364.44c0 17.021 13.848 30.87 30.87 30.87h226.995l6.476 19.54c4.195 12.65 15.969 21.149 29.299 21.149h187.49c17.021 0 30.87-13.849 30.87-30.87v-405.129c0-17.021-13.849-30.87-30.87-30.87z"/><path d="m483 373.325v-314.26c0-4.143-3.357-7.5-7.5-7.5h-439c-4.142 0-7.5 3.357-7.5 7.5v314.26c0 4.143 3.358 7.5 7.5 7.5h439c4.143 0 7.5-3.358 7.5-7.5zm-15-265.918c-7.507-14.459-16.509-28.184-26.789-40.843h26.789zm-397.212-40.842c-10.279 12.659-19.282 26.383-26.788 40.842v-40.842zm-26.788 260.365c7.114 13.727 15.582 26.711 25.325 38.894h-25.325zm0-38.304v-143.072c9.771-28.994 25.815-56.218 46.533-78.989h71.334c-16.277 10.198-30.874 22.998-43.149 37.965-3.158-1.125-6.554-1.743-10.093-1.743-16.627 0-30.155 13.527-30.155 30.155 0 9.262 4.201 17.559 10.794 23.095-7.157 19.504-10.793 40.008-10.793 61.048 0 60.726 30.82 116.339 80.532 148.739h-70.074c-20.191-22.64-35.295-48.59-44.929-77.198zm49.47-155.684c0-8.356 6.799-15.155 15.155-15.155s15.155 6.799 15.155 15.155-6.799 15.155-15.155 15.155-15.155-6.799-15.155-15.155zm259.488 232.883c14.829-9.681 28.175-21.554 39.565-35.246 0 0 .001-.001.001-.001s0 0 0-.001c2.625-3.156 5.15-6.406 7.562-9.75 17.329-24.03 28.277-51.928 31.996-81.2 5.499 2.624 13.935 2.475 19.634-3.688 4.344-4.919 5.254-11.891 2.318-17.76l-23.142-46.282c-2.729-5.46-8.217-8.853-14.321-8.853s-11.592 3.393-14.321 8.852l-23.143 46.284c-2.935 5.869-2.023 12.841 2.32 17.76 4.345 4.918 11.15 6.688 17.337 4.498l17.47-6.173c.328.029.023-.238 1.369.246-2.985 27.966-13.188 54.667-29.685 77.542-.743 1.031-1.512 2.04-2.278 3.051l-45.932-38.182c-.001-.001-.002-.002-.004-.003-.001-.001-.003-.002-.004-.003l-40.385-33.571c4.661-7.662 7.348-16.651 7.348-26.255 0-27.937-22.728-50.664-50.664-50.664s-50.664 22.728-50.664 50.664 22.728 50.664 50.664 50.664c12.936 0 24.75-4.88 33.712-12.887l34.395 28.592c-11.159 11.428-25.101 19.933-40.295 24.591-4.565-10.86-15.312-18.507-27.813-18.507-12.5 0-23.246 7.646-27.812 18.505-17.982-5.508-34.165-16.374-46.116-31.119-13.659-16.853-21.182-38.105-21.182-59.844 0-52.438 42.666-95.101 95.11-95.101s95.11 42.662 95.11 95.101c0 11.201-1.927 22.164-5.727 32.584-1.419 3.892.585 8.196 4.477 9.615 3.893 1.423 8.197-.585 9.615-4.477 4.402-12.071 6.635-24.764 6.635-37.723 0-60.71-49.396-110.101-110.11-110.101s-110.11 49.391-110.11 110.101c0 25.166 8.711 49.773 24.528 69.289 14.32 17.668 33.902 30.522 55.616 36.668 1.671 15.058 14.469 26.809 29.965 26.809 15.497 0 28.295-11.751 29.965-26.811 18.841-5.336 36.111-15.761 49.697-29.978l40.383 33.569c-15.214 16.67-33.727 30.052-54.417 39.191h-131.253c-58.916-26.018-96.902-84.232-96.902-148.739 0-18.787 3.16-37.101 9.388-54.548 1.868.363 3.795.56 5.767.56 16.627 0 30.155-13.527 30.155-30.155 0-7.646-2.866-14.632-7.572-19.953 17.034-20.414 38.782-36.381 63.358-46.424h122.868c35.041 14.321 64.129 40.564 82.01 74.027 1.352 2.528 3.942 3.968 6.622 3.967 1.192 0 2.402-.285 3.527-.886 3.653-1.952 5.033-6.496 3.081-10.149-14.709-27.526-36.366-50.574-62.513-66.959h71.306c20.719 22.771 36.762 49.995 46.533 78.989v143.072c-9.634 28.607-24.737 54.558-44.928 77.198h-70.114zm87.66-140.937c.099.198.306.61-.146 1.122s-.886.359-1.096.285l-17.47-6.173c-1.721-.608-3.527-.912-5.335-.912s-3.615.304-5.335.912l-17.469 6.173c-.208.073-.643.229-1.097-.285-.452-.512-.246-.925-.147-1.122l23.143-46.284c.077-.153.28-.56.905-.56s.828.406.905.56v.001zm-179.824-13.566c-3.183-2.646-7.913-2.212-10.562.974-2.648 3.185-2.212 7.913.973 10.562l26.793 22.272c-6.065 4.769-13.702 7.624-21.998 7.624-19.665 0-35.664-15.999-35.664-35.664s15.999-35.664 35.664-35.664 35.664 15.999 35.664 35.664c0 5.956-1.475 11.572-4.068 16.512zm-4.794 93.22c8.356 0 15.155 6.798 15.155 15.154s-6.799 15.155-15.155 15.155-15.155-6.799-15.155-15.155 6.799-15.154 15.155-15.154zm186.676 61.283c9.743-12.183 18.211-25.167 25.324-38.894v38.894z"/><path d="m454.884 422.058h-57.707c-11.683 0-21.187 9.505-21.187 21.188s9.504 21.187 21.187 21.187h57.707c11.683 0 21.187-9.504 21.187-21.187s-9.505-21.188-21.187-21.188zm0 27.374h-57.707c-3.411 0-6.187-2.775-6.187-6.187s2.775-6.188 6.187-6.188h57.707c3.411 0 6.187 2.775 6.187 6.188-.001 3.412-2.776 6.187-6.187 6.187z"/><path d="m59.064 398.11c-4.142 0-7.5 3.357-7.5 7.5s3.358 7.5 7.5 7.5h35.947c4.142 0 7.5-3.357 7.5-7.5s-3.358-7.5-7.5-7.5z"/></g></svg>