<svg id="Capa_1" enable-background="new 0 0 512.001 512.001" height="512" viewBox="0 0 512.001 512.001" width="512" xmlns="http://www.w3.org/2000/svg"><g><path d="m256.001 123.137c-29.471 0-53.447 23.977-53.447 53.447s23.977 53.447 53.447 53.447 53.447-23.977 53.447-53.447-23.977-53.447-53.447-53.447zm0 91.894c-21.2 0-38.447-17.247-38.447-38.447s17.247-38.447 38.447-38.447 38.447 17.247 38.447 38.447-17.247 38.447-38.447 38.447z"/><path d="m256.001 247.302c-29.471 0-53.447 23.977-53.447 53.447s23.977 53.447 53.447 53.447 53.447-23.977 53.447-53.447-23.977-53.447-53.447-53.447zm0 91.894c-21.2 0-38.447-17.247-38.447-38.447s17.247-38.447 38.447-38.447 38.447 17.247 38.447 38.447-17.247 38.447-38.447 38.447z"/><path d="m241.228 389.404c3.823-1.593 5.632-5.983 4.038-9.808-1.594-3.823-5.98-5.631-9.808-4.038-19.989 8.327-32.905 27.701-32.905 49.355 0 29.471 23.977 53.447 53.447 53.447s53.447-23.977 53.447-53.447c0-21.901-13.118-41.357-33.421-49.566-3.842-1.553-8.212.302-9.765 4.142s.302 8.212 4.142 9.765c14.606 5.905 24.044 19.903 24.044 35.66 0 21.2-17.247 38.447-38.447 38.447s-38.447-17.247-38.447-38.447c0-15.579 9.293-29.518 23.675-35.51z"/><path d="m427.48 37.468h-114.037v-22.468h114.037c4.143 0 7.5-3.357 7.5-7.5s-3.357-7.5-7.5-7.5h-342.959c-4.143 0-7.5 3.357-7.5 7.5s3.357 7.5 7.5 7.5h114.037v22.468h-114.037c-4.143 0-7.5 3.357-7.5 7.5s3.357 7.5 7.5 7.5h142.029v36.669h-53.193c-16.474 0-29.875 13.401-29.875 29.875v4.125h-37.134c-5.126 0-9.906 2.294-13.113 6.292-3.207 3.999-4.408 9.162-3.296 14.165l9.982 44.921c4.806 21.632 22.199 37.402 43.561 40.424v18.653h-37.134c-5.126 0-9.906 2.294-13.113 6.292-3.207 3.999-4.408 9.162-3.296 14.165l9.982 44.922c4.807 21.632 22.2 37.402 43.561 40.424v18.654h-37.134c-5.126 0-9.906 2.294-13.113 6.292-3.207 3.999-4.408 9.162-3.296 14.165l9.982 44.921c4.807 21.632 22.2 37.402 43.561 40.424-1.862 17.709 11.705 34.142 29.875 34.151h165.287c17.884.177 31.658-16.24 29.875-34.151 21.361-3.021 38.753-18.792 43.561-40.424l9.982-44.92c1.112-5.004-.089-10.167-3.296-14.166-3.207-3.998-7.987-6.292-13.113-6.292h-37.134v-18.654c21.361-3.021 38.753-18.792 43.561-40.424l9.982-44.921c1.112-5.004-.089-10.167-3.296-14.166-3.207-3.998-7.987-6.292-13.113-6.292h-37.134v-18.653c21.362-3.021 38.754-18.792 43.561-40.424l9.982-44.92c1.112-5.004-.089-10.167-3.296-14.166-3.207-3.998-7.987-6.292-13.113-6.292h-37.134v-4.125c0-16.474-13.401-29.875-29.875-29.875h-25.648c-4.143 0-7.5 3.357-7.5 7.5s3.357 7.5 7.5 7.5h25.648c8.202 0 14.875 6.673 14.875 14.875v363.113c0 8.202-6.673 14.875-14.875 14.875h-165.287c-8.202 0-14.875-6.673-14.875-14.875v-363.113c0-8.202 6.673-14.875 14.875-14.875l104.594.003c2.93.183 7.38-2.788 7.5-7.6v-44.072h142.029c4.143 0 7.5-3.357 7.5-7.5s-3.357-7.5-7.5-7.5zm-21.827 349.58c.718 0 1.164.368 1.412.678.248.309.511.824.354 1.525l-9.982 44.921c-3.266 14.696-14.675 25.605-28.918 28.471v-75.595zm0-124.456c.718 0 1.164.368 1.412.678.248.309.511.824.354 1.525l-9.982 44.922c-3.266 14.696-14.675 25.605-28.918 28.471v-75.596zm0-124.455c.718 0 1.164.368 1.412.678.248.309.511.824.354 1.525l-9.982 44.921c-3.266 14.696-14.675 25.605-28.918 28.471v-75.595zm-291.089 47.124-9.982-44.922c-.156-.7.106-1.216.354-1.524.248-.31.694-.678 1.412-.678h37.134v75.595c-14.243-2.866-25.652-13.775-28.918-28.471zm0 124.456-9.982-44.923c-.156-.7.106-1.216.354-1.524.248-.31.694-.678 1.412-.678h37.134v75.596c-14.243-2.866-25.652-13.775-28.918-28.471zm0 124.455-9.982-44.922c-.156-.7.106-1.216.354-1.524.248-.31.694-.678 1.412-.678h37.134v75.595c-14.243-2.866-25.652-13.775-28.918-28.471zm155.887-345.035h-28.9v-36.669h28.9zm-56.893-51.669v-22.468h84.885v22.468z"/></g></svg>