<svg id="Capa_1" enable-background="new 0 0 512 512" height="512" viewBox="0 0 512 512" width="512" xmlns="http://www.w3.org/2000/svg"><g><path d="m436.678 497h-33.637v-.509c0-23.182-18.859-42.041-42.041-42.041h-24.548c-4.143 0-7.5 3.357-7.5 7.5s3.357 7.5 7.5 7.5h24.548c14.91 0 27.041 12.131 27.041 27.041v.509h-264.082v-.509c0-14.91 12.131-27.041 27.041-27.041h150.347c4.143 0 7.5-3.357 7.5-7.5s-3.357-7.5-7.5-7.5h-29.478c13.875-17.289 39.964-51.202 65.791-92.298 50.734-80.728 76.459-149.375 76.459-204.034-.001-87.186-70.932-158.118-158.119-158.118s-158.118 70.932-158.118 158.118c0 54.659 25.725 123.307 76.459 204.034 25.827 41.096 51.916 75.009 65.791 92.298h-89.132c-23.182 0-42.041 18.859-42.041 42.041v.509h-33.637c-4.143 0-7.5 3.357-7.5 7.5s3.357 7.5 7.5 7.5h361.355c4.143 0 7.5-3.357 7.5-7.5s-3.357-7.5-7.499-7.5zm-323.796-338.882c0-78.916 64.202-143.118 143.118-143.118s143.118 64.202 143.118 143.118c0 51.021-25.605 118.755-74.05 195.879-23.572 37.526-47.347 68.947-61.568 86.891l-7.5 9.202-7.5-9.202c-14.221-17.945-37.997-49.365-61.568-86.891-48.445-77.124-74.05-144.857-74.05-195.879z"/><path d="m240.376 105.045-8.306 16.829c-.354.716-1.035 1.211-1.824 1.326l-18.572 2.698c-6.611.96-12 5.504-14.064 11.857-2.064 6.354-.376 13.198 4.408 17.862l13.438 13.098c.571.558.832 1.359.697 2.146l-3.172 18.496c-1.13 6.584 1.526 13.114 6.931 17.041 5.405 3.928 12.435 4.434 18.35 1.327l16.611-8.733c.705-.37 1.55-.37 2.255 0l16.61 8.733c2.572 1.352 5.355 2.02 8.124 2.02 3.598 0 7.172-1.128 10.226-3.347 5.404-3.927 8.061-10.457 6.931-17.041l-3.171-18.495c-.136-.788.125-1.591.695-2.146l13.44-13.1c4.784-4.663 6.473-11.507 4.408-17.861-2.064-6.354-7.454-10.897-14.065-11.857l-18.571-2.698c-.79-.115-1.472-.61-1.825-1.326l-8.306-16.829c-2.956-5.99-8.943-9.712-15.624-9.712s-12.668 3.722-15.624 9.712zm13.451 6.639c.58-1.175 1.61-1.351 2.173-1.351s1.593.176 2.173 1.351l8.306 16.829c2.538 5.143 7.442 8.706 13.119 9.531l18.572 2.698c1.297.188 1.782 1.114 1.956 1.649s.325 1.57-.612 2.484l-13.44 13.1c-4.106 4.003-5.979 9.768-5.01 15.422l3.172 18.497c.222 1.291-.51 2.039-.965 2.37-.455.332-1.392.797-2.552.185l-16.611-8.733c-2.539-1.334-5.323-2.001-8.107-2.001s-5.569.667-8.107 2.001l-16.611 8.733c-1.158.612-2.096.146-2.552-.185-.455-.331-1.187-1.079-.965-2.371l3.172-18.495c.971-5.652-.902-11.418-5.01-15.424l-13.438-13.098c-.938-.916-.787-1.95-.613-2.485s.659-1.461 1.955-1.649l18.572-2.698c5.677-.824 10.581-4.388 13.119-9.531z"/><path d="m374.158 156.729c0-28.296-10.158-55.672-28.604-77.083-18.249-21.185-43.429-35.251-70.899-39.61-4.1-.65-7.934 2.141-8.583 6.231-.649 4.092 2.141 7.934 6.231 8.583 23.972 3.804 45.95 16.087 61.887 34.586 16.101 18.69 24.968 42.589 24.968 67.293 0 56.882-46.276 103.158-103.158 103.158s-103.158-46.276-103.158-103.158c0-24.702 8.866-48.6 24.965-67.289 15.934-18.498 37.909-30.782 61.878-34.588 4.091-.649 6.881-4.492 6.231-8.583-.648-4.091-4.501-6.889-8.583-6.231-27.469 4.362-52.646 18.43-70.892 39.612-18.442 21.411-28.6 48.785-28.6 77.079 0 65.152 53.006 118.158 118.158 118.158s118.159-53.005 118.159-118.158z"/><path d="m248.5 224.131v15.297c0 4.143 3.357 7.5 7.5 7.5s7.5-3.357 7.5-7.5v-15.297c0-4.143-3.357-7.5-7.5-7.5s-7.5 3.357-7.5 7.5z"/><path d="m317.584 185.202 15.059 2.69c.446.08.89.118 1.328.118 3.564 0 6.726-2.551 7.374-6.182.729-4.078-1.986-7.974-6.063-8.702l-15.059-2.69c-4.073-.729-7.975 1.985-8.702 6.063-.729 4.079 1.986 7.975 6.063 8.703z"/><path d="m297.418 111.726c2.211 0 4.402-.974 5.882-2.841l9.503-11.988c2.573-3.246 2.028-7.964-1.218-10.536-3.246-2.573-7.965-2.028-10.536 1.218l-9.503 11.988c-2.573 3.246-2.028 7.964 1.218 10.536 1.379 1.092 3.021 1.623 4.654 1.623z"/><path d="m191.72 170.437-15.059 2.69c-4.077.729-6.792 4.624-6.063 8.702.648 3.631 3.81 6.182 7.374 6.182.438 0 .882-.038 1.328-.118l15.059-2.69c4.077-.729 6.792-4.624 6.063-8.702-.728-4.078-4.622-6.797-8.702-6.064z"/><path d="m208.641 108.884c1.48 1.868 3.671 2.842 5.883 2.842 1.632 0 3.275-.53 4.653-1.622 3.247-2.573 3.792-7.29 1.22-10.536l-9.502-11.988c-2.572-3.247-7.291-3.792-10.536-1.22-3.247 2.573-3.792 7.29-1.22 10.536z"/></g></svg>