<?xml version="1.0"?>
<svg xmlns="http://www.w3.org/2000/svg" viewBox="0 0 32 32" width="512" height="512"><g id="battery_full_charge_power" data-name="battery, full, charge, power"><path d="M22.1211,7.8789A3.02,3.02,0,0,0,20,7H12a3.02,3.02,0,0,0-2.1211.8789A2.9794,2.9794,0,0,0,9,10V26a2.9794,2.9794,0,0,0,.8789,2.1211A3.02,3.02,0,0,0,12,29h8a3.02,3.02,0,0,0,2.1211-.8789A2.9794,2.9794,0,0,0,23,26V10A2.9794,2.9794,0,0,0,22.1211,7.8789ZM21,26a1,1,0,0,1-1,1H12a1,1,0,0,1-1-1V10a1,1,0,0,1,1-1h8a1,1,0,0,1,1,1Z"/><path d="M14,5h4a1,1,0,0,0,0-2H14a1,1,0,0,0,0,2Z"/><path d="M18,23H14a1,1,0,0,0,0,2h4a1,1,0,0,0,0-2Z"/><path d="M18,19H14a1,1,0,0,0,0,2h4a1,1,0,0,0,0-2Z"/><path d="M18,15H14a1,1,0,0,0,0,2h4a1,1,0,0,0,0-2Z"/><path d="M18,11H14a1,1,0,0,0,0,2h4a1,1,0,0,0,0-2Z"/></g></svg>
