<?xml version="1.0"?>
<svg xmlns="http://www.w3.org/2000/svg" viewBox="0 0 32 32" width="512" height="512"><g id="charge_charging_battery" data-name="charge, charging, battery"><path d="M22.1211,7.8789A3.02,3.02,0,0,0,20,7H12a3.02,3.02,0,0,0-2.1211.8789A2.9794,2.9794,0,0,0,9,10V26a2.9794,2.9794,0,0,0,.8789,2.1211A3.02,3.02,0,0,0,12,29h8a3.02,3.02,0,0,0,2.1211-.8789A2.9794,2.9794,0,0,0,23,26V10A2.9794,2.9794,0,0,0,22.1211,7.8789ZM21,26a1,1,0,0,1-1,1H12a1,1,0,0,1-1-1V10a1,1,0,0,1,1-1h8a1,1,0,0,1,1,1Z"/><path d="M14,5h4a1,1,0,0,0,0-2H14a1,1,0,0,0,0,2Z"/><path d="M18,17H15.3872l1.5615-4.6836a1,1,0,0,0-1.8974-.6328l-2,6A1,1,0,0,0,14,19h2.6128l-1.5615,4.6836a1,1,0,0,0,1.8974.6328l2-6A1,1,0,0,0,18,17Z"/></g></svg>
