<svg height="512" viewBox="0 0 32 32" width="512" xmlns="http://www.w3.org/2000/svg"><g id="comment_message_chatting_texting" data-name="comment, message, chatting, texting"><path d="m16 3c-7.1685 0-13 4.4858-13 10s5.8315 10 13 10a1 1 0 0 0 0-2c-6.0654 0-11-3.5889-11-8s4.9346-8 11-8 11 3.5889 11 8a7.54 7.54 0 0 1 -1.7544 4.3438 20.6319 20.6319 0 0 1 -3.2156 2.8227 24.6191 24.6191 0 0 0 -6.8809 7.3081 1 1 0 0 0 1.7022 1.0508 22.616 22.616 0 0 1 6.3911-6.7686 22.1288 22.1288 0 0 0 3.5122-3.1 9.48 9.48 0 0 0 2.2454-5.6568c0-5.5142-5.8315-10-13-10z" fill-rule="evenodd"/><circle cx="20" cy="14" r="1"/><g fill-rule="evenodd"><path d="m15 14a1 1 0 1 0 1-1 1 1 0 0 0 -1 1z"/><path d="m11 14a1 1 0 1 0 1-1 1 1 0 0 0 -1 1z"/></g></g></svg>