<?xml version="1.0"?>
<svg xmlns="http://www.w3.org/2000/svg" viewBox="0 0 32 32" width="512" height="512"><g id="compose_write_review_pencil" data-name="compose, write, review, pencil"><path d="M28.707,7.293l-4-4a.9994.9994,0,0,0-1.414,0l-2,2a.9994.9994,0,0,0,0,1.414L24.5859,10l-9,9H13V16.4141l6.7031-6.7032a1,1,0,0,0-1.414-1.414L11.293,15.293A.9993.9993,0,0,0,11,16v4a1,1,0,0,0,1,1h4a.9993.9993,0,0,0,.707-.293l10-10,2-2A.9994.9994,0,0,0,28.707,7.293ZM24,5.4141,26.5859,8,26,8.5859,23.4141,6Z"/><path d="M24,17a1,1,0,0,0-1,1v9H5V9h9a1,1,0,0,0,0-2H4A1,1,0,0,0,3,8V28a1,1,0,0,0,1,1H24a1,1,0,0,0,1-1V18A1,1,0,0,0,24,17Z"/></g></svg>
