<?xml version="1.0"?>
<svg xmlns="http://www.w3.org/2000/svg" viewBox="0 0 32 32" width="512" height="512"><g id="folder_archive_file_document" data-name="folder, archive, file, document"><path d="M26,9H16.8281a1.0086,1.0086,0,0,1-.707-.293L13.293,5.8789A2.9794,2.9794,0,0,0,11.1719,5H6a2.9794,2.9794,0,0,0-2.1211.8789A3.02,3.02,0,0,0,3,8V24a3.0008,3.0008,0,0,0,3,3H18a1,1,0,0,0,0-2H6a1,1,0,0,1-1-1V8A1,1,0,0,1,6,7h5.1719a1.0086,1.0086,0,0,1,.707.293L13.5859,9H8a1,1,0,0,0,0,2h8a.9706.9706,0,0,0,.27-.0545,3.0244,3.0244,0,0,0,.558.0545H26a1.0009,1.0009,0,0,1,1,1V24a1.0006,1.0006,0,0,1-1,1H22a1,1,0,0,0,0,2h4a3.0033,3.0033,0,0,0,3-3V12A3.0033,3.0033,0,0,0,26,9Z"/></g></svg>
