<svg height="512" viewBox="0 0 32 32" width="512" xmlns="http://www.w3.org/2000/svg"><g id="history_watch_arrow_clockwise" data-name="history, watch, arrow, clockwise"><path d="m17 5a1 1 0 0 0 0 2 9.0026 9.0026 0 1 1 -8.9766 9.4375l.27.27a1 1 0 0 0 1.414-1.414l-1.9995-1.9997a1.0033 1.0033 0 0 0 -1.4158 0l-1.9991 1.9992a1 1 0 0 0 1.414 1.414l.3139-.3138a10.9932 10.9932 0 1 0 10.9791-11.3932z"/><path d="m20.5361 20.95a1 1 0 0 0 1.4139-1.4139l-3.95-3.9502v-5.5859a1 1 0 0 0 -2 0v6a1 1 0 0 0 .293.707z"/></g></svg>