<svg id="svg7" height="512" viewBox="0 0 32 32" width="512" xmlns="http://www.w3.org/2000/svg" xmlns:dc="http://purl.org/dc/elements/1.1/" xmlns:cc="http://creativecommons.org/ns#" xmlns:rdf="http://www.w3.org/1999/02/22-rdf-syntax-ns#" xmlns:svg="http://www.w3.org/2000/svg" xmlns:sodipodi="http://sodipodi.sourceforge.net/DTD/sodipodi-0.dtd" xmlns:inkscape="http://www.inkscape.org/namespaces/inkscape" sodipodi:docname="home, dashboard, house, front.svg" inkscape:version="0.92.4 (5da689c313, 2019-01-14)"><g id="home_dashboard_house_front" data-name="home, dashboard, house, front"><path id="path4" d="m28.6621 13.2153-10.6758-9.4287c-1.135414-.9999816-2.837186-.9999816-3.9726 0l-10.6758 9.4287c-.7318684.924062.3133667 2.168719 1.3242 1.4991l10.6758-9.4288c.378594-.3330024.945606-.3330024 1.3242 0l8.3379 7.3644v13.3148c0 .552285-.447715 1-1 1h-3v-11c0-.552285-.447715-1-1-1h-8c-.552285 0-1 .447715-1 1v8c0 1.333333 2 1.333333 2 0v-7h6v10h-11c-.5522847 0-1-.447715-1-1v-8.5986c0-1.333333-2-1.333333-2 0v8.5986c-.00225.796075.314256 1.559925.8789 2.1211.563753.560787 1.3259307.876603 2.1211.8789h16c1.656671-.000442 2.999558-1.343329 3-3v-11.5488l.3379.2984c.9994.8828 2.3236-.6163 1.3242-1.4991z" inkscape:connector-curvature="0" sodipodi:nodetypes="ccccccccsscsssssscccsssscccccccc"/></g></svg>