<svg height="512" viewBox="0 0 32 32" width="512" xmlns="http://www.w3.org/2000/svg"><g id="house_home_dashboard_landing" data-name="house, home, dashboard, landing"><path d="m25.9858 10.8516-8-7.065a3.0053 3.0053 0 0 0 -3.9726 0l-8 7.0655a3 3 0 0 0 -1.0132 2.2479v12.8648a2.9786 2.9786 0 0 0 .8789 2.1211 3.02 3.02 0 0 0 2.1211.8789h8a1 1 0 0 0 0-2h-8a1 1 0 0 1 -1-1v-12.8648a1.0008 1.0008 0 0 1 .3374-.7495l8-7.065a1.0025 1.0025 0 0 1 1.3242 0l8 7.0645a1.0013 1.0013 0 0 1 .3384.75v12.8648a1.0013 1.0013 0 0 1 -1 1h-3v-11a1 1 0 0 0 -1-1h-8a1 1 0 0 0 -1 1v8a1 1 0 0 0 2 0v-7h6v11a1 1 0 0 0 1 1h4a3.0033 3.0033 0 0 0 3-3v-12.8648a3.0007 3.0007 0 0 0 -1.0142-2.2484z"/></g></svg>