<?xml version="1.0"?>
<svg xmlns="http://www.w3.org/2000/svg" viewBox="0 0 32 32" width="512" height="512"><g id="layers_layer_arrange" data-name="layers, layer, arrange"><path d="M3.6152,11.9229l12,5a.9988.9988,0,0,0,.77,0l12-5a1,1,0,0,0,0-1.8458l-12-5a.9926.9926,0,0,0-.77,0l-12,5a1,1,0,0,0,0,1.8458ZM16,7.083,25.4,11,16,14.917,6.6,11Z"/><path d="M3.6152,16.9229l12,5a.9988.9988,0,0,0,.77,0l12-5a1,1,0,1,0-.77-1.8458L16,19.917l-11.6152-4.84a1,1,0,1,0-.77,1.8458Z"/><path d="M27.6152,20.0771,16,24.917l-11.6152-4.84a1,1,0,1,0-.77,1.8458l12,5a.9988.9988,0,0,0,.77,0l12-5a1,1,0,1,0-.77-1.8458Z"/></g></svg>
