<svg height="512" viewBox="0 0 32 32" width="512" xmlns="http://www.w3.org/2000/svg"><g id="lifebuoy_help_customer_service" data-name="lifebuoy, help, customer, service"><path d="m16 10.0732a5.9268 5.9268 0 1 0 5.9272 5.9268 5.9334 5.9334 0 0 0 -5.9272-5.9268zm0 9.8536a3.9268 3.9268 0 1 1 3.9272-3.9268 3.9316 3.9316 0 0 1 -3.9272 3.9268z"/><path d="m25.2128 25.1608a12.9735 12.9735 0 0 0 -.0016-18.3236c-.0082-.0088-.0108-.0205-.0193-.0291s-.02-.0111-.0291-.0193a12.974 12.974 0 0 0 -18.3256 0c-.0088.0082-.0205.0108-.0291.0193s-.0111.02-.0193.0291a12.9735 12.9735 0 0 0 -.0016 18.3236c.0088.01.0116.0223.0209.0316s.0222.0122.0318.0211a12.9731 12.9731 0 0 0 18.32 0c.01-.0089.0224-.0117.0318-.0211s.0123-.0224.0211-.0316zm-16.2464-.7127 2.0836-2.0838a1 1 0 1 0 -1.4143-1.4143l-2.0834 2.084a10.9689 10.9689 0 0 1 0-14.0678l2.0834 2.0838a1 1 0 0 0 1.4143-1.4143l-2.0838-2.0836a10.9689 10.9689 0 0 1 14.0676 0l-2.0838 2.0836a1 1 0 1 0 1.4143 1.4143l2.0836-2.0836a10.9689 10.9689 0 0 1 0 14.0678l-2.0836-2.0842a1 1 0 1 0 -1.4143 1.4143l2.0834 2.0838a10.969 10.969 0 0 1 -14.0672 0z"/></g></svg>