<?xml version="1.0"?>
<svg xmlns="http://www.w3.org/2000/svg" viewBox="0 0 32 32" width="512" height="512"><g id="log_in_door_enter" data-name="log, in, door, enter"><path d="M28.1211,3.8789A2.9794,2.9794,0,0,0,26,3H14a3.0033,3.0033,0,0,0-3,3v6a1,1,0,0,0,2,0V6a1.0009,1.0009,0,0,1,1-1H26a1,1,0,0,1,1,1V26a1,1,0,0,1-1,1H14a1.0009,1.0009,0,0,1-1-1V20a1,1,0,0,0-2,0v6a3.0033,3.0033,0,0,0,3,3H26a2.9794,2.9794,0,0,0,2.1211-.8789A3.02,3.02,0,0,0,29,26V6A3.02,3.02,0,0,0,28.1211,3.8789Z"/><path d="M17.293,19.293a1,1,0,1,0,1.414,1.414l3.9994-3.9993a1.0033,1.0033,0,0,0,0-1.4154L18.707,11.293a1,1,0,0,0-1.414,1.414L19.5859,15H4a1,1,0,0,0,0,2H19.5859Z"/></g></svg>
