<?xml version="1.0"?>
<svg xmlns="http://www.w3.org/2000/svg" viewBox="0 0 32 32" width="512" height="512"><g id="mail_email_message" data-name="mail, email, message"><path d="M28,13a1,1,0,0,0-1,1v8a1,1,0,0,1-1,1H6a1,1,0,0,1-1-1V14a1,1,0,0,0-2,0v8a3.0008,3.0008,0,0,0,3,3H26a3.0008,3.0008,0,0,0,3-3V14A1,1,0,0,0,28,13Z"/><path d="M15.4,18.8a1,1,0,0,0,1.2,0l11.8081-8.856A.9992.9992,0,0,0,28.71,8.7124,3.0037,3.0037,0,0,0,26,7H6A3.0037,3.0037,0,0,0,3.29,8.7124a.9992.9992,0,0,0,.3018,1.2314ZM6,9H26a.9888.9888,0,0,1,.28.04L16,16.75,5.72,9.0405A.9888.9888,0,0,1,6,9Z"/></g></svg>
