<?xml version="1.0"?>
<svg xmlns="http://www.w3.org/2000/svg" viewBox="0 0 32 32" width="512" height="512"><g id="mic_microphone_on" data-name="mic, microphone, on"><path d="M16.002,21a3.9732,3.9732,0,0,0,2.8271-1.1709A4.0274,4.0274,0,0,0,20,17.002V6.998A4.0294,4.0294,0,0,0,18.8291,4.17a4.0039,4.0039,0,0,0-5.6582,0A4.0274,4.0274,0,0,0,12,6.998V17.002A4.0294,4.0294,0,0,0,13.1709,19.83,3.9771,3.9771,0,0,0,16.002,21ZM14,6.998a2.01,2.01,0,0,1,.585-1.4126,2.0033,2.0033,0,0,1,2.83,0A2.0117,2.0117,0,0,1,18,6.998V17.002a2.01,2.01,0,0,1-.585,1.4126,2.0513,2.0513,0,0,1-2.83,0A2.0117,2.0117,0,0,1,14,17.002Z"/><path d="M22.9922,13a1,1,0,0,0-1,1v3.01A5.99,5.99,0,0,1,15.998,23,.9981.9981,0,0,0,15,24v3H12a1,1,0,0,0,0,2h8a1,1,0,0,0,0-2H17V24.9312A7.977,7.977,0,0,0,23.9922,17.01V14A1,1,0,0,0,22.9922,13Z"/><path d="M12.3174,23.9531a1,1,0,0,0,.5293-1.8491,6.0942,6.0942,0,0,1-1.084-.8579A5.9534,5.9534,0,0,1,10.0078,17.01V14a1,1,0,0,0-2,0v3.01A7.94,7.94,0,0,0,10.35,22.6611a8.0781,8.0781,0,0,0,1.44,1.1411A.9935.9935,0,0,0,12.3174,23.9531Z"/></g></svg>
