<?xml version="1.0"?>
<svg xmlns="http://www.w3.org/2000/svg" viewBox="0 0 32 32" width="512" height="512"><g id="mic_off_microphone" data-name="mic, off, microphone"><path d="M20,27H17V24a1,1,0,0,0-1-1l-.001,0-.001,0a5.9939,5.9939,0,0,1-3.083-.8545A1,1,0,0,0,11.8857,23.86,7.9866,7.9866,0,0,0,15,24.9321V27H12a1,1,0,0,0,0,2h8a1,1,0,0,0,0-2Z"/><path d="M16.72,20.9355a3.9907,3.9907,0,0,0,2.11-1.1069,4.0332,4.0332,0,0,0,.92-1.4346,1,1,0,0,0-1.875-.6962,2.0224,2.0224,0,0,1-.46.7177,2.0013,2.0013,0,0,1-1.0566.5533,1,1,0,1,0,.3613,1.9667Z"/><path d="M26.7813,7.3755a1,1,0,0,0-1.4063-.1563L20,11.5192V6.998A4.0294,4.0294,0,0,0,18.8291,4.17a4.0039,4.0039,0,0,0-5.6582,0A4.0274,4.0274,0,0,0,12,6.998V17.002a3.981,3.981,0,0,0,.0961.84l-1.6695,1.3355a5.9785,5.9785,0,0,1-.4188-2.1681V14a1,1,0,0,0-2,0v3.01a7.97,7.97,0,0,0,.8042,3.46l-3.437,2.75a1,1,0,0,0,1.25,1.5616l20-16A1,1,0,0,0,26.7813,7.3755ZM14,6.998a2.01,2.01,0,0,1,.585-1.4126,2.0533,2.0533,0,0,1,2.83,0A2.0117,2.0117,0,0,1,18,6.998v6.1213l-4,3.2Z"/><path d="M22.9922,13.8989a1,1,0,0,0-1,1V17.01a5.9525,5.9525,0,0,1-1.7539,4.2353,6.0971,6.0971,0,0,1-1.085.8589A1,1,0,0,0,20.21,23.8022a8.085,8.085,0,0,0,1.4414-1.142,7.9391,7.9391,0,0,0,2.3408-5.65V14.8989A1,1,0,0,0,22.9922,13.8989Z"/></g></svg>
