<?xml version="1.0"?>
<svg xmlns="http://www.w3.org/2000/svg" viewBox="0 0 32 32" width="512" height="512"><g id="mute_off_speaker_volume" data-name="mute, off, speaker, volume"><path d="M26.55,6.165a.9969.9969,0,0,0-.9443-.0839l-4,1.7138a1,1,0,0,0,.788,1.8379L25,8.5166V25.4834l-7.2749-3.1172a1,1,0,1,0-.7881,1.8379l8.669,3.7148A1,1,0,0,0,27,27V7A1,1,0,0,0,26.55,6.165Z"/><path d="M20.3418,4.06a1.0026,1.0026,0,0,0-1.2817.5981l-1.8217,5.01L11.7951,12H6a1,1,0,0,0-1,1v8a1,1,0,0,0,1,1h5.7949l.83.3555L11.06,26.6582a1,1,0,1,0,1.88.6836l8-22A1.0005,1.0005,0,0,0,20.3418,4.06ZM12.394,20.0811A.9933.9933,0,0,0,12,20H7V14h4v3a1,1,0,0,0,2,0V13.6593l3.3013-1.4145-2.9922,8.2283Z"/></g></svg>
