<svg height="512" viewBox="0 0 32 32" width="512" xmlns="http://www.w3.org/2000/svg"><g id="notification_alert_badge" data-name="notification, alert, badge"><path d="m24 3a5 5 0 1 0 5 5 5.0059 5.0059 0 0 0 -5-5zm0 8a3 3 0 1 1 3-3 3.0033 3.0033 0 0 1 -3 3z"/><path d="m26 15a1 1 0 0 0 -1 1v10a1.0009 1.0009 0 0 1 -1 1h-18a1 1 0 0 1 -1-1v-18a1.0013 1.0013 0 0 1 1-1h10a1 1 0 0 0 0-2h-10a3.0033 3.0033 0 0 0 -3 3v18a2.9794 2.9794 0 0 0 .8789 2.1211 3.02 3.02 0 0 0 2.1211.8789h18a3.0033 3.0033 0 0 0 3-3v-10a1 1 0 0 0 -1-1z"/></g></svg>