<svg height="512" viewBox="0 0 32 32" width="512" xmlns="http://www.w3.org/2000/svg"><g id="phone_call_hang_up" data-name="phone, call, hang, up"><path d="m27.5508 6.35-2.2735-2.2748a2.9965 2.9965 0 0 0 -4.538.354l-2.208 3.0293a3.0091 3.0091 0 0 0 -.44 2.6577c.2861.9175.7129 2.2837.9639 3.1279a.951.951 0 0 1 -.0459.6934 12.3528 12.3528 0 0 1 -2.083 2.9834 1 1 0 0 0 1.414 1.4141 14.1053 14.1053 0 0 0 2.458-3.5054 2.9374 2.9374 0 0 0 .17-2.169c-.2481-.8369-.6788-2.2148-.9678-3.14a1 1 0 0 1 .1455-.8838l2.209-3.03a.9973.9973 0 0 1 1.5093-.1168l.67.67-2.0079 3.0968a1 1 0 1 0 1.6777 1.0879l1.7751-2.7377.1556.1557a2.5262 2.5262 0 0 1 .6777 1.8745c-.01 1.7612-1.1855 5.0029-6.73 10.4439-5.8071 5.6989-10.4155 7.9677-12.3305 6.0678l-2.2735-2.2749a.9957.9957 0 0 1 .1172-1.5073l3.0293-2.2085a.9923.9923 0 0 1 .8828-.1455l1.8933.5906-2.1611 1.51a1 1 0 0 0 1.1465 1.64l3.8311-2.6772a1 1 0 0 0 .2461-1.3926.977.977 0 0 0 -.5256-.3656l.0051-.0162-3.84-1.1978a3.0039 3.0039 0 0 0 -2.6562.4385l-3.03 2.2085a2.9956 2.9956 0 0 0 -.3516 4.5386l2.2746 2.2759a4.2956 4.2956 0 0 0 3.1436 1.2608c2.5273 0 6.3232-1.7466 12-7.3174 4.8457-4.7554 7.3115-8.7456 7.3291-11.86a4.48 4.48 0 0 0 -1.2619-3.2988z"/></g></svg>