<?xml version="1.0"?>
<svg xmlns="http://www.w3.org/2000/svg" viewBox="0 0 32 32" width="512" height="512"><g id="photo_camera_picture" data-name="photo, camera, picture"><path d="M26,9H22.6182L20.8945,5.5527A1,1,0,0,0,20,5H12a1,1,0,0,0-.8945.5527L9.3818,9H6a3.0033,3.0033,0,0,0-3,3V24a3.0033,3.0033,0,0,0,3,3H18a1,1,0,0,0,0-2H6a1.0009,1.0009,0,0,1-1-1V12a1.0013,1.0013,0,0,1,1-1h4a.9468.9468,0,0,0,.1364-.0275.9894.9894,0,0,0,.2163-.0437.959.959,0,0,0,.1591-.09.9512.9512,0,0,0,.1636-.11.98.98,0,0,0,.1282-.1646.93.93,0,0,0,.0909-.1166L12.6182,7h6.7636l1,2H14a1,1,0,0,0,0,2H26a1.0013,1.0013,0,0,1,1,1V24a1.0009,1.0009,0,0,1-1,1H22a1,1,0,0,0,0,2h4a3.0033,3.0033,0,0,0,3-3V12A3.0033,3.0033,0,0,0,26,9Z"/><path d="M16,13a5,5,0,1,0,5,5A5.0059,5.0059,0,0,0,16,13Zm0,8a3,3,0,1,1,3-3A3.0033,3.0033,0,0,1,16,21Z"/></g></svg>
