<?xml version="1.0"?>
<svg xmlns="http://www.w3.org/2000/svg" viewBox="0 0 32 32" width="512" height="512"><g id="pin_bookmark_mark" data-name="pin, bookmark, mark"><path d="M26.707,11.293l-6-6A1,1,0,0,0,19,6V8.3086l-7.6587,5.3769H6a1.0012,1.0012,0,0,0-.7062,1.7079l3.69,3.69L5.1426,25.4854a1,1,0,0,0,1.372,1.372L12.916,23.016l3.6909,3.691A1,1,0,0,0,18.314,26V20.6455l3.226-4.8389a1,1,0,1,0-1.664-1.1093l-3.3941,5.0908a1.0013,1.0013,0,0,0-.1679.5547v3.2431l-7.9-7.9h3.2432a1,1,0,0,0,.5747-.1816l8.3428-5.8574A1,1,0,0,0,21,8.8281v-.414L23.5859,11h-.414a1,1,0,0,0,0,2H26a1,1,0,0,0,.707-1.707ZM8.916,23.084l1.5257-2.5425,1.0167,1.0167Z"/></g></svg>
