<?xml version="1.0"?>
<svg xmlns="http://www.w3.org/2000/svg" viewBox="0 0 32 32" width="512" height="512"><g id="print_printer_office_work" data-name="print, printer, office, work"><path d="M28,13H27V10a1,1,0,0,0-1-1H21.9561V6a1,1,0,0,0-.293-.707l-2-2A.9993.9993,0,0,0,18.9561,3h-8a1,1,0,0,0-1,1V9H6a1,1,0,0,0-1,1v3H4a1,1,0,0,0-1,1V24a1,1,0,0,0,1,1H6.9971a1,1,0,0,0,0-2H5V15H22a1,1,0,0,0,0-2H7V11h3.9561a1,1,0,0,0,1-1V5H18.542l1.4141,1.4141V9H14.99a1,1,0,0,0,0,2H25v3a1,1,0,0,0,1,1h1v8H20.9561a.9994.9994,0,0,0-1,1v3h-8V23h5a1,1,0,0,0,0-2h-6a.9994.9994,0,0,0-1,1v6a.9994.9994,0,0,0,1,1h10a1,1,0,0,0,1-1V25H28a1,1,0,0,0,1-1V14A1,1,0,0,0,28,13Z"/><circle cx="24" cy="18" r="1"/></g></svg>
