<svg height="512" viewBox="0 0 32 32" width="512" xmlns="http://www.w3.org/2000/svg"><g id="remove_friend_contact" data-name="remove, friend, contact"><path d="m16.3979 19.2617a.9992.9992 0 0 0 -.0649 1.4121 6.5573 6.5573 0 0 1 1.667 4.4453c0 .6631-2.0884 1.8809-5.5 1.8809s-5.5-1.2187-5.5-1.8818a6.6583 6.6583 0 0 1 1.6455-4.4219 1 1 0 1 0 -1.4853-1.34 8.568 8.568 0 0 0 -2.1602 5.7628c0 2.2129 3.2241 3.8809 7.5 3.8809s7.5-1.668 7.5-3.8809a8.5483 8.5483 0 0 0 -2.1895-5.7929.998.998 0 0 0 -1.4126-.0645z"/><path d="m26 7h-8a1 1 0 0 0 0 2h8a1 1 0 0 0 0-2z"/><path d="m12.5 19a5 5 0 1 0 -5-5 5.0059 5.0059 0 0 0 5 5zm0-8a3 3 0 1 1 -3 3 3.0033 3.0033 0 0 1 3-3z"/></g></svg>