<svg height="512" viewBox="0 0 32 32" width="512" xmlns="http://www.w3.org/2000/svg"><g id="search_magnify_glass_zoom" data-name="search, magnify, glass, zoom"><path d="m28.104 23.708-4.209-4.209a2.9952 2.9952 0 0 0 -3.4048-.5752l-1.453-1.453a8.9986 8.9986 0 0 0 -4.6993-14.3082 1 1 0 0 0 -.5179 1.9316 7.0013 7.0013 0 1 1 -5.3115.6993 1 1 0 1 0 -1.002-1.731 8.9987 8.9987 0 1 0 9 15.5854 9.0915 9.0915 0 0 0 1.1109-.7684l1.46 1.46a2.995 2.995 0 0 0 .5762 3.4044l4.26 4.2592a2.9786 2.9786 0 0 0 2.0942.8687 2.9416 2.9416 0 0 0 2.0943-.8682l.0019-.001a3.04 3.04 0 0 0 0-4.2946zm-1.4141 2.88-.0019.001a.9935.9935 0 0 1 -1.36 0l-4.26-4.26a1.0009 1.0009 0 0 1 0-1.4141l.019-.02a1 1 0 0 1 1.3936.0176l4.2094 4.209a1.0381 1.0381 0 0 1 0 1.4669z"/></g></svg>