<svg id="setting_tunning_option" height="512" viewBox="0 0 32 32" width="512" xmlns="http://www.w3.org/2000/svg" data-name="setting, tunning, option"><path d="m6 9.293h13.17a2.9965 2.9965 0 0 0 .709 1.122 1.0006 1.0006 0 0 0 1.414-1.416.9973.9973 0 0 1 .0009-1.4131 1.0186 1.0186 0 0 1 1.4131.001.9972.9972 0 0 1 0 1.4121 1.0006 1.0006 0 0 0 1.4141 1.416 3.0012 3.0012 0 0 0 .001-4.2431 3.0757 3.0757 0 0 0 -4.2432-.001 2.9977 2.9977 0 0 0 -.7089 1.1221h-13.17a1 1 0 0 0 0 2z"/><path d="m26 15.293h-13.17a2.9836 2.9836 0 0 0 -.708-1.1211 3.0757 3.0757 0 0 0 -4.2432-.001 3.0012 3.0012 0 0 0 0 4.2441 1.0006 1.0006 0 0 0 1.4142-1.416.9973.9973 0 0 1 .0009-1.4131 1.0186 1.0186 0 0 1 1.4131.001.9972.9972 0 0 1 0 1.4121 1.0006 1.0006 0 0 0 1.4141 1.416 2.9965 2.9965 0 0 0 .709-1.122h13.1699a1 1 0 0 0 0-2z"/><path d="m19.8789 22.1709a2.9977 2.9977 0 0 0 -.709 1.1221h-13.1699a1 1 0 0 0 0 2h13.17a2.9965 2.9965 0 0 0 .709 1.122 1.0006 1.0006 0 0 0 1.4141-1.416.9973.9973 0 0 1 .0009-1.4131 1.0186 1.0186 0 0 1 1.4131.001.9972.9972 0 0 1 0 1.4121 1.0006 1.0006 0 0 0 1.4141 1.416 3.0012 3.0012 0 0 0 .001-4.2431 3.0757 3.0757 0 0 0 -4.2433-.001z"/></svg>