<svg height="512" viewBox="0 0 32 32" width="512" xmlns="http://www.w3.org/2000/svg"><g id="share_sharing_network_social" data-name="share, sharing, network, social"><path d="m20.7627 17.5a3.9846 3.9846 0 0 0 -2.85 1.2l-2.837-1.638a3.5769 3.5769 0 0 0 0-2.1234l3.5843-2.0696.0067-.0023a.99.99 0 0 0 .3954-1.2742.9568.9568 0 0 0 -.0311-.0925 2 2 0 1 1 1.7318 1 1 1 0 1 0 0 2 4.0111 4.0111 0 1 0 -3.8518-2.9308l-2.8243 1.6308a3.998 3.998 0 0 0 -6.3133 4.802 1.0007 1.0007 0 0 0 1.7325-1.002 2 2 0 1 1 1.7314 1 1 1 0 1 0 0 2 3.9846 3.9846 0 0 0 2.85-1.2l2.837 1.638a3.9488 3.9488 0 0 0 -.1616 1.062 3.9973 3.9973 0 0 0 .5381 2.002 1 1 0 1 0 1.7305-1.002 2 2 0 1 1 1.7314 1 1 1 0 1 0 0 2 4 4 0 0 0 0-8z"/></g></svg>