<svg height="512" viewBox="0 0 32 32" width="512" xmlns="http://www.w3.org/2000/svg"><g id="star_rating_review_full" data-name="star, rating, review, full"><path d="m19.55 19.1494a1.0006 1.0006 0 0 0 1.3975.2217l7.0537-5.124a1 1 0 0 0 -.5879-1.8091h-7.9924l-2.47-7.6011a1 1 0 0 0 -1.9024 0l-2.47 7.6011h-7.9916a1 1 0 0 0 -.5879 1.8091l6.4658 4.6963-2.4687 7.6015a1 1 0 0 0 1.5391 1.1172l6.4648-4.6953 6.4648 4.6953a1 1 0 0 0 1.5391-1.1172l-1.582-4.8691a1 1 0 1 0 -1.9024.6172l.6309 1.9433-4.5625-3.3144a.9964.9964 0 0 0 -1.1758 0l-4.5635 3.3144 1.7432-5.3663a1 1 0 0 0 -.3633-1.1181l-4.5635-3.3139h5.6407a1 1 0 0 0 .9511-.6909l1.7432-5.3653 1.7432 5.3653a1 1 0 0 0 .9511.6909h5.6407l-4.5635 3.314a1.0016 1.0016 0 0 0 -.2215 1.3974z"/></g></svg>