<svg height="512" viewBox="0 0 32 32" width="512" xmlns="http://www.w3.org/2000/svg"><g id="trash_can_delete_remove" data-name="trash, can, delete, remove"><path d="m26 7h-5v-3a1 1 0 0 0 -1-1h-8a1 1 0 0 0 -1 1v3h-5a1 1 0 0 0 0 2h20a1 1 0 0 0 0-2zm-13-2h6v2h-6z"/><path d="m24 11a1 1 0 0 0 -1 1v14a1.0006 1.0006 0 0 1 -1 1h-12a1.0006 1.0006 0 0 1 -1-1v-14a1 1 0 0 0 -2 0v14a3.0033 3.0033 0 0 0 3 3h12a3.0033 3.0033 0 0 0 3-3v-14a1 1 0 0 0 -1-1z"/><path d="m15.02 22v-8a1 1 0 0 0 -2 0v8a1 1 0 0 0 2 0z"/><path d="m18.9805 22v-8a1 1 0 0 0 -2 0v8a1 1 0 0 0 2 0z"/></g></svg>