<?xml version="1.0"?>
<svg xmlns="http://www.w3.org/2000/svg" viewBox="0 0 32 32" width="512" height="512"><g id="video_call_record" data-name="video, call, record"><path d="M28.5693,9.1782a1.0044,1.0044,0,0,0-.9209-.1147L21,11.5566V10a3.0033,3.0033,0,0,0-3-3H6a3.0033,3.0033,0,0,0-3,3V22a3.02,3.02,0,0,0,.8789,2.1211A2.9794,2.9794,0,0,0,6,25h9.4287a1,1,0,0,0,0-2H6a1,1,0,0,1-1-1V10A1.0009,1.0009,0,0,1,6,9H18a1.0009,1.0009,0,0,1,1,1V24a1,1,0,0,0,2,0V20.4434l6.6484,2.4931A1.0087,1.0087,0,0,0,28,23a1.0007,1.0007,0,0,0,1-1V10A.9994.9994,0,0,0,28.5693,9.1782ZM27,20.5571l-6-2.25V13.6933l6-2.25Z"/></g></svg>
