<?xml version="1.0"?>
<svg xmlns="http://www.w3.org/2000/svg" viewBox="0 0 32 32" width="512" height="512"><g id="world_internet_www" data-name="world, internet, www"><path d="M16,3A13,13,0,1,0,29,16,13.0147,13.0147,0,0,0,16,3Zm6.69,16.91A24.1835,24.1835,0,0,0,23,16a24.0137,24.0137,0,0,0-.32-3.9111C25.3717,13.075,27,14.5837,27,16,27,17.4693,25.314,18.951,22.69,19.91ZM5,16c0-1.4693,1.686-2.951,4.31-3.9095a24.4282,24.4282,0,0,0,.01,7.8206C6.6283,18.925,5,17.4163,5,16ZM11.4984,5.9739A14.2944,14.2944,0,0,0,9.8157,9.8221a14.2557,14.2557,0,0,0-3.8375,1.6672A11.0553,11.0553,0,0,1,11.4984,5.9739ZM5.9736,20.5011a14.7317,14.7317,0,0,0,4.3112,1.8015c.0311.0115.0635.0158.0956.0244A23.0438,23.0438,0,0,0,16,23q.8971,0,1.7607-.0615a.9988.9988,0,0,0,.9268-1.0674.985.985,0,0,0-1.0684-.9268Q16.8267,21,16,21a21.4053,21.4053,0,0,1-4.5245-.4658A21.4167,21.4167,0,0,1,11,16c0-6.4824,2.6353-11,5-11,.9956,0,2.021.7607,2.8867,2.1416a1,1,0,1,0,1.6944-1.0625c-.0223-.0354-.0467-.0654-.0691-.1a11.0549,11.0549,0,0,1,5.5144,5.52A14.8513,14.8513,0,0,0,21.5726,9.661c-.0238-.0051-.0452-.0144-.0694-.0178A23.1246,23.1246,0,0,0,16,9q-.8971,0-1.7607.0615a.9988.9988,0,0,0-.9268,1.0674.9866.9866,0,0,0,1.0684.9268Q15.1734,11,16,11a21.4053,21.4053,0,0,1,4.5245.4658A21.416,21.416,0,0,1,21,16c0,6.4824-2.6353,11-5,11-.9956,0-2.021-.7607-2.8867-2.1416a1,1,0,1,0-1.6944,1.0625c.0223.0354.0467.0654.0691.1A11.0549,11.0549,0,0,1,5.9736,20.5011Zm14.528,5.525a14.2944,14.2944,0,0,0,1.6827-3.8482,14.2557,14.2557,0,0,0,3.8375-1.6672A11.0553,11.0553,0,0,1,20.5016,26.0261Z"/></g></svg>
