<svg height="512" viewBox="0 0 32 32" width="512" xmlns="http://www.w3.org/2000/svg"><g id="zoom_in_magnifying_glass" data-name="zoom, in, magnifying, glass"><path d="m28.1221 23.7422-4.2344-4.2354a2.9972 2.9972 0 0 0 -3.4047-.5749l-1.453-1.4532a8.9978 8.9978 0 0 0 -4.7-14.3078 1 1 0 0 0 -.5176 1.9316 7 7 0 1 1 -5.31.6983 1 1 0 0 0 -1.0024-1.7308 8.9989 8.9989 0 1 0 9 15.586 9.1256 9.1256 0 0 0 1.111-.7688l1.458 1.4586a2.9953 2.9953 0 0 0 .5755 3.4049l4.2355 4.2337a3 3 0 0 0 4.2422-4.2422zm-1.4141 2.8278a1.0014 1.0014 0 0 1 -1.4141-.001l-4.2339-4.2321a1 1 0 0 1 -.0088-1.4043l.0068-.0068.0029-.002.002-.0029.0068-.0068a1 1 0 0 1 1.4043.0078l4.2334 4.2344a1 1 0 0 1 .0006 1.4137z"/><path d="m8.001 10.8633a1 1 0 1 0 0 2h3v3a1 1 0 1 0 2 0v-3h3a1 1 0 0 0 0-2h-3v-3a1 1 0 0 0 -2 0v3z"/></g></svg>