<svg height="512" viewBox="0 0 32 32" width="512" xmlns="http://www.w3.org/2000/svg"><g id="analysis_graph_goal_purpose" data-name="analysis, graph, goal, purpose"><path d="m12.19 15.08 7.57 1.92a1 1 0 0 0 .95-.26l6-6a1 1 0 0 0 .21-.33 1 1 0 0 0 .08-.41v-2a3 3 0 0 0 -3-3h-16a3 3 0 0 0 -3 3v6a1 1 0 0 0 2 0v-6a1 1 0 0 1 1-1h16a1 1 0 0 1 1 1v1.59l-5.31 5.3-7.45-1.89a1 1 0 0 0 -.79.14l-6 4-.07.06-.15.15a1.3 1.3 0 0 0 -.1.15 1.34 1.34 0 0 0 -.07.18 1.18 1.18 0 0 0 0 .2s-.06.12-.06.12v6a3 3 0 0 0 3 3h16a3 3 0 0 0 3-3v-9a1 1 0 0 0 -2 0v9a1 1 0 0 1 -1 1h-16a1 1 0 0 1 -1-1v-5.46z"/></g></svg>