<?xml version="1.0"?>
<svg xmlns="http://www.w3.org/2000/svg" viewBox="0 0 32 32" width="512" height="512"><g id="bank_building_saving" data-name="bank, building, saving"><path d="M28.89,27.55l-2-4A1,1,0,0,0,26,23H25V11h3a1,1,0,0,0,.45-1.89l-12-6a1,1,0,0,0-.9,0l-12,6A1,1,0,0,0,4,11H7V23H6a1,1,0,0,0-.89.55l-2,4A1,1,0,0,0,4,29H24a1,1,0,0,0,0-2H5.62l1-2H25.38l1.73,3.45A1,1,0,0,0,28,29a.93.93,0,0,0,.45-.11A1,1,0,0,0,28.89,27.55ZM23,23H21V11h2ZM9,10a1.16,1.16,0,0,0-.07-.37l-.06-.1a.9.9,0,0,0-.14-.2.81.81,0,0,0-.1-.09l-.19-.13-.13,0L8.2,9,16,5.12,23.76,9H12a1,1,0,0,0,0,2h7V23H13V14a1,1,0,0,0-2,0v9H9Z"/></g></svg>
