<svg height="512" viewBox="0 0 32 32" width="512" xmlns="http://www.w3.org/2000/svg"><g id="box_deposit_safe" data-name="box, deposit, safe"><path d="m26 8a1 1 0 0 0 -1 1v15h-11a1 1 0 0 0 0 2h7v1a1 1 0 0 0 2 0v-1h3a1 1 0 0 0 1-1v-16a1 1 0 0 0 -1-1z"/><path d="m15 19.9v.74a1 1 0 0 0 2 0v-.74a5 5 0 0 0 3.9-3.9h.76a1 1 0 0 0 0-2h-.77a5 5 0 0 0 -1-2.1 1 1 0 0 0 -1.57 1.24 3 3 0 0 1 .68 1.86 3 3 0 1 1 -3-3 1 1 0 0 0 1-1v-2a1 1 0 0 0 -2 0v1.1a5 5 0 0 0 -3.9 3.9h-.76a1 1 0 0 0 0 2h.76a5 5 0 0 0 3.9 3.9z"/><path d="m10 24h-3v-18h19a1 1 0 0 0 0-2h-20a1 1 0 0 0 -1 1v20a1 1 0 0 0 1 1h3v1a1 1 0 0 0 2 0v-2a1 1 0 0 0 -1-1z"/></g></svg>