<svg height="512" viewBox="0 0 32 32" width="512" xmlns="http://www.w3.org/2000/svg"><g id="building_office_work_job" data-name="building, office, work, job"><path d="m10 27h-3v-18h19a1 1 0 0 0 0-2h-1v-3a1 1 0 0 0 -1-1h-16a1 1 0 0 0 -1 1v3h-1a1 1 0 0 0 -1 1v20a1 1 0 0 0 1 1h4a1 1 0 0 0 0-2zm-1-22h14v2h-14z"/><path d="m26 11a1 1 0 0 0 -1 1v15h-6v-5a1 1 0 0 0 -1-1h-4a1 1 0 0 0 -1 1v6a1 1 0 0 0 2 0v-5h2v5a1 1 0 0 0 1 1h8a1 1 0 0 0 1-1v-16a1 1 0 0 0 -1-1z"/><path d="m22 11h-12a1 1 0 0 0 0 2h12a1 1 0 0 0 0-2z"/><path d="m22 15h-12a1 1 0 0 0 0 2h12a1 1 0 0 0 0-2z"/></g></svg>