<svg height="512" viewBox="0 0 32 32" width="512" xmlns="http://www.w3.org/2000/svg"><g id="choice_decision_success_check" data-name="choice, decision, success, check"><path d="m19.5 22a4 4 0 1 0 -6.62 3 4 4 0 0 0 -1.38 3 1 1 0 0 0 2 0 2 2 0 0 1 4 0 1 1 0 0 0 2 0 4 4 0 0 0 -1.38-3 4 4 0 0 0 1.38-3zm-6 0a2 2 0 1 1 2 2 2 2 0 0 1 -2-2z"/><path d="m22.21 11.29a1 1 0 0 0 -.33-.21 1 1 0 0 0 -.76 0 1 1 0 0 0 -.33.21l-2 2a1 1 0 0 0 1.42 1.42l.29-.3v3.59a1 1 0 0 0 2 0v-3.59l.29.3a1 1 0 0 0 1.42 0 1 1 0 0 0 0-1.42z"/><path d="m11.5 15a1 1 0 0 0 .71-.29 1 1 0 0 0 0-1.42l-2-2a1 1 0 0 0 -.33-.21 1 1 0 0 0 -.76 0 1 1 0 0 0 -.33.21l-2 2a1 1 0 1 0 1.42 1.42l.29-.3v3.59a1 1 0 0 0 2 0v-3.59l.29.3a1 1 0 0 0 .71.29z"/><path d="m6.79 8.71a1 1 0 0 0 1.42 0l1.29-1.3 1.29 1.3a1 1 0 0 0 1.42 0 1 1 0 0 0 0-1.42l-1.3-1.29 1.3-1.29a1 1 0 1 0 -1.42-1.42l-1.29 1.3-1.29-1.3a1 1 0 1 0 -1.42 1.42l1.3 1.29-1.3 1.29a1 1 0 0 0 0 1.42z"/><path d="m25.21 3.29a1 1 0 0 0 -1.42 0l-3.29 3.3-1.29-1.3a1 1 0 0 0 -1.42 1.42l2 2a1 1 0 0 0 1.42 0l4-4a1 1 0 0 0 0-1.42z"/></g></svg>