<svg height="512" viewBox="0 0 32 32" width="512" xmlns="http://www.w3.org/2000/svg"><g id="discussion_communication_dealing_chatting" data-name="discussion, communication, dealing, chatting"><path d="m18 13h-12a3 3 0 0 0 -3 3v12a1 1 0 0 0 2 0v-12a1 1 0 0 1 1-1h12a1 1 0 0 1 1 1v6a1 1 0 0 1 -1 1h-4c-4.3 0-5.59 1.06-6.74 2.33a1 1 0 0 0 1.5 1.34c.75-.86 1.47-1.67 5.24-1.67h4a3 3 0 0 0 3-3v-6a3 3 0 0 0 -.88-2.12 3 3 0 0 0 -2.12-.88z" fill-rule="evenodd"/><circle cx="16" cy="20" r="1"/><circle cx="12" cy="20" r="1"/><circle cx="8" cy="20" r="1"/><path d="m26 3h-12a3 3 0 0 0 -3 3v4a1 1 0 0 0 2 0v-4a1 1 0 0 1 1-1h12a1 1 0 0 1 1 1v9.87a6.55 6.55 0 0 0 -2.94-.87 1 1 0 1 0 -.12 2 4.53 4.53 0 0 1 3.31 1.66 1 1 0 0 0 .75.34 1 1 0 0 0 .35-.06 1 1 0 0 0 .65-.94v-12a3 3 0 0 0 -3-3z" fill-rule="evenodd"/><circle cx="16" cy="10" r="1"/><circle cx="20" cy="10" r="1"/><circle cx="24" cy="10" r="1"/></g></svg>