<svg height="512" viewBox="0 0 32 32" width="512" xmlns="http://www.w3.org/2000/svg"><g id="document_note_agreement_task" data-name="document, note, agreement, task"><path d="m24 14a1 1 0 0 0 -1 1v11h-14v-20h8v5a1 1 0 0 0 1 1h6a1 1 0 0 0 0-2h-5v-2.59l1.29 1.3a1 1 0 0 0 .71.29 1 1 0 0 0 .71-.29 1 1 0 0 0 0-1.42l-3-3a1 1 0 0 0 -.33-.21 1 1 0 0 0 -.38-.08h-10a1 1 0 0 0 -1 1v22a1 1 0 0 0 1 1h16a1 1 0 0 0 1-1v-12a1 1 0 0 0 -1-1z"/><path d="m12 12h2a1 1 0 0 0 0-2h-2a1 1 0 0 0 0 2z"/><path d="m20 14h-8a1 1 0 0 0 0 2h8a1 1 0 0 0 0-2z"/><path d="m20 22h-2a1 1 0 0 0 0 2h2a1 1 0 0 0 0-2z"/><path d="m20 18h-8a1 1 0 0 0 0 2h8a1 1 0 0 0 0-2z"/></g></svg>