<svg height="512" viewBox="0 0 32 32" width="512" xmlns="http://www.w3.org/2000/svg"><g id="goal_success_rocket_startup" data-name="goal, success, rocket, startup"><path d="m26.55 15.17-5.76-3.84a14.78 14.78 0 0 0 -4.08-8 1 1 0 0 0 -1.42 0 14.78 14.78 0 0 0 -4.08 8l-5.76 3.84a1 1 0 0 0 -.45.83v4a1 1 0 0 0 1 1h2a1 1 0 0 0 0-2h-1v-2.46l4-2.67v6.13a1 1 0 0 0 1 1h8a1 1 0 0 0 1-1v-6.13l4 2.67v2.46h-1a1 1 0 0 0 0 2h2a1 1 0 0 0 1-1v-4a1 1 0 0 0 -.45-.83zm-7.55 3.83h-6v-5.34a12.72 12.72 0 0 1 3-8.18 12.72 12.72 0 0 1 3 8.18z"/><path d="m20 23a1 1 0 0 0 0 2 3 3 0 0 1 2.83 2h-13.66a3 3 0 0 1 2.83-2 1 1 0 0 0 0-2 5 5 0 0 0 -5 5 1 1 0 0 0 .29.71 1.05 1.05 0 0 0 .71.29h16a1 1 0 0 0 1-1 5 5 0 0 0 -5-5z"/></g></svg>