<svg id="svg13" height="512" viewBox="0 0 32 32" width="512" xmlns="http://www.w3.org/2000/svg" xmlns:svg="http://www.w3.org/2000/svg"><g id="handshake_deal_agreement" data-name="handshake, deal, agreement"><path id="path4" d="m16.66 21.59c-.60644.908112-1.764065 1.27039-2.78.87l-7.51-3c-.1166322-.051482-.2425177-.0787-.37-.08h-2c-1.3333328 0-1.3333328 2 0 2h1.81l7.33 2.93c.501453.205243 1.038171.310548 1.58.31 1.444778-.000888 2.794387-.720679 3.6-1.92l2.51-3.77c.555815-1.011831-.804156-2.133359-1.66-1.1z"/><path id="path6" d="m28 19.38h-2a1 1 0 0 0 -.45.11l-4 2a1 1 0 0 0 -.44 1.34 1 1 0 0 0 .89.55.93.93 0 0 0 .45-.11l3.79-1.89h1.76a1 1 0 0 0 0-2z"/><path id="path8" d="m28.27 9.42-4.99-1.42c-1.435617-.4019889-2.919167-.6071966-4.41-.61h-1.17c-1.342195-.00814-2.636919.4961593-3.62 1.41l-3.74 3.47c-1.2276887 1.138948-1.166408 3.09993.13 4.16l.15.12c.731184.595301 1.717082.772839 2.61.47l5.09-1.69c1.047855-.467797.51141-2.145795-.64-1.9l-5.08 1.7c-.275203.08334-.573954.01057-.78-.19l-.08-.06c-.176264-.132198-.28-.33967-.28-.56-.01145-.219614.07672-.432686.24-.58l3.74-3.47c.611126-.5758255 1.42034-.8944984 2.26-.89h1.17c1.305551-.0008601 2.604806.1809009 3.86.54l4.27 1.21v5.25c0 1.333333 2 1.333333 2 0v-6c-.00128-.4472384-.29937-.839247-.73-.96z"/><path id="path10" d="m4 17.38a1 1 0 0 0 1-1v-5.38l6.23-1.65a1 1 0 0 0 -.51-1.94l-7 1.86a1 1 0 0 0 -.74 1v6.15a1 1 0 0 0 1.02.96z"/></g></svg>