<svg height="512" viewBox="0 0 32 32" width="512" xmlns="http://www.w3.org/2000/svg"><g id="idea_creative_innovative_lamp" data-name="idea, creative, innovative, lamp"><path d="m16 3a9 9 0 0 0 -9 9 8.91 8.91 0 0 0 3 6.68 3 3 0 0 1 1 2.24v3.08a1 1 0 0 0 1 1h4a1 1 0 0 0 0-2h-3v-2.08a5 5 0 0 0 -1.66-3.73 6.9 6.9 0 0 1 -2.34-5.19 7 7 0 1 1 11.67 5.21 5 5 0 0 0 -1.67 3.69v3.1h2s0-1.65 0-3.08a3 3 0 0 1 1-2.22 9 9 0 0 0 -6-15.7z"/><path d="m18 27h-4a1 1 0 0 0 0 2h4a1 1 0 0 0 0-2z"/><path d="m16 21a1 1 0 0 0 1-1v-3.18a3 3 0 0 0 2-2.82 1 1 0 0 0 -2 0 1 1 0 0 1 -2 0 1 1 0 0 0 -2 0 3 3 0 0 0 2 2.82v3.18a1 1 0 0 0 1 1z"/></g></svg>