<svg height="512" viewBox="0 0 32 32" width="512" xmlns="http://www.w3.org/2000/svg"><g id="interview_communication_hire" data-name="interview, communication, hire"><path d="m13 19a4 4 0 1 0 -6.62 3 4 4 0 0 0 -1.38 3v3a1 1 0 0 0 1 1h2a1 1 0 0 0 0-2h-1v-2a2 2 0 0 1 4 0v3a1 1 0 0 0 2 0v-3a4 4 0 0 0 -1.38-3 4 4 0 0 0 1.38-3zm-6 0a2 2 0 1 1 2 2 2 2 0 0 1 -2-2z"/><path d="m25.62 22a4 4 0 1 0 -5.24 0 4 4 0 0 0 -1.38 3v3a1 1 0 0 0 2 0v-3a2 2 0 0 1 4 0v2h-1a1 1 0 0 0 0 2h2a1 1 0 0 0 1-1v-3a4 4 0 0 0 -1.38-3zm-4.62-3a2 2 0 1 1 2 2 2 2 0 0 1 -2-2z"/><path d="m8 13a1 1 0 0 0 1-1v-6a1 1 0 0 1 1-1h10a1 1 0 0 1 1 1v2a1 1 0 0 1 -.3.71 1 1 0 0 1 -.7.29h-8a1 1 0 0 0 0 2h8a3 3 0 0 0 3-3v-2a3 3 0 0 0 -3-3h-10a3 3 0 0 0 -3 3v6a1 1 0 0 0 1 1z"/></g></svg>