<svg height="512" viewBox="0 0 32 32" width="512" xmlns="http://www.w3.org/2000/svg"><g id="key_success_goal_target" data-name="key, success, goal, target"><path d="m10 13a3 3 0 1 0 3 3 3 3 0 0 0 -3-3zm0 4a1 1 0 1 1 1-1 1 1 0 0 1 -1 1z"/><path d="m28.71 15.29-2-2a1 1 0 0 0 -.71-.29h-10.34a1 1 0 0 0 0 2h9.93l1.41 1.41v2.59h-.59l-1.7-1.71a1 1 0 0 0 -.71-.29h-2a1 1 0 0 0 -.71.29l-1.29 1.3-1.29-1.3a1 1 0 0 0 -.71-.29h-2.34a1 1 0 0 0 -.94.67 5 5 0 1 1 -1.92-5.81 1 1 0 0 0 1.12-1.66 7 7 0 1 0 2.41 8.8h1.26l1.7 1.71a1 1 0 0 0 1.42 0l1.7-1.71h1.18l1.7 1.71a1 1 0 0 0 .71.29h2a1 1 0 0 0 1-1v-4a1 1 0 0 0 -.29-.71z"/></g></svg>