<svg height="512" viewBox="0 0 32 32" width="512" xmlns="http://www.w3.org/2000/svg"><g id="money_cash_pay_payment" data-name="money, cash, pay, payment"><path d="m28 11a1 1 0 0 0 -1 1v11.26a18 18 0 0 1 -10.68-.21 20.19 20.19 0 0 0 -11.32-.39v-13.92a18 18 0 0 1 10.68.26 20.09 20.09 0 0 0 12.64 0 1 1 0 1 0 -.64-1.9 18.09 18.09 0 0 1 -11.36 0 20.09 20.09 0 0 0 -12.64 0 1 1 0 0 0 -.68.9v16a1 1 0 0 0 .42.81 1 1 0 0 0 .9.14 18.09 18.09 0 0 1 11.36 0 20.09 20.09 0 0 0 12.64 0 1 1 0 0 0 .68-.95v-12a1 1 0 0 0 -1-1z"/><path d="m12.11 10.14a18.61 18.61 0 0 0 -4.22 0 1 1 0 0 0 .11 2h.1a17.15 17.15 0 0 1 3.79 0 1 1 0 0 0 .22-2z"/><path d="m19.89 22c.73.07 1.43.11 2.13.11s1.38 0 2.09-.11a1 1 0 0 0 .89-1.09 1 1 0 0 0 -1.1-.88 17.06 17.06 0 0 1 -3.78 0 1 1 0 1 0 -.22 2z"/><path d="m16 20a4 4 0 1 0 -4-4 4 4 0 0 0 4 4zm0-6a2 2 0 1 1 -2 2 2 2 0 0 1 2-2z"/></g></svg>