<svg height="512" viewBox="0 0 32 32" width="512" xmlns="http://www.w3.org/2000/svg"><g id="presentation_training_profit_success" data-name="presentation, training, profit, success"><path d="m27.62 21a4 4 0 1 0 -5.24 0 4 4 0 0 0 -1.38 3v3a1 1 0 0 0 1 1h2a1 1 0 0 0 0-2h-1v-2a2 2 0 0 1 4 0v3a1 1 0 0 0 2 0v-3a4 4 0 0 0 -1.38-3zm-4.62-3a2 2 0 1 1 2 2 2 2 0 0 1 -2-2z"/><path d="m18 20h-13v-14h18v5a1 1 0 0 0 2 0v-6a1 1 0 0 0 -1-1h-20a1 1 0 0 0 -1 1v16a1 1 0 0 0 1 1h14a1 1 0 0 0 0-2z"/><path d="m19.17 8.45-3.51 5.26-3.21-1.6a1 1 0 0 0 -1.16.18l-4 4a1 1 0 0 0 0 1.42 1 1 0 0 0 1.42 0l3.49-3.49 3.35 1.67a1 1 0 0 0 1.28-.34l4-6a1 1 0 1 0 -1.66-1.1z"/></g></svg>