<?xml version="1.0"?>
<svg xmlns="http://www.w3.org/2000/svg" viewBox="0 0 32 32" width="512" height="512"><g id="rearrange_employee_decision" data-name="rearrange, employee, decision"><path d="M5.58,12.58A2,2,0,0,1,7,12a2,2,0,0,1,2,2,1,1,0,0,0,2,0,4,4,0,0,0-1.38-3,4,4,0,1,0-5.24,0c-.07.06-.15.11-.21.17A4,4,0,0,0,3,14a1,1,0,0,0,2,0A2,2,0,0,1,5.58,12.58ZM7,6A2,2,0,1,1,5,8,2,2,0,0,1,7,6Z"/><path d="M12,14a1,1,0,0,0,2,0,2,2,0,0,1,4,0,1,1,0,0,0,2,0,4,4,0,0,0-1.38-3,4,4,0,1,0-5.24,0A4,4,0,0,0,12,14Zm2-6a2,2,0,1,1,2,2A2,2,0,0,1,14,8Z"/><path d="M27.62,11a4,4,0,1,0-5.24,0c-.07.06-.15.11-.21.17A4,4,0,0,0,21,14a1,1,0,0,0,2,0,2,2,0,0,1,4,0,1,1,0,0,0,2,0A4,4,0,0,0,27.62,11ZM25,6a2,2,0,1,1-2,2A2,2,0,0,1,25,6Z"/><path d="M26,24H10.41l.3-.29a1,1,0,0,0-1.42-1.42l-2,2a1,1,0,0,0-.21.33,1,1,0,0,0,0,.76,1,1,0,0,0,.21.33l2,2a1,1,0,0,0,1.42,0,1,1,0,0,0,0-1.42l-.3-.29H26a1,1,0,0,0,0-2Z"/><path d="M13.29,20.29a1,1,0,0,0,0,1.42,1,1,0,0,0,1.42,0l2-2a1,1,0,0,0,.21-.33,1,1,0,0,0,0-.76,1,1,0,0,0-.21-.33l-2-2a1,1,0,0,0-1.42,1.42l.3.29H6a1,1,0,0,0,0,2h7.59Z"/></g></svg>
