<svg id="rejected_accept_employee_hiring" height="512" viewBox="0 0 32 32" width="512" xmlns="http://www.w3.org/2000/svg" data-name="rejected, accept, employee, hiring"><path d="m11.71 23.29a1 1 0 0 0 -1.42 0l-1.29 1.3-1.29-1.3a1 1 0 0 0 -1.42 1.42l1.3 1.29-1.3 1.29a1 1 0 0 0 1.42 1.42l1.29-1.3 1.29 1.3a1 1 0 0 0 1.42 0 1 1 0 0 0 0-1.42l-1.3-1.29 1.3-1.29a1 1 0 0 0 0-1.42z"/><path d="m15 13a3 3 0 0 1 3 3v4a1 1 0 0 0 2 0v-4a5 5 0 0 0 -2-4 5 5 0 1 0 -6 0 5 5 0 0 0 -2 4v4a1 1 0 0 0 1 1h4a1 1 0 0 0 0-2h-3v-3a3 3 0 0 1 3-3zm-3-5a3 3 0 1 1 3 3 3 3 0 0 1 -3-3z"/><path d="m25.71 23.29a1 1 0 0 0 -1.42 0l-3.29 3.3-1.29-1.3a1 1 0 0 0 -1.42 1.42l2 2a1 1 0 0 0 1.42 0l4-4a1 1 0 0 0 0-1.42z"/></svg>