<svg clip-rule="evenodd" fill-rule="evenodd" stroke-linejoin="round" stroke-miterlimit="2" viewBox="0 0 32 32" xmlns="http://www.w3.org/2000/svg" xmlns:serif="http://www.serif.com/"><g id="stopwatch_time_deadline_sprint" fill-rule="nonzero"><path d="m25.5 12.45c-.172-.329-.514-.536-.886-.536-.549 0-1 .451-1 1 0 .19.054.376.156.536.81 1.379 1.235 2.951 1.23 4.55 0 4.937-4.063 9-9 9s-9-4.063-9-9c-.037-3.57 2.1-6.824 5.39-8.21.468-.091.808-.505.808-.981 0-.549-.451-1-1-1-.211 0-.417.067-.588.191-4.006 1.744-6.61 5.716-6.61 10.086 0 6.034 4.966 11 11 11 6.035 0 11-4.966 11-11 0-.029 0-.057 0-.086.001-1.95-.517-3.866-1.5-5.55z"/><path d="m14 5h1v3c0 .549.451 1 1 1 1.946.006 3.765.745 5.4 1.8.368.237.864.303 1.31-.09l2-2c.188-.188.294-.444.294-.71 0-.551-.453-1.004-1.004-1.004-.266 0-.522.106-.71.294l-1.41 1.42c-1.474-.929-3.146-1.498-4.88-1.66v-2.05h1c.549 0 1-.451 1-1s-.451-1-1-1h-4c-.549 0-1 .451-1 1s.451 1 1 1z"/><path d="m15.68 17.05-6 2c-.665.222-.775.841-.63 1.27.179.53.788.743 1.27.63l6-2c.661-.223.796-.822.621-1.295-.225-.605-.79-.734-1.261-.605z"/></g></svg>