<svg height="512" viewBox="0 0 32 32" width="512" xmlns="http://www.w3.org/2000/svg"><g id="structure_group_team_leader" data-name="structure, group, team, leader"><path d="m20 7a4 4 0 1 0 -6.62 3 4 4 0 0 0 -1.38 3 1 1 0 0 0 2 0 2 2 0 0 1 4 0 1 1 0 0 0 2 0 4 4 0 0 0 -1.38-3 4 4 0 0 0 1.38-3zm-6 0a2 2 0 1 1 2 2 2 2 0 0 1 -2-2z"/><path d="m11 22a4 4 0 1 0 -6.62 3l-.21.17a4 4 0 0 0 -1.17 2.83 1 1 0 0 0 2 0 2 2 0 0 1 4 0 1 1 0 0 0 2 0 4 4 0 0 0 -1.38-3 4 4 0 0 0 1.38-3zm-4-2a2 2 0 1 1 -2 2 2 2 0 0 1 2-2z"/><path d="m27.62 25a4 4 0 1 0 -5.24 0 4 4 0 0 0 -1.38 3 1 1 0 0 0 2 0 2 2 0 0 1 4 0 1 1 0 0 0 2 0 4 4 0 0 0 -1.38-3zm-4.62-3a2 2 0 1 1 2 2 2 2 0 0 1 -2-2z"/><path d="m18 21h-1v-5a1 1 0 0 0 -2 0v5h-1a1 1 0 0 0 0 2h4a1 1 0 0 0 0-2z"/></g></svg>