<svg height="512" viewBox="0 0 32 32" width="512" xmlns="http://www.w3.org/2000/svg"><g id="success_profit_margin_graph" data-name="success, profit, margin, graph"><path d="m3 25a1 1 0 0 0 1-1v-20a1 1 0 0 0 -2 0v20a1 1 0 0 0 1 1z"/><path d="m29 27h-26a1 1 0 0 0 0 2h26a1 1 0 0 0 0-2z"/><path d="m7 25h.16c10.48-1.68 16.09-6.73 18.4-16.75l.33.4a1 1 0 0 0 .77.36 1 1 0 0 0 .64-.23 1 1 0 0 0 .13-1.41l-1.66-2a.81.81 0 0 0 -.14-.12l-.11-.09a1.09 1.09 0 0 0 -.34-.16h-.05a.86.86 0 0 0 -.32 0l-.13.05a.85.85 0 0 0 -.17.06l-2.42 1.37a1 1 0 0 0 -.38 1.37 1 1 0 0 0 1.36.38l.51-.23c-2.15 9.05-7.12 13.47-16.74 15a1 1 0 0 0 .16 2z"/></g></svg>