<svg height="512" viewBox="0 0 32 32" width="512" xmlns="http://www.w3.org/2000/svg"><g id="target_employee_hiring_interview" data-name="target, employee, hiring, interview"><path d="m20.33 3.74a1 1 0 0 0 -.66 1.89 11 11 0 0 1 7.33 9.37h-1a1 1 0 0 0 0 2h1a11 11 0 0 1 -10 10v-1a1 1 0 0 0 -2 0v2a1 1 0 0 0 1 1 13 13 0 0 0 4.33-25.26z"/><path d="m18 20.5a1 1 0 0 0 2 0 4 4 0 0 0 -1.38-3 4 4 0 1 0 -5.24 0 4 4 0 0 0 -1.38 3 1 1 0 0 0 2 0 2 2 0 0 1 4 0zm-4-6a2 2 0 1 1 2 2 2 2 0 0 1 -2-2z"/><path d="m12.33 26.37a11 11 0 0 1 -7.28-9.37h.95a1 1 0 0 0 0-2h-1a11 11 0 0 1 10-9.95v.95a1 1 0 0 0 2 0v-2a1 1 0 0 0 -1-1 13 13 0 0 0 -4.33 25.26 1 1 0 0 0 .33.06 1 1 0 0 0 .33-1.95z"/></g></svg>