<svg height="512" viewBox="0 0 32 32" width="512" xmlns="http://www.w3.org/2000/svg"><g id="task_tax_note_document" data-name="task, tax, note, document"><path d="m24 3h-16a5 5 0 0 0 -5 5v16a1 1 0 0 0 2 0v-16a3 3 0 0 1 3-3h12a4.94 4.94 0 0 0 -1 3v19h-15a1 1 0 0 0 0 2h16a1 1 0 0 0 1-1v-20a3 3 0 0 1 3-3 3 3 0 0 1 3 3v9h-3a1 1 0 0 0 0 2h4a1 1 0 0 0 1-1v-10a5 5 0 0 0 -5-5z"/><path d="m16 23h-4a1 1 0 0 0 0 2h4a1 1 0 0 0 0-2z"/><path d="m8 19h8a1 1 0 0 0 0-2h-8a1 1 0 0 0 0 2z"/><path d="m8 11h8a1 1 0 0 0 0-2h-8a1 1 0 0 0 0 2z"/><path d="m8 15h8a1 1 0 0 0 0-2h-8a1 1 0 0 0 0 2z"/></g></svg>