<svg height="512" viewBox="0 0 32 32" width="512" xmlns="http://www.w3.org/2000/svg"><g id="team_group_unity_leader" data-name="team, group, unity, leader"><path d="m21 11.89a5 5 0 0 0 -10 0 4.82 4.82 0 0 0 2 3.9 5 5 0 0 0 -2 4v4.21a1 1 0 0 0 1 1h4a1 1 0 0 0 0-2h-3v-3.22a3 3 0 0 1 6 0v4.22a1 1 0 0 0 2 0v-4.22a5 5 0 0 0 -2-4 4.82 4.82 0 0 0 2-3.89zm-5 2.89a3 3 0 0 1 -3-2.89 3 3 0 0 1 6 0 3 3 0 0 1 -3 2.89z"/><path d="m9 12a1 1 0 0 0 0-2 4 4 0 0 0 -2.62 7 4 4 0 0 0 -1.38 3v4a1 1 0 0 0 1 1h3a1 1 0 0 0 0-2h-2v-3a2 2 0 0 1 2-2 1 1 0 0 0 0-2 2 2 0 0 1 0-4z"/><path d="m25.62 17a4 4 0 0 0 -2.62-7 1 1 0 0 0 0 2 2 2 0 0 1 0 4 1 1 0 0 0 0 2 2 2 0 0 1 2 2v3h-2a1 1 0 0 0 0 2h3a1 1 0 0 0 1-1v-4a4 4 0 0 0 -1.38-3z"/></g></svg>