<svg height="512" viewBox="0 0 32 32" width="512" xmlns="http://www.w3.org/2000/svg"><g id="teams_leader_discussion_meeting" data-name="teams, leader, discussion, meeting"><path d="m11 19a4 4 0 1 0 -6.62 3 4 4 0 0 0 -1.38 3v3a1 1 0 0 0 1 1h2a1 1 0 0 0 0-2h-1v-2a2 2 0 0 1 4 0v3a1 1 0 0 0 2 0v-3a4 4 0 0 0 -1.38-3 4 4 0 0 0 1.38-3zm-6 0a2 2 0 1 1 2 2 2 2 0 0 1 -2-2z"/><path d="m20 19a4 4 0 1 0 -6.62 3 4 4 0 0 0 -1.38 3v3a1 1 0 0 0 2 0v-3a2 2 0 0 1 4 0v2h-1a1 1 0 0 0 0 2h2a1 1 0 0 0 1-1v-3a4 4 0 0 0 -1.38-3 4 4 0 0 0 1.38-3zm-6 0a2 2 0 1 1 2 2 2 2 0 0 1 -2-2z"/><path d="m20 7a4 4 0 1 0 -6.62 3l-.21.17a4.06 4.06 0 0 0 -1.17 2.83 1 1 0 0 0 2 0 2 2 0 0 1 2-2 2 2 0 0 1 2 2 1 1 0 0 0 2 0 4 4 0 0 0 -1.38-3 4 4 0 0 0 1.38-3zm-4-2a2 2 0 1 1 -2 2 2 2 0 0 1 2-2z"/><path d="m27.62 22a4 4 0 1 0 -5.24 0 4 4 0 0 0 -1.38 3v3a1 1 0 0 0 2 0v-3a2 2 0 0 1 4 0v2h-1a1 1 0 0 0 0 2h2a1 1 0 0 0 1-1v-3a4 4 0 0 0 -1.38-3zm-4.62-3a2 2 0 1 1 2 2 2 2 0 0 1 -2-2z"/></g></svg>