<?xml version="1.0"?>
<svg xmlns="http://www.w3.org/2000/svg" viewBox="0 0 32 32" width="512" height="512"><g id="training_worker_presentation_goals" data-name="training, worker, presentation, goals"><path d="M11,22a4,4,0,1,0-6.62,3l-.21.17A4.06,4.06,0,0,0,3,28a1,1,0,0,0,2,0,2,2,0,0,1,4,0,1,1,0,0,0,2,0,4,4,0,0,0-1.38-3A4,4,0,0,0,11,22ZM7,20a2,2,0,1,1-2,2A2,2,0,0,1,7,20Z"/><path d="M20,22a4,4,0,1,0-6.62,3A4,4,0,0,0,12,28a1,1,0,0,0,2,0,2,2,0,0,1,4,0,1,1,0,0,0,2,0,4,4,0,0,0-1.38-3A4,4,0,0,0,20,22Zm-6,0a2,2,0,1,1,2,2A2,2,0,0,1,14,22Z"/><path d="M27.62,25a4,4,0,1,0-5.24,0l-.21.17A4.06,4.06,0,0,0,21,28a1,1,0,0,0,2,0,2,2,0,0,1,4,0,1,1,0,0,0,2,0A4,4,0,0,0,27.62,25ZM25,20a2,2,0,1,1-2,2A2,2,0,0,1,25,20Z"/><path d="M6,16a1,1,0,0,0,1-1V5H25V15a1,1,0,0,0,2,0V4a1,1,0,0,0-1-1H6A1,1,0,0,0,5,4V15A1,1,0,0,0,6,16Z"/><path d="M21.29,7.29,17.8,10.78,14.45,9.11a1,1,0,0,0-1.16.18l-4,4a1,1,0,0,0,0,1.42,1,1,0,0,0,1.42,0l3.49-3.49,3.35,1.67a1,1,0,0,0,1.16-.18l4-4a1,1,0,1,0-1.42-1.42Z"/></g></svg>
