<?xml version="1.0"?>
<svg xmlns="http://www.w3.org/2000/svg" viewBox="0 0 32 32" width="512" height="512"><g id="abacus_mathematic_calc" data-name="abacus, mathematic, calc"><path d="M28,3a1,1,0,0,0-1,1V7H25V6a1,1,0,0,0-2,0V7H21V6a1,1,0,0,0-2,0v4a1,1,0,0,0,2,0V9h2v1a1,1,0,0,0,2,0V9h2v6H25V14a1,1,0,0,0-2,0v1H21V14a1,1,0,0,0-2,0v1H17V14a1,1,0,0,0-2,0v4a1,1,0,0,0,2,0V17h2v1a1,1,0,0,0,2,0V17h2v1a1,1,0,0,0,2,0V17h2v6H25V22a1,1,0,0,0-2,0v1H21V22a1,1,0,0,0-2,0v1H17V22a1,1,0,0,0-2,0v1H13V22a1,1,0,0,0-2,0v4a1,1,0,0,0,2,0V25h2v1a1,1,0,0,0,2,0V25h2v1a1,1,0,0,0,2,0V25h2v1a1,1,0,0,0,2,0V25h2v3a1,1,0,0,0,2,0V4A1,1,0,0,0,28,3Z"/><path d="M8,19a1,1,0,0,0,1-1V17h3a1,1,0,0,0,0-2H9V14a1,1,0,0,0-2,0v1H5V9H7v1a1,1,0,0,0,2,0V9h2v1a1,1,0,0,0,2,0V9h3a1,1,0,0,0,0-2H13V6a1,1,0,0,0-2,0V7H9V6A1,1,0,0,0,7,6V7H5V4A1,1,0,0,0,3,4V28a1,1,0,0,0,2,0V25H8a1,1,0,0,0,0-2H5V17H7v1A1,1,0,0,0,8,19Z"/></g></svg>
