<svg id="Capa_1" enable-background="new 0 0 512 512" height="512" viewBox="0 0 512 512" width="512" xmlns="http://www.w3.org/2000/svg"><g><g><path clip-rule="evenodd" d="m358.351 454.452v-163.149c0-13.188-10.812-23.976-24.059-23.976h-156.613c-13.218 0-24.059 10.788-24.059 23.976v163.149h31.972 140.787z" fill="#e2c4ff" fill-rule="evenodd"/></g><path d="m390.323 90.851h-57.509v-43.563c0-5.523-4.477-10-10-10s-10 4.477-10 10v43.563h-113.628v-43.563c0-5.523-4.477-10-10-10s-10 4.477-10 10v43.563h-57.539c-16.446 0-29.827 13.374-29.827 29.812v314.007c0 12.921 8.285 23.941 19.827 28.055v23.571c0 14.173 11.56 25.705 25.769 25.705h32.436c14.193 0 25.74-11.531 25.74-25.705v-21.843h120.788v21.843c0 14.173 11.56 25.705 25.769 25.705h32.436c14.193 0 25.74-11.531 25.74-25.705v-23.567c11.558-4.112 19.856-15.135 19.856-28.059v-314.007c-.002-16.438-13.395-29.812-29.858-29.812zm-154.817 20h40.958v41.423c0 1.76-1.5 3.247-3.276 3.247h-34.407c-1.776 0-3.276-1.487-3.276-3.247v-41.423zm-123.685 9.812c0-5.41 4.408-9.812 9.827-9.812h93.859v41.423c0 12.818 10.441 23.247 23.276 23.247h34.407c12.834 0 23.276-10.428 23.276-23.247v-41.423h93.858c5.435 0 9.856 4.401 9.856 9.812v314.007c0 5.394-4.421 9.783-9.856 9.783h-268.677c-5.418 0-9.827-4.389-9.827-9.783v-314.007zm63.771 365.632c0 3.092-2.628 5.705-5.74 5.705h-32.436c-3.127 0-5.769-2.612-5.769-5.705v-21.843h43.944v21.843zm198.991 5.705h-32.436c-3.127 0-5.769-2.612-5.769-5.705v-21.843h43.944v21.843c.001 3.093-2.627 5.705-5.739 5.705z" fill="#020288"/><g><path clip-rule="evenodd" d="m189.186 47.288h133.628 17.885c13.015 0 23.682-10.643 23.682-23.629-.001-13.016-10.668-23.659-23.682-23.659h-169.398c-13.044 0-23.711 10.643-23.711 23.658 0 12.986 10.667 23.629 23.711 23.629h17.885z" fill="#e2c4ff" fill-rule="evenodd"/></g></g></svg>