<svg id="Capa_1" enable-background="new 0 0 513.096 513.096" height="512" viewBox="0 0 513.096 513.096" width="512" xmlns="http://www.w3.org/2000/svg"><g><path d="m484.865 90.039-254.95-36.031v-14.076c0-5.523-4.477-10-10-10s-10 4.477-10 10v24.595l-89.292 53.805c-4.684-6.639-12.408-10.988-21.134-10.988h-12.16v-76.046c0-5.523-4.477-10-10-10s-10 4.477-10 10v76.046h-12.187c-14.255 0-25.852 11.594-25.852 25.845v40.194c0 14.236 11.597 25.817 25.852 25.817h12.188v157.818c0 5.523 4.477 10 10 10s10-4.477 10-10v-157.817h12.159c8.722 0 16.443-4.34 21.128-10.966l89.299 53.785v24.622c0 5.523 4.477 10 10 10s10-4.477 10-10v-14.103l254.988-36.009c10.529-1.529 28.193-8.162 28.193-35.407v-55.671c-.001-27.304-17.68-33.906-28.232-35.413zm-139.354.504 37.784 5.34v114.797l-37.784 5.336zm-20 128.298-37.812 5.34v-141.808l37.812 5.344zm77.784-120.132 37.784 5.34v98.471l-37.784 5.336zm-297.954 74.675c0 3.153-2.68 5.817-5.853 5.817h-44.346c-3.172 0-5.852-2.664-5.852-5.817v-40.194c0-3.168 2.68-5.845 5.852-5.845h44.347c3.172 0 5.853 2.677 5.853 5.845v40.194zm20-5.651v-28.894l84.574-50.962v130.794zm104.574-93.527 37.784 5.34v147.459l-37.784 5.336zm263.181 106.917c0 12.926-5.467 14.802-11.029 15.609l-20.988 2.964v-92.82l20.972 2.964c5.589.798 11.045 2.662 11.045 15.612z" fill="#020288"/><g><path clip-rule="evenodd" d="m53.38 51.298h23.949 23.92c7.756 0 14.091-6.321 14.091-14.088v-17.574c0-7.738-6.335-14.088-14.091-14.088h-47.869c-7.756 0-14.091 6.349-14.091 14.088v17.574c.001 7.767 6.336 14.088 14.091 14.088z" fill="#ffbdbc" fill-rule="evenodd"/></g><g><path clip-rule="evenodd" d="m48.153 442.132h58.324v-86.03c0-16.015-13.125-29.083-29.148-29.083-16.051 0-29.176 13.067-29.176 29.083z" fill="#ffbdbc" fill-rule="evenodd"/></g><g><path d="m144.63 507.548h-134.63c-5.523 0-10-4.477-10-10v-27.722c0-20.785 16.937-37.694 37.755-37.694h79.119c20.819 0 37.756 16.91 37.756 37.694v27.722c0 5.523-4.477 10-10 10zm-124.63-20h114.63v-17.722c0-9.757-7.965-17.694-17.756-17.694h-79.119c-9.791 0-17.755 7.938-17.755 17.694z" fill="#020288"/></g><g><path d="m400.767 404h-138.75c-5.523 0-10-4.477-10-10s4.477-10 10-10h138.75c5.523 0 10 4.477 10 10s-4.477 10-10 10z" fill="#020288"/></g><g><path d="m439.317 340.165h-117.954c-5.523 0-10-4.477-10-10s4.477-10 10-10h117.954c9.164 0 16.62-7.441 16.62-16.588 0-9.131-7.456-16.56-16.62-16.56h-22.159c-5.523 0-10-4.477-10-10s4.477-10 10-10h22.159c20.192 0 36.62 16.401 36.62 36.56 0 20.174-16.428 36.588-36.62 36.588zm-172.812 0h-30c-5.523 0-10-4.477-10-10s4.477-10 10-10h30c5.523 0 10 4.477 10 10s-4.477 10-10 10z" fill="#020288"/></g></g></svg>