<svg id="Capa_1" enable-background="new 0 0 510.906 510.906" height="512" viewBox="0 0 510.906 510.906" width="512" xmlns="http://www.w3.org/2000/svg"><g><g><path clip-rule="evenodd" d="m346.447 385.371h74.691v115.536h-74.691z" fill="#b2f0fb" fill-rule="evenodd"/></g><g><path d="m463.146 510.906h-425.386c-5.523 0-10-4.477-10-10v-157.422c0-5.523 4.477-10 10-10s10 4.477 10 10v147.422h405.387v-147.422c0-5.523 4.478-10 10-10s10 4.477 10 10v157.422c-.001 5.523-4.478 10-10.001 10z" fill="#020288"/></g><path d="m496.453 94.437h-31.407-12.818v-12.288c0-17.803-14.506-32.287-32.337-32.287h-26.084v-39.862c0-5.523-4.478-10-10-10s-10 4.477-10 10v39.863h-26.113c-17.83 0-32.336 14.484-32.336 32.287v12.287h-12.818-31.38c-5.522 0-10 4.477-10 10s4.478 10 10 10h21.379v56.41c-.024 1.709.4 3.437 1.212 4.942l29.317 56.14v65.029c0 5.523 4.478 10 10 10s10-4.477 10-10v-57.483h81.479v57.483c0 5.523 4.478 10 10 10s10-4.477 10-10v-65.031l29.29-56.141c.82-1.492 1.236-3.247 1.21-4.946v-56.403h21.407c5.522 0 10-4.477 10-10s-4.478-10-10.001-10zm-67.969 125.038h-89.357l-20.084-38.46h129.507zm26.562-58.46h-142.507v-46.578h142.507zm-119.689-78.866c0-6.775 5.534-12.287 12.336-12.287h72.197c6.803 0 12.337 5.512 12.337 12.287v12.287h-96.87z" fill="#020288"/><g><path d="m257.497 306.958c-5.522 0-10-4.477-10-10v-40.146h-170.796v40.146c0 5.523-4.477 10-10 10s-10-4.477-10-10v-50.146c0-5.523 4.477-10 10-10h190.796c5.522 0 10 4.477 10 10v50.146c0 5.523-4.477 10-10 10z" fill="#020288"/></g><g><path clip-rule="evenodd" d="m257.497 296.958h-190.796-38.948c-12.812 0-23.3 10.465-23.3 23.277 0 12.784 10.488 23.249 23.3 23.249h445.399c12.812 0 23.3-10.465 23.3-23.249 0-12.812-10.488-23.277-23.3-23.277h-38.607-101.478z" fill="#b2f0fb" fill-rule="evenodd"/></g><path d="m304.438 375.371h-224.67c-5.523 0-10 4.477-10 10v73.621c0 5.523 4.477 10 10 10h224.669c5.522 0 10-4.477 10-10v-73.621c.001-5.523-4.477-10-9.999-10zm-159.78 73.62h-54.89v-53.621h54.89zm74.89 0h-54.89v-53.621h54.89zm20-53.62h54.89v53.621h-54.89z" fill="#020288"/></g></svg>