<svg id="Capa_1" enable-background="new 0 0 506.91 506.91" height="512" viewBox="0 0 506.91 506.91" width="512" xmlns="http://www.w3.org/2000/svg"><g><g><path d="m430.735 228.885c-5.563 0-10.074-4.51-10.074-10.074v-60.939c0-1.6-1.338-2.951-2.921-2.951h-27.905c-1.583 0-2.921 1.352-2.921 2.951v39.56c0 5.563-4.511 10.074-10.074 10.074s-10.074-4.51-10.074-10.074v-39.56c0-12.737 10.349-23.099 23.069-23.099h27.905c12.721 0 23.069 10.362 23.069 23.099v60.939c.001 5.564-4.51 10.074-10.074 10.074z" fill="#020288"/></g><g><path d="m76.175 238.885c-5.563 0-10.074-4.51-10.074-10.074v-70.939c0-12.737 10.349-23.099 23.069-23.099h27.905c12.721 0 23.069 10.362 23.069 23.099v49.56c0 5.563-4.511 10.074-10.074 10.074s-10.074-4.51-10.074-10.074v-49.56c0-1.6-1.338-2.951-2.921-2.951h-27.905c-1.583 0-2.921 1.352-2.921 2.951v70.939c0 5.564-4.511 10.074-10.074 10.074z" fill="#020288"/></g><g><path clip-rule="evenodd" d="m205.868 297.345-13.924-134.454-61.873 24.541-53.897 21.379-68.719 27.239v61.295z" fill="#b2f0fb" fill-rule="evenodd"/></g><g><path clip-rule="evenodd" d="m499.455 297.345v-61.295l-68.719-27.239-53.897-21.379-61.873-24.512-13.924 134.425z" fill="#b2f0fb" fill-rule="evenodd"/></g><g><path d="m362.916 506.91h-218.922c-5.563 0-10.074-4.51-10.074-10.074v-57.35c0-2.767 1.138-5.411 3.146-7.314l66.16-62.667-24.871-240.213c-4.706-45.389 4.368-84.479 24.896-107.246 13.005-14.422 30.36-22.046 50.189-22.046 19.843 0 37.209 7.626 50.219 22.056 20.527 22.766 29.602 61.852 24.896 107.237l-24.87 240.267 66.156 62.609c2.01 1.903 3.149 4.549 3.149 7.317v57.35c0 5.564-4.511 10.074-10.074 10.074zm-208.848-20.147h198.773v-42.939l-66.614-63.043c-2.273-2.152-3.418-5.24-3.096-8.354l25.382-245.209c4.119-39.722-3.104-73.133-19.817-91.669-9.214-10.219-21.076-15.4-35.256-15.4-14.166 0-26.018 5.178-35.226 15.391-16.714 18.538-23.938 51.953-19.818 91.677l25.382 245.152c.322 3.113-.82 6.199-3.093 8.352l-66.617 63.101z" fill="#020288"/></g><g><path d="m278.859 106.594c-3.056 0-6.073-1.384-8.054-4.013-4.121-5.47-10.445-8.606-17.351-8.606s-13.229 3.137-17.351 8.606c-3.35 4.443-9.663 5.332-14.108 1.984-4.443-3.348-5.331-9.665-1.983-14.108 7.963-10.569 20.152-16.63 33.442-16.63s25.479 6.062 33.442 16.63c3.348 4.443 2.46 10.76-1.983 14.108-1.814 1.368-3.943 2.029-6.054 2.029z" fill="#020288"/></g><g><path d="m402.802 406.135c-5.563 0-10.074-4.51-10.074-10.074v-53.84c0-5.563 4.511-10.074 10.074-10.074s10.074 4.51 10.074 10.074v53.84c0 5.564-4.511 10.074-10.074 10.074zm46.238-25.47c-5.563 0-10.074-4.51-10.074-10.074v-28.37c0-5.563 4.511-10.074 10.074-10.074s10.074 4.51 10.074 10.074v28.37c0 5.564-4.51 10.074-10.074 10.074z" fill="#020288"/></g><g><path d="m104.108 406.135c-5.563 0-10.074-4.51-10.074-10.074v-53.84c0-5.563 4.511-10.074 10.074-10.074s10.074 4.51 10.074 10.074v53.84c.001 5.564-4.51 10.074-10.074 10.074zm-46.266-25.47c-5.563 0-10.074-4.51-10.074-10.074v-28.37c0-5.563 4.511-10.074 10.074-10.074s10.074 4.51 10.074 10.074v28.37c0 5.564-4.511 10.074-10.074 10.074z" fill="#020288"/></g><g><path d="m253.44 466.385c-5.563 0-10.074-4.51-10.074-10.074v-51.925c0-5.563 4.511-10.074 10.074-10.074s10.074 4.51 10.074 10.074v51.925c.001 5.564-4.51 10.074-10.074 10.074z" fill="#020288"/></g></g></svg>