<svg id="Capa_1" enable-background="new 0 0 512 512" height="512" viewBox="0 0 512 512" width="512" xmlns="http://www.w3.org/2000/svg"><g><g><path clip-rule="evenodd" d="m319.762 183.639v107.928c0 19.421 15.936 35.322 35.401 35.322h127.864v-22.307c0-66.517-54.547-120.943-121.212-120.943z" fill="#b2f0fb" fill-rule="evenodd"/></g><g><path d="m262.062 290.341c-5.522 0-10-4.477-10-10v-52.463c0-5.523 4.478-10 10-10s10 4.477 10 10v52.463c0 5.523-4.477 10-10 10z" fill="#020288"/></g><path d="m502 401.327c-5.522 0-10 4.477-10 10 0 10.112-8.255 18.338-18.401 18.338h-76.795v-36.647h47.092c27.092 0 49.132-22.001 49.132-49.045v-39.391c0-68.845-53.516-125.45-121.213-130.565v-12.482c0-17.719-14.425-32.134-32.154-32.134h-20.976v-26.144h164.343c5.522 0 10-4.477 10-10s-4.478-10-10-10h-164.343v-10.922c0-5.523-4.478-10-10-10s-10 4.477-10 10v10.922h-164.313c-5.522 0-10 4.477-10 10s4.478 10 10 10h164.312v26.143h-20.946c-17.745 0-32.183 14.415-32.183 32.134v12.105h-139.84l-16.627-47.417c-1.405-4.008-5.189-6.691-9.437-6.691h-50.787c-5.522 0-10 4.477-10 10v78.884c0 5.523 4.478 10 10 10s10-4.477 10-10v-68.884h33.696l16.627 47.417c1.405 4.008 5.189 6.691 9.437 6.691h263.19c61.323 0 111.213 49.769 111.213 110.943v39.391c0 16.016-13.068 29.045-29.132 29.045h-150.77c-64.476 0-106.71-36.473-107.598-92.92-.064-4.098-2.623-7.742-6.456-9.194l-113.571-42.904c-5.169-1.958-10.938.645-12.895 5.809-1.956 5.165.645 10.938 5.809 12.894l107.408 40.568c2.011 28.763 13.787 54.496 33.564 73.034 20.825 19.52 49.627 30.642 83.738 32.446v36.914h-95.71c-5.522 0-10 4.477-10 10s4.478 10 10 10h286.184c21.175 0 38.401-17.199 38.401-38.338.001-5.523-4.477-10-9.999-10zm-150.186-227.688h-86.259v-12.105c0-6.69 5.465-12.134 12.183-12.134h61.922c6.702 0 12.154 5.443 12.154 12.134zm-48.689 219.379h73.679v36.647h-73.679z" fill="#020288"/><g><path clip-rule="evenodd" d="m0 233.303c0 19.623 15.936 35.524 35.603 35.524 17.209 0 31.554-12.178 34.88-28.367.463-2.309.723-4.704.723-7.157 0-19.623-15.936-35.524-35.603-35.524-2.314 0-4.57.231-6.739.635-16.456 3.146-28.864 17.575-28.864 34.889z" fill="#b2f0fb" fill-rule="evenodd"/></g></g></svg>