<svg id="Capa_1" enable-background="new 0 0 512 512" height="512" viewBox="0 0 512 512" width="512" xmlns="http://www.w3.org/2000/svg"><g><g><path d="m75.512 512c-2.654 0-5.197-1.055-7.073-2.931l-65.505-65.535c-3.904-3.905-3.903-10.236.001-14.14l88.607-88.609c3.905-3.905 10.237-3.906 14.142 0s3.906 10.237 0 14.142l-81.538 81.54 51.366 51.39 81.562-81.564c3.905-3.905 10.237-3.906 14.142 0s3.906 10.237 0 14.142l-88.635 88.638c-1.873 1.873-4.417 2.927-7.069 2.927z" fill="#020288"/></g><g><path d="m413.358 174.145c-2.559 0-5.118-.976-7.071-2.929-3.905-3.905-3.906-10.237 0-14.142l81.563-81.565-51.389-51.368-81.537 81.54c-3.905 3.905-10.237 3.906-14.142 0s-3.906-10.237 0-14.142l88.607-88.609c3.905-3.905 10.236-3.906 14.141-.001l65.534 65.507c1.876 1.875 2.93 4.419 2.93 7.072s-1.053 5.196-2.929 7.072l-88.635 88.638c-1.953 1.95-4.513 2.927-7.072 2.927z" fill="#020288"/></g><g><path clip-rule="evenodd" d="m315.993 80.099-36.849 36.85c-3.657 3.685-3.657 9.694 0 13.351l18.509 18.51-27.268 27.269c-14.995 15.023-14.995 39.571 0 54.566l10.941 10.97c15.023 14.995 39.57 14.995 54.564 0l27.268-27.297 18.509 18.51c3.685 3.685 9.694 3.685 13.379 0l36.82-36.821c3.685-3.685 3.685-9.694 0-13.379l-102.523-102.529c-3.685-3.656-9.694-3.656-13.35 0z" fill="#e2c4ff" fill-rule="evenodd"/></g><g><path d="m145.043 155.04c-2.56 0-5.118-.976-7.071-2.929l-36.594-36.595c-3.905-3.905-3.905-10.237 0-14.142 3.905-3.904 10.236-3.905 14.142 0l36.594 36.595c3.905 3.905 3.905 10.237 0 14.142-1.952 1.952-4.512 2.929-7.071 2.929z" fill="#020288"/></g><g><path d="m133.973 200.99c-.409 0-.823-.025-1.239-.077l-65.137-8.05c-5.481-.677-9.375-5.67-8.698-11.151s5.673-9.38 11.151-8.698l65.137 8.05c5.481.677 9.375 5.67 8.698 11.151-.627 5.065-4.937 8.775-9.912 8.775z" fill="#020288"/></g><g><path d="m190.978 143.957c-4.976 0-9.286-3.709-9.912-8.774l-8.05-65.139c-.678-5.481 3.217-10.474 8.698-11.151 5.484-.679 10.473 3.216 11.151 8.698l8.05 65.139c.678 5.481-3.217 10.474-8.698 11.151-.417.052-.83.076-1.239.076z" fill="#020288"/></g><g><path d="m406.017 416.02c-2.56 0-5.118-.976-7.071-2.929l-36.594-36.594c-3.905-3.905-3.905-10.237 0-14.142 3.905-3.904 10.236-3.905 14.142 0l36.594 36.594c3.905 3.905 3.905 10.237 0 14.142-1.953 1.953-4.512 2.929-7.071 2.929z" fill="#020288"/></g><g><path d="m331.513 455.649c-4.976 0-9.286-3.709-9.912-8.774l-8.05-65.139c-.678-5.481 3.217-10.474 8.698-11.151 5.479-.682 10.474 3.216 11.151 8.698l8.05 65.139c.678 5.481-3.217 10.474-8.698 11.151-.417.051-.83.076-1.239.076z" fill="#020288"/></g><g><path d="m445.656 341.529c-.409 0-.823-.025-1.239-.077l-65.137-8.05c-5.481-.677-9.375-5.67-8.698-11.151s5.67-9.375 11.151-8.698l65.137 8.05c5.481.677 9.375 5.67 8.698 11.151-.627 5.065-4.937 8.775-9.912 8.775z" fill="#020288"/></g><g><path clip-rule="evenodd" d="m188.808 236.626c-10.913-10.913-22.279-5.868-28.969 3.94-14.059 20.579-26.078 42.916-43.652 60.519l-17.573 17.545c-5.669 5.669-7.341 13.889-4.989 21.061.624 2.75 2.296 5.471 4.989 8.164l65.534 65.507c2.693 2.693 5.386 4.394 8.163 5.017 7.171 2.324 15.363.652 21.032-5.017l17.574-17.546c17.574-17.603 39.91-29.621 60.517-43.681 9.779-6.69 14.853-18.028 3.94-28.941z" fill="#e2c4ff" fill-rule="evenodd"/></g><g><path d="m223.049 340.762c-2.56 0-5.118-.976-7.071-2.929l-41.837-41.838c-3.905-3.905-3.905-10.237 0-14.142 3.905-3.904 10.237-3.905 14.142 0l41.837 41.838c3.905 3.905 3.905 10.237 0 14.142-1.953 1.953-4.512 2.929-7.071 2.929z" fill="#020288"/></g></g></svg>