<svg id="Capa_1" enable-background="new 0 0 512 512" height="512" viewBox="0 0 512 512" width="512" xmlns="http://www.w3.org/2000/svg"><g><g><path clip-rule="evenodd" d="m58.534 368.099c65.942-35.501 131.768-53.238 197.48-53.266 65.683.029 131.51 17.765 197.451 53.266v-23.658c0-26.044-2.328-33.029-28.803-44.039-56.944-23.744-113.17-41.193-168.648-41.222-55.507.029-111.733 17.478-168.677 41.222-26.474 11.01-28.803 17.995-28.803 44.039z" fill="#e2c4ff" fill-rule="evenodd"/></g><g><path d="m256.014 219.766c-5.523 0-10-4.477-10-10 0-28.47-23.161-51.631-51.63-51.631-5.523 0-10-4.477-10-10s4.477-10 10-10c26.185 0 49.133 14.124 61.628 35.153 12.49-21.029 35.429-35.153 61.604-35.153 5.523 0 10 4.477 10 10s-4.477 10-10 10c-28.453 0-51.602 23.162-51.602 51.631 0 5.523-4.477 10-10 10z" fill="#020288"/></g><path d="m512 253.1c.048-34.271-15.494-65.616-42.642-85.999l-106.93-80.286c-30.885-23.202-67.682-35.465-106.414-35.465-38.75 0-75.557 12.264-106.44 35.464l-106.932 80.287c-27.148 20.383-42.69 51.728-42.642 85.999.052 36.684 17.68 71.487 48.534 96.232v18.767c0 20.955 11.836 50.333 68.225 71.288 36.901 13.712 86.351 21.264 139.241 21.264s102.34-7.552 139.241-21.264c56.388-20.954 68.225-50.333 68.225-71.288v-18.767c30.855-24.745 48.483-59.548 48.534-96.232zm-68.534 114.999c0 26.474-30.013 43.184-55.191 52.54-34.727 12.905-81.703 20.012-132.274 20.012s-97.547-7.107-132.274-20.012c-25.178-9.356-55.191-26.066-55.191-52.54v-23.658c0-22.877.734-25.695 22.651-34.809 67.035-27.952 117.872-40.427 164.823-40.452 46.943.024 97.771 12.5 164.814 40.455 21.909 9.111 22.643 11.929 22.643 34.806v23.658zm-14.954-76.927c-69.586-29.015-122.785-41.966-172.503-41.992-49.727.026-102.934 12.977-172.512 41.988-22.059 9.174-30.513 17.301-33.491 32.553-19.22-19.754-29.97-44.703-30.006-70.65-.039-27.909 12.59-53.414 34.65-69.977l106.935-80.29c27.394-20.578 60.046-31.456 94.429-31.456 34.364 0 67.007 10.877 94.403 31.457l106.933 80.288c22.06 16.563 34.689 42.068 34.65 69.977-.036 25.947-10.786 50.896-30.006 70.65-2.977-15.251-11.429-23.377-33.482-32.548z" fill="#020288"/></g></svg>