<svg id="Capa_1" enable-background="new 0 0 512 512" height="512" viewBox="0 0 512 512" width="512" xmlns="http://www.w3.org/2000/svg"><g><g><path clip-rule="evenodd" d="m222.407 143.257h33.579 33.892c2.983-5.442 4.687-11.678 4.687-18.311 0-21.174-17.216-38.323-38.409-38.323-21.221 0-38.409 17.149-38.409 38.323 0 6.632 1.705 12.868 4.66 18.311z" fill="#b2f0fb" fill-rule="evenodd"/></g><g><path clip-rule="evenodd" d="m72.266 502h148.152l-30.653-90.168-23.125-67.945-43.664 14.768c-41.591 14.031-50.625 34.667-50.625 75.796z" fill="#b2f0fb" fill-rule="evenodd"/></g><g><path clip-rule="evenodd" d="m291.582 502h148.152l-.085-67.548c0-41.13-9.034-61.765-50.625-75.796l-43.664-14.768-23.125 67.945z" fill="#b2f0fb" fill-rule="evenodd"/></g><path d="m449.65 434.45c0-24.67-3.35-40.62-11.21-53.32-8.73-14.1-23.41-24.26-46.21-31.95l-80.56-27.24v-28.632c31.281-18.293 52.791-51.499 54.663-89.766h6.158c19.409 0 35.199-15.765 35.199-35.143 0-15.369-9.936-28.455-23.729-33.217 10.59-11.253 18.249-25.407 20.623-39.438 2.958-17.488-2.281-33.905-14.754-46.227-31.857-31.47-80.568-49.517-133.657-49.517-.003 0-.014 0-.018 0-53.085.004-101.806 18.052-133.673 49.519-12.479 12.328-17.72 28.753-14.757 46.25 2.375 14.024 10.033 28.17 20.62 39.416-13.788 4.763-23.721 17.848-23.721 33.214 0 19.378 15.79 35.143 35.198 35.143h5.817c1.872 38.279 23.395 71.493 54.691 89.782v28.615l-80.55 27.24c-22.81 7.69-37.49 17.85-46.22 31.95-7.86 12.7-11.21 28.65-11.21 53.31l-.08 67.55c-.01 2.65 1.04 5.2 2.92 7.08 1.88 1.87 4.42 2.93 7.08 2.93h367.46c2.66 0 5.2-1.06 7.08-2.93 1.88-1.88 2.93-4.43 2.92-7.08zm-61.961-266.051c0 8.35-6.818 15.143-15.199 15.143h-6.022v-30.285h6.022c8.381 0 15.199 6.793 15.199 15.142zm-242.186 15.143h-5.682c-8.38 0-15.198-6.793-15.198-15.143s6.818-15.143 15.198-15.143h5.682zm-18.059-91.113c-1.896-11.198 1.163-20.849 9.092-28.681 59.264-58.519 180.003-58.52 239.238-.002 7.925 7.829 10.982 17.472 9.089 28.662-2.696 15.936-15.408 32.775-30.607 40.849h-196.201c-15.198-8.065-27.912-24.896-30.611-40.828zm217.151 60.828c-3.465 8.168-11.354 15.212-23.629 21.011-16.671 7.875-40.294 12.393-64.81 12.393-24.517 0-48.139-4.517-64.81-12.393-12.275-5.799-20.164-12.843-23.629-21.011zm-179.092 44.848v-16.445c4.916 3.984 10.697 7.572 17.3 10.691 19.532 9.227 45.583 14.309 73.353 14.309s53.821-5.082 73.353-14.309c6.452-3.048 12.116-6.545 16.958-10.42v16.174c0 49.769-40.59 90.259-90.482 90.259s-90.482-40.489-90.482-90.259zm90.483 110.259c12.482 0 24.484-2.084 35.684-5.909v21.635l-35.67 26.51-35.67-26.51v-21.625c11.192 3.819 23.184 5.899 35.656 5.899zm19.524 81.466-11.73 20.79h-15.56l-11.73-20.79 19.51-14.37zm-60.87 95.19-1.88 6.98h-130.48l.07-57.55c0-36.34 6.09-53.59 43.83-66.32l43.68-14.77 38.71-13.09 30.6 22.74-52.85 38.71 3.44 10.11 3.32 9.76 27.19-19.81 11.39 20.19zm18.83 6.98 16.57-61.38h11.92l16.57 61.38zm65.77 0-1.88-6.98-17.02-63.05 11.39-20.19 27.16 19.9 3.35-9.85 3.41-10.02-52.82-38.8 30.6-22.74 38.71 13.09 43.69 14.77c37.73 12.73 43.82 29.98 43.82 66.33l.07 57.54z" fill="#020288"/><g><path d="m390.615 461.998h-35.312c-5.522 0-10-4.477-10-10s4.478-10 10-10h35.312c5.522 0 10 4.477 10 10s-4.477 10-10 10z" fill="#020288"/></g><g><path d="m156.697 461.998h-35.312c-5.523 0-10-4.477-10-10s4.477-10 10-10h35.312c5.523 0 10 4.477 10 10s-4.477 10-10 10z" fill="#020288"/></g></g></svg>