<svg id="Capa_1" enable-background="new 0 0 512 512" height="512" viewBox="0 0 512 512" width="512" xmlns="http://www.w3.org/2000/svg"><g><g><path clip-rule="evenodd" d="m256.004 256 76.979 76.807 48.48 48.372 48.48 48.372c48.051-47.916 72.062-110.748 72.062-173.551h-68.575-68.546z" fill="#a4fcc4" fill-rule="evenodd"/></g><g><path d="m332.98 332.81-7.08-7.06c-38.55 38.44-101.27 38.43-139.81-.02-32.69-32.62-38.49-82.67-14.1-121.73 2.92-4.69 1.49-10.86-3.19-13.78-4.69-2.93-10.85-1.5-13.78 3.19-13.96 22.35-20.06 49.16-17.19 75.48 2.91 26.73 15.03 51.94 34.13 71 23.17 23.12 53.61 34.67 84.04 34.67 30.44 0 60.87-11.55 84.05-34.67l.01-.01zm7.07-160.7c-19.1-19.05-44.36-31.14-71.13-34.05-26.37-2.86-53.22 3.23-75.62 17.15-4.69 2.92-6.13 9.08-3.22 13.77 2.92 4.7 9.09 6.13 13.78 3.22 39.16-24.34 89.36-18.56 122.06 14.07 18.68 18.64 28.96 43.4 28.96 69.73h20c0-31.68-12.37-61.47-34.83-83.89z" fill="#020288"/></g><g><path clip-rule="evenodd" d="m179.025 204.091c13.778 0 24.954-11.152 24.954-24.899 0-5.847-2.03-11.237-5.403-15.487-4.574-5.733-11.634-9.412-19.552-9.412-13.778 0-24.954 11.152-24.954 24.899 0 7.9 3.687 14.945 9.433 19.508 4.26 3.366 9.662 5.391 15.522 5.391z" fill="#a4fcc4" fill-rule="evenodd"/></g><g fill="#020288"><path d="m443.43 256h-20c0-33.66-9.95-66.04-28.76-93.65-3.11-4.56-1.94-10.79 2.63-13.9 4.56-3.11 10.78-1.93 13.89 2.64 21.09 30.94 32.24 67.22 32.24 104.91z"/><path d="m437 75.37c-48.3-48.2-112.51-74.76-180.81-74.81-.07-.01-.12-.01-.19-.01-.06 0-.11 0-.17.01-68.31.04-132.53 26.6-180.83 74.81-48.31 48.19-74.94 112.27-74.99 180.44 0 .06-.01.12-.01.19s.01.14.01.21c.06 68.16 26.69 132.22 74.99 180.42 48.3 48.21 112.52 74.77 180.83 74.81.06.01.11.01.17.01.07 0 .12 0 .19-.01 68.3-.05 132.51-26.61 180.81-74.81 48.37-48.26 75-112.42 75-180.66-.01-68.23-26.64-132.37-75-180.6zm-347.87 14.16c43.47-43.38 99.81-66.26 156.87-68.65v48.35c-46.25 2.45-89.7 21.75-122.52 54.51-32.16 32.08-51.52 74.66-54.5 119.88-.06.8-.09 1.59-.13 2.38h-48.62c2.46-59.14 26.7-114.38 68.9-156.47zm176.87 401.59v-48.37c.8-.04 1.6-.06 2.4-.12 45.32-2.97 87.98-22.28 120.13-54.37l.01-.01-7.08-7.07-7.08-7.06c-58.67 58.55-152.81 65.17-218.99 15.41-4.41-3.32-10.68-2.43-14 1.98-3.32 4.42-2.43 10.68 1.98 14 29.78 22.4 65.57 35.28 102.63 37.26v48.35c-57.05-2.4-113.41-25.27-156.87-68.65-42.2-42.1-66.43-97.34-68.9-156.47h48.62c1.98 36.98 14.89 72.69 37.34 102.41 1.96 2.6 4.96 3.97 7.98 3.97 2.1 0 4.22-.65 6.02-2.02 4.41-3.33 5.29-9.6 1.96-14-21.88-28.97-32.88-63.3-33.38-97.66.24-.86.25-4.5.01-5.35.73-42.16 17.23-83.93 48.83-115.45 32.16-32.1 73.92-48.66 116.01-49.26.77.19 4 .19 4.77 0 37.01.54 74.02 13.41 104.7 38.94 4.25 3.54 10.55 2.96 14.08-1.29 3.54-4.24 2.96-10.55-1.29-14.08-31.15-25.92-69.62-40.87-109.88-42.99v-48.34c57.06 2.4 113.41 25.27 156.88 68.65 22.28 22.23 39.56 48.11 51.27 76.31 11.71 28.19 17.85 58.69 17.85 90.13v.03c-.01 62.88-24.56 122.01-69.12 166.47-.01.01-.01.01-.02.02-43.48 43.37-99.81 66.24-156.86 68.63z"/></g><g><path clip-rule="evenodd" d="m387.494 162.051c5.831 0 11.205-1.997 15.436-5.333 5.803-4.563 9.519-11.637 9.519-19.594 0-13.747-11.177-24.899-24.954-24.899-7.089 0-13.463 2.966-18.008 7.672-4.288 4.478-6.946 10.553-6.946 17.227-.002 13.776 11.175 24.927 24.953 24.927z" fill="#a4fcc4" fill-rule="evenodd"/></g><g><path clip-rule="evenodd" d="m105.591 381.179c0 13.747 11.177 24.899 24.954 24.899 7.518 0 14.264-3.308 18.837-8.556 3.802-4.392 6.117-10.097 6.117-16.343 0-13.747-11.177-24.899-24.954-24.899-6.26 0-12.006 2.31-16.379 6.104-5.259 4.563-8.575 11.294-8.575 18.795z" fill="#a4fcc4" fill-rule="evenodd"/></g></g></svg>