<svg id="Capa_1" enable-background="new 0 0 512 512" height="512" viewBox="0 0 512 512" width="512" xmlns="http://www.w3.org/2000/svg"><g><g><path clip-rule="evenodd" d="m88.348 251.602h335.304v54.954h-335.304z" fill="#ffbdbc" fill-rule="evenodd"/></g><g><path clip-rule="evenodd" d="m170.381 104.899h171.238v48.703h-171.238z" fill="#ffbdbc" fill-rule="evenodd"/></g><path d="m506.479 124.863-246.014-123.256c-2.82-1.413-6.141-1.413-8.959 0l-245.985 123.256c-3.384 1.696-5.521 5.156-5.521 8.941v367.649c0 5.523 4.478 10 10 10h492c5.522 0 10-4.477 10-10v-367.649c0-3.785-2.137-7.245-5.521-8.941zm-431.12 116.739v-32.804h361.281v32.804zm338.293 20v229.851h-60.049v-25.196h18.94c3.904 0 7.451-2.272 9.084-5.818l10.715-23.277c2.31-5.017.114-10.956-4.902-13.266-5.018-2.309-10.956-.115-13.266 4.902l-8.036 17.458h-61.205v-1.709c0-23.522-16.738-43.211-38.948-47.832v-31.134c0-5.523-4.478-10-10-10s-10 4.477-10 10v31.134c-22.209 4.621-38.947 24.311-38.947 47.832v1.709h-61.205l-8.036-17.458c-2.311-5.017-8.249-7.209-13.266-4.902-5.017 2.31-7.212 8.249-4.902 13.266l10.715 23.277c1.633 3.546 5.18 5.818 9.084 5.818h18.969v25.196h-60.049v-229.851zm-206.462 204.655c.701 9.379 4.057 18.029 9.332 25.196h-38.125v-25.196zm19.848-3.665v-18.044c0-15.914 12.985-28.861 28.947-28.861s28.948 12.947 28.948 28.861v18.044c0 15.914-12.986 28.861-28.948 28.861s-28.947-12.947-28.947-28.861zm77.743 3.665h28.822v25.196h-38.153c5.274-7.167 8.631-15.816 9.331-25.196zm187.219 25.196h-58.348v-229.851h12.988c5.522 0 10-4.477 10-10v-52.804c0-5.523-4.478-10-10-10h-381.281c-5.522 0-10 4.477-10 10v52.804c0 5.523 4.478 10 10 10h12.988v229.851h-58.347v-351.475l235.985-118.246 236.015 118.247z" fill="#020288"/></g></svg>