<svg id="Capa_1" enable-background="new 0 0 512 512" height="512" viewBox="0 0 512 512" width="512" xmlns="http://www.w3.org/2000/svg"><g><g><path d="m459.991 364.756h-23.839c-5.523 0-10-4.477-10-10s4.477-10 10-10h23.839c5.523 0 10 4.477 10 10s-4.477 10-10 10z" fill="#020288"/></g><g><path d="m459.991 414.647h-23.839c-5.523 0-10-4.477-10-10s4.477-10 10-10h23.839c5.523 0 10 4.477 10 10s-4.477 10-10 10z" fill="#020288"/></g><g><path d="m459.991 464.538h-23.839c-5.523 0-10-4.477-10-10s4.477-10 10-10h23.839c5.523 0 10 4.477 10 10s-4.477 10-10 10z" fill="#020288"/></g><g><path d="m392.981 364.756h-23.839c-5.523 0-10-4.477-10-10s4.477-10 10-10h23.839c5.523 0 10 4.477 10 10s-4.477 10-10 10z" fill="#020288"/></g><g><path d="m392.981 414.647h-23.839c-5.523 0-10-4.477-10-10s4.477-10 10-10h23.839c5.523 0 10 4.477 10 10s-4.477 10-10 10z" fill="#020288"/></g><g><path d="m392.981 464.538h-23.839c-5.523 0-10-4.477-10-10s4.477-10 10-10h23.839c5.523 0 10 4.477 10 10s-4.477 10-10 10z" fill="#020288"/></g><g><path d="m392.981 364.756h-23.839c-5.523 0-10-4.477-10-10s4.477-10 10-10h23.839c5.523 0 10 4.477 10 10s-4.477 10-10 10z" fill="#020288"/></g><g><path d="m392.981 414.647h-23.839c-5.523 0-10-4.477-10-10s4.477-10 10-10h23.839c5.523 0 10 4.477 10 10s-4.477 10-10 10z" fill="#020288"/></g><g><path d="m392.981 464.538h-23.839c-5.523 0-10-4.477-10-10s4.477-10 10-10h23.839c5.523 0 10 4.477 10 10s-4.477 10-10 10z" fill="#020288"/></g><g><path d="m325.972 414.647h-273.963c-5.523 0-10-4.477-10-10s4.477-10 10-10h273.963c5.523 0 10 4.477 10 10s-4.477 10-10 10z" fill="#020288"/></g><g><path d="m325.972 464.538h-273.963c-5.523 0-10-4.477-10-10s4.477-10 10-10h273.963c5.523 0 10 4.477 10 10s-4.477 10-10 10z" fill="#020288"/></g><g fill="#020288"><path d="m482.98 156.081h-1.452v-22.355c0-13.53-11.022-24.538-24.57-24.538h-7.801v-49.451c0-5.523-4.477-10-10-10s-10 4.477-10 10v49.451h-7.83c-13.548 0-24.57 11.007-24.57 24.538v22.355h-281.543v-22.355c0-13.53-11.022-24.538-24.57-24.538h-7.801v-49.451c0-5.523-4.477-10-10-10s-10 4.477-10 10v49.451h-7.83c-13.548 0-24.57 11.007-24.57 24.538v22.355h-1.452c-15.985 0-28.991 12.986-28.991 28.949v292.473c0 15.963 13.006 28.95 28.992 28.95h453.988c16.001 0 29.02-12.987 29.02-28.95v-292.473c0-15.963-13.019-28.949-29.02-28.949zm-66.222-22.356c0-2.502 2.05-4.538 4.57-4.538h35.631c2.52 0 4.57 2.036 4.57 4.538v22.355h-44.771zm-366.315 0c0-2.459 2.093-4.538 4.57-4.538h35.631c2.52 0 4.57 2.036 4.57 4.538v22.355h-44.771zm441.557 343.778c0 4.851-4.131 8.95-9.02 8.95h-453.988c-4.874 0-8.992-4.099-8.992-8.95v-292.473c0-4.851 4.118-8.95 8.992-8.95h453.988c4.889 0 9.02 4.099 9.02 8.95z"/><path d="m52.018 271.764c1.635 0 3.293-.402 4.826-1.248l37.095-20.486v37.761l-16.404 9.055c-4.835 2.669-6.591 8.752-3.922 13.587 1.823 3.303 5.24 5.169 8.764 5.169 1.634 0 3.292-.401 4.824-1.247l16.742-9.242 16.769 9.244c1.531.844 3.186 1.245 4.819 1.245 3.525 0 6.944-1.869 8.766-5.174 2.667-4.836.907-10.919-3.93-13.585l-16.427-9.056v-37.762l37.125 20.492c1.532.846 3.189 1.247 4.824 1.247 3.523 0 6.94-1.866 8.764-5.169 2.669-4.835.913-10.918-3.922-13.587l-46.791-25.826v-19.184c0-5.523-4.477-10-10-10s-10 4.477-10 10v19.186l-46.764 25.826c-4.834 2.67-6.589 8.754-3.919 13.588 1.822 3.3 5.238 5.166 8.761 5.166z"/><path d="m325.972 344.756h-273.963c-5.523 0-10 4.477-10 10s4.477 10 10 10h273.963c5.523 0 10-4.477 10-10s-4.477-10-10-10z"/></g><g><path clip-rule="evenodd" d="m208.421 231.075h251.57v51.447h-251.57z" fill="#fff59b" fill-rule="evenodd"/></g><g><path clip-rule="evenodd" d="m72.843 59.737h366.314 62.843v-54.19h-492v54.19z" fill="#fff59b" fill-rule="evenodd"/></g></g></svg>