<svg id="Capa_1" enable-background="new 0 0 512 512" height="512" viewBox="0 0 512 512" width="512" xmlns="http://www.w3.org/2000/svg"><g><g><path clip-rule="evenodd" d="m412.026 172.535v-37.817c0-3.422-.177-6.785-.56-10.118-5.575-13.923-19.232-23.776-35.161-23.776-13.952 0-26.164 7.552-32.713 18.82-19.822-10.295-42.211 3.127-45.75 22.33-13.215 5.9-22.448 19.174-22.448 34.572 0 20.914 16.961 37.876 37.875 37.876h98.757z" fill="#a4fcc4" fill-rule="evenodd"/></g><g><path clip-rule="evenodd" d="m99.974 377.282v-204.747-37.817c0-50.058 40.942-91.002 90.999-91.002h130.054c50.057 0 90.999 40.943 90.999 91.002v37.817 204.747c0 12.979-2.743 25.368-7.699 36.548-14.159 32.006-46.222 54.454-83.301 54.454h-122.325-7.728c-50.057 0-90.999-40.944-90.999-91.002zm355.768-242.564c0-74.188-60.529-134.718-134.715-134.718h-130.054c-74.186 0-134.715 60.53-134.715 134.718v242.564c0 74.099 60.381 134.571 134.42 134.718h.295 130.054.295c74.038-.147 134.42-60.619 134.42-134.718z" fill="#a4fcc4" fill-rule="evenodd"/></g><path d="m321.027 33.628h-130.054c-55.74 0-101.088 45.349-101.088 101.09v242.563c0 55.741 45.348 101.09 101.088 101.09h130.054c55.74 0 101.088-45.349 101.088-101.09v-242.563c0-55.741-45.348-101.09-101.088-101.09zm-210.965 343.654v-242.564c0-44.616 36.296-80.914 80.911-80.914h130.054c44.615 0 80.911 36.297 80.911 80.914v242.563c0 7.004-.896 13.801-2.577 20.287l-48.111-35.76c14.433-4.512 24.938-18.006 24.938-33.907 0-19.6-15.932-35.545-35.515-35.545h-82.863l-29.109-21.636c-1.74-1.293-3.85-1.992-6.018-1.992h-68.817c-3.084 0-5.999 1.411-7.912 3.83-1.914 2.419-2.615 5.58-1.905 8.582l41.857 176.88c-42.261-2.626-75.844-37.825-75.844-80.738zm216.207-34.041-41.314-30.708h55.717c8.458 0 15.338 6.894 15.338 15.369 0 8.458-6.881 15.339-15.338 15.339zm-5.242 114.954h-114.347l-40.061-169.29h52.725l172.195 127.989c-13.889 24.626-40.282 41.301-70.512 41.301z" fill="#020288"/></g></svg>