<svg id="Capa_1" enable-background="new 0 0 512 512" height="512" viewBox="0 0 512 512" width="512" xmlns="http://www.w3.org/2000/svg"><g><g><path clip-rule="evenodd" d="m362.095 278.574c84.905 1.171 65.817 40.573 139.905 40.573v-71.896c0-17.845-4.178-34.777-11.647-49.824h-128.258z" fill="#b2f0fb" fill-rule="evenodd"/></g><path d="m398.65 124.532v-12.82c0-17.873-14.562-32.414-32.463-32.414h-90.056c-17.9 0-32.464 14.541-32.464 32.414v12.414h-209.171c-19.021 0-34.496 15.45-34.496 34.441v207.578c0 18.975 15.475 34.413 34.496 34.413h28.473c5.523 0 10-4.477 10-10s-4.477-10-10-10h-28.473c-7.993 0-14.496-6.465-14.496-14.413v-77.6h156.047v92.012h-28.604c-5.523 0-10 4.477-10 10s4.477 10 10 10h217.112c5.522 0 10-4.477 10-10s-4.478-10-10-10h-51.152v-92.012h44.828c43.582 0 58.188 9.689 73.65 19.947 13.926 9.238 28.29 18.76 60.118 20.404v37.249c0 7.947-6.503 14.413-14.495 14.413h-28.474c-5.522 0-10 4.477-10 10s4.478 10 10 10h28.474c19.021 0 34.495-15.438 34.495-34.413v-118.893c.001-64.532-49.992-117.622-113.349-122.72zm-134.982-12.82c0-6.845 5.591-12.414 12.464-12.414h90.056c6.872 0 12.463 5.569 12.463 12.414v12.414h-114.983zm-229.172 32.414h354.154c34.653 0 65.375 17.107 84.135 43.301h-452.785v-28.86c0-7.962 6.503-14.441 14.496-14.441zm44.196 63.301h38.664v61.118h-38.664zm-58.692 0h38.692v61.118h-38.692zm117.355 61.118v-61.118h38.692v61.118zm58.692-61.118h38.664v173.13h-38.664zm58.664 173.131v-173.13h38.692v173.13zm188.227-88.732c-16.45-10.913-35.095-23.281-84.707-23.281h-44.828v-61.118h170.576c5.163 12.259 8.021 25.715 8.021 39.825v61.616c-25.584-1.482-36.57-8.755-49.062-17.042z" fill="#020288"/><g><path clip-rule="evenodd" d="m62.969 390.558c0 23.299 18.915 42.144 42.238 42.144s42.238-18.845 42.238-42.144c0-23.27-18.915-42.115-42.238-42.115s-42.238 18.844-42.238 42.115z" fill="#b2f0fb" fill-rule="evenodd"/></g><g><path clip-rule="evenodd" d="m364.556 390.558c0 23.299 18.915 42.144 42.238 42.144 23.322 0 42.238-18.845 42.238-42.144 0-23.27-18.915-42.115-42.238-42.115s-42.238 18.844-42.238 42.115z" fill="#b2f0fb" fill-rule="evenodd"/></g></g></svg>