<svg id="Capa_1" enable-background="new 0 0 512 512" height="512" viewBox="0 0 512 512" width="512" xmlns="http://www.w3.org/2000/svg"><g><g><path clip-rule="evenodd" d="m131.412 469.941c82.131-21.458 165.17-21.713 249.176 0v-177.616c-9.347 5.272-20.114 8.305-31.619 8.305-22.642 0-42.528-11.707-53.949-29.395h-78.068c-11.392 17.688-31.307 29.395-53.949 29.395-11.477 0-22.273-3.033-31.591-8.305z" fill="#ffbdbc" fill-rule="evenodd"/></g><g><path clip-rule="evenodd" d="m191.81 21.027v158.482c10.284 5.159 18.949 13.011 25.142 22.592h78.068c6.193-9.581 14.886-17.433 25.142-22.592v-158.482c-20.085-7.144-41.705-11.027-64.176-11.027s-44.063 3.883-64.176 11.027z" fill="#ffbdbc" fill-rule="evenodd"/></g><path d="m472.719 304.605h-14.177v-25.604c8-3.767 13.552-11.903 13.552-21.315v-42.037c0-9.476-5.63-17.657-13.717-21.39-1.952-50.843-22.836-98.492-59.335-134.906-38.363-38.274-89.169-59.353-143.057-59.353-53.875 0-104.672 21.079-143.032 59.354-36.494 36.413-57.377 84.061-59.33 134.9-8.104 3.73-13.746 11.914-13.746 21.395v42.037c0 9.416 5.565 17.555 13.58 21.32v25.598h-14.204c-18.845 0-34.176 15.32-34.176 34.151v42.774c0 18.831 15.331 34.151 34.176 34.151h14.205v32.689c0 24.036 9.084 41.638 27 52.317 12.771 7.613 29.439 11.314 50.954 11.314 5.522 0 10-4.477 10-10v-194.581c6.835 2.082 14.082 3.212 21.591 3.212 24.112 0 45.565-11.553 59.109-29.395h67.77c13.539 17.842 34.984 29.395 59.087 29.395 7.519 0 14.776-1.132 21.619-3.22v194.589c0 5.523 4.478 10 10 10 21.505 0 38.168-3.701 50.942-11.313 17.924-10.681 27.012-28.283 27.012-52.317v-32.689h14.177c18.86 0 34.204-15.32 34.204-34.151v-42.774c0-18.831-15.344-34.151-34.204-34.151zm-24.177-92.505c1.925 0 3.552 1.625 3.552 3.549v42.037c0 1.924-1.627 3.549-3.552 3.549h-29.698c2.72-7.688 4.216-15.948 4.216-24.554 0-8.616-1.498-16.886-4.222-24.582h29.704zm-192.557-192.1c97.298 0 177.055 76.323 182.278 172.1h-30.216c-13.54-17.843-34.98-29.395-59.078-29.395s-45.538 11.552-59.078 29.395h-67.788c-13.545-17.843-34.994-29.395-59.1-29.395-24.098 0-45.538 11.552-59.078 29.395h-30.188c5.222-95.777 84.966-172.1 182.248-172.1zm-192.527 241.236c-1.94 0-3.58-1.625-3.58-3.549v-42.037c0-1.924 1.64-3.549 3.58-3.549h29.676c-2.724 7.696-4.222 15.966-4.222 24.582 0 8.606 1.496 16.866 4.216 24.554h-29.67zm-24.205 134.445c-7.816 0-14.176-6.348-14.176-14.151v-42.774c0-7.803 6.359-14.151 14.176-14.151h14.205v71.076zm82.159 95.982c-42.741-3.029-47.954-25.84-47.954-43.293v-167.134h30.458c4.885 6.438 10.797 12.058 17.496 16.61zm41.591-201.032c-29.826 0-54.091-24.201-54.091-53.949 0-29.763 24.265-53.977 54.091-53.977 29.842 0 54.119 24.214 54.119 53.977 0 29.748-24.277 53.949-54.119 53.949zm69.902-29.395c2.721-7.688 4.217-15.948 4.217-24.554 0-8.616-1.498-16.886-4.224-24.582h46.202c-2.724 7.696-4.222 15.966-4.222 24.582 0 8.606 1.496 16.866 4.216 24.554zm61.973-24.554c0-29.763 24.265-53.977 54.091-53.977s54.091 24.214 54.091 53.977c0 29.748-24.265 53.949-54.091 53.949s-54.091-24.201-54.091-53.949zm143.664 211.688c0 17.453-5.213 40.264-47.954 43.293v-193.837c6.687-4.549 12.589-10.161 17.468-16.59h30.487v167.134zm48.381-66.84c0 7.803-6.372 14.151-14.204 14.151h-14.177v-71.076h14.177c7.832 0 14.204 6.348 14.204 14.151z" fill="#020288"/></g></svg>