<svg id="Capa_1" enable-background="new 0 0 512 512" height="512" viewBox="0 0 512 512" width="512" xmlns="http://www.w3.org/2000/svg"><g><g><path clip-rule="evenodd" d="m109.949 386.264h117.869v-55.388h-117.869c7.67 7.625 11.506 17.66 11.506 27.694s-3.836 20.04-11.506 27.694z" fill="#fff59b" fill-rule="evenodd"/></g><g><path clip-rule="evenodd" d="m284.182 386.264h117.869c-7.67-7.653-11.506-17.659-11.506-27.694 0-10.034 3.835-20.069 11.506-27.694h-117.869z" fill="#fff59b" fill-rule="evenodd"/></g><path d="m423.557 192.349v-25.143c0-44.489-17.48-86.432-49.223-118.103-31.735-31.665-73.761-49.103-118.334-49.103s-86.599 17.438-118.334 49.104c-31.742 31.671-49.223 73.614-49.223 118.103v25.143c0 13.131 5.129 25.48 14.442 34.773 5.526 5.514 8.569 12.845 8.569 20.644 0 7.78-3.043 15.101-8.568 20.615-9.314 9.292-14.443 21.642-14.443 34.773 0 13.149 5.129 25.509 14.455 34.814 5.518 5.485 8.557 12.802 8.557 20.602 0 7.78-3.043 15.101-8.568 20.615-9.314 9.292-14.443 21.642-14.443 34.773 0 13.149 5.129 25.509 14.442 34.801 9.307 9.287 21.673 14.402 34.819 14.402h21.022v28.838h-16.393c-5.522 0-10 4.477-10 10s4.478 10 10 10h52.812c5.522 0 10-4.477 10-10s-4.478-10-10-10h-16.42v-28.84h21.022c20.991 0 38.068-17.049 38.068-38.006v-106.751c0-4.663.048-8.762.091-12.379.175-14.835.271-23.008-3.729-30.847-3.918-7.677-10.785-12.896-23.254-22.371l-.32-.244c-18.941-14.411-29.805-36.161-29.805-59.675v-26.22c0-41.36 33.734-75.009 75.199-75.009s75.199 33.649 75.199 75.009v26.22c0 23.52-10.872 45.269-29.833 59.675l-.319.242c-12.456 9.476-19.317 14.696-23.231 22.372-3.995 7.837-3.899 16.007-3.725 30.838.043 3.62.091 7.722.091 12.389v106.751c0 20.957 17.064 38.006 38.04 38.006h21.051v28.84h-16.42c-5.522 0-10 4.477-10 10s4.478 10 10 10h52.812c5.522 0 10-4.477 10-10s-4.478-10-10-10h-16.393v-28.84h21.022c13.146 0 25.513-5.115 34.818-14.401 9.314-9.292 14.443-21.652 14.443-34.801 0-13.131-5.129-25.48-14.442-34.772-5.526-5.514-8.569-12.835-8.569-20.615 0-7.8 3.039-15.117 8.569-20.615 9.313-9.293 14.442-21.652 14.442-34.802 0-13.131-5.129-25.481-14.442-34.772-5.526-5.514-8.569-12.835-8.569-20.615 0-7.798 3.043-15.129 8.569-20.643 9.317-9.294 14.446-21.644 14.446-34.775zm-20 0c0 7.781-3.043 15.102-8.569 20.616-9.313 9.293-14.442 21.652-14.442 34.801 0 13.13 5.129 25.479 14.443 34.773 5.525 5.513 8.568 12.834 8.568 20.615 0 7.799-3.043 15.13-8.556 20.631-9.322 9.267-14.456 21.621-14.456 34.786 0 13.13 5.129 25.479 14.443 34.773 5.525 5.513 8.568 12.834 8.568 20.615 0 7.799-3.043 15.13-8.569 20.644-5.531 5.52-12.88 8.559-20.692 8.559h-62.073c-9.947 0-18.04-8.078-18.04-18.006v-106.753c0-4.785-.049-8.95-.093-12.625-.137-11.653-.212-18.072 1.545-21.518 1.839-3.607 7.41-7.846 17.522-15.539l.314-.239c23.977-18.216 37.729-45.77 37.729-75.596v-26.22c0-52.388-42.706-95.009-95.199-95.009s-95.199 42.621-95.199 95.009v26.22c0 29.814 13.739 57.366 37.699 75.595l.325.247c10.123 7.692 15.698 11.93 17.54 15.538 1.758 3.445 1.683 9.866 1.545 21.521-.043 3.672-.092 7.834-.092 12.615v106.751c0 9.928-8.105 18.006-18.068 18.006h-62.045c-7.812 0-15.161-3.04-20.693-8.56-5.525-5.513-8.568-12.844-8.568-20.643 0-7.781 3.043-15.102 8.569-20.615 9.313-9.293 14.442-21.642 14.442-34.772 0-13.165-5.134-25.519-14.442-34.773-5.526-5.513-8.569-12.845-8.569-20.644 0-7.781 3.043-15.102 8.569-20.615 9.313-9.293 14.442-21.642 14.442-34.772 0-13.148-5.129-25.508-14.442-34.801-5.526-5.513-8.569-12.834-8.569-20.615v-25.143c-.001-81.169 66.193-147.206 147.556-147.206s147.557 66.037 147.557 147.207z" fill="#020288"/></g></svg>