<svg id="Capa_1" enable-background="new 0 0 512 512" height="512" viewBox="0 0 512 512" width="512" xmlns="http://www.w3.org/2000/svg"><g><g><path d="m197.905 353.443h-71.715c-5.523 0-10-4.477-10-10s4.477-10 10-10h71.715c5.523 0 10 4.477 10 10s-4.477 10-10 10z" fill="#020288"/></g><g><path d="m385.782 353.443h-71.687c-5.523 0-10-4.477-10-10s4.477-10 10-10h71.687c5.523 0 10 4.477 10 10s-4.477 10-10 10z" fill="#020288"/></g><g><path clip-rule="evenodd" d="m255.986 198.097c52.071 0 94.307-42.113 94.307-94.069 0-51.984-42.235-94.097-94.307-94.097s-94.279 42.113-94.279 94.097c0 51.956 42.207 94.069 94.279 94.069z" fill="#a4fcc4" fill-rule="evenodd"/></g><g><path clip-rule="evenodd" d="m126.19 343.443v-45.451c0-31.903-26.135-57.98-58.081-57.98-31.974 0-58.109 26.077-58.109 57.98v90.307h116.19z" fill="#a4fcc4" fill-rule="evenodd"/></g><g><path clip-rule="evenodd" d="m314.095 343.443v-45.451c0-31.903-26.135-57.98-58.109-57.98-31.946 0-58.081 26.077-58.081 57.98v45.451 44.857h116.19z" fill="#a4fcc4" fill-rule="evenodd"/></g><g><path clip-rule="evenodd" d="m502 388.299v-90.307c0-31.903-26.163-57.98-58.109-57.98s-58.109 26.077-58.109 57.98v45.451 44.857h116.218z" fill="#a4fcc4" fill-rule="evenodd"/></g><g><path d="m81.573 304.202h-26.928c-5.523 0-10-4.477-10-10s4.477-10 10-10h26.928c5.523 0 10 4.477 10 10s-4.477 10-10 10z" fill="#020288"/></g><g><path d="m269.45 304.202h-26.929c-5.523 0-10-4.477-10-10s4.477-10 10-10h26.929c5.523 0 10 4.477 10 10s-4.477 10-10 10z" fill="#020288"/></g><g><path d="m457.355 304.202h-26.928c-5.523 0-10-4.477-10-10s4.477-10 10-10h26.928c5.523 0 10 4.477 10 10s-4.477 10-10 10z" fill="#020288"/></g><g fill="#020288"><path d="m279.683 94.028h-13.697v-42.182c0-5.523-4.477-10-10-10s-10 4.477-10 10v52.182c0 5.523 4.477 10 10 10h23.697c5.523 0 10-4.477 10-10s-4.477-10-10-10z"/><path d="m502 450.198c5.523 0 10-4.477 10-10v-51.899c0-5.523-4.477-10-10-10h-492c-5.523 0-10 4.477-10 10v51.899c0 5.523 4.477 10 10 10h48.109v31.871h-48.109c-5.523 0-10 4.477-10 10s4.477 10 10 10h492c5.523 0 10-4.477 10-10s-4.477-10-10-10h-48.109v-31.871zm-482-51.899h472v31.899h-472zm413.891 83.77h-355.782v-31.871h355.782z"/></g></g></svg>