<svg id="Capa_1" enable-background="new 0 0 512 512" height="512" viewBox="0 0 512 512" width="512" xmlns="http://www.w3.org/2000/svg"><g><g><path clip-rule="evenodd" d="m111.813 349.089h100.057 18.695v-178.296h-141.447v178.296z" fill="#e2c4ff" fill-rule="evenodd"/></g><g fill="#020288"><path d="m311.782 339.068h-21.833v-249.976c0-14.026-11.426-25.437-25.471-25.437h-42.586v-43.611h17.398c5.535 0 10.022-4.487 10.022-10.022s-4.487-10.022-10.022-10.022h-158.897c-5.535 0-10.022 4.487-10.022 10.022s4.487 10.022 10.022 10.022h17.398v43.611h-42.586c-14.045 0-25.471 11.411-25.471 25.437v249.976h-17.804c-5.535 0-10.022 4.487-10.022 10.022s4.487 10.022 10.022 10.022h89.861v45.217c0 5.535 4.487 10.022 10.022 10.022s10.022-4.487 10.022-10.022v-45.217h80.013v45.217c0 5.535 4.487 10.022 10.022 10.022s10.022-4.487 10.022-10.022v-45.217h89.89c5.535 0 10.022-4.487 10.022-10.022s-4.487-10.022-10.022-10.022zm-193.947-319.024h84.013v43.611h-84.013zm152.07 319.024h-220.127v-249.976c0-2.923 2.485-5.393 5.427-5.393h209.273c2.942 0 5.427 2.47 5.427 5.393z"/><path d="m510.092 97.825c0-42.3-34.48-76.713-76.862-76.713-42.366 0-76.832 34.413-76.832 76.713 0 38.892 29.166 71.091 66.811 76.011v127.137c-17.863 4.48-31.13 20.642-31.13 39.845v63.51c0 5.535 4.487 10.022 10.022 10.022s10.022-4.487 10.022-10.022v-63.51c0-11.601 9.469-21.039 21.108-21.039 11.655 0 21.137 9.438 21.137 21.039v63.51c0 5.535 4.487 10.022 10.022 10.022s10.022-4.487 10.022-10.022v-63.51c0-19.205-13.28-35.369-31.159-39.847v-127.134c37.659-4.918 66.839-37.118 66.839-76.012zm-76.862 56.641c-31.313 0-56.789-25.409-56.789-56.641 0-31.248 25.475-56.669 56.789-56.669 12.006 0 23.147 3.744 32.332 10.107l-39.423 39.481c-3.911 3.917-3.906 10.262.01 14.173 1.956 1.954 4.519 2.93 7.081 2.93 2.567 0 5.135-.981 7.092-2.94l39.459-39.516c6.461 9.197 10.268 20.377 10.268 32.435-.001 31.231-25.49 56.64-56.819 56.64z"/></g><g><path clip-rule="evenodd" d="m427.433 512h81.246v-107.672h-44.29-62.289-190.23-100.057-106.231v107.672h91.883l10.667-45.377h297.968z" fill="#e2c4ff" fill-rule="evenodd"/></g></g></svg>