<svg id="Capa_1" enable-background="new 0 0 512 512" height="512" viewBox="0 0 512 512" width="512" xmlns="http://www.w3.org/2000/svg"><g><g><path clip-rule="evenodd" d="m197.905 108.454h116.19v50.513h-116.19z" fill="#ffbdbc" fill-rule="evenodd"/></g><g><path clip-rule="evenodd" d="m177.779 57.941h156.413v-25.257c0-13.887-11.395-25.257-25.313-25.257h-105.787c-13.918 0-25.313 11.37-25.313 25.257z" fill="#ffbdbc" fill-rule="evenodd"/></g><g fill="#020288"><path d="m295.789 223.291c3.909-3.901 3.916-10.232.016-14.142-3.902-3.91-10.232-3.916-14.143-.016-14.159 14.127-37.195 14.126-51.353 0-3.909-3.9-10.241-3.894-14.142.016s-3.894 10.241.016 14.142c10.974 10.949 25.388 16.423 39.803 16.423s28.829-5.474 39.803-16.423z"/><path d="m313.918 241.322c-31.931 31.885-83.908 31.884-115.866-.003-3.91-3.901-10.241-3.894-14.142.016-3.901 3.909-3.894 10.241.016 14.142 19.875 19.831 45.974 29.745 72.071 29.745 26.098 0 52.193-9.917 72.054-29.748 3.907-3.902 3.912-10.234.01-14.142-3.905-3.908-10.238-3.913-14.143-.01z"/><path d="m502 339.368h-53.354v-170.401h16.929c11.907 0 21.594-9.675 21.594-21.567v-77.863c0-11.908-9.687-21.596-21.594-21.596h-419.151c-11.922 0-21.622 9.688-21.622 21.596v77.863c0 11.892 9.699 21.567 21.622 21.567h16.9v170.401h-53.324c-5.523 0-10 4.477-10 10v145.204c0 5.523 4.477 10 10 10h63.325 46.175c5.523 0 10-4.477 10-10v-325.605h253v325.605c0 5.523 4.478 10 10 10h46.146 63.354c5.522 0 10-4.477 10-10v-145.204c0-5.523-4.478-10-10-10zm-457.197-191.968v-28.946h46.267c5.523 0 10-4.477 10-10s-4.477-10-10-10h-46.267v-28.917c0-.85.758-1.596 1.622-1.596h419.151c.864 0 1.594.731 1.594 1.596v28.917h-46.238c-5.522 0-10 4.477-10 10s4.478 10 10 10h46.238v28.946c0 .835-.745 1.567-1.594 1.567h-419.152c-.863 0-1.621-.732-1.621-1.567zm-24.803 211.968h43.325v125.204h-43.325zm89.5 125.204h-26.175v-315.605h26.175zm293-315.605h26.146v315.605h-26.146zm89.5 315.605h-43.354v-125.204h43.354z"/></g></g></svg>