<svg id="Capa_1" enable-background="new 0 0 512 512" height="512" viewBox="0 0 512 512" width="512" xmlns="http://www.w3.org/2000/svg"><g><g><path clip-rule="evenodd" d="m188.749 303.869c.113 18.836 15.449 34.251 34.327 34.251h32.91 32.91c18.878 0 34.214-15.414 34.327-34.251l.17-27.491.113-18.356h-135.012l.113 18.356z" fill="#fff59b" fill-rule="evenodd"/></g><g><path d="m268.203 308.071h-24.406c-5.522 0-10-4.477-10-10s4.478-10 10-10h24.406c5.522 0 10 4.477 10 10s-4.477 10-10 10z" fill="#020288"/></g><g fill="#020288"><path d="m95.548 168.862h320.876c5.522 0 10-4.477 10-10s-4.478-10-10-10h-320.876c-5.522 0-10 4.477-10 10s4.477 10 10 10z"/><path d="m415.104 205.883-73.952 9.854c-9.973 1.413-26.817 7.56-27.584 32.846-.003.081-.004.161-.005.241 0 0-.357 45.361-.285 46.071l-.055 8.913c-.08 13.405-10.994 24.311-24.327 24.311h-65.819c-13.334 0-24.247-10.906-24.327-24.308l-.312-54.982c-.001-.082-.002-.165-.005-.247-.767-25.289-17.631-31.434-27.695-32.858l-73.869-9.842c-5.474-.729-10.504 3.117-11.232 8.592-.729 5.475 3.117 10.504 8.592 11.233l73.789 9.831c6.343.897 10.086 3.404 10.422 13.533l.223 39.362-58.258 39.544c-2.742 1.861-4.384 4.96-4.384 8.274v97.786h-13.98c-5.522 0-10 4.477-10 10s4.478 10 10 10h47.99c5.522 0 10-4.477 10-10s-4.478-10-10-10h-14.01v-92.488l43.529-29.546c3.919 20.522 21.983 36.115 43.528 36.115h65.819c21.478 0 39.498-15.496 43.493-35.922l43.223 29.353v92.489h-13.98c-5.522 0-10 4.477-10 10s4.478 10 10 10h47.99c5.522 0 10-4.477 10-10s-4.478-10-10-10h-14.01v-97.786c0-3.313-1.641-6.411-4.382-8.273l-57.912-39.328.245-39.575c.335-10.133 4.068-12.64 10.313-13.525l73.869-9.842c5.475-.729 9.321-5.759 8.592-11.233-.732-5.476-5.776-9.323-11.234-8.593z"/></g><g fill="#020288"><path d="m127.976 57.961h-117.976c-5.522 0-10 4.477-10 10s4.478 10 10 10h48.988v57.653c0 5.523 4.478 10 10 10s10-4.477 10-10v-57.653h48.987c5.522 0 10-4.477 10-10s-4.477-10-9.999-10z"/><path d="m502 57.961h-118.004c-5.522 0-10 4.477-10 10s4.478 10 10 10h48.987v57.653c0 5.523 4.478 10 10 10s10-4.477 10-10v-57.653h49.017c5.522 0 10-4.477 10-10s-4.478-10-10-10z"/></g><g><path clip-rule="evenodd" d="m42.428 216.531c0 14.566 11.962 26.501 26.56 26.501s26.56-11.935 26.56-26.501v-.735-56.933-23.249h-26.56-26.56z" fill="#fff59b" fill-rule="evenodd"/></g><g><path clip-rule="evenodd" d="m416.424 158.862v56.933.735c0 14.566 11.962 26.501 26.56 26.501 14.626 0 26.56-11.935 26.56-26.501v-80.917h-26.56-26.56z" fill="#fff59b" fill-rule="evenodd"/></g></g></svg>