<svg id="Capa_1" enable-background="new 0 0 512 512" height="512" viewBox="0 0 512 512" width="512" xmlns="http://www.w3.org/2000/svg"><g><g><path clip-rule="evenodd" d="m27.149 186.982c18.708-21.976 51.334-39.511 90.99-52.21l-29.621-44.97h-75.4z" fill="#b2f0fb" fill-rule="evenodd"/></g><g><path clip-rule="evenodd" d="m13.118 370.651h75.4l29.621-44.998c-39.656-12.699-72.282-30.206-90.99-52.182z" fill="#b2f0fb" fill-rule="evenodd"/></g><path d="m475.646 150.64c-21.91-19.951-52.496-34.221-88.451-41.266-56.485-11.068-126.635-11.845-192.458-2.13-69.919 10.318-126.752 31.085-160.031 58.477-23.029 18.954-34.706 40.657-34.706 64.505 0 23.843 11.671 45.54 34.689 64.489 33.272 27.391 90.106 48.159 160.032 58.479 9.968 1.471 20.04 2.676 30.144 3.667l5.832 25.809c6.434 28.445 19.372 39.528 46.15 39.528h76.846c13.548 0 24.569-11.007 24.569-24.537v-44.95c3.009-.519 5.993-1.058 8.931-1.633 35.95-7.044 66.536-21.318 88.452-41.277 23.784-21.66 36.355-49.176 36.355-79.575 0-30.409-12.571-57.93-36.354-79.586zm-117.382 247.021c0 2.502-2.05 4.537-4.569 4.537h-76.846c-14.76 0-21.741-2.265-26.643-23.938l-4.45-19.694c14.014.915 28.018 1.397 41.843 1.397 24.413 0 48.271-1.426 70.665-4.264zm25.087-66.21c-30.172 5.906-62.948 8.68-96.073 8.679-95.662-.003-194.078-23.153-239.876-60.855-14.692-12.095-23.525-25.192-26.377-39.048h262.189c5.522 0 10-4.477 10-10s-4.478-10-10-10h-262.19c2.853-13.861 11.69-26.964 26.392-39.063 45.811-37.706 144.186-60.852 239.827-60.852 33.128 0 65.935 2.778 96.105 8.69 62.417 12.23 102.808 46.716 108.061 91.225h-118.15c-5.522 0-10 4.477-10 10s4.478 10 10 10h118.151c-5.254 44.508-45.644 78.994-108.059 91.224z" fill="#020288"/><g><path clip-rule="evenodd" d="m263.214 230.226c0 15.131 12.416 27.548 27.609 27.548h64.827c15.193 0 27.609-12.416 27.609-27.548 0-15.16-12.416-27.548-27.609-27.548h-64.827c-15.193.001-27.609 12.389-27.609 27.548z" fill="#b2f0fb" fill-rule="evenodd"/></g></g></svg>