<svg id="Capa_1" enable-background="new 0 0 512 512" height="512" viewBox="0 0 512 512" width="512" xmlns="http://www.w3.org/2000/svg"><g><g><path clip-rule="evenodd" d="m177.042 282.6h262.115 45.155c9.694 0 17.631-7.863 17.688-17.535v-.113-120.542-.113c-.057-9.644-7.994-17.535-17.688-17.535h-45.155-262.115z" fill="#b2f0fb" fill-rule="evenodd"/></g><g><path clip-rule="evenodd" d="m177.042 501.453h307.27.085c9.666-.057 17.546-7.919 17.603-17.564v-.085-120.57-.113c-.057-9.644-7.994-17.535-17.688-17.535h-45.155-262.115z" fill="#b2f0fb" fill-rule="evenodd"/></g><path d="m502 73.775c5.523 0 10-4.477 10-10v-53.228c0-5.523-4.477-10-10-10h-492c-5.523 0-10 4.477-10 10v53.229c0 5.523 4.477 10 10 10h52.843v42.986h-35.155c-15.267-.001-27.688 12.402-27.688 27.648v120.542c0 15.245 12.421 27.648 27.688 27.648h35.155v42.986h-35.155c-15.267 0-27.688 12.403-27.688 27.649v120.57c0 15.246 12.421 27.648 27.688 27.648h456.624c15.267 0 27.688-12.403 27.688-27.648v-120.57c0-15.246-12.421-27.649-27.688-27.649h-35.155v-42.986h35.155c15.267 0 27.688-12.403 27.688-27.648v-120.542c0-15.246-12.421-27.648-27.688-27.648h-35.155v-42.987zm-482-53.228h472v33.229h-472zm472 342.688v120.57c0 4.146-3.521 7.648-7.688 7.648h-456.624c-4.167 0-7.688-3.502-7.688-7.648v-120.57c0-4.146 3.521-7.649 7.688-7.649h456.624c4.167 0 7.688 3.503 7.688 7.649zm-62.843-27.649h-346.314v-42.986h346.314zm62.843-191.176v120.542c0 4.217-3.449 7.648-7.688 7.648h-456.624c-4.239 0-7.688-3.431-7.688-7.648v-120.542c0-4.146 3.521-7.648 7.688-7.648h456.624c4.167-.001 7.688 3.502 7.688 7.648zm-62.843-27.649h-346.314v-42.986h346.314z" fill="#020288"/><g fill="#020288"><path d="m58.472 208.77c2.525 0 5.053-.951 6.999-2.858l18.036-17.675v56.691c0 5.523 4.477 10 10 10s10-4.477 10-10v-56.705l18.067 17.692c3.946 3.863 10.277 3.797 14.142-.148 3.864-3.946 3.797-10.277-.148-14.142l-35.064-34.335c-3.889-3.808-10.109-3.807-13.996.003l-35.035 34.335c-3.944 3.866-4.008 10.197-.143 14.142 1.958 1.998 4.549 3 7.142 3z"/><path d="m133.872 413.505h-56.811l17.674-17.939c3.876-3.934 3.829-10.266-.105-14.142s-10.266-3.829-14.142.105l-34.44 34.958c-3.834 3.892-3.835 10.14-.003 14.033l34.44 34.986c1.958 1.988 4.541 2.985 7.127 2.985 2.533 0 5.067-.957 7.015-2.874 3.936-3.875 3.986-10.206.111-14.142l-17.691-17.971h56.824c5.523 0 10-4.477 10-10s-4.476-9.999-9.999-9.999z"/></g><g><path d="m459.991 240.645h-42.746c-5.523 0-10-4.477-10-10s4.477-10 10-10h42.746c5.523 0 10 4.477 10 10s-4.477 10-10 10zm-92.747 0h-148.221c-5.523 0-10-4.477-10-10s4.477-10 10-10h148.221c5.523 0 10 4.477 10 10s-4.477 10-10 10zm92.747-51.928h-148.192c-5.523 0-10-4.477-10-10s4.477-10 10-10h148.192c5.523 0 10 4.477 10 10s-4.477 10-10 10zm-198.194 0h-42.774c-5.523 0-10-4.477-10-10s4.477-10 10-10h42.774c5.523 0 10 4.477 10 10s-4.477 10-10 10z" fill="#020288"/></g><g><path d="m459.991 459.498h-148.192c-5.523 0-10-4.477-10-10s4.477-10 10-10h148.192c5.523 0 10 4.477 10 10s-4.477 10-10 10zm-198.194 0h-42.774c-5.523 0-10-4.477-10-10s4.477-10 10-10h42.774c5.523 0 10 4.477 10 10s-4.477 10-10 10zm198.194-51.956h-42.746c-5.523 0-10-4.477-10-10s4.477-10 10-10h42.746c5.523 0 10 4.477 10 10s-4.477 10-10 10zm-92.747 0h-148.221c-5.523 0-10-4.477-10-10s4.477-10 10-10h148.221c5.523 0 10 4.477 10 10s-4.477 10-10 10z" fill="#020288"/></g></g></svg>