<svg id="Capa_1" enable-background="new 0 0 512 512" height="512" viewBox="0 0 512 512" width="512" xmlns="http://www.w3.org/2000/svg"><g><g fill="#020288"><path d="m474.901.547h-437.802c-20.456 0-37.099 16.615-37.099 37.038v436.829c0 20.423 16.643 37.039 37.099 37.039h437.803c20.456 0 37.099-16.615 37.099-37.039v-436.829c-.001-20.423-16.644-37.038-37.1-37.038zm17.099 473.868c0 9.395-7.67 17.039-17.099 17.039h-437.802c-9.429-.001-17.099-7.644-17.099-17.039v-436.83c0-9.395 7.67-17.039 17.099-17.039h437.803c9.428 0 17.099 7.644 17.099 17.039v436.83z"/><path d="m255.986 49.024c-114.361 0-207.401 92.843-207.401 206.962s93.04 206.962 207.401 206.962 207.401-92.843 207.401-206.962-93.04-206.962-207.401-206.962zm10 393.656v-30.29c0-5.523-4.477-10-10-10s-10 4.477-10 10v30.29c-95.382-5.028-172.08-81.539-177.131-176.695h30.379c5.523 0 10-4.477 10-10s-4.477-10-10-10h-30.38c5.052-95.156 81.749-171.667 177.131-176.695v30.29c0 5.523 4.477 10 10 10s10-4.477 10-10v-30.29c95.382 5.028 172.08 81.539 177.131 176.695h-30.379c-5.523 0-10 4.477-10 10s4.477 10 10 10h30.379c-5.05 95.157-81.748 171.667-177.13 176.695z"/></g><g><path clip-rule="evenodd" d="m216.5 229.315v-88.384h-53.489v230.11h53.489v-88.384h79v88.384h53.46v-230.11h-53.46v88.384z" fill="#a4fcc4" fill-rule="evenodd"/></g></g></svg>