<svg id="Capa_1" enable-background="new 0 0 502 502" height="512" viewBox="0 0 502 502" width="512" xmlns="http://www.w3.org/2000/svg"><g><path d="m114.313 45.852h21.407v43.879c0 5.523 4.477 10 10 10s10-4.477 10-10v-43.879h55.343v43.879c0 5.523 4.477 10 10 10s10-4.477 10-10v-43.879h21.407c5.522 0 10-4.477 10-10s-4.478-10-10-10h-138.157c-5.523 0-10 4.477-10 10s4.477 10 10 10z" fill="#020288"/><g><path clip-rule="evenodd" d="m87.073 281.291h192.61v-179.229c0-6.788-5.556-12.331-12.359-12.331h-46.261-75.343-46.289c-6.803 0-12.359 5.543-12.359 12.331v179.229z" fill="#fff59b" fill-rule="evenodd"/></g><g><path d="m226.166 155.59h-85.548c-5.523 0-10-4.477-10-10s4.477-10 10-10h85.548c5.523 0 10 4.477 10 10s-4.477 10-10 10z" fill="#020288"/></g><path d="m405.397 131.064h-48.642c-5.522 0-10 4.477-10 10v192.053h-29.209v-40.146c0-11.955-9.725-21.681-21.679-21.681h-224.951c-11.969 0-21.707 9.726-21.707 21.681v40.146h-12.224c-20.394 0-36.985 16.565-36.985 36.926 0 20.376 16.591 36.954 36.985 36.954h5.416c-4.685 7.047-7.423 15.49-7.423 24.562 0 24.587 20.038 44.59 44.667 44.59s44.667-20.003 44.667-44.59c0-9.072-2.738-17.514-7.423-24.562h132.998c-4.682 7.047-7.418 15.49-7.418 24.562 0 24.587 20.024 44.59 44.639 44.59 24.63 0 44.667-20.003 44.667-44.59 0-9.072-2.738-17.514-7.423-24.562h32.402c5.522 0 10-4.477 10-10v-53.879-192.054h38.642c5.522 0 10-4.477 10-10s-4.476-10-9.999-10zm-336.189 161.908c0-.896.798-1.681 1.707-1.681h224.953c.895 0 1.679.785 1.679 1.681v40.146h-228.339zm-32.223 94.025c-9.366 0-16.985-7.605-16.985-16.954 0-9.333 7.62-16.926 16.985-16.926h32.661v33.879h-32.661zm42.661 69.151c-13.602 0-24.667-11.031-24.667-24.59 0-13.543 11.065-24.562 24.667-24.562s24.667 11.018 24.667 24.562c0 13.559-11.065 24.59-24.667 24.59zm207.463 0c-13.586 0-24.639-11.031-24.639-24.59 0-13.543 11.053-24.562 24.639-24.562 13.602 0 24.667 11.018 24.667 24.562 0 13.559-11.065 24.59-24.667 24.59zm59.647-69.151h-257.11v-33.879h257.11z" fill="#020288"/><g><path clip-rule="evenodd" d="m470.253 109.388h-58.506c-3.487 0-6.349 2.857-6.349 6.364v25.313 25.313c0 3.479 2.863 6.335 6.349 6.335h58.506c17.461 0 31.747-14.226 31.747-31.649s-14.286-31.676-31.747-31.676z" fill="#fff59b" fill-rule="evenodd"/></g></g></svg>