<svg id="Capa_1" enable-background="new 0 0 512 512" height="512" viewBox="0 0 512 512" width="512" xmlns="http://www.w3.org/2000/svg"><g><g><path clip-rule="evenodd" d="m211.41 178.595c0 24.551 19.957 44.463 44.591 44.463 24.606 0 44.562-19.912 44.562-44.463 0-24.579-19.957-44.491-44.562-44.491-24.635-.001-44.591 19.911-44.591 44.491z" fill="#e2c4ff" fill-rule="evenodd"/></g><g><path clip-rule="evenodd" d="m217.022 349.631h77.956 34.669l5.981-36.402 3.997-24.325h-167.25l3.997 24.325 5.981 36.402z" fill="#e2c4ff" fill-rule="evenodd"/></g><path d="m511.603 114.643-6.035-39.778c-2.831-18.896-20.56-31.971-39.536-29.138l-16.06 2.432c-6.327-13.131-20.708-21.233-35.866-18.952-8.988 1.356-16.922 6.144-22.34 13.484-5.421 7.342-7.657 16.331-6.297 25.309l22.593 149.285c1.52 10.034-1.04 20.156-7.205 28.5-6.169 8.348-15.104 13.781-25.157 15.298-7.081 1.063-14.313.075-20.901-2.776l12.609-76.674c4.162-25.28-3.339-50.739-21.121-71.688-21.642-25.497-56.238-41.336-90.287-41.336s-68.646 15.839-90.288 41.336c-17.781 20.949-25.282 46.408-21.119 71.686l12.609 76.677c-6.589 2.853-13.819 3.842-20.897 2.776-10.071-1.518-19.016-6.952-25.187-15.3-6.167-8.342-8.728-18.463-7.209-28.497l22.622-149.285c1.361-8.982-.877-17.972-6.303-25.313-5.423-7.339-13.366-12.126-22.362-13.48-15.148-2.285-29.517 5.818-35.839 18.951l-16.081-2.435c-18.942-2.826-36.671 10.241-39.54 29.13l-6.009 39.787c-1.389 9.141.89 18.296 6.415 25.775 5.516 7.468 13.586 12.344 22.736 13.731l14.59 2.193-7.683 50.766c-4.241 27.97 2.797 56.058 19.817 79.09 17.016 23.028 41.823 38.039 69.86 42.269 5.206.78 10.45 1.168 15.69 1.167 8.95 0 17.875-1.158 26.55-3.393l4.113 25.014c.794 4.832 4.971 8.377 9.867 8.377h24.669v113.547c0 5.523 4.477 10 10 10h77.956c5.522 0 10-4.477 10-10v-113.548h24.669c4.896 0 9.073-3.545 9.867-8.377l4.114-25.014c8.674 2.234 17.598 3.392 26.549 3.392 5.242 0 10.493-.388 15.701-1.168 28.017-4.229 52.819-19.239 69.839-42.266 17.026-23.036 24.068-51.125 19.829-79.088l-7.684-50.773 14.571-2.19c9.15-1.384 17.229-6.259 22.75-13.725 5.529-7.48 7.81-16.636 6.421-25.778zm-479.07 19.727c-3.865-.586-7.287-2.659-9.635-5.837-2.345-3.173-3.313-7.04-2.727-10.897l6.009-39.787c1.217-8.008 8.75-13.549 16.795-12.347l14.577 2.208-10.421 68.856zm96.573 174.316c-22.751-3.432-42.905-15.641-56.749-34.377-13.839-18.727-19.566-41.529-16.128-64.209l22.594-149.286c1.162-7.684 8.357-12.993 16.064-11.83 3.72.56 7.008 2.545 9.258 5.59 2.244 3.036 3.172 6.741 2.613 10.431l-22.623 149.287c-2.319 15.327 1.552 30.733 10.9 43.38 9.344 12.64 22.942 20.876 38.29 23.189 9.16 1.381 18.467.509 27.186-2.424l4.604 27.995c-11.681 3.27-23.984 4.057-36.009 2.254zm155.872 154.491h-57.956v-103.547h57.956zm36.179-123.546h-130.314l-26.516-161.247c-4.092-24.852 6.786-43.896 16.632-55.497 17.947-21.144 46.701-34.279 75.041-34.279s57.094 13.135 75.041 34.279c9.847 11.6 20.725 30.645 16.633 55.497v.002zm118.477-65.322c-13.848 18.737-33.999 30.946-56.73 34.376-12.029 1.804-24.334 1.018-36.018-2.253l4.604-27.998c8.717 2.93 18.025 3.801 27.187 2.426 15.337-2.313 28.925-10.549 38.265-23.19 9.346-12.648 13.215-28.053 10.895-43.378l-22.594-149.287c-.559-3.69.369-7.396 2.612-10.435 2.247-3.043 5.526-5.028 9.23-5.586 7.71-1.157 14.93 4.146 16.093 11.831l22.594 149.288c3.437 22.673-2.294 45.475-16.138 64.206zm49.466-145.78c-2.351 3.18-5.781 5.254-9.649 5.839l-14.582 2.192-10.42-68.852 14.555-2.204c8.049-1.199 15.587 4.327 16.788 12.342l6.038 39.798c.585 3.849-.385 7.714-2.73 10.885z" fill="#020288"/></g></svg>