<svg id="Capa_1" enable-background="new 0 0 511.952 511.952" height="512" viewBox="0 0 511.952 511.952" width="512" xmlns="http://www.w3.org/2000/svg"><g><path d="m453.524 80.033c-78.041-.926-143.838-27.527-190.276-76.927-3.891-4.146-10.684-4.139-14.574.002-46.41 49.398-112.196 75.998-190.245 76.925-5.476.065-9.881 4.523-9.881 10v207.265c0 54.068 41.216 103.74 58.935 122.585 37.868 40.291 89.469 72.805 145.296 91.552 2.043.689 4.322.688 6.365.001 55.842-18.742 107.453-51.256 145.325-91.551 17.721-18.847 58.937-68.519 58.937-122.587v-207.265c-.001-5.477-4.407-9.934-9.882-10zm-10.119 217.265c0 46.914-37.419 91.776-53.509 108.888-32.663 34.753-76.275 63.386-123.935 81.562v-118.65c0-5.523-4.478-10-10-10s-10 4.477-10 10v118.647c-47.646-18.18-91.248-46.812-123.907-81.561-16.088-17.11-53.507-61.973-53.507-108.887v-197.514c70.244-2.713 130.941-25.446 177.414-66.273v109.303c0 5.523 4.478 10 10 10s10-4.477 10-10v-109.31c46.494 40.831 107.202 63.568 177.443 66.281v197.514z" fill="#020288"/><g><path clip-rule="evenodd" d="m142.581 255.942c0 62.503 50.767 113.157 113.381 113.157 62.642 0 113.409-50.654 113.409-113.157 0-62.474-50.767-113.129-113.409-113.129-62.614 0-113.381 50.654-113.381 113.129z" fill="#a4fcc4" fill-rule="evenodd"/></g><path d="m265.961 223.453v-22.219c0-5.523-4.478-10-10-10s-10 4.477-10 10v22.221l-53.047 29.319c-4.834 2.671-6.587 8.755-3.915 13.589 1.824 3.301 5.239 5.165 8.761 5.165 1.636 0 3.296-.402 4.828-1.25l43.373-23.972v45.098l-19.018 10.525c-4.833 2.674-6.582 8.759-3.907 13.592 1.824 3.298 5.238 5.16 8.758 5.16 1.638 0 3.299-.403 4.833-1.252l19.337-10.701 19.365 10.704c1.534.848 3.192 1.25 4.829 1.25 3.521 0 6.937-1.864 8.761-5.164 2.672-4.834.919-10.918-3.914-13.59l-19.044-10.528v-45.098l43.404 23.977c1.532.847 3.19 1.249 4.826 1.249 3.522 0 6.938-1.865 8.762-5.167 2.671-4.834.917-10.918-3.918-13.589z" fill="#020288"/></g></svg>