<svg id="Capa_1" enable-background="new 0 0 512 512" height="512" viewBox="0 0 512 512" width="512" xmlns="http://www.w3.org/2000/svg"><g><g><path clip-rule="evenodd" d="m10 80.293h42.009v421.161h-42.009z" fill="#fff59b" fill-rule="evenodd"/></g><g><path clip-rule="evenodd" d="m336.97 333.029h165.03v69.689h-165.03z" fill="#fff59b" fill-rule="evenodd"/></g><g fill="#020288"><path d="m251.649 439.554h-114.319c-5.523 0-10 4.478-10 10s4.477 10 10 10h114.319c5.523 0 10-4.478 10-10s-4.477-10-10-10z"/><path d="m279.683 385.59h-170.387c-5.523 0-10 4.478-10 10s4.477 10 10 10h170.387c5.523 0 10-4.478 10-10s-4.477-10-10-10z"/><path d="m502 151.889h-155.03v-71.597c0-5.522-4.477-10-10-10h-30.988v-59.745c0-3.069-1.41-5.969-3.823-7.864s-5.564-2.579-8.546-1.851l-285.982 69.745c-4.414 1.078-7.631 5.171-7.631 9.715v421.161c0 5.522 4.477 10 10 10h326.97c5.523 0 10-4.478 10-10v-88.735h155.03c5.523 0 10-4.478 10-10v-240.829c0-5.523-4.477-10-10-10zm-216.018-81.597h-192.774l192.774-47.014zm40.988 421.161h-306.97v-401.161h306.97zm165.03-98.735h-145.03v-220.829h145.03z"/><path d="m194.475 136.588c-55.858 0-101.302 45.353-101.302 101.099 0 55.762 45.444 101.128 101.302 101.128 55.874 0 101.331-45.366 101.331-101.128 0-55.746-45.457-101.099-101.331-101.099zm80.69 91.099h-35.099c-.899-21.758-4.717-42.071-10.985-58.021-.918-2.337-1.886-4.552-2.895-6.656 26.19 11.099 45.365 35.518 48.979 64.677zm-80.69 91.128c-8.174 0-23.574-25.014-25.557-71.128h51.141c-1.984 46.114-17.401 71.128-25.584 71.128zm-25.556-91.128c1.983-46.096 17.382-71.099 25.556-71.099 8.183 0 23.599 25.003 25.585 71.099zm-6.128-64.685c-1.01 2.107-1.979 4.325-2.898 6.665-6.265 15.954-10.082 36.266-10.98 58.02h-35.1c3.614-29.165 22.789-53.589 48.978-64.685zm-48.978 84.685h35.1c.898 21.766 4.715 42.086 10.981 58.044.919 2.341 1.888 4.56 2.899 6.668-26.192-11.101-45.367-35.535-48.98-64.712zm112.373 64.704c1.009-2.105 1.977-4.321 2.896-6.659 6.267-15.955 10.086-36.277 10.984-58.046h35.1c-3.614 29.172-22.789 53.601-48.98 64.705z"/></g></g></svg>