<svg id="Capa_1" enable-background="new 0 0 512 512" height="512" viewBox="0 0 512 512" width="512" xmlns="http://www.w3.org/2000/svg"><g><g><path clip-rule="evenodd" d="m367.822 158.515h62.959c20.551 0 37.219-16.63 37.219-37.136 0-15.126-9.073-28.112-22.059-33.926-3.478-18.799-25.479-31.988-44.929-21.865-6.464-11.048-18.435-18.452-32.175-18.452-15.653 0-29.044 9.631-34.552 23.311 19.798 26.348 30.494 57.15 33.537 88.068z" fill="#b2f0fb" fill-rule="evenodd"/></g><g><path clip-rule="evenodd" d="m187.845 512h47.016c20.986 0 33.914-17.585 38.175-38.09l10.203-49.37h-27.885-88.003-27.885l10.232 49.37c4.262 20.505 17.161 38.09 38.147 38.09z" fill="#b2f0fb" fill-rule="evenodd"/></g><path d="m312.424 328.388c7.367-9.521 15.716-20.314 29.411-37.593 24.314-30.7 37.749-73.57 36.859-117.616-.965-47.74-18.648-91.959-49.792-124.51-30.021-31.385-71.767-48.669-117.549-48.669-45.763 0-87.498 17.284-117.519 48.668-31.144 32.552-48.827 76.77-49.792 124.511-.89 44.046 12.544 86.916 36.858 117.615 13.513 17.064 21.806 27.781 29.122 37.236 10.128 13.088 18.916 24.444 37.778 47.754l7.447 38.755h-36.216c-5.523 0-10 4.478-10 10s4.477 10 10 10h184.673c5.523 0 10-4.478 10-10s-4.477-10-10-10h-36.239l7.468-38.754c18.691-23.097 27.425-34.386 37.491-47.397zm2.026-265.894c59.787 62.489 54.321 162.076 11.708 215.881-10.25 12.933-17.517 22.245-23.616 30.107h-42.26c1.65-5.711 3.64-12.548 6.145-21.076 8.76-29.805 13.601-71.393 13.283-114.101-.346-46.309-6.739-89.305-18.004-121.072-4.117-11.59-8.637-20.654-13.284-27.744 25.422 6.353 48.146 19.311 66.028 38.005zm-103.097-42.494c11.069 0 22.847 14.553 31.504 38.924 22.856 64.45 20.718 167.259 4.381 222.844-3.383 11.515-5.833 19.972-7.77 26.715h-56.201c-1.938-6.743-4.388-15.2-7.771-26.717-16.336-55.583-18.475-158.392 4.38-222.837 8.659-24.376 20.426-38.929 31.477-38.929zm-114.773 258.377c-42.616-53.807-48.081-153.394 11.706-215.884 17.885-18.697 40.61-31.656 66.028-38.007-4.646 7.092-9.166 16.158-13.285 27.752-11.264 31.763-17.657 74.759-18.003 121.067-.318 42.708 4.523 84.296 13.282 114.099 2.506 8.529 4.495 15.367 6.146 21.078h-42.274c-6.101-7.866-13.356-17.167-23.6-30.105zm39.11 50.105h111.279c.014 0 .028.003.042.003.024 0 .048-.003.071-.003h39.954c-6.729 8.628-14.426 18.361-26.222 32.956h-98.894c-11.785-14.579-19.504-24.338-26.23-32.956zm39.923 86.058-6.36-33.102h84.223l-6.379 33.102z" fill="#020288"/></g></svg>