<svg id="Capa_1" enable-background="new 0 0 512 512" height="512" viewBox="0 0 512 512" width="512" xmlns="http://www.w3.org/2000/svg"><g><g><path clip-rule="evenodd" d="m281.84 221.367 44.312 44.214 181.184-180.81c6.219-6.205 6.219-16.393 0-22.598l-21.636-21.587c-6.219-6.234-16.429-6.234-22.677 0z" fill="#ffbdbc" fill-rule="evenodd"/></g><path d="m340.122 275.191c0-6.318-2.453-12.245-6.906-16.689l-44.312-44.214c-9.206-9.184-24.185-9.186-33.39 0l-20.878 20.832-7.399-7.383c-3.903-3.895-10.223-3.895-14.126 0l-54.175 54.055c-.972.972-1.755 2.167-2.254 3.448l-25.499 65.426-38.918 38.804c-8.707 8.688-13.502 20.277-13.502 32.635 0 9.716 2.976 18.951 8.475 26.68-16.792 11.276-39.823 9.519-54.663-5.289-8.105-8.086-12.571-18.892-12.575-30.427-.004-11.55 4.463-22.377 12.573-30.479l67.721-67.544.856.853c1.952 1.944 4.504 2.915 7.057 2.915 2.566 0 5.132-.981 7.085-2.943 3.897-3.913 3.884-10.245-.029-14.142l-15.851-15.787c-3.913-3.897-10.245-3.886-14.142.029-3.897 3.913-3.884 10.245.029 14.143l.823.82-67.679 67.503c-11.9 11.888-18.449 27.741-18.443 44.639.006 16.883 6.558 32.715 18.448 44.578 12.318 12.29 28.499 18.436 44.68 18.436 13.932 0 27.857-4.569 39.323-13.68 6.976 3.879 14.744 5.831 22.516 5.831 11.839 0 23.675-4.502 32.677-13.502l38.891-38.805 65.58-25.445c1.282-.495 2.472-1.276 3.446-2.244l54.176-54.055c1.88-1.876 2.937-4.423 2.937-7.079s-1.057-5.203-2.937-7.079l-7.368-7.351 20.846-20.8c4.454-4.445 6.907-10.372 6.907-16.69zm-146.71 120.501-41.987-41.894 18.336-47.046 70.803 70.645zm-49.902 44.896c-10.223 10.22-26.874 10.216-37.121-.008-4.919-4.908-7.628-11.47-7.628-18.477s2.709-13.568 7.625-18.475l33.345-33.246 37.07 36.987zm114.988-73.549-78.343-78.169 40.018-39.929 78.343 78.169zm60.591-89.317-20.878 20.832-49.418-49.308 20.847-20.8c1.393-1.391 3.744-1.389 5.137 0l44.312 44.214c.899.896 1.033 1.971 1.033 2.531s-.134 1.635-1.033 2.531z" fill="#020288"/></g></svg>