<svg id="Capa_1" enable-background="new 0 0 502 502" height="512" viewBox="0 0 502 502" width="512" xmlns="http://www.w3.org/2000/svg"><g><g><path clip-rule="evenodd" d="m203.671 372.573h94.659v129.427h-94.659z" fill="#b2f0fb" fill-rule="evenodd"/></g><g><path clip-rule="evenodd" d="m209.665 173.726h82.67l10.029-65.394h-102.699z" fill="#b2f0fb" fill-rule="evenodd"/></g><g><path clip-rule="evenodd" d="m200.943 218.853 15.682 104.341h68.75l15.682-104.341z" fill="#b2f0fb" fill-rule="evenodd"/></g><path d="m394.238 208.853h-22.408c-.019 0-.037 0-.056 0h-19.269v-25.127h12.443c4.394 0 8.272-2.867 9.561-7.067l20.057-65.394c.93-3.033.366-6.327-1.52-8.877-1.886-2.551-4.869-4.056-8.041-4.056h-52.557v-15.738c0-16.205-13.203-29.389-29.433-29.389h-42.015c0-.002 0-.004 0-.006v-33.199h14.858c5.522 0 10-4.478 10-10s-4.478-10-10-10h-49.717c-5.522 0-10 4.478-10 10s4.478 10 10 10h14.859v33.199.006h-42.017c-16.229 0-29.433 13.184-29.433 29.389v15.738h-52.557c-3.172 0-6.155 1.505-8.041 4.056-1.886 2.55-2.449 5.844-1.52 8.877l20.057 65.394c1.288 4.2 5.167 7.067 9.561 7.067h12.443v25.127h-41.732c-5.522 0-10 4.478-10 10s4.478 10 10 10h14.617l19.014 84.342h-6.557c-5.522 0-10 4.478-10 10s4.478 10 10 10h19.008c.015 0 .03.002.045.002.012 0 .024-.002.035-.002h16.906v19.933c0 16.236 13.229 29.445 29.488 29.445h101.363c16.26 0 29.488-13.209 29.488-29.445v-19.933h16.906c.012 0 .024.002.035.002.015 0 .03-.002.045-.002h19.008c5.522 0 10-4.478 10-10s-4.478-10-10-10h-6.557l19.014-84.342h14.617c5.522 0 10-4.478 10-10s-4.475-10-9.998-10zm-204.687-126.259c0-5.177 4.231-9.389 9.433-9.389h104.033c5.201 0 9.433 4.212 9.433 9.389v15.738h-122.899zm-59.03 35.738h240.959l-13.923 45.394h-213.114zm38.973 65.394h163.012v25.127h-163.012zm141.676 169.401c0 5.208-4.257 9.445-9.488 9.445h-101.364c-5.231 0-9.488-4.237-9.488-9.445v-19.933h120.34zm28.936-39.933h-178.212l-19.014-84.342h216.24z" fill="#020288"/></g></svg>