<svg id="Capa_1" enable-background="new 0 0 512.003 512.003" height="512" viewBox="0 0 512.003 512.003" width="512" xmlns="http://www.w3.org/2000/svg"><g><path d="m502.003 4.999h-138.98c-1.398 0-2.781.293-4.059.861l-353.02 156.786c-5.048 2.242-7.322 8.151-5.081 13.198 1.656 3.729 5.312 5.944 9.146 5.944 1.355 0 2.734-.278 4.053-.863l19.276-8.561v88.629c0 5.522 4.478 10 10 10s10-4.478 10-10v-97.511l50.383-22.376v82.186c0 5.522 4.478 10 10 10s10-4.478 10-10v-91.069l50.354-22.364v75.732c0 5.522 4.478 10 10 10s10-4.478 10-10v-84.614l50.354-22.364v69.277c0 5.522 4.478 10 10 10s10-4.478 10-10v-78.16l50.383-22.376v62.835c0 5.522 4.478 10 10 10s10-4.478 10-10v-71.719l30.331-13.471h20.023v64.694c0 5.522 4.478 10 10 10s10-4.478 10-10v-64.694h50.354v64.694c0 5.522 4.478 10 10 10s10-4.478 10-10v-64.694h26.481c5.522 0 10-4.478 10-10s-4.476-10-9.998-10z" fill="#020288"/><g><path clip-rule="evenodd" d="m502.003 81.873v128.41h-138.98l-237.51 113.94-9.01 4.32h-102.02v-79.43l329.07-157.89c15.93-7.65 21.06-9.35 37.67-9.35z" fill="#e2c4ff" fill-rule="evenodd"/></g><path d="m512.003 408.223c0-22.46-18.27-40.73-40.73-40.73h-40.17v-157.21h-20v157.21h-284.6v-38.95c0-1.55-.35-3.02-.99-4.32-1.61-3.36-5.04-5.68-9.01-5.68h-102.02c-5.52 0-10 4.48-10 10v110.41c0 5.52 4.48 10 10 10h30.94c-.5 2.81-.78 5.7-.78 8.65 0 27.24 22.15 49.4 49.38 49.4 27.24 0 49.4-22.16 49.4-49.4 0-2.95-.28-5.84-.78-8.65h231.2c-.5 2.81-.78 5.7-.78 8.65 0 27.24 22.15 49.4 49.37 49.4 27.24 0 49.4-22.16 49.4-49.4 0-2.95-.27-5.84-.77-8.65h.21c22.46 0 40.73-18.27 40.73-40.73zm-405.5-69.68v28.95h-82.02v-28.95zm-12.48 148.46c-16.2 0-29.38-13.19-29.38-29.4 0-16.2 13.18-29.37 29.38-29.37 16.21 0 29.4 13.17 29.4 29.37 0 16.21-13.19 29.4-29.4 29.4zm328.41 0c-16.19 0-29.37-13.19-29.37-29.4 0-16.2 13.18-29.37 29.37-29.37 16.21 0 29.4 13.17 29.4 29.37 0 16.21-13.19 29.4-29.4 29.4zm40.2-58.05c-8.97-12.53-23.64-20.72-40.2-20.72-16.54 0-31.2 8.19-40.17 20.72h-248.05c-8.97-12.53-23.64-20.72-40.19-20.72s-31.21 8.19-40.17 20.72h-29.37v-41.46h446.79c11.43 0 20.73 9.3 20.73 20.73s-9.3 20.73-20.73 20.73z" fill="#020288"/></g></svg>