<svg id="Capa_1" enable-background="new 0 0 512 512" height="512" viewBox="0 0 512 512" width="512" xmlns="http://www.w3.org/2000/svg"><g><g><path clip-rule="evenodd" d="m109.194 327.758h293.596l-146.784-257.222z" fill="#fff59b" fill-rule="evenodd"/></g><g fill="#020288"><path d="m313.042 229.486-47.036-25.988v-19.314c0-5.522-4.477-10-10-10s-10 4.478-10 10v19.314l-47.036 25.988c-4.834 2.671-6.588 8.755-3.917 13.589 1.824 3.302 5.239 5.166 8.762 5.166 1.636 0 3.294-.402 4.827-1.249l37.364-20.644v38.052l-16.522 9.113c-4.836 2.668-6.594 8.75-3.927 13.587 1.823 3.305 5.24 5.172 8.765 5.172 1.633 0 3.29-.401 4.821-1.245l16.863-9.301 16.863 9.301c1.531.844 3.188 1.245 4.821 1.245 3.524 0 6.942-1.867 8.765-5.172 2.667-4.837.909-10.919-3.927-13.587l-16.522-9.113v-38.052l37.364 20.644c1.533.847 3.191 1.249 4.827 1.249 3.522 0 6.938-1.865 8.762-5.166 2.671-4.834.917-10.918-3.917-13.589z"/><path d="m463.36 328.17-175.653-307.755c-7.389-12.979-18.911-20.415-31.56-20.415-.073 0-.143 0-.215 0-12.697 0-24.227 7.43-31.649 20.406l-175.629 307.761c-6.522 11.419-6.819 24.982-.773 35.397 6.08 10.476 17.6 16.483 31.607 16.483h134.723v121.953c0 5.522 4.477 10 10 10h63.59c5.523 0 10-4.478 10-10v-121.952h134.724c13.991 0 25.502-5.999 31.582-16.458 6.052-10.411 5.768-23.981-.747-35.42zm-185.559 163.83h-43.59v-111.952h43.59zm169.015-138.461c-2.476 4.258-7.417 6.509-14.291 6.509h-353.037c-6.885 0-11.833-2.256-14.31-6.522-2.48-4.272-2.157-10.188.844-15.442l175.627-307.757c3.755-6.565 8.96-10.327 14.353-10.327h.075c5.326 0 10.518 3.756 14.254 10.319l175.655 307.756c2.997 5.264 3.315 11.189.83 15.464z"/></g></g></svg>