<svg id="Capa_1" enable-background="new 0 0 512 512" height="512" viewBox="0 0 512 512" width="512" xmlns="http://www.w3.org/2000/svg"><g><g><path clip-rule="evenodd" d="m245.677 224.323c-33.352 33.278-33.352 87.22 0 120.498 33.324 33.25 87.386 33.25 120.739 0 33.352-33.278 33.352-87.22 0-120.498-33.353-33.249-87.415-33.249-120.739 0z" fill="#a4fcc4" fill-rule="evenodd"/></g><g><path clip-rule="evenodd" d="m38.888 369.766h168.494c-44.46-51.136-42.301-128.634 6.392-177.247 2.585-2.58 5.256-5.017 8.011-7.342h-182.897z" fill="#a4fcc4" fill-rule="evenodd"/></g><g fill="#020288"><path d="m473.592 405.802-47.885-47.779c15.577-25.252 22.769-55.087 20.327-84.92-2.705-33.054-17.152-64.186-40.681-87.662-20.576-20.531-46.001-33.346-72.631-38.449v-37.582c0-18.378-14.962-33.329-33.352-33.329h-48.438v-50.944c.001-13.861-11.303-25.137-25.198-25.137h-89.858c-13.879 0-25.17 11.276-25.17 25.137v50.943h-48.438c-18.406 0-33.381 14.951-33.381 33.329v336.126c0 18.361 14.975 33.3 33.381 33.3h5.568v23.165c0 5.522 4.477 10 10 10s10-4.478 10-10v-23.165h185.938v23.165c0 5.522 4.477 10 10 10s10-4.478 10-10v-23.165h5.597c18.39 0 33.352-14.938 33.352-33.3v-23.347c16.576-3.192 32.514-9.328 46.956-18.2l47.896 47.815c6.341 6.307 14.668 9.46 22.999 9.459 8.333 0 16.671-3.157 23.019-9.471 6.14-6.126 9.521-14.292 9.521-22.995s-3.382-16.868-9.522-22.994zm-342.886-380.665c0-2.832 2.319-5.137 5.17-5.137h89.858c2.818 0 5.199 2.353 5.199 5.137v50.943h-100.227zm182.016 420.398c0 7.334-5.99 13.3-13.352 13.3h-237.102c-7.378 0-13.381-5.966-13.381-13.3v-336.126c0-7.35 6.002-13.329 13.381-13.329h237.102c7.362 0 13.352 5.979 13.352 13.329v35.206c-38.165-1.8-76.931 11.809-106.012 40.825-26.53 26.471-41.14 61.677-41.14 99.133 0 37.455 14.61 72.661 41.14 99.132 23.523 23.472 54.717 37.883 87.834 40.581 6.072.495 12.143.572 18.177.284v20.965zm146.755-7.913c-4.908 4.882-12.893 4.88-17.787.014l-53.636-53.546c-1.935-1.931-4.493-2.923-7.068-2.923-1.998 0-4.005.597-5.74 1.813-47.954 33.644-112.892 27.992-154.41-13.434-22.742-22.691-35.266-52.869-35.266-84.974s12.524-62.283 35.266-84.975c46.979-46.873 123.415-46.872 170.391 0 41.507 41.415 47.169 106.17 13.464 153.974-2.806 3.979-2.337 9.402 1.11 12.842l53.665 53.546c2.352 2.347 3.646 5.484 3.646 8.837s-1.294 6.491-3.635 8.826z"/><path d="m341.084 254.647c-4.23-3.552-10.538-2.999-14.088 1.229l-30.93 36.842-12.194-10.322c-4.216-3.568-10.525-3.044-14.094 1.172-3.568 4.216-3.043 10.525 1.172 14.094l19.858 16.81c1.812 1.534 4.104 2.367 6.46 2.367.282 0 .566-.012.849-.036 2.65-.226 5.1-1.497 6.81-3.534l37.386-44.532c3.551-4.23 3.001-10.538-1.229-14.09z"/></g></g></svg>