<svg id="Capa_1" enable-background="new 0 0 512 512" height="512" viewBox="0 0 512 512" width="512" xmlns="http://www.w3.org/2000/svg"><g><g><path clip-rule="evenodd" d="m429.05 178.008v-49.625c0-6.971-5.708-12.666-12.694-12.666h-27.231c-6.986 0-12.694 5.695-12.694 12.666v28.802z" fill="#a4fcc4" fill-rule="evenodd"/></g><g><path clip-rule="evenodd" d="m135.54 157.185v-28.802c0-6.971-5.708-12.666-12.694-12.666h-27.232c-6.956 0-12.694 5.695-12.694 12.666v49.625z" fill="#a4fcc4" fill-rule="evenodd"/></g><path d="m499.826 195.257-172.182-68.121.375-3.622c4.495-43.272-4.181-80.572-23.802-102.337-12.489-13.854-29.163-21.177-48.217-21.177-19.069 0-35.753 7.326-48.249 21.186-19.62 21.764-28.295 59.061-23.801 102.328l.377 3.633-172.154 68.11c-3.815 1.51-6.321 5.196-6.321 9.299v59.682c0 5.522 4.477 10 10 10h183.748l8.069 77.72-62.943 59.463c-2 1.89-3.133 4.519-3.133 7.27v54.608c0 3.268 1.597 6.33 4.276 8.2 1.702 1.188 3.704 1.8 5.725 1.8 1.161 0 2.328-.202 3.447-.613l100.957-37.086 76.166 28.087c5.18 1.906 10.93-.751 12.836-5.936 1.906-5.184-.751-10.931-5.936-12.836l-79.614-29.355c-2.225-.818-4.671-.819-6.898-.001l-90.958 33.413v-35.972l63.4-59.895c2.263-2.138 3.401-5.207 3.08-8.303l-24.229-233.354c-3.91-37.644 2.929-69.306 18.763-86.869 8.718-9.675 19.954-14.579 33.392-14.579 13.424 0 24.648 4.901 33.363 14.568 15.835 17.564 22.674 49.231 18.764 86.881l-24.199 233.384c-.321 3.095.816 6.162 3.078 8.299l45.608 43.018c4.015 3.795 10.343 3.614 14.136-.399 3.794-4.014 3.615-10.343-.399-14.137l-42.021-39.627 8.062-77.749h183.756c5.522 0 10-4.478 10-10v-59.682c-.001-4.103-2.507-7.789-6.322-9.299zm-473.973 58.98v-42.884l160.62-63.547 11.05 106.431zm460.294 0h-171.682l11.036-106.441 160.646 63.557z" fill="#020288"/><g><path clip-rule="evenodd" d="m456.846 487.684c32.464-32.391 32.464-84.924 0-117.345-32.493-32.391-85.143-32.391-117.606 0-5.024 5.013-9.275 10.53-12.754 16.344-13.051 21.891-15.102 48.498-6.184 71.902 4.043 10.619 10.345 20.556 18.937 29.099 32.464 32.421 85.113 32.421 117.607 0z" fill="#a4fcc4" fill-rule="evenodd"/></g><g><path d="m389.481 460.695c-2.355 0-4.646-.832-6.458-2.364l-19.324-16.344c-4.217-3.567-4.744-9.877-1.178-14.094s9.876-4.743 14.094-1.178l11.662 9.863 29.963-35.681c3.554-4.229 9.859-4.777 14.089-1.228 4.229 3.552 4.779 9.859 1.228 14.089l-36.417 43.366c-1.71 2.036-4.159 3.307-6.808 3.533-.284.027-.569.038-.851.038z" fill="#020288"/></g></g></svg>