<svg id="Capa_1" enable-background="new 0 0 512 512" height="512" viewBox="0 0 512 512" width="512" xmlns="http://www.w3.org/2000/svg"><g><g><path clip-rule="evenodd" d="m210.887 416.067h90.197c12.189 0 22.138-9.956 22.138-22.089v-22.117h-134.473v22.117c0 12.133 9.978 22.089 22.138 22.089z" fill="#b2f0fb" fill-rule="evenodd"/></g><g><path clip-rule="evenodd" d="m72.531 93.642h366.938v236.332h-366.938z" fill="#b2f0fb" fill-rule="evenodd"/></g><g fill="#020288"><path d="m211.001 278.059h-89.034c-5.522 0-10 4.478-10 10s4.478 10 10 10h89.034c5.522 0 10-4.478 10-10s-4.478-10-10-10z"/><path d="m223.264 180.599-46.794-25.854v-19.215c0-5.522-4.478-10-10-10s-10 4.478-10 10v19.215l-46.794 25.854c-4.834 2.671-6.588 8.755-3.917 13.589 1.824 3.302 5.239 5.166 8.762 5.166 1.636 0 3.295-.402 4.827-1.249l37.122-20.51v37.765l-16.412 9.08c-4.833 2.674-6.583 8.759-3.909 13.591 1.825 3.299 5.238 5.161 8.759 5.161 1.638 0 3.298-.403 4.832-1.252l16.733-9.258 16.761 9.261c1.533.847 3.191 1.249 4.827 1.249 3.521 0 6.938-1.865 8.762-5.166 2.671-4.834.917-10.918-3.917-13.589l-16.436-9.081v-37.761l37.122 20.51c1.533.847 3.191 1.249 4.827 1.249 3.521 0 6.938-1.865 8.762-5.166 2.671-4.834.917-10.918-3.917-13.589z"/><path d="m270.131 196.382h127.329c5.522 0 10-4.478 10-10v-50.853c0-5.522-4.478-10-10-10h-127.329c-5.522 0-10 4.478-10 10v50.853c0 5.522 4.477 10 10 10zm10-50.853h107.329v30.853h-107.329z"/><path d="m370.635 246.507 11.741-1.098c5.499-.515 9.54-5.39 9.025-10.888-.514-5.499-5.391-9.539-10.887-9.026l-32.967 3.083c-4.714.44-8.597 4.309-9.026 9.03l-3.062 32.894c-.512 5.499 3.531 10.372 9.03 10.884.315.029.628.044.938.044 5.104 0 9.463-3.891 9.945-9.074l1.092-11.732 34.613 34.516c1.952 1.946 4.507 2.919 7.062 2.919 2.563 0 5.128-.98 7.081-2.938 3.899-3.911 3.891-10.243-.02-14.143z"/><path d="m502 361.861h-10.522v-296.473c0-13.047-10.641-23.661-23.72-23.661h-423.544c-13.063 0-23.691 10.614-23.691 23.661v296.474h-10.523c-5.522 0-10 4.478-10 10v54.189c0 24.385 19.872 44.223 44.299 44.223h423.402c24.427 0 44.299-19.838 44.299-44.223v-54.189c0-5.523-4.478-10.001-10-10.001zm-461.478-296.473c0-1.984 1.69-3.661 3.691-3.661h423.544c2.017 0 3.72 1.677 3.72 3.661v296.474h-430.955zm451.478 360.663c0 13.356-10.9 24.223-24.299 24.223h-423.402c-13.399-.001-24.299-10.867-24.299-24.223v-44.189h472z"/><path d="m302.161 227.206h-32.03c-5.522 0-10 4.478-10 10s4.478 10 10 10h32.03c5.522 0 10-4.478 10-10s-4.477-10-10-10z"/><path d="m302.161 278.059h-32.03c-5.522 0-10 4.478-10 10s4.478 10 10 10h32.03c5.522 0 10-4.478 10-10s-4.477-10-10-10z"/></g></g></svg>