<svg id="Capa_1" enable-background="new 0 0 512 512" height="512" viewBox="0 0 512 512" width="512" xmlns="http://www.w3.org/2000/svg"><g><g><path clip-rule="evenodd" d="m255.986 346.012c20.597 0 39.773-6.349 55.653-17.178v-50.399-.935c-15.881 10.828-35.057 17.178-55.653 17.178-20.568 0-39.744-6.349-55.625-17.178v51.334c15.881 10.829 35.057 17.178 55.625 17.178z" fill="#ffbdbc" fill-rule="evenodd"/></g><g><path clip-rule="evenodd" d="m350.588 340.683c22.784-6.548 42.614-24.037 54.403-51.193-30.71-24.037-65.682-26.759-93.352-11.055v50.399z" fill="#ffbdbc" fill-rule="evenodd"/></g><path d="m432.45 372.256c-9.798-14.646-25.334-24.808-48.894-31.983l-61.917-18.847v-38.722c24.32-18.34 40.725-46.594 43.144-78.682h6.913c20.051 0 36.364-16.286 36.364-36.305s-16.312-36.305-36.364-36.305h-6.591v-.46c0-19.95-5.512-39.439-15.929-56.457l-17.268-51.087c-.843-2.495-2.637-4.557-4.991-5.737-23.323-11.695-46.983-17.641-70.348-17.671-23.338.03-46.998 5.976-70.322 17.671-2.354 1.181-4.148 3.242-4.991 5.737l-15.978 47.273c-12.021 17.906-18.383 38.706-18.383 60.271v.46h-6.591c-20.051 0-36.364 16.286-36.364 36.305s16.312 36.305 36.364 36.305h6.902c2.417 32.094 18.836 60.347 43.155 78.687v38.717l-61.919 18.847c-23.558 7.176-39.093 17.338-48.892 31.983-9.381 14.021-13.564 31.891-13.564 57.944v71.8c0 5.522 4.477 10 10 10h360.028c5.523 0 10-4.478 10-10v-71.8c0-26.054-4.183-43.924-13.564-57.944zm-60.754-220.844c9.023 0 16.364 7.314 16.364 16.305s-7.341 16.305-16.364 16.305h-6.591v-32.609h6.591zm-224.801 32.609h-6.591c-9.023 0-16.364-7.314-16.364-16.305s7.341-16.305 16.364-16.305h6.591zm51.97-150.25c19.319-9.115 38.721-13.747 57.704-13.771 19.008.024 38.412 4.656 57.73 13.771l14.457 42.771-72.174 32.715-72.174-32.716zm-31.97 97.181c0-12.801 2.759-25.271 8.037-36.746l77.522 35.14c1.312.595 2.72.892 4.128.892s2.816-.297 4.128-.892l76.558-34.703c5.147 11.374 7.836 23.73 7.836 36.309v31.584c-12.923-2.675-23.614-12.162-28.865-21.391-1.428-2.511-3.872-4.281-6.702-4.855-2.83-.576-5.771.102-8.065 1.857-29.86 22.84-78.563 32.233-134.578 26.173v-33.368zm0 64.827v-11.346c25.962 2.618 51.268 2.129 73.794-1.463 25.194-4.019 46.803-11.731 64.403-22.974 9.305 11.19 23.405 20.66 40.013 22.819v12.963c0 49.019-39.979 88.898-89.119 88.898-49.125.002-89.091-39.878-89.091-88.897zm134.744 98.896v32.592l-18.334 57.046h-54.61l-18.334-57.046v-32.581c13.889 6.41 29.345 9.992 45.625 9.992 16.291 0 31.756-3.588 45.653-10.003zm-215.653 197.325v-61.8c0-42.46 11.732-59.662 48.281-70.795l42.674-12.989-32.085 49.149c-2.179 3.338-2.167 7.651.029 10.978l56.434 85.457zm139.3 0-60.094-90.999 32.069-49.125 45.035 140.124zm9.837-87.687h41.755l-20.878 64.96zm34.581 87.687 45.034-140.124 32.069 49.125-60.093 90.999zm156.31 0h-115.333l56.433-85.457c2.196-3.326 2.208-7.64.029-10.978l-32.085-49.149 42.672 12.989c36.551 11.133 48.283 28.335 48.283 70.795v61.8z" fill="#020288"/></g></svg>