<svg id="Capa_1" enable-background="new 0 0 512 512" height="512" viewBox="0 0 512 512" width="512" xmlns="http://www.w3.org/2000/svg"><g><g><path clip-rule="evenodd" d="m183.108 253.915v-190.683h-46.176c-6.406 0-11.65 5.232-11.65 11.596v179.087z" fill="#ffbdbc" fill-rule="evenodd"/></g><g><path clip-rule="evenodd" d="m386.689 253.915v-179.087c0-6.364-5.216-11.596-11.622-11.596h-46.204v190.683z" fill="#ffbdbc" fill-rule="evenodd"/></g><path d="m512 295.717c0-28.563-23.293-51.802-51.924-51.802h-63.387v-169.087c0-11.908-9.7-21.597-21.622-21.597h-68.292v-28.21c0-10.738-8.758-19.475-19.524-19.475h-62.531c-10.75 0-19.496 8.736-19.496 19.475v28.21h-68.292c-11.938 0-21.65 9.688-21.65 21.597v169.087h-63.387c-28.615 0-51.895 23.238-51.895 51.802 0 25.15 18.05 46.161 41.895 50.828v23.782c0 13.951 11.353 25.302 25.307 25.302h19.451v62.064c0 5.522 4.477 10 10 10s10-4.478 10-10v-62.064h19.423c13.954 0 25.307-11.351 25.307-25.302v-22.807h49.873v22.808c0 13.951 11.353 25.302 25.307 25.302h19.423v62.064c0 5.522 4.477 10 10 10s10-4.478 10-10v-62.064h19.451c13.955 0 25.307-11.351 25.307-25.302v-22.808h49.844v22.808c0 13.951 11.353 25.302 25.307 25.302h19.452v62.064c0 5.522 4.477 10 10 10s10-4.478 10-10v-62.064h19.423c13.954 0 25.307-11.351 25.307-25.302v-23.781c23.86-4.666 41.923-25.679 41.923-50.83zm-419.185 31.803c6.868-8.786 10.975-19.821 10.975-31.803 0-11.981-4.107-23.016-10.975-31.802h326.341c-6.868 8.785-10.975 19.82-10.975 31.802s4.107 23.017 10.975 31.803zm132.41-301.973h61.551v27.685h-61.551zm-89.942 49.281c0-.851.771-1.597 1.65-1.597h238.134c.864 0 1.622.746 1.622 1.597v169.087h-241.406zm-115.283 220.889c0-17.535 14.308-31.802 31.895-31.802s31.896 14.267 31.896 31.802c0 17.536-14.308 31.803-31.896 31.803-17.587 0-31.895-14.267-31.895-31.803zm111.383 74.61c0 2.874-2.43 5.302-5.307 5.302h-58.874c-2.877 0-5.307-2.428-5.307-5.302v-22.807h69.488zm159.361 0c0 2.874-2.43 5.302-5.307 5.302h-58.874c-2.877 0-5.307-2.428-5.307-5.302v-22.807h69.488zm154.026 5.302h-58.875c-2.876 0-5.307-2.428-5.307-5.302v-22.807h69.488v22.808c0 2.873-2.43 5.301-5.306 5.301zm15.306-48.109c-17.587 0-31.895-14.267-31.895-31.803 0-17.535 14.308-31.802 31.895-31.802 17.603 0 31.924 14.267 31.924 31.802 0 17.536-14.321 31.803-31.924 31.803z" fill="#020288"/><g><path clip-rule="evenodd" d="m10 506.453h492v-48.76h-86.653-159.361-159.333-86.653z" fill="#ffbdbc" fill-rule="evenodd"/></g></g></svg>