<svg id="Capa_1" enable-background="new 0 0 512 512" height="512" viewBox="0 0 512 512" width="512" xmlns="http://www.w3.org/2000/svg"><g><g><path clip-rule="evenodd" d="m10 180.796v150.408c30.982 0 56.125 25.087 56.125 56h151.679v-262.408h-151.679c0 30.913-25.143 56-56.125 56z" fill="#e2c4ff" fill-rule="evenodd"/></g><g><path clip-rule="evenodd" d="m269.819 176.836h146.945v49.75h-146.945z" fill="#e2c4ff" fill-rule="evenodd"/></g><g fill="#020288"><path d="m502 170.796c-25.434 0-46.125-20.636-46.125-46 0-5.522-4.478-10-10-10h-379.75c-5.523 0-10 4.478-10 10 0 25.364-20.691 46-46.125 46-5.523 0-10 4.478-10 10v150.408c0 5.522 4.477 10 10 10 25.434 0 46.125 20.636 46.125 46 0 5.522 4.477 10 10 10h379.75c5.522 0 10-4.478 10-10 0-25.364 20.691-46 46.125-46 5.522 0 10-4.478 10-10v-150.408c0-5.523-4.478-10-10-10zm-10 151.161c-28.466 4.328-51.023 26.838-55.367 55.247h-361.265c-4.345-28.409-26.902-50.919-55.368-55.247v-131.914c28.466-4.328 51.023-26.838 55.368-55.247h361.265c4.344 28.409 26.901 50.919 55.367 55.247z"/><path d="m176.833 252.818-52.945-29.248v-22.157c0-5.522-4.477-10-10-10s-10 4.478-10 10v22.158l-52.918 29.248c-4.833 2.671-6.586 8.756-3.915 13.589 1.824 3.301 5.239 5.165 8.761 5.165 1.636 0 3.295-.402 4.829-1.25l43.243-23.9v44.94l-18.957 10.469c-4.834 2.67-6.589 8.754-3.919 13.588 1.824 3.303 5.24 5.168 8.763 5.168 1.635 0 3.293-.402 4.826-1.248l19.291-10.653 19.318 10.655c1.532.845 3.188 1.246 4.821 1.246 3.524 0 6.942-1.867 8.765-5.172 2.667-4.836.91-10.919-3.926-13.586l-18.981-10.47v-44.942l43.274 23.905c1.533.847 3.191 1.249 4.827 1.249 3.522 0 6.938-1.865 8.762-5.167 2.669-4.833.915-10.917-3.919-13.587z"/><path d="m416.764 325.334h-146.946c-5.522 0-10 4.478-10 10s4.478 10 10 10h146.945c5.522 0 10-4.478 10-10s-4.477-10-9.999-10z"/><path d="m269.818 295.951h76.931c5.522 0 10-4.478 10-10s-4.478-10-10-10h-76.931c-5.522 0-10 4.478-10 10s4.478 10 10 10z"/></g></g></svg>