<svg id="Capa_1" enable-background="new 0 0 512 512" height="512" viewBox="0 0 512 512" width="512" xmlns="http://www.w3.org/2000/svg"><g><g><path clip-rule="evenodd" d="m255.986 291.396c19.615 0 35.489-15.838 35.489-35.41 0-19.543-15.874-35.41-35.489-35.41-19.587 0-35.489 15.867-35.489 35.41 0 19.572 15.902 35.41 35.489 35.41z" fill="#b2f0fb" fill-rule="evenodd"/></g><g><path clip-rule="evenodd" d="m205.502 187.23c-20.154-40.982-29.962-86.489-23.272-121.051-34.979 13.548-65.281 36.428-87.816 65.588l93.456 72.8c4.989-6.589 10.942-12.444 17.632-17.337z" fill="#b2f0fb" fill-rule="evenodd"/></g><g><path clip-rule="evenodd" d="m446.244 182.394c-13.578-34.901-36.51-65.135-65.734-87.62l-72.962 93.249c6.605 4.978 12.444 10.917 17.348 17.592 41.072-20.11 86.681-29.896 121.348-23.221z" fill="#b2f0fb" fill-rule="evenodd"/></g><g><path clip-rule="evenodd" d="m131.491 417.227 72.962-93.249c-6.605-5.006-12.472-10.945-17.376-17.592-41.073 20.081-86.682 29.895-121.32 23.22 13.577 34.901 36.509 65.107 65.734 87.621z" fill="#b2f0fb" fill-rule="evenodd"/></g><g><path clip-rule="evenodd" d="m417.586 380.233-93.456-72.8c-5.017 6.59-10.97 12.416-17.631 17.337 20.126 40.954 29.962 86.461 23.272 121.051 34.95-13.548 65.252-36.429 87.815-65.588z" fill="#b2f0fb" fill-rule="evenodd"/></g><path d="m511.972 250.666c-.013-37.865-18.122-57.105-33.312-66.578-18.424-11.491-43.918-15.921-73.717-12.812-24.822 2.589-51.369 10.16-77.228 21.96-2.023-2.3-4.154-4.502-6.387-6.599l77.092-98.542c17.01-21.742 21.778-44.443 13.084-62.284-7.824-16.056-24.989-25.264-47.098-25.264l-113.749.028c-38.037 0-57.326 18.159-66.81 33.393-11.456 18.401-15.856 43.828-12.726 73.532 2.606 24.727 10.185 51.16 21.982 76.903-2.313 2.026-4.526 4.162-6.634 6.399l-98.781-76.937c-21.832-17.002-44.604-21.744-62.481-13.01-16.019 7.83-25.207 24.941-25.207 46.952l.028 113.496c0 37.874 18.113 57.119 33.309 66.595 14.603 9.105 33.638 13.776 55.74 13.776 5.788 0 11.789-.32 17.973-.966 24.824-2.59 51.364-10.164 77.208-21.969 2.031 2.309 4.171 4.519 6.414 6.623l-77.091 98.514c-17.019 21.753-21.789 44.467-13.09 62.317 7.822 16.053 24.979 25.259 47.075 25.259l113.752-.028c38.05-.013 57.342-18.185 66.826-33.427 11.452-18.405 15.85-43.83 12.718-73.527-2.608-24.726-10.19-51.16-21.993-76.904 2.311-2.024 4.522-4.158 6.628-6.393l98.786 76.96c14.645 11.405 29.714 17.291 43.449 17.291 6.737 0 13.155-1.417 19.041-4.294 16.032-7.832 25.227-24.95 25.227-46.965zm-255.987 80.564c-41.595 0-75.435-33.754-75.435-75.244s33.84-75.245 75.435-75.245 75.435 33.755 75.435 75.245-33.84 75.244-75.435 75.244zm-55.159-286.693c9.898-15.899 26.664-23.962 49.834-23.962l113.749-.028c14.16 0 24.772 5.112 29.116 14.025 5.213 10.698 1.256 25.715-10.857 41.198l-77.264 98.761c-11.698-7.095-25.038-11.749-39.305-13.255v-48.034c0-5.522-4.478-10-10-10s-10 4.478-10 10v48.008c-13.074 1.349-25.371 5.347-36.347 11.44-22.202-50.295-25.947-100.81-8.926-128.153zm-156.906 266.39c-15.854-9.886-23.892-26.582-23.892-49.627l-.028-113.496c0-14.072 5.099-24.634 13.989-28.979 10.743-5.251 25.84-1.31 41.411 10.819l98.943 77.063c-7.111 11.69-11.77 25.021-13.268 39.279h-48.266c-5.522 0-10 4.478-10 10s4.478 10 10 10h48.266c1.364 12.988 5.357 25.205 11.433 36.116-50.497 22.207-101.184 25.912-128.588 8.825zm267.242 156.505c-9.901 15.913-26.674 23.985-49.851 23.993l-113.749.028c-14.147 0-24.752-5.11-29.094-14.021-5.219-10.708-1.259-25.736 10.862-41.23l77.27-98.742c11.69 7.084 25.018 11.73 39.271 13.236v48.26c0 5.522 4.478 10 10 10s10-4.478 10-10v-48.235c13.075-1.349 25.372-5.348 36.349-11.441 22.208 50.287 25.96 100.803 8.942 128.152zm166.83-74.269c-10.759 5.256-25.854 1.316-41.42-10.807l-98.948-77.087c7.075-11.63 11.722-24.884 13.245-39.058h48.292c5.522 0 10-4.478 10-10s-4.478-10-10-10h-48.241c-1.341-13.071-5.347-25.365-11.457-36.338 50.526-22.195 101.223-25.897 128.613-8.815 15.848 9.883 23.887 26.575 23.895 49.613l.029 113.497c0 14.076-5.105 24.644-14.008 28.995z" fill="#020288"/></g></svg>