<svg id="Capa_1" enable-background="new 0 0 512 512" height="512" viewBox="0 0 512 512" width="512" xmlns="http://www.w3.org/2000/svg"><g><g><path clip-rule="evenodd" d="m76.103 501.453 79.992-197.98h-60.008l-79.993 197.98z" fill="#fff59b" fill-rule="evenodd"/></g><g><path clip-rule="evenodd" d="m495.877 501.453-79.992-197.98h-59.98l79.992 197.98z" fill="#fff59b" fill-rule="evenodd"/></g><g fill="#020288"><path d="m66.624 156.146c1.634 3.544 5.18 5.814 9.082 5.814h12.45v14.296c0 17.491 14.265 31.721 31.798 31.721s31.798-14.229 31.798-31.721v-14.296h34.995c.07 38.875 31.776 70.481 70.742 70.481 38.965 0 70.671-31.606 70.742-70.481h35.023v14.296c0 17.491 14.265 31.721 31.798 31.721 17.518 0 31.77-14.229 31.77-31.721v-14.296h12.479c3.904 0 7.452-2.272 9.085-5.82l16.695-36.286c2.308-5.018.112-10.956-4.905-13.265-5.019-2.309-10.956-.113-13.265 4.905l-14.017 30.466h-104.661v-8.242c0-35.546-26.457-65.027-60.745-69.892v-21.982h24.979c5.522 0 10-4.478 10-10s-4.478-10-10-10h-24.979v-11.297c0-5.522-4.478-10-10-10s-10 4.478-10 10v11.297h-24.978c-5.522 0-10 4.478-10 10s4.478 10 10 10h24.979v21.983c-34.289 4.865-60.745 34.346-60.745 69.892v8.242h-104.636l-14.045-30.472c-2.312-5.017-8.256-7.204-13.268-4.896-5.016 2.312-7.208 8.252-4.896 13.268zm316.629 5.815h23.567v14.296c0 6.463-5.28 11.721-11.77 11.721-6.505 0-11.798-5.258-11.798-11.721v-14.296zm-176.51-28.242c0-27.906 22.765-50.61 50.745-50.61s50.745 22.704 50.745 50.61v28.113c0 27.906-22.765 50.61-50.745 50.61s-50.745-22.704-50.745-50.61zm-98.587 28.242h23.596v14.296c0 6.463-5.293 11.721-11.798 11.721s-11.798-5.258-11.798-11.721z"/><path d="m229.783 132.744c7.895 3.141 17.799 4.711 27.709 4.711 9.905 0 19.817-1.57 27.723-4.709 5.134-2.037 7.643-7.851 5.604-12.983-2.037-5.134-7.851-7.646-12.983-5.604-11.033 4.38-29.652 4.382-40.66.002-5.127-2.04-10.946.464-12.988 5.596-2.042 5.13.463 10.945 5.595 12.987z"/><path d="m512 303.473c0-5.522-4.478-10-10-10h-492c-5.522 0-10 4.478-10 10s4.478 10 10 10h71.261l-74.438 184.234c-1.246 3.082-.878 6.582.981 9.338 1.858 2.756 4.966 4.408 8.29 4.408h479.782c3.324 0 6.432-1.652 8.29-4.408 1.859-2.756 2.228-6.256.981-9.338l-74.437-184.234h71.29c5.522 0 10-4.478 10-10zm-30.949 187.98h-215.066v-28.352c0-5.522-4.478-10-10-10s-10 4.478-10 10v28.352h-215.064l71.911-177.98h143.153v28.323c0 5.522 4.478 10 10 10s10-4.478 10-10v-28.323h143.155z"/><path d="m255.985 373.287c-5.522 0-10 4.478-10 10v38.323c0 5.522 4.478 10 10 10s10-4.478 10-10v-38.323c0-5.522-4.477-10-10-10z"/></g></g></svg>