<svg id="Capa_1" enable-background="new 0 0 512 512" height="512" viewBox="0 0 512 512" width="512" xmlns="http://www.w3.org/2000/svg"><g><g><path clip-rule="evenodd" d="m10 10.547h62.843v490.906h-62.843z" fill="#fff59b" fill-rule="evenodd"/></g><g><path clip-rule="evenodd" d="m439.129 10.547h62.871v490.906h-62.871z" fill="#fff59b" fill-rule="evenodd"/></g><g fill="#020288"><path d="m502 .547h-492c-5.523 0-10 4.478-10 10v490.906c0 5.522 4.477 10 10 10h492c5.523 0 10-4.478 10-10v-490.906c0-5.523-4.477-10-10-10zm-10 490.906h-226.014v-33.019c0-5.522-4.477-10-10-10s-10 4.478-10 10v33.019h-225.986v-470.906h225.986v33.019c0 5.522 4.477 10 10 10s10-4.478 10-10v-33.019h226.014z"/><path d="m255.986 153.137c5.523 0 10-4.478 10-10v-43.018c0-5.522-4.477-10-10-10s-10 4.478-10 10v43.018c0 5.522 4.477 10 10 10z"/><path d="m255.986 177.626c-11.828 0-22.189 4.558-29.963 13.182-11.512 12.77-16.719 34.175-14.37 58.932l-35.495 15.728v-17.938c0-5.522-4.477-10-10-10s-10 4.478-10 10v26.8l-26.309 11.658c-3.617 1.603-5.949 5.187-5.949 9.143v32.978c0 5.522 4.477 10 10 10h87.707l2.962 26.209-33.134 31.302c-2 1.89-3.133 4.519-3.133 7.27v30.178c0 3.269 1.597 6.331 4.278 8.201 1.702 1.188 3.703 1.799 5.723 1.799 1.162 0 2.33-.202 3.451-.614l54.233-19.944 54.261 19.944c3.069 1.13 6.493.686 9.173-1.186 2.68-1.87 4.277-4.932 4.277-8.2v-30.178c0-2.749-1.132-5.378-3.13-7.267l-33.137-31.33 2.96-26.184h87.709c5.523 0 10-4.478 10-10v-32.979c0-3.956-2.333-7.541-5.95-9.144l-26.336-11.666v-26.791c0-5.522-4.477-10-10-10s-10 4.478-10 10v17.932l-35.458-15.707c2.54-24.439-2.564-45.792-14.098-58.706-7.843-8.78-18.311-13.422-30.272-13.422zm-112.086 140.481v-16.471l70.077-31.051 5.37 47.522zm159.798 89.088v11.54l-44.263-16.269c-1.113-.409-2.281-.614-3.45-.614s-2.337.205-3.452.614l-44.232 16.267v-11.536l33.632-31.771c2.286-2.159 3.423-5.268 3.069-8.393l-13.368-118.303c-2-19.245 1.456-35.893 9.244-44.532 3.987-4.423 8.929-6.572 15.108-6.572 6.279 0 11.302 2.207 15.356 6.746 7.806 8.739 11.183 25.288 9.034 44.269l-8.818 78.01c-.034.235-.062.47-.08.71l-4.481 39.645c-.353 3.123.783 6.23 3.066 8.39zm64.402-89.088h-75.449l5.37-47.512 70.079 31.042z"/></g></g></svg>