<svg id="Capa_1" enable-background="new 0 0 512 512" height="512" viewBox="0 0 512 512" width="512" xmlns="http://www.w3.org/2000/svg"><g><g><path clip-rule="evenodd" d="m118.289 35.729 88.815 110.369 81.076-53.799-118.949-81.772z" fill="#b2f0fb" fill-rule="evenodd"/></g><path d="m511.72 231.917c1.247-5.083-1.785-10.411-6.787-11.942l-38.043-11.625c-5.284-1.617-10.873 1.359-12.486 6.642-1.614 5.282 1.359 10.872 6.641 12.486l13.975 4.27-105.923 52.471c-4.949 2.451-6.974 8.452-4.522 13.4 1.745 3.524 5.287 5.564 8.969 5.564 1.491 0 3.005-.335 4.431-1.041l105.979-52.499-5.05 13.721c-1.907 5.184.748 10.932 5.931 12.839 1.14.419 2.306.618 3.453.618 4.072-.001 7.898-2.506 9.386-6.549l13.72-37.28c.129-.346.238-.715.326-1.075z" fill="#020288"/><path d="m473.973 86.69c-6.62-13.326-15.117-24.6-25.02-33.428-.065-.058-.128-.119-.194-.175-10.224-9.063-21.94-15.524-34.645-18.929-26.285-7.045-54.932-.97-82.843 17.562l-218.195 144.743-28.785-17.95c-26.529-16.545-62.819-16.002-77.66 1.167-5.176 5.987-14.838 22.716 7.161 48.687.083.098.167.193.254.288l23.137 25.277c28.767 34.632 56.77 44.635 79.532 44.635 15.073 0 27.849-4.39 37.017-8.923l94.173-46.558c4.951-2.447 10.54-12.136 8.092-17.087s-12.004-3.293-16.955-.842l-94.174 46.558c-31.082 15.369-63.049 4.74-92.443-30.736-.105-.127-.213-.251-.324-.372l-23.167-25.309c-4.053-4.812-12.554-16.314-7.174-22.538 6.712-7.763 31.481-10.04 51.945 2.725l34.244 21.355c3.325 2.072 7.554 2.015 10.82-.152l223.56-148.303c22.995-15.268 46.028-20.423 66.607-14.908 4.843 1.297 9.514 3.197 13.969 5.653l-27.267 13.484c-4.951 2.448-6.98 8.447-4.531 13.397 1.744 3.527 5.288 5.57 8.972 5.57 1.488 0 3.001-.334 4.425-1.038l35.878-17.742c6.027 6.362 11.319 14.01 15.674 22.777 2.354 4.752 2.704 10.164.987 15.237-1.715 5.068-5.277 9.149-10.037 11.497l-124.307 61.464c-4.951 2.447-18.645 19.183-16.197 24.134 2.448 4.95 20.112-3.755 25.062-6.205l124.298-61.459c9.548-4.708 16.696-12.883 20.126-23.018 3.431-10.141 2.718-20.983-2.015-30.538z" fill="#020288"/><g><path clip-rule="evenodd" d="m232.646 190.675 10.829 43.446 26.817 107.682 50.971-25.202 5.868-123.861 2.381-49.951z" fill="#b2f0fb" fill-rule="evenodd"/></g><g><path clip-rule="evenodd" d="m9.999 428.78h492.011v72.693h-492.011z" fill="#b2f0fb" fill-rule="evenodd"/></g></g></svg>