<svg id="Capa_1" enable-background="new 0 0 512 512" height="512" viewBox="0 0 512 512" width="512" xmlns="http://www.w3.org/2000/svg"><g><path d="m441.235 89.573c-.703-35.452-12.349-67.834-31.153-86.623-3.939-3.936-10.322-3.933-14.259.003l-356.703 356.714c-40.622 40.623-40.382 103.964-13.07 131.349 13.77 13.804 28.793 20.984 43.41 20.984 4.471 0 8.907-.673 13.254-2.032 19.817-6.201 34.568-26.164 39.457-53.399 3.718-20.683 14.04-41.149 27.605-54.737l34.361-34.362 22.857 22.851c1.969 1.968 4.549 2.953 7.13 2.952 2.581 0 5.162-.985 7.13-2.953l56.183-56.184c3.938-3.939 3.938-10.324 0-14.262-3.94-3.938-10.324-3.938-14.262 0l-49.052 49.055-77.884-77.862 266.097-266.104c23.823 33.366 31.374 105.43-15.414 168.297-.131.176-.832 1.125-1.675 2.269-1.342 1.819-3.058 4.144-3.316 4.487-3.356 4.441-2.48 10.761 1.959 14.121 4.44 3.362 10.766 2.486 14.126-1.955.223-.295 2.042-2.758 3.458-4.677.817-1.108 1.495-2.028 1.624-2.2 25.398-34.123 38.941-75.224 38.137-115.732zm-338.914 363.43c-3.537 19.702-13.118 33.802-25.63 37.717-11.033 3.452-23.947-1.501-36.362-13.947-9.135-9.159-14.152-26.33-13.094-44.812 1.248-21.811 10.534-42.421 26.146-58.032l27.115-27.116 48.269 48.271c-12.988 15.887-22.657 36.851-26.444 57.919zm40.325-72.564-47.888-47.889 27.219-27.219 47.888 47.889z" fill="#020288"/><g><path clip-rule="evenodd" d="m382.199 200.096c-67.89 0-122.92 55.031-122.92 122.923 0 4.823.287 9.559.804 14.21 7.033 61.203 59.049 108.742 122.116 108.742 67.89 0 122.92-55.06 122.92-122.952 0-63.902-48.772-116.436-111.15-122.349-3.876-.373-7.78-.574-11.77-.574zm-49.662 73.26c10.018-10.019 26.41-10.019 36.428 0l13.234 13.234 13.262-13.234c10.018-10.019 26.41-10.019 36.428 0s10.018 26.41 0 36.429l-13.262 13.234 13.262 13.263c10.018 10.019 10.018 26.41 0 36.429s-26.41 10.019-36.428 0l-13.262-13.263-13.234 13.263c-10.018 10.019-26.41 10.019-36.428 0s-10.018-26.41 0-36.429l13.234-13.263-13.234-13.234c-10.018-10.018-10.018-26.41 0-36.429z" fill="#ffbdbc" fill-rule="evenodd"/></g><g><path d="m413.675 390.324c-9.178 0-18.357-3.494-25.344-10.481l-6.124-6.125-6.103 6.117c-13.984 13.984-36.722 13.982-50.698.008-13.974-13.976-13.974-36.716 0-50.691l6.111-6.125-6.111-6.112c-13.975-13.975-13.975-36.714 0-50.69v.001-.001c6.75-6.75 15.752-10.468 25.345-10.468s18.594 3.717 25.344 10.469l6.111 6.111 6.131-6.119c6.742-6.743 15.743-10.461 25.338-10.461 9.593 0 18.594 3.717 25.344 10.469 13.975 13.975 13.975 36.714 0 50.69l-6.125 6.111 6.125 6.124c13.974 13.976 13.974 36.716 0 50.691-6.986 6.988-16.165 10.482-25.344 10.482zm-31.476-40.959c2.675 0 5.239 1.062 7.131 2.954l13.262 13.263c6.113 6.11 16.057 6.111 22.166-.001 6.112-6.112 6.112-16.056 0-22.169l-13.262-13.261c-1.892-1.893-2.955-4.46-2.953-7.137.001-2.676 1.066-5.242 2.961-7.132l13.262-13.234c6.104-6.104 6.104-16.049-.008-22.16-2.94-2.941-6.877-4.562-11.083-4.562s-8.143 1.62-11.083 4.561l-13.27 13.242c-3.939 3.931-10.319 3.928-14.254-.007l-13.234-13.234c-2.94-2.941-6.877-4.562-11.083-4.562s-8.143 1.62-11.083 4.561v.001c-6.112 6.111-6.112 16.056 0 22.167l13.233 13.235c3.935 3.935 3.938 10.313.008 14.253l-13.233 13.262c-6.12 6.12-6.12 16.064-.008 22.177 2.94 2.94 6.876 4.56 11.083 4.56 4.206 0 8.142-1.619 11.083-4.561l13.226-13.255c1.891-1.894 4.457-2.96 7.133-2.961zm-49.661-76.008h.01z" fill="#020288"/></g></g></svg>