<svg id="Capa_1" enable-background="new 0 0 512 512" height="512" viewBox="0 0 512 512" width="512" xmlns="http://www.w3.org/2000/svg"><g><g fill="#020288"><path d="m285.728 343.748-29.859-13.12v-30.119c0-5.571-4.516-10.086-10.086-10.086s-10.086 4.516-10.086 10.086v21.255l-51.946-22.825c-5.101-2.24-11.052.076-13.293 5.177s.077 11.051 5.177 13.293l65.945 28.976c.145.066.289.132.438.192l29.567 12.992v19.728h-97.405c-5.57 0-10.086 4.516-10.086 10.086s4.516 10.086 10.086 10.086h107.49c5.57 0 10.086-4.516 10.086-10.086v-36.399c.001-4.003-2.364-7.626-6.028-9.236z"/><path d="m117.576 379.295h-97.404v-19.726l97.689-42.908c5.101-2.24 7.42-8.191 5.179-13.291-2.242-5.102-8.196-7.42-13.291-5.179l-53.689 23.581v-21.265c0-5.571-4.516-10.086-10.086-10.086s-10.086 4.516-10.086 10.086v30.125l-29.858 13.116c-3.664 1.609-6.03 5.232-6.03 9.234v36.399c0 5.57 4.516 10.086 10.086 10.086h107.49c5.57 0 10.086-4.516 10.086-10.086s-4.515-10.086-10.086-10.086z"/></g><g><path d="m396.879 488.83c-22.832 0-45.945-15.475-45.945-45.051v-219.083c0-11.412-3.969-20.885-11.478-27.395-6.747-5.85-16.332-9.204-26.298-9.204-18.812 0-37.793 11.316-37.793 36.599v11.396c0 18.573-15.223 33.683-33.935 33.683s-33.934-15.11-33.934-33.683v-140.285c0-14.002-11.561-25.394-25.773-25.394-14.196 0-25.745 11.392-25.745 25.394v138.621c0 5.57-4.516 10.086-10.086 10.086s-10.086-4.516-10.086-10.086v-138.621c0-25.126 20.598-45.566 45.917-45.566 25.335 0 45.945 20.441 45.945 45.566v140.285c0 7.45 6.174 13.51 13.761 13.51 7.589 0 13.762-6.06 13.762-13.51v-11.396c0-37.272 29.16-56.772 57.966-56.772 14.966 0 28.999 5.02 39.513 14.135 12.06 10.457 18.435 25.201 18.435 42.637v219.083c0 17.186 12.944 24.878 25.773 24.878s25.773-7.692 25.773-24.878v-251.119c0-5.57 4.516-10.086 10.086-10.086s10.086 4.516 10.086 10.086v251.119c.001 29.576-23.112 45.051-45.944 45.051z" fill="#020288"/></g><g><path clip-rule="evenodd" d="m169.161 433.56 14.883-130.583c3.917-37.318-9.023-68.55-38.151-68.55-29.157 0-42.416 31.261-38.18 68.55l14.883 130.554-40.878 38.294v33.299h128.322v-33.299z" fill="#a4fcc4" fill-rule="evenodd"/></g><g><path clip-rule="evenodd" d="m463.491 85.301c0 16.822-13.752 30.457-30.753 30.457s-30.782-13.635-30.782-30.457c0-16.793 13.781-30.428 30.782-30.428 17.001-.001 30.753 13.635 30.753 30.428zm48.509 0c0-43.317-35.482-78.424-79.262-78.424s-79.262 35.107-79.262 78.424c2.147 51.584 35.569 87.409 79.262 118.039 43.693-30.63 77.115-66.455 79.262-118.039z" fill="#a4fcc4" fill-rule="evenodd"/></g></g></svg>