<svg id="Capa_1" enable-background="new 0 0 512 512" height="512" viewBox="0 0 512 512" width="512" xmlns="http://www.w3.org/2000/svg"><g><g><path clip-rule="evenodd" d="m300.242 105.137c0-58.239-20.068-95.05-44.242-95.05s-44.242 36.811-44.242 95.05v3.701c29.495 6.796 58.96 6.796 88.484 0z" fill="#ffbdbc" fill-rule="evenodd"/></g><g><path clip-rule="evenodd" d="m233.474 462.61h-59.625l9.311 49.39h41.003z" fill="#ffbdbc" fill-rule="evenodd"/></g><g><path clip-rule="evenodd" d="m328.84 512 9.311-49.39h-59.625l9.311 49.39z" fill="#ffbdbc" fill-rule="evenodd"/></g><g fill="#020288"><path d="m256 240.706c-5.57 0-10.086 4.516-10.086 10.086v85.537c0 5.57 4.516 10.086 10.086 10.086s10.086-4.516 10.086-10.086v-85.537c0-5.57-4.516-10.086-10.086-10.086z"/><path d="m472.156 244.129-49.661-33.042v-53.437c0-5.57-4.516-10.086-10.086-10.086s-10.086 4.516-10.086 10.086v40.016l-34.219-22.768v-53.422c0-5.57-4.516-10.086-10.086-10.086s-10.086 4.516-10.086 10.086v40.001l-37.603-25.019v-31.321c-.001-61.903-22.342-105.137-54.329-105.137s-54.328 43.234-54.328 105.136v31.32l-37.603 25.015v-39.997c0-5.57-4.516-10.086-10.086-10.086s-10.086 4.516-10.086 10.086v53.416l-34.219 22.764v-40.004c0-5.57-4.516-10.086-10.086-10.086s-10.086 4.516-10.086 10.086v53.426l-44.862 29.844c-4.638 3.085-5.896 9.347-2.811 13.985 1.943 2.92 5.145 4.5 8.408 4.5 1.919 0 3.86-.547 5.577-1.689l49.133-32.686c.162-.102.321-.206.476-.317l96.245-64.027v131.613l-154.519 18.953c-5.529.678-9.461 5.71-8.783 11.239.627 5.112 4.976 8.859 9.998 8.859.409 0 .824-.024 1.241-.076l152.063-18.652v38.759l-84.195 57.377c-2.756 1.88-4.405 4.999-4.405 8.335v45.516c0 5.57 4.516 10.086 10.086 10.086h265.655c5.57 0 10.086-4.516 10.086-10.086v-45.516c0-3.335-1.649-6.455-4.405-8.335l-84.166-57.377v-38.76l150.096 18.42c.417.052.831.076 1.241.076 5.022 0 9.371-3.746 9.998-8.859.679-5.529-3.253-10.561-8.783-11.239l-152.552-18.719v-131.612l96.378 64.125c.051.035.102.068.154.102l54.123 36.01c1.717 1.142 3.659 1.689 5.577 1.689 3.263 0 6.465-1.58 8.408-4.5 3.084-4.638 1.826-10.899-2.812-13.985zm-250.312-138.993c0-53.183 17.366-84.964 34.155-84.964s34.156 31.781 34.156 84.964v249.557l-34.155 81.753-34.155-81.753v-249.557zm-88.6 317.291 73.974-50.412 33.636 80.509h-107.61zm245.483 30.097h-107.582l33.636-80.507 73.946 50.409z"/></g><g><path clip-rule="evenodd" d="m476.545 220.082c13.417 0 24.405 10.266 24.405 22.845v76.948c0 12.55-10.988 22.816-24.405 22.816s-24.405-10.266-24.405-22.816v-76.948c-.001-12.579 10.987-22.845 24.405-22.845z" fill="#ffbdbc" fill-rule="evenodd"/></g><g><path clip-rule="evenodd" d="m35.455 220.082c-13.417 0-24.405 10.266-24.405 22.845v76.948c0 12.55 10.988 22.816 24.405 22.816s24.405-10.266 24.405-22.816v-76.948c.001-12.579-10.987-22.845-24.405-22.845z" fill="#ffbdbc" fill-rule="evenodd"/></g></g></svg>