<svg id="Capa_1" enable-background="new 0 0 512 512" height="512" viewBox="0 0 512 512" width="512" xmlns="http://www.w3.org/2000/svg"><g><g><path clip-rule="evenodd" d="m178.331 64.431h85.075c14.986 0 27.276-12.234 27.276-27.216v-27.215h-139.628v27.216c0 14.981 12.262 27.215 27.277 27.215z" fill="#a4fcc4" fill-rule="evenodd"/></g><g><path d="m220.854 243.423c-5.523 0-10-4.478-10-10v-99.463c0-5.522 4.477-10 10-10s10 4.478 10 10v99.463c0 5.522-4.477 10-10 10z" fill="#020288"/></g><g><path d="m220.864 343.927c-31.691-.033-61.194-17.04-77.016-44.384-11.877-20.533-15.038-44.447-8.9-67.338 6.145-22.915 20.871-42.066 41.465-53.926 4.786-2.756 10.9-1.11 13.656 3.676s1.11 10.9-3.676 13.656c-15.959 9.189-27.369 24.025-32.127 41.773-4.752 17.724-2.304 36.242 6.894 52.144 12.262 21.191 35.139 34.373 59.704 34.398 24.562-.025 47.451-13.207 59.713-34.399 9.19-15.889 11.637-34.398 6.889-52.118-4.758-17.759-16.167-32.604-32.125-41.8-4.785-2.758-6.429-8.872-3.671-13.657 2.757-4.786 8.873-6.43 13.657-3.671 20.592 11.866 35.315 31.027 41.458 53.951 6.132 22.887 2.973 46.79-8.896 67.31-15.822 27.345-45.336 44.352-77.025 44.385z" fill="#020288"/></g><path d="m339.061 0h-236.414c-18.125 0-32.871 14.723-32.871 32.819v409.508c0 18.097 14.746 32.819 32.871 32.819h195.006c5.523 0 10-4.478 10-10s-4.477-10-10-10h-195.006c-7.097 0-12.871-5.751-12.871-12.819v-28.871h204.775c5.523 0 10-4.478 10-10s-4.477-10-10-10h-204.775v-360.637c0-7.068 5.774-12.819 12.871-12.819h236.414c7.097 0 12.871 5.751 12.871 12.819v326.263c0 5.522 4.477 10 10 10s10-4.478 10-10v-326.263c-.001-18.096-14.746-32.819-32.871-32.819z" fill="#020288"/><g><path clip-rule="evenodd" d="m283.552 403.456c-7.073 20.043-6.029 42.284 3.102 61.691 3.913 8.33 9.305 16.11 16.203 22.993 31.885 31.814 83.568 31.814 115.453 0s31.885-83.411 0-115.225c-15.595-15.56-35.943-23.485-56.379-23.832-21.334-.347-42.784 7.578-59.074 23.832-8.928 8.936-15.363 19.377-19.305 30.541z" fill="#a4fcc4" fill-rule="evenodd"/></g><g><path d="m352.191 461.813c-2.354 0-4.644-.832-6.456-2.363l-18.986-16.052c-4.217-3.566-4.746-9.876-1.18-14.093 3.565-4.219 9.874-4.748 14.093-1.181l11.322 9.573 29.288-34.888c3.551-4.229 9.859-4.781 14.089-1.229 4.23 3.551 4.78 9.859 1.229 14.089l-35.741 42.573c-1.709 2.036-4.158 3.308-6.807 3.534-.283.026-.567.037-.851.037z" fill="#020288"/></g></g></svg>