<svg id="Capa_1" enable-background="new 0 0 512 512" height="512" viewBox="0 0 512 512" width="512" xmlns="http://www.w3.org/2000/svg"><g><g><path clip-rule="evenodd" d="m214.448 41.474c0 12.263 5.363 23.311 13.856 30.889 9.073-1.157 18.319-1.735 27.682-1.735 9.392 0 18.638.578 27.711 1.735 8.493-7.578 13.856-18.626 13.856-30.889-.001-22.906-18.61-41.474-41.568-41.474-22.928 0-41.537 18.568-41.537 41.474z" fill="#b2f0fb" fill-rule="evenodd"/></g><g><path clip-rule="evenodd" d="m88.154 248.701c-2.696 12.118-4.116 24.699-4.116 37.599 0 12.928 1.42 25.509 4.116 37.599l61.422-37.599z" fill="#b2f0fb" fill-rule="evenodd"/></g><g><path clip-rule="evenodd" d="m218.332 118.841 37.653 61.286 37.682-61.286c-12.116-2.69-24.725-4.136-37.682-4.136-12.928 0-25.537 1.446-37.653 4.136z" fill="#b2f0fb" fill-rule="evenodd"/></g><g><path clip-rule="evenodd" d="m255.985 392.472-37.653 61.286c12.116 2.719 24.725 4.136 37.653 4.136 12.957 0 25.566-1.417 37.682-4.136z" fill="#b2f0fb" fill-rule="evenodd"/></g><g><path clip-rule="evenodd" d="m362.424 286.299 61.422 37.599c2.696-12.089 4.116-24.671 4.116-37.599 0-12.899-1.42-25.48-4.116-37.599z" fill="#b2f0fb" fill-rule="evenodd"/></g><g><path d="m255.985 467.894c-100.326 0-181.948-81.463-181.948-181.594 0-100.132 81.622-181.595 181.948-181.595 100.342 0 181.977 81.463 181.977 181.595 0 100.131-81.635 181.594-181.977 181.594zm0-343.189c-89.298 0-161.948 72.491-161.948 161.595s72.649 161.594 161.948 161.594c89.314 0 161.977-72.49 161.977-161.594s-72.662-161.595-161.977-161.595z" fill="#020288"/></g><g><path d="m255.985 512c-60.399 0-117.187-23.474-159.902-66.098-42.722-42.631-66.25-99.312-66.25-159.603 0-124.436 101.451-225.672 226.152-225.672 60.41 0 117.207 23.473 159.927 66.094 42.726 42.626 66.255 99.299 66.255 159.578 0 60.292-23.529 116.974-66.254 159.603-42.719 42.624-99.516 66.098-159.928 66.098zm0-431.372c-113.672 0-206.152 92.264-206.152 205.672 0 113.424 92.479 205.7 206.152 205.7 113.688 0 206.182-92.276 206.182-205.7 0-113.408-92.493-205.672-206.182-205.672z" fill="#020288"/></g><path d="m330.106 212.364c-2.523-2.526-6.206-3.517-9.653-2.595l-105.772 28.228c-3.413.903-6.167 3.667-7.081 7.073l-28.291 105.537c-.924 3.449.061 7.13 2.584 9.656 1.9 1.902 4.456 2.933 7.076 2.933.859 0 1.726-.11 2.578-.338l105.771-28.229c3.412-.917 6.166-3.656 7.081-7.073l28.291-105.536c.925-3.449-.06-7.129-2.584-9.656zm-107.666 54.591 52.945 52.828-72.278 19.29zm67.12 38.717-52.946-52.828 72.278-19.29z" fill="#020288"/></g></svg>