<svg id="Capa_1" enable-background="new 0 0 512 512" height="512" viewBox="0 0 512 512" width="512" xmlns="http://www.w3.org/2000/svg"><g><g><path clip-rule="evenodd" d="m256 303.414c64.669 0 117.076-52.291 117.076-116.816s-52.407-116.816-117.076-116.816-117.076 52.291-117.076 116.816 52.407 116.816 117.076 116.816z" fill="#fff59b" fill-rule="evenodd"/></g><g><path clip-rule="evenodd" d="m379.366 455.457c0-26.926-41.103-49.457-96.148-55.125l-27.218 55.125-27.218-55.125c-55.045 5.669-96.148 28.199-96.148 55.125 0 31.236 55.219 56.543 123.366 56.543s123.366-25.307 123.366-56.543z" fill="#fff59b" fill-rule="evenodd"/></g><g fill="#020288"><path d="m256 0c-103.107 0-186.991 83.707-186.991 186.598 0 41.334 13.267 80.494 38.364 113.246 23.374 30.503 56.143 53.406 92.657 64.854l47.003 95.188c1.686 3.412 5.161 5.572 8.967 5.572s7.281-2.16 8.967-5.572l47.003-95.188c36.515-11.447 69.283-34.351 92.657-64.854 25.098-32.752 38.364-71.912 38.364-113.246 0-102.891-83.884-186.598-186.991-186.598zm46.173 346.758c-2.708.776-4.963 2.658-6.211 5.185l-39.962 80.928-39.962-80.929c-1.248-2.526-3.503-4.408-6.211-5.185-71.136-20.395-120.818-86.254-120.818-160.16 0-91.862 74.912-166.597 166.991-166.597s166.991 74.735 166.991 166.598c0 73.906-49.682 139.765-120.818 160.16z"/><path d="m321.619 180.332-55.619-30.725v-23.456c0-5.522-4.478-10-10-10s-10 4.478-10 10v23.456l-55.619 30.725c-4.835 2.67-6.589 8.754-3.918 13.588 1.823 3.302 5.239 5.167 8.762 5.167 1.636 0 3.294-.402 4.826-1.249l45.949-25.383v48.068l-20.081 11.088c-4.835 2.669-6.59 8.753-3.92 13.588 1.823 3.303 5.239 5.168 8.763 5.168 1.635 0 3.293-.401 4.825-1.248l20.413-11.272 20.413 11.271c1.532.847 3.19 1.248 4.825 1.248 3.522 0 6.939-1.866 8.763-5.168 2.67-4.835.915-10.919-3.92-13.588l-20.081-11.088v-48.068l45.949 25.383c1.532.847 3.19 1.249 4.826 1.249 3.522 0 6.938-1.865 8.762-5.167 2.671-4.833.917-10.917-3.918-13.587z"/></g></g></svg>