<svg id="Capa_1" enable-background="new 0 0 512 512" height="512" viewBox="0 0 512 512" width="512" xmlns="http://www.w3.org/2000/svg"><g><g><path clip-rule="evenodd" d="m10 49.568v89.685h444.691v-89.685h-66.981v30.376c0 5.063-4.167 9.22-9.241 9.22h-40.308c-5.074 0-9.241-4.158-9.241-9.22v-30.376h-193.149v30.376c0 5.063-4.167 9.22-9.241 9.22h-40.308c-5.074 0-9.241-4.158-9.241-9.22v-30.376z" fill="#e2c4ff" fill-rule="evenodd"/></g><g><path clip-rule="evenodd" d="m73.637 204.643v40.925c0 6.675 5.471 12.133 12.16 12.133h41.017c6.69 0 12.16-5.459 12.16-12.133v-40.925c0-6.675-5.471-12.133-12.16-12.133h-41.017c-6.69 0-12.16 5.458-12.16 12.133z" fill="#e2c4ff" fill-rule="evenodd"/></g><g><path clip-rule="evenodd" d="m199.691 204.643v40.925c0 6.675 5.471 12.133 12.132 12.133h41.045c6.661 0 12.132-5.459 12.132-12.133v-40.925c0-6.675-5.471-12.133-12.132-12.133h-41.045c-6.661 0-12.132 5.458-12.132 12.133z" fill="#e2c4ff" fill-rule="evenodd"/></g><g><path clip-rule="evenodd" d="m325.717 204.643v40.925c0 6.675 5.471 12.133 12.16 12.133h41.017c6.69 0 12.16-5.459 12.16-12.133v-40.925c0-6.675-5.471-12.133-12.16-12.133h-41.017c-6.689 0-12.16 5.458-12.16 12.133z" fill="#e2c4ff" fill-rule="evenodd"/></g><g><path clip-rule="evenodd" d="m199.691 343.71v40.925c0 6.675 5.471 12.133 12.132 12.133h41.045c6.661 0 12.132-5.459 12.132-12.133v-40.925c0-6.675-5.471-12.133-12.132-12.133h-41.045c-6.661 0-12.132 5.458-12.132 12.133z" fill="#e2c4ff" fill-rule="evenodd"/></g><g><path clip-rule="evenodd" d="m73.637 343.71v40.925c0 6.675 5.471 12.133 12.16 12.133h41.017c6.69 0 12.16-5.459 12.16-12.133v-40.925c0-6.675-5.471-12.133-12.16-12.133h-41.017c-6.69 0-12.16 5.458-12.16 12.133z" fill="#e2c4ff" fill-rule="evenodd"/></g><g fill="#020288"><path d="m464.69 314.949v-265.382c0-5.522-4.478-10-10-10h-56.981v-20.346c0-10.599-8.631-19.221-19.24-19.221h-40.309c-10.609 0-19.24 8.622-19.24 19.221v20.347h-173.149v-20.347c0-10.599-8.631-19.221-19.241-19.221h-40.308c-10.609 0-19.24 8.622-19.24 19.221v20.347h-56.982c-5.522 0-10 4.478-10 10v400.458c0 5.522 4.478 10 10 10h309.198c18.802 28.464 51.116 47.289 87.759 47.289 57.922 0 105.044-47.028 105.044-104.833-.001-36.537-18.831-68.762-47.311-87.533zm-125.77-294.949h38.789v59.164h-38.789zm-251.939 0h38.789v59.164h-38.789zm-66.981 420.025v-380.458h46.981v20.376c0 10.599 8.631 19.221 19.24 19.221h40.309c10.609 0 19.24-8.622 19.24-19.221v-20.376h173.15v20.376c0 10.599 8.631 19.221 19.24 19.221h40.309c10.609 0 19.24-8.622 19.24-19.221v-20.376h46.981v245.082c-11.717-4.517-24.44-7-37.734-7-57.922 0-105.044 47.027-105.044 104.832 0 13.224 2.473 25.882 6.971 37.544zm386.956 47.289c-46.894 0-85.044-38.056-85.044-84.833 0-46.776 38.15-84.832 85.044-84.832s85.044 38.056 85.044 84.832c0 46.778-38.15 84.833-85.044 84.833z"/><path d="m449.666 359.867c-3.9-3.909-10.232-3.915-14.143-.016l-12.709 12.681-48.566-13.914c-5.307-1.519-10.846 1.55-12.367 6.859s1.55 10.846 6.859 12.367l37.874 10.851-24.606 24.552-16.847-4.849c-5.304-1.526-10.848 1.536-12.376 6.845-1.527 5.308 1.537 10.848 6.845 12.376l17.192 4.948 4.933 17.141c1.262 4.384 5.261 7.237 9.605 7.237.916 0 1.847-.127 2.771-.393 5.308-1.528 8.372-7.068 6.845-12.376l-4.83-16.782 24.624-24.57 10.874 37.803c1.261 4.384 5.261 7.238 9.605 7.238.915 0 1.846-.127 2.77-.393 5.308-1.526 8.372-7.067 6.846-12.375l-13.924-48.408 12.709-12.681c3.91-3.9 3.916-10.231.016-14.141z"/></g></g></svg>