<?xml version="1.0"?>
<svg xmlns="http://www.w3.org/2000/svg" viewBox="0 0 32 32" width="512" height="512"><title>airplane, mode, phone</title><g id="airplane_mode_phone" data-name="airplane, mode, phone"><path d="M28.3711,15.0713,19,11.3232V6a.9993.9993,0,0,0-.293-.707l-2-2a.9994.9994,0,0,0-1.414,0l-2,2A.9993.9993,0,0,0,13,6v5.3232L3.6289,15.0713A1,1,0,0,0,3,16v2a1,1,0,0,0,1,1h9v5.3818l-1.4473.7237A1,1,0,0,0,11,26v2a1,1,0,0,0,1,1h8a1,1,0,0,0,1-1V26a1,1,0,0,0-.5527-.8945L19,24.3818V18a1,1,0,0,0-2,0v7a1,1,0,0,0,.5527.8945L19,26.6182V27H13v-.3818l1.4473-.7237A1,1,0,0,0,15,25V18a1,1,0,0,0-1-1H5v-.3232l9.3711-3.7481A1,1,0,0,0,15,12V6.4141l1-1,1,1V12a1,1,0,0,0,.6289.9287L27,16.6768V17H22a1,1,0,0,0,0,2h6a1,1,0,0,0,1-1V16A1,1,0,0,0,28.3711,15.0713Z"/></g></svg>
