<svg id="battery_saver_green" height="512" viewBox="0 0 32 32" width="512" xmlns="http://www.w3.org/2000/svg" xmlns:svg="http://www.w3.org/2000/svg" data-name="battery, saver, green"><path id="path4" d="m27.000004 13.999996v4a1 1 0 0 0 2 0v-4a1 1 0 0 0 -2 0z"/><path id="path6" d="m24.121104 22.121096a2.9815 2.9815 0 0 0 .8789-2.1211v-8a3.0008 3.0008 0 0 0 -3-3.0000004h-15.9999996a3.0008 3.0008 0 0 0 -3 3.0000004v8a3.0008 3.0008 0 0 0 3 3h15.9999996a2.9815 2.9815 0 0 0 2.1211-.8789zm-18.1210996-1.1211a1 1 0 0 1 -1-1v-8a1 1 0 0 1 1-1h15.9999996a1 1 0 0 1 1 1v8a1 1 0 0 1 -1 1z"/><path id="path8" d="m15.000004 18.999996v-2h2a1 1 0 0 0 0-2h-2v-2a1 1 0 0 0 -2 0v2h-2a1 1 0 0 0 0 2h2v2a1 1 0 0 0 2 0z"/></svg>