<svg height="512" viewBox="0 0 32 32" width="512" xmlns="http://www.w3.org/2000/svg"><g id="bluetooth_off_disconnected" data-name="bluetooth, off, disconnected"><path d="m12.667 16 6.933-5.2a.999.999 0 0 0 0-1.6l-8-6a1 1 0 0 0 -1.6.8v10l-4.4-3.3a1 1 0 1 0 -1.2 1.6l4.933 3.7-4.933 3.7a1 1 0 1 0 1.2 1.6l4.4-3.3v10a1 1 0 0 0 1.6.8l8-6a.999.999 0 0 0 0-1.6zm-.667-10 5.333 4-5.333 4zm0 20v-8l5.333 4z"/><path d="m25.4141 16 2.2929-2.293a1 1 0 0 0 -1.414-1.414l-2.293 2.2929-2.293-2.2929a1 1 0 0 0 -1.414 1.414l2.2929 2.293-2.2929 2.293a1 1 0 1 0 1.414 1.414l2.293-2.2929 2.293 2.2929a1 1 0 0 0 1.414-1.414z"/></g></svg>