<svg id="svg11" height="512" viewBox="0 0 32 32" width="512" xmlns="http://www.w3.org/2000/svg" xmlns:svg="http://www.w3.org/2000/svg"><g id="charge_charging_plug_energy" transform="matrix(0 1 -1 0 32 0)" data-name="charge, charging, plug, energy"><path id="path4" d="m22.1211 7.8789a2.9815 2.9815 0 0 0 -2.1211-.8789h-8a3.0008 3.0008 0 0 0 -3 3v16a3.0008 3.0008 0 0 0 3 3h8a3.0008 3.0008 0 0 0 3-3v-16a2.9815 2.9815 0 0 0 -.8789-2.1211zm-1.1211 18.1211a1 1 0 0 1 -1 1h-8a1 1 0 0 1 -1-1v-16a1 1 0 0 1 1-1h8a1 1 0 0 1 1 1z"/><path id="path6" d="m14 5h4a1 1 0 0 0 0-2h-4a1 1 0 0 0 0 2z"/><path id="path8" d="m18 17h-2.6123l1.56-4.6836a1 1 0 0 0 -1.8964-.6328l-2 6a.999.999 0 0 0 .9487 1.3164h2.6123l-1.5605 4.6836a1 1 0 1 0 1.8964.6328l2-6a.999.999 0 0 0 -.9482-1.3164z"/></g></svg>