<svg height="512" viewBox="0 0 32 32" width="512" xmlns="http://www.w3.org/2000/svg"><g id="echo_signal_medium_wifi" data-name="echo, signal, medium, wifi"><path d="m13.8789 23.0859a1 1 0 0 0 1.4141 1.4141 1 1 0 0 1 1.414 0 1 1 0 0 0 1.4141-1.4141 3.0025 3.0025 0 0 0 -4.2422 0z"/><path d="m10.3428 19.55a1 1 0 1 0 1.414 1.4141 6.0109 6.0109 0 0 1 8.4864 0 1 1 0 1 0 1.414-1.4141 8.0135 8.0135 0 0 0 -11.3144 0z"/><path d="m25.1919 16.0151a12.9976 12.9976 0 0 0 -18.3838 0 1 1 0 1 0 1.4141 1.4136 10.9994 10.9994 0 0 1 15.5556 0 1 1 0 1 0 1.4141-1.4136z"/></g></svg>