<svg id="svg11" height="512" viewBox="0 0 32 32" width="512" xmlns="http://www.w3.org/2000/svg" xmlns:svg="http://www.w3.org/2000/svg"><g id="low_battery_charge_phone" transform="matrix(0 1 -1 0 32 0)" data-name="low, battery, charge, phone"><path id="path4" d="m22.1211 7.8789a3.02 3.02 0 0 0 -2.1211-.8789h-8a3.02 3.02 0 0 0 -2.1211.8789 2.9794 2.9794 0 0 0 -.8789 2.1211v16a2.9794 2.9794 0 0 0 .8789 2.1211 3.02 3.02 0 0 0 2.1211.8789h8a3.02 3.02 0 0 0 2.1211-.8789 2.9794 2.9794 0 0 0 .8789-2.1211v-16a2.9794 2.9794 0 0 0 -.8789-2.1211zm-1.1211 18.1211a1 1 0 0 1 -1 1h-8a1 1 0 0 1 -1-1v-16a1 1 0 0 1 1-1h8a1 1 0 0 1 1 1z"/><path id="path6" d="m14 5h4a1 1 0 0 0 0-2h-4a1 1 0 0 0 0 2z"/><path id="path8" d="m18 23h-4a1 1 0 0 0 0 2h4a1 1 0 0 0 0-2z"/></g></svg>