<?xml version="1.0"?>
<svg xmlns="http://www.w3.org/2000/svg" viewBox="0 0 32 32" width="512" height="512"><g id="off_bluetooth_disconnect" data-name="off, bluetooth, disconnect"><path d="M18.2666,17.2a1,1,0,1,0-1.1992,1.6L21.333,22l-5.5547,4.166A1,1,0,0,0,14,26.7939V28a1,1,0,0,0,1.6.8l8-6a.999.999,0,0,0,0-1.6Z"/><path d="M21.333,10l-2.165,1.6235a1,1,0,1,0,1.1992,1.6006L23.6,10.8a1,1,0,0,0,0-1.6l-2-1.5A1,1,0,1,0,20.4,9.3Z"/><path d="M19.3164,3.0513a.9978.9978,0,0,0-1.2646.6323L17.69,4.7682,15.6,3.2A1,1,0,0,0,14,4V14.0005L9.6,10.7A1,1,0,1,0,8.4,12.3L13.334,16,8.4,19.7A1,1,0,1,0,9.6,21.3l3.44-2.58-2.9879,8.9639a1,1,0,1,0,1.8964.6328l8-24A1,1,0,0,0,19.3164,3.0513ZM17.0238,6.7675,16,9.8389V6Z"/></g></svg>
