<?xml version="1.0"?>
<svg xmlns="http://www.w3.org/2000/svg" viewBox="0 0 32 32" width="512" height="512"><g id="ringing_bell_notification" data-name="ringing, bell, notification"><path d="M27.8281,18.17A3.9775,3.9775,0,0,0,25.002,17H25V12A9,9,0,0,0,7,12v5a4,4,0,0,0,0,8h6v1a3,3,0,0,0,6,0V25h6a4.001,4.001,0,0,0,2.8281-6.83ZM17,26a1,1,0,0,1-2,0V25h2Zm8-3H7a2,2,0,0,1,0-4H20a1,1,0,0,0,0-2H9V12a7,7,0,0,1,14,0v6a1,1,0,0,0,1,1h1.002a2.0165,2.0165,0,0,1,1.4121.584A2.0012,2.0012,0,0,1,25,23Z"/></g></svg>
