<svg height="512" viewBox="0 0 32 32" width="512" xmlns="http://www.w3.org/2000/svg"><g id="search_bluetooth_device_connecting" data-name="search, bluetooth, device, connecting"><path d="m13.4238 16 6.9326-5.2a.999.999 0 0 0 0-1.6l-8-6a1 1 0 0 0 -1.6.8v10l-4.4-3.3a1 1 0 1 0 -1.1992 1.6l4.9328 3.7-4.9328 3.7a1 1 0 1 0 1.1992 1.6l4.4-3.3v10a1 1 0 0 0 1.6.8l8-6a.999.999 0 0 0 0-1.6zm-.667-10 5.333 4-5.333 4zm0 20v-8l5.333 4z"/><path d="m22.0508 13.2935a1 1 0 0 0 -1.416 1.413 1.83 1.83 0 0 1 .0009 2.587 1 1 0 1 0 1.4141 1.413 3.8287 3.8287 0 0 0 .001-5.413z"/><path d="m24.4639 9.2925a1 1 0 1 0 -1.4131 1.4145 7.4831 7.4831 0 0 1 0 10.584 1 1 0 1 0 1.414 1.4141 9.4817 9.4817 0 0 0 -.0009-13.4126z"/></g></svg>