<?xml version="1.0"?>
<svg xmlns="http://www.w3.org/2000/svg" viewBox="0 0 32 32" width="512" height="512"><g id="silent_bell_off" data-name="silent, bell, off"><path d="M27.8281,18.1719A3.9723,3.9723,0,0,0,25,17V12a9.1681,9.1681,0,0,0-.127-1.5166,1,1,0,1,0-1.9726.334A7.0475,7.0475,0,0,1,23,12v5H19a1,1,0,0,0,0,2h6a2,2,0,0,1,0,4H14a1,1,0,0,0-1,1v2.0381a2.9808,2.9808,0,0,0,.8682,2.0937A2.9442,2.9442,0,0,0,15.9639,29,3.04,3.04,0,0,0,19,25.9639V25h6a4,4,0,0,0,2.8281-6.8281ZM17,25.9639A1.0384,1.0384,0,0,1,15.9619,27,.9635.9635,0,0,1,15,26.0381V25h2Z"/><path d="M24.5547,3.168a.9987.9987,0,0,0-1.3867.2773l-1.2113,1.817A8.9926,8.9926,0,0,0,7,12v5a4,4,0,0,0,0,8H8.7982l-1.63,2.4453a1,1,0,1,0,1.664,1.1094l16-24A.9993.9993,0,0,0,24.5547,3.168ZM9,12A6.9929,6.9929,0,0,1,20.8338,6.9465L14.1159,17.0234A.9438.9438,0,0,0,14,17H9Zm1,11H7a2,2,0,0,1,0-4h5.7982l-2.6823,4.0234A.9438.9438,0,0,0,10,23Z"/></g></svg>
