<svg height="512" viewBox="0 0 32 32" width="512" xmlns="http://www.w3.org/2000/svg"><g id="sim_card_phone_chip_electronic" data-name="sim, card, phone, chip, electronic"><path d="m28.1211 6.8789a2.9815 2.9815 0 0 0 -2.1211-.8789h-20a3.0008 3.0008 0 0 0 -3 3v14a3.0008 3.0008 0 0 0 3 3h6a1 1 0 0 0 1-1v-5.72a6.2345 6.2345 0 0 0 0-6.5547v-4.7253h13a1 1 0 0 1 1 1v3h-7a1 1 0 0 0 -.8242.4336 5.9083 5.9083 0 0 0 -.1758 6.8594v4.707h-3.0391a1 1 0 0 0 0 2h10.0391a3.0033 3.0033 0 0 0 3-3v-14a2.9815 2.9815 0 0 0 -.8789-2.1211zm-22.8281 16.8281a1.0064 1.0064 0 0 1 -.293-.707v-3h6v4h-5a1.0064 1.0064 0 0 1 -.707-.293zm5.707-11.707h-3a1 1 0 0 0 0 2h3.4082a4.0927 4.0927 0 0 1 .0064 4h-6.4146v-9a1 1 0 0 1 1-1h5zm15 12h-5v-4h3a1 1 0 0 0 0-2h-3.4345a3.7783 3.7783 0 0 1 -.0137-4h6.4482v9a1.0006 1.0006 0 0 1 -1 1z"/></g></svg>