<svg height="512" viewBox="0 0 32 32" width="512" xmlns="http://www.w3.org/2000/svg"><g id="vibrate_shakes_phone" data-name="vibrate, shakes, phone"><path d="m20 5h-8a3.0008 3.0008 0 0 0 -3 3v16a3.0008 3.0008 0 0 0 3 3h8a3.0008 3.0008 0 0 0 3-3v-16a3.0008 3.0008 0 0 0 -3-3zm1 19a1 1 0 0 1 -1 1h-8a1 1 0 0 1 -1-1v-16a1 1 0 0 1 1-1h8a1 1 0 0 1 1 1z"/><path d="m2 13a1 1 0 0 0 -1 1v4a1 1 0 0 0 2 0v-4a1 1 0 0 0 -1-1z"/><path d="m30 13a1 1 0 0 0 -1 1v4a1 1 0 0 0 2 0v-4a1 1 0 0 0 -1-1z"/><path d="m6 9a1 1 0 0 0 -1 1v12a1 1 0 0 0 2 0v-12a1 1 0 0 0 -1-1z"/><path d="m26 9a1 1 0 0 0 -1 1v12a1 1 0 0 0 2 0v-12a1 1 0 0 0 -1-1z"/></g></svg>