<svg height="512" viewBox="0 0 32 32" width="512" xmlns="http://www.w3.org/2000/svg"><g id="wifi_signal_off_no_connection" data-name="wifi, signal, off, no, connection"><path d="m13.8789 23.5859a1 1 0 0 0 1.4141 1.4141 1 1 0 0 1 1.414 0 1 1 0 0 0 1.4141-1.4141 3.0025 3.0025 0 0 0 -4.2422 0z"/><path d="m17.6157 17.8711a1 1 0 0 0 -.4033 1.959 5.9808 5.9808 0 0 1 3.0308 1.6338 1 1 0 1 0 1.414-1.4141 7.9778 7.9778 0 0 0 -4.0415-2.1787z"/><path d="m21.5493 13.9478a1 1 0 0 0 -.8525 1.8085 10.9476 10.9476 0 0 1 3.0805 2.1724 1 1 0 0 0 1.4151-1.4136 12.9157 12.9157 0 0 0 -3.6431-2.5673z"/><path d="m28.728 12.979a18.1163 18.1163 0 0 0 -3.2392-2.5723 1 1 0 1 0 -1.0557 1.6983 16.14 16.14 0 0 1 2.8809 2.2881 1 1 0 0 0 1.414-1.4141z"/><path d="m24.707 7a1 1 0 0 0 -1.414 0l-1.6289 1.6288a18.0837 18.0837 0 0 0 -18.3921 4.3502 1 1 0 1 0 1.414 1.4141 16.0826 16.0826 0 0 1 15.3712-4.1573l-2.559 2.559a12.9309 12.9309 0 0 0 -10.69 3.72 1 1 0 1 0 1.4141 1.4141 10.9148 10.9148 0 0 1 7.34-3.198l-8.2693 8.2691a1 1 0 1 0 1.414 1.4141l16-16a1 1 0 0 0 0-1.4141z"/></g></svg>